G04 DipTrace 4.3.0.5*
G04 1-Top.gbr*
%MOMM*%
G04 #@! TF.FileFunction,Copper,L1,Top*
G04 #@! TF.Part,Single*
%AMOUTLINE0*
4,1,28,
-0.8,-1.18504,
-0.8,1.18504,
-0.78927,1.26656,
-0.7578,1.34252,
-0.70775,1.40775,
-0.64252,1.4578,
-0.56656,1.48927,
-0.48504,1.5,
0.48504,1.5,
0.56656,1.48927,
0.64252,1.4578,
0.70775,1.40775,
0.7578,1.34252,
0.78927,1.26656,
0.8,1.18504,
0.8,-1.18504,
0.78927,-1.26656,
0.7578,-1.34252,
0.70775,-1.40775,
0.64252,-1.4578,
0.56656,-1.48927,
0.48504,-1.5,
-0.48504,-1.5,
-0.56656,-1.48927,
-0.64252,-1.4578,
-0.70775,-1.40775,
-0.7578,-1.34252,
-0.78927,-1.26656,
-0.8,-1.18504,
0*%
%AMOUTLINE3*
4,1,28,
3.44,3.165,
3.44,-3.165,
3.43148,-3.22971,
3.40651,-3.29,
3.36678,-3.34178,
3.315,-3.38151,
3.25471,-3.40648,
3.19,-3.415,
-3.19,-3.415,
-3.25471,-3.40648,
-3.315,-3.38151,
-3.36678,-3.34178,
-3.40651,-3.29,
-3.43148,-3.22971,
-3.44,-3.165,
-3.44,3.165,
-3.43148,3.22971,
-3.40651,3.29,
-3.36678,3.34178,
-3.315,3.38151,
-3.25471,3.40648,
-3.19,3.415,
3.19,3.415,
3.25471,3.40648,
3.315,3.38151,
3.36678,3.34178,
3.40651,3.29,
3.43148,3.22971,
3.44,3.165,
0*%
%AMOUTLINE6*
4,1,28,
0.8,0.37625,
0.8,-0.37625,
0.79152,-0.44063,
0.76667,-0.50063,
0.72714,-0.55214,
0.67563,-0.59167,
0.61563,-0.61652,
0.55125,-0.625,
-0.55125,-0.625,
-0.61563,-0.61652,
-0.67563,-0.59167,
-0.72714,-0.55214,
-0.76667,-0.50063,
-0.79152,-0.44063,
-0.8,-0.37625,
-0.8,0.37625,
-0.79152,0.44063,
-0.76667,0.50063,
-0.72714,0.55214,
-0.67563,0.59167,
-0.61563,0.61652,
-0.55125,0.625,
0.55125,0.625,
0.61563,0.61652,
0.67563,0.59167,
0.72714,0.55214,
0.76667,0.50063,
0.79152,0.44063,
0.8,0.37625,
0*%
%AMOUTLINE9*
4,1,28,
0.85,1.53398,
0.85,-1.53398,
0.84434,-1.57695,
0.82776,-1.61699,
0.80137,-1.65137,
0.76699,-1.67776,
0.72695,-1.69434,
0.68398,-1.7,
-0.68398,-1.7,
-0.72695,-1.69434,
-0.76699,-1.67776,
-0.80137,-1.65137,
-0.82776,-1.61699,
-0.84434,-1.57695,
-0.85,-1.53398,
-0.85,1.53398,
-0.84434,1.57695,
-0.82776,1.61699,
-0.80137,1.65137,
-0.76699,1.67776,
-0.72695,1.69434,
-0.68398,1.7,
0.68398,1.7,
0.72695,1.69434,
0.76699,1.67776,
0.80137,1.65137,
0.82776,1.61699,
0.84434,1.57695,
0.85,1.53398,
0*%
%AMOUTLINE12*
4,1,28,
-0.85,-1.53398,
-0.85,1.53398,
-0.84434,1.57695,
-0.82776,1.61699,
-0.80137,1.65137,
-0.76699,1.67776,
-0.72695,1.69434,
-0.68398,1.7,
0.68398,1.7,
0.72695,1.69434,
0.76699,1.67776,
0.80137,1.65137,
0.82776,1.61699,
0.84434,1.57695,
0.85,1.53398,
0.85,-1.53398,
0.84434,-1.57695,
0.82776,-1.61699,
0.80137,-1.65137,
0.76699,-1.67776,
0.72695,-1.69434,
0.68398,-1.7,
-0.68398,-1.7,
-0.72695,-1.69434,
-0.76699,-1.67776,
-0.80137,-1.65137,
-0.82776,-1.61699,
-0.84434,-1.57695,
-0.85,-1.53398,
0*%
%AMOUTLINE15*
4,1,15,
-1.0,4.5,
1.0,4.5,
1.0,-3.5,
0.96593,-3.75882,
0.86603,-4.0,
0.70711,-4.20711,
0.5,-4.36603,
0.25882,-4.46593,
0.0,-4.5,
-0.25882,-4.46593,
-0.5,-4.36603,
-0.70711,-4.20711,
-0.86603,-4.0,
-0.96593,-3.75882,
-1.0,-3.5,
-1.0,4.5,
0*%
G04 #@! TA.AperFunction,Conductor*
%ADD16C,0.8*%
%ADD17C,1.0*%
%ADD18C,0.4*%
%ADD19C,0.95*%
%ADD20C,0.5*%
G04 #@! TA.AperFunction,CopperBalancing*
%ADD21C,0.635*%
%ADD22C,0.33*%
G04 #@! TA.AperFunction,Nonconductor*
%ADD23C,0.00033*%
%ADD26R,1.0X0.95*%
%ADD29R,0.8X1.2*%
%ADD32C,1.8796*%
%ADD33R,0.95X1.0*%
G04 #@! TA.AperFunction,ViaPad*
%ADD34C,1.2*%
%ADD51C,0.39216*%
%ADD52C,0.31373*%
%ADD54OUTLINE0*%
%ADD57OUTLINE3*%
%ADD60OUTLINE6*%
%ADD63OUTLINE9*%
%ADD66OUTLINE12*%
%ADD69OUTLINE15*%
%FSLAX35Y35*%
G04*
G71*
G90*
G75*
G01*
G04 Top*
%LPD*%
G36*
X-2880145Y-1118966D2*
X-2925508Y-1096534D1*
X-2931888Y-1090917D1*
X-2921879Y-882870D1*
X-2915500Y-888488D1*
X-2809434Y-1048255D1*
X-2880145Y-1118966D1*
G37*
X-2618900Y-2266400D2*
D16*
Y-2156400D1*
D17*
Y-1309500D1*
X-3000500Y-927900D1*
G36*
X-2809434Y-3477545D2*
X-2915500Y-3637312D1*
X-2921879Y-3642930D1*
X-2931888Y-3434883D1*
X-2925508Y-3429266D1*
X-2880145Y-3406834D1*
X-2809434Y-3477545D1*
G37*
X-2618900Y-2266400D2*
D16*
Y-2376400D1*
D17*
Y-3216300D1*
X-3000500Y-3597900D1*
G36*
X-3050500Y-3867900D2*
X-3084770Y-3756166D1*
Y-3739166D1*
X-2916230D1*
Y-3756166D1*
X-2950500Y-3867900D1*
X-3050500D1*
G37*
X-2655200Y-7415400D2*
D17*
X-2668200Y-7428400D1*
X-2820900Y-7275700D1*
Y-5908400D1*
X-3000500Y-3869000D2*
Y-3597900D1*
G36*
X-3050500Y-2087900D2*
X-3084770Y-1976166D1*
Y-1959166D1*
X-2916230D1*
Y-1976166D1*
X-2950500Y-2087900D1*
X-3050500D1*
G37*
G36*
X-2950500Y-2437900D2*
X-2916230Y-2549634D1*
Y-2566634D1*
X-3084770D1*
Y-2549634D1*
X-3050500Y-2437900D1*
X-2950500D1*
G37*
X-3000500Y-1817900D2*
D17*
Y-2275497D1*
Y-2707900D1*
G36*
X-2894326Y-2216695D2*
X-2838900Y-2206397D1*
X-2836008Y-2209160D1*
Y-2305753D1*
X-2838900Y-2302989D1*
X-2836336Y-2284547D1*
X-2894326Y-2216695D1*
G37*
X-3000500Y-2275497D2*
D17*
X-2897997D1*
X-2888900Y-2266400D1*
D16*
X-2798900D1*
G36*
X-2880145Y-2859566D2*
X-2915500Y-2852695D1*
X-2922889Y-2848494D1*
Y-2665868D1*
X-2915500Y-2670069D1*
X-2809434Y-2788855D1*
X-2880145Y-2859566D1*
G37*
X-2668000Y-7157000D2*
D17*
Y-5754713D1*
X-2784700Y-2884300D2*
X-2961100Y-2707900D1*
X-3000500D1*
G36*
X-3582500Y-3327900D2*
X-3548230Y-3439634D1*
Y-3456634D1*
X-3716770D1*
Y-3439634D1*
X-3682500Y-3327900D1*
X-3582500D1*
G37*
G36*
X-3682500Y-2977900D2*
X-3716770Y-2866166D1*
Y-2849166D1*
X-3548230D1*
Y-2866166D1*
X-3582500Y-2977900D1*
X-3682500D1*
G37*
X-3632500Y-3597900D2*
D17*
Y-2707900D1*
G36*
X-4026667Y-9122000D2*
X-3976667Y-9222000D1*
Y-9267000D1*
X-4076667Y-9672000D1*
X-4176667Y-9222000D1*
X-4126667Y-9122000D1*
X-4026667D1*
G37*
G36*
X-3718300Y-3867900D2*
X-3717500Y-3444528D1*
X-3643673Y-3682163D1*
X-3585494Y-3751086D1*
X-3588002Y-3767900D1*
X-3618300Y-3867900D1*
X-3718300D1*
G37*
G36*
X-4126667Y-9297828D2*
X-4165270Y-9124309D1*
X-4165109Y-9114913D1*
X-3982342Y-9117866D1*
X-3982503Y-9127262D1*
X-4026667Y-9297828D1*
X-4126667D1*
G37*
G36*
X-4026667Y-8909972D2*
X-3982554Y-9080343D1*
X-3982392Y-9089740D1*
X-4165065Y-9092691D1*
X-4165227Y-9083295D1*
X-4126667Y-8909972D1*
X-4026667D1*
G37*
X-4076667Y-9672000D2*
D17*
Y-8553567D1*
X-3668300Y-8145200D1*
Y-6695900D1*
Y-3902400D2*
Y-3597900D1*
X-3632500D1*
G36*
X-3583834Y-2481155D2*
X-3550835Y-2544522D1*
X-3548934Y-2552806D1*
X-3715591Y-2562256D1*
X-3717492Y-2553971D1*
X-3715634Y-2490076D1*
X-3583834Y-2481155D1*
G37*
X-3781800Y-2265300D2*
D19*
Y-2353200D1*
D17*
X-3623800Y-2511200D1*
Y-2699200D1*
X-3632500Y-2707900D1*
G36*
X-4093533Y-9237880D2*
X-4113533Y-9188943D1*
Y-9179545D1*
X-4033533D1*
Y-9188943D1*
X-4053533Y-9237880D1*
X-4093533D1*
G37*
G36*
X-4053533Y-9182000D2*
X-4034209Y-9222000D1*
X-4034546Y-9266999D1*
X-4113938D1*
X-4113602Y-9222000D1*
X-4093533Y-9182000D1*
X-4053533D1*
G37*
X-4073533Y-9103900D2*
D18*
Y-9668867D1*
X-4076667Y-9672000D1*
X-3984200Y-2448300D2*
D20*
X-3940600Y-2421000D1*
G36*
X-3582500Y-1547900D2*
X-3548230Y-1659634D1*
Y-1676634D1*
X-3716770D1*
Y-1659634D1*
X-3682500Y-1547900D1*
X-3582500D1*
G37*
G36*
X-3682500Y-1197900D2*
X-3716770Y-1086166D1*
Y-1069166D1*
X-3548230D1*
Y-1086166D1*
X-3582500Y-1197900D1*
X-3682500D1*
G37*
X-3632500Y-1817900D2*
D17*
Y-927900D1*
G36*
X-4421110Y-9122000D2*
X-4371110Y-9222000D1*
Y-9267000D1*
X-4471110Y-9672000D1*
X-4571110Y-9222000D1*
X-4521110Y-9122000D1*
X-4421110D1*
G37*
G36*
X-4521110Y-9297851D2*
X-4560436Y-9124716D1*
X-4560316Y-9115319D1*
X-4377549Y-9117505D1*
X-4377669Y-9126902D1*
X-4421110Y-9297851D1*
X-4521110D1*
G37*
G36*
X-4421110Y-8909949D2*
X-4377705Y-9080753D1*
X-4377585Y-9090151D1*
X-4560283Y-9092336D1*
X-4560403Y-9082939D1*
X-4521110Y-8909949D1*
X-4421110D1*
G37*
X-4471110Y-9672000D2*
D17*
Y-8668110D1*
X-3835100Y-8032100D1*
Y-6928500D1*
Y-2098300D2*
D19*
X-3941800D1*
Y-2265300D1*
G36*
X-3823566Y-1901455D2*
X-3717500Y-1780720D1*
X-3710176Y-1776406D1*
Y-1960143D1*
X-3717500Y-1964457D1*
X-3752855Y-1972166D1*
X-3823566Y-1901455D1*
G37*
X-3632500Y-1817900D2*
D17*
X-3669300D1*
X-3941800Y-2090400D1*
Y-2165300D1*
D19*
Y-2265300D1*
G36*
X-4488790Y-9237880D2*
X-4508790Y-9188943D1*
Y-9179545D1*
X-4428790D1*
Y-9188943D1*
X-4448790Y-9237880D1*
X-4488790D1*
G37*
G36*
X-4448790Y-9182000D2*
X-4429368Y-9222000D1*
X-4429617Y-9266999D1*
X-4509012D1*
X-4508763Y-9222000D1*
X-4488790Y-9182000D1*
X-4448790D1*
G37*
X-4468790Y-9103900D2*
D18*
Y-9669680D1*
X-4471110Y-9672000D1*
G36*
X-4000000Y-6757100D2*
X-3998000Y-6810251D1*
Y-6855251D1*
X-4082000D1*
Y-6810251D1*
X-4080000Y-6757100D1*
X-4000000D1*
G37*
X-4360100Y-5189800D2*
D17*
Y-5211600D1*
X-4040000Y-6853100D2*
D16*
Y-6519627D1*
X-4035600D1*
G36*
X-4169034Y-7739445D2*
X-4275100Y-7899212D1*
X-4281479Y-7904830D1*
X-4291488Y-7696783D1*
X-4285108Y-7691166D1*
X-4239745Y-7668734D1*
X-4169034Y-7739445D1*
G37*
X-4360100Y-7859800D2*
D17*
X-4035600Y-7535300D1*
Y-6627500D1*
D16*
Y-6519627D1*
G36*
X-4551166Y-8044155D2*
X-4445100Y-7823231D1*
X-4440010Y-7816423D1*
X-4381162Y-8022992D1*
X-4386251Y-8029800D1*
X-4480455Y-8114866D1*
X-4551166Y-8044155D1*
G37*
X-4360100Y-7859800D2*
D17*
Y-7923800D1*
X-4814600Y-8378300D1*
G36*
X-4410100Y-6349800D2*
X-4444370Y-6238066D1*
Y-6221066D1*
X-4275830D1*
Y-6238066D1*
X-4310100Y-6349800D1*
X-4410100D1*
G37*
G36*
X-4310100Y-6699800D2*
X-4275830Y-6811534D1*
Y-6828534D1*
X-4444370D1*
Y-6811534D1*
X-4410100Y-6699800D1*
X-4310100D1*
G37*
X-4360100Y-6079800D2*
D17*
Y-6517500D1*
Y-6969800D1*
G36*
X-4355447Y-6467500D2*
X-4255600Y-6459623D1*
X-4251601Y-6459705D1*
Y-6579598D1*
X-4255600Y-6579516D1*
X-4355447Y-6567500D1*
Y-6467500D1*
G37*
X-4215600Y-6519627D2*
D16*
X-4305600Y-6517500D1*
D17*
X-4360100D1*
G36*
X-4551166Y-7140855D2*
X-4445100Y-6929887D1*
X-4439747Y-6923285D1*
X-4385272Y-7133198D1*
X-4390626Y-7139800D1*
X-4480455Y-7211566D1*
X-4551166Y-7140855D1*
G37*
X-4607500Y-7221500D2*
D17*
X-4561100D1*
X-4371900Y-7032300D1*
Y-6981600D1*
X-4360100Y-6969800D1*
G36*
X-2274345Y-5393566D2*
X-2324334Y-5366783D1*
X-2330587Y-5361025D1*
X-2315953Y-5153184D1*
X-2309700Y-5158941D1*
X-2203634Y-5322855D1*
X-2274345Y-5393566D1*
G37*
X-2394700Y-5196900D2*
D17*
Y-5202500D1*
X-2000200Y-5597000D1*
Y-6164500D1*
Y-6404900D1*
D16*
Y-6519627D1*
G36*
X-2203634Y-7740345D2*
X-2309700Y-7904702D1*
X-2315940Y-7910474D1*
X-2331169Y-7702729D1*
X-2324930Y-7696957D1*
X-2274345Y-7669634D1*
X-2203634Y-7740345D1*
G37*
X-2394700Y-7866900D2*
D17*
Y-7860700D1*
X-2000200Y-7466200D1*
Y-6624900D1*
D16*
Y-6519627D1*
X-2214200Y-6164500D2*
D17*
X-2000200D1*
G36*
X-2444700Y-6356900D2*
X-2478970Y-6245166D1*
Y-6228166D1*
X-2310430D1*
Y-6245166D1*
X-2344700Y-6356900D1*
X-2444700D1*
G37*
G36*
X-2344700Y-6706900D2*
X-2310430Y-6818634D1*
Y-6835634D1*
X-2478970D1*
Y-6818634D1*
X-2444700Y-6706900D1*
X-2344700D1*
G37*
X-2394700Y-6086900D2*
D17*
Y-6505200D1*
Y-6659300D1*
Y-6976900D1*
G36*
X-2300200Y-6479627D2*
X-2220200Y-6459627D1*
X-2180200Y-6519627D1*
X-2216200Y-6579627D1*
X-2220200D1*
X-2300200Y-6559627D1*
Y-6479627D1*
G37*
X-2394700Y-6505200D2*
D17*
X-2380273Y-6519627D1*
D16*
X-2180200D1*
G36*
X-3076700Y-7246900D2*
X-3110970Y-7135166D1*
Y-7118166D1*
X-2942430D1*
Y-7135166D1*
X-2976700Y-7246900D1*
X-3076700D1*
G37*
G36*
X-2976700Y-7596900D2*
X-2942430Y-7708634D1*
Y-7725634D1*
X-3110970D1*
Y-7708634D1*
X-3076700Y-7596900D1*
X-2976700D1*
G37*
X-3026700Y-6976900D2*
D17*
Y-7866900D1*
G36*
X-3076700Y-8136900D2*
X-3110961Y-8025195D1*
Y-8008195D1*
X-2942439D1*
Y-8025195D1*
X-2976700Y-8136900D1*
X-3076700D1*
G37*
G36*
X-3237777Y-9122000D2*
X-3187777Y-9222000D1*
X-3287777Y-9672000D1*
X-3387777Y-9267000D1*
Y-9222000D1*
X-3337777Y-9122000D1*
X-3237777D1*
G37*
G36*
Y-8910040D2*
X-3192260Y-9079524D1*
X-3192014Y-9088919D1*
X-3374627Y-9093397D1*
X-3374873Y-9084002D1*
X-3337777Y-8910040D1*
X-3237777D1*
G37*
G36*
X-3337777Y-9297760D2*
X-3374937Y-9123500D1*
X-3374691Y-9114105D1*
X-3191935Y-9118586D1*
X-3192181Y-9127981D1*
X-3237777Y-9297760D1*
X-3337777D1*
G37*
X-3026700Y-7866900D2*
D17*
Y-7906500D1*
Y-8313700D1*
X-3287777Y-8574777D1*
Y-9672000D1*
G36*
X-3142342Y-6705848D2*
X-3041429Y-6806900D1*
X-3036651Y-6813930D1*
X-3106922Y-7017252D1*
X-3111700Y-7010222D1*
X-3213052Y-6776558D1*
X-3142342Y-6705848D1*
G37*
X-3356800Y-6547050D2*
D19*
Y-6562100D1*
D17*
X-3026700Y-6892200D1*
Y-6976900D1*
G36*
X-3303023Y-9237880D2*
X-3323023Y-9188943D1*
Y-9179545D1*
X-3243023D1*
Y-9188943D1*
X-3263023Y-9237880D1*
X-3303023D1*
G37*
G36*
X-3263023Y-9182000D2*
X-3243894Y-9222000D1*
X-3244405Y-9266997D1*
X-3323792D1*
X-3323281Y-9222000D1*
X-3303023Y-9182000D1*
X-3263023D1*
G37*
X-3283023Y-9103900D2*
D18*
Y-9667247D1*
X-3287777Y-9672000D1*
G36*
X-3211700Y-7856500D2*
X-3111700Y-7788482D1*
X-3103366Y-7786813D1*
Y-7975301D1*
X-3111700Y-7976970D1*
X-3211700Y-7956500D1*
Y-7856500D1*
G37*
X-3291200Y-7906500D2*
D17*
X-3026700D1*
G36*
X-3076700Y-5466900D2*
X-3110970Y-5355166D1*
Y-5338166D1*
X-2942430D1*
Y-5355166D1*
X-2976700Y-5466900D1*
X-3076700D1*
G37*
G36*
X-2976700Y-5816900D2*
X-2942430Y-5928634D1*
Y-5945634D1*
X-3110970D1*
Y-5928634D1*
X-3076700Y-5816900D1*
X-2976700D1*
G37*
X-3026700Y-5196900D2*
D17*
Y-6086900D1*
G36*
X-3131241Y-6049550D2*
X-3111700Y-6041556D1*
X-3103289Y-6040330D1*
Y-6208947D1*
X-3111700Y-6210173D1*
X-3147055Y-6206666D1*
X-3131241Y-6049550D1*
G37*
X-3026700Y-6086900D2*
D17*
X-3098000D1*
X-3363700Y-6352600D1*
X-3401200D1*
D19*
X-3479300Y-6430700D1*
X-3516800D1*
Y-6547050D1*
G36*
X-3632223Y-9122000D2*
X-3582223Y-9222000D1*
Y-9267000D1*
X-3682223Y-9672000D1*
X-3782223Y-9222000D1*
X-3732223Y-9122000D1*
X-3632223D1*
G37*
G36*
Y-8910003D2*
X-3587404Y-9079932D1*
X-3587200Y-9089328D1*
X-3769845Y-9093046D1*
X-3770049Y-9083650D1*
X-3732223Y-8910003D1*
X-3632223D1*
G37*
G36*
X-3732223Y-9297797D2*
X-3770103Y-9123903D1*
X-3769899Y-9114507D1*
X-3587136Y-9118227D1*
X-3587340Y-9127623D1*
X-3632223Y-9297797D1*
X-3732223D1*
G37*
X-3516800Y-6547050D2*
D19*
Y-8343600D1*
D17*
X-3682223Y-8509023D1*
Y-9672000D1*
G36*
X-3698277Y-9237880D2*
X-3718277Y-9188943D1*
Y-9179545D1*
X-3638277D1*
Y-9188943D1*
X-3658277Y-9237880D1*
X-3698277D1*
G37*
G36*
X-3658277Y-9182000D2*
X-3639050Y-9222000D1*
X-3639474Y-9266998D1*
X-3718864D1*
X-3718440Y-9222000D1*
X-3698277Y-9182000D1*
X-3658277D1*
G37*
X-3678277Y-9103900D2*
D18*
Y-9668053D1*
X-3682223Y-9672000D1*
G36*
X-1498366Y-5311155D2*
X-1392300Y-5151388D1*
X-1385921Y-5145770D1*
X-1375912Y-5353817D1*
X-1382292Y-5359434D1*
X-1427655Y-5381866D1*
X-1498366Y-5311155D1*
G37*
X-1677800Y-6524673D2*
D16*
Y-6409700D1*
D17*
Y-5761600D1*
Y-5561300D1*
X-1307300Y-5190800D1*
G36*
X-1427655Y-7669734D2*
X-1382292Y-7692166D1*
X-1375912Y-7697783D1*
X-1385921Y-7905830D1*
X-1392300Y-7900212D1*
X-1498366Y-7740445D1*
X-1427655Y-7669734D1*
G37*
X-1677800Y-6524673D2*
D16*
Y-6629700D1*
D17*
Y-7490300D1*
X-1307300Y-7860800D1*
X-1522900Y-5784500D2*
Y-5761600D1*
X-1677800D1*
G36*
X-1357300Y-6350800D2*
X-1391570Y-6239066D1*
Y-6222066D1*
X-1223030D1*
Y-6239066D1*
X-1257300Y-6350800D1*
X-1357300D1*
G37*
G36*
X-1257300Y-6700800D2*
X-1223030Y-6812534D1*
Y-6829534D1*
X-1391570D1*
Y-6812534D1*
X-1357300Y-6700800D1*
X-1257300D1*
G37*
X-1307300Y-6080800D2*
D17*
Y-6519700D1*
Y-6970800D1*
G36*
X-1357876Y-6569700D2*
X-1457800Y-6584388D1*
X-1461795Y-6584579D1*
Y-6464861D1*
X-1457800Y-6464670D1*
X-1357876Y-6469700D1*
Y-6569700D1*
G37*
X-1497800Y-6524673D2*
D16*
X-1407800Y-6519700D1*
D17*
X-1307300D1*
G36*
X-1445120Y-6012569D2*
X-1392300Y-5987985D1*
X-1383804Y-5988259D1*
Y-6168010D1*
X-1392300Y-6167735D1*
X-1475819Y-6122076D1*
X-1445120Y-6012569D1*
G37*
X-1523100Y-6005300D2*
D17*
X-1447600Y-6080800D1*
X-1307300D1*
G36*
X-625300Y-5810800D2*
X-591030Y-5922534D1*
Y-5939534D1*
X-759570D1*
Y-5922534D1*
X-725300Y-5810800D1*
X-625300D1*
G37*
G36*
X-725300Y-5460800D2*
X-759570Y-5349066D1*
Y-5332066D1*
X-591030D1*
Y-5349066D1*
X-625300Y-5460800D1*
X-725300D1*
G37*
X-675300Y-6080800D2*
D17*
Y-5608973D1*
Y-5190800D1*
Y-5608973D2*
X-509827D1*
X-409500Y-5709300D1*
Y-6439400D1*
D19*
Y-6522150D1*
G36*
X-1640038Y-9174549D2*
X-1609997Y-9222000D1*
X-1610081Y-9232000D1*
X-1801424D1*
X-1801339Y-9222000D1*
X-1749680Y-9143378D1*
X-1640038Y-9174549D1*
G37*
G36*
X-1508158Y-9159000D2*
X-1682573Y-9195850D1*
X-1691967Y-9195587D1*
X-1687159Y-9012835D1*
X-1677765Y-9013099D1*
X-1508158Y-9059000D1*
Y-9159000D1*
G37*
G36*
X-1760000Y-9297539D2*
X-1794244Y-9121883D1*
X-1793830Y-9112494D1*
X-1611141Y-9120041D1*
X-1611554Y-9129430D1*
X-1660000Y-9297539D1*
X-1760000D1*
G37*
X-409500Y-6522150D2*
D19*
Y-6765400D1*
X-864800Y-9109000D2*
D17*
X-1645200D1*
X-1710000Y-9173800D1*
Y-9672000D1*
G36*
X-1722000Y-9237880D2*
X-1742000Y-9188943D1*
Y-9179545D1*
X-1662000D1*
Y-9188943D1*
X-1682000Y-9237880D1*
X-1722000D1*
G37*
G36*
X-1682000Y-9182000D2*
X-1663266Y-9222000D1*
X-1664125Y-9266992D1*
X-1743492D1*
X-1742633Y-9222000D1*
X-1722000Y-9182000D1*
X-1682000D1*
G37*
X-1702000Y-9103900D2*
D18*
Y-9664000D1*
X-1710000Y-9672000D1*
G36*
X-725300Y-7240800D2*
X-759570Y-7129066D1*
Y-7112066D1*
X-591030D1*
Y-7129066D1*
X-625300Y-7240800D1*
X-725300D1*
G37*
G36*
X-625300Y-7590800D2*
X-591030Y-7702534D1*
Y-7719534D1*
X-759570D1*
Y-7702534D1*
X-725300Y-7590800D1*
X-625300D1*
G37*
X-675300Y-6970800D2*
D17*
Y-7860800D1*
G36*
X-625300Y-6723800D2*
X-591418Y-6811414D1*
Y-6828414D1*
X-759182D1*
Y-6811414D1*
X-725300Y-6723800D1*
X-625300D1*
G37*
G36*
X-643207Y-6624532D2*
X-617000Y-6499770D1*
X-615707Y-6495199D1*
X-531868Y-6567579D1*
X-533161Y-6572150D1*
X-576032Y-6691707D1*
X-643207Y-6624532D1*
G37*
X-675300Y-6970800D2*
D17*
Y-6723800D1*
D19*
X-569500Y-6618000D1*
Y-6522150D1*
G36*
X-2054443Y-9122000D2*
X-2004443Y-9222000D1*
X-2104443Y-9672000D1*
X-2204443Y-9267000D1*
Y-9222000D1*
X-2154443Y-9122000D1*
X-2054443D1*
G37*
G36*
X-1932297Y-8995307D2*
X-2014453Y-9148351D1*
X-2020717Y-9155357D1*
X-2156387Y-9033205D1*
X-2150123Y-9026199D1*
X-2003007Y-8924597D1*
X-1932297Y-8995307D1*
G37*
G36*
X-2154443Y-9297605D2*
X-2189420Y-9122287D1*
X-2189049Y-9112897D1*
X-2006337Y-9119675D1*
X-2006709Y-9129066D1*
X-2054443Y-9297605D1*
X-2154443D1*
G37*
X-675300Y-7860800D2*
D17*
Y-7631400D1*
X-1029600Y-8897900D2*
X-1905600D1*
X-2104443Y-9096743D1*
Y-9672000D1*
G36*
X-2117257Y-9237880D2*
X-2137257Y-9188943D1*
Y-9179545D1*
X-2057257D1*
Y-9188943D1*
X-2077257Y-9237880D1*
X-2117257D1*
G37*
G36*
X-2077257Y-9182000D2*
X-2058423Y-9222000D1*
X-2059195Y-9266993D1*
X-2138568D1*
X-2137796Y-9222000D1*
X-2117257Y-9182000D1*
X-2077257D1*
G37*
X-2097257Y-9103900D2*
D18*
Y-9664813D1*
X-2104443Y-9672000D1*
G36*
X-908545Y-1122366D2*
X-953908Y-1099934D1*
X-960288Y-1094317D1*
X-950279Y-886270D1*
X-943900Y-891888D1*
X-837834Y-1051655D1*
X-908545Y-1122366D1*
G37*
X-676300Y-2267400D2*
D16*
Y-2157400D1*
D17*
Y-1454200D1*
Y-1283900D1*
X-1028900Y-931300D1*
G36*
X-837834Y-3480945D2*
X-943900Y-3640712D1*
X-950279Y-3646330D1*
X-960288Y-3438283D1*
X-953908Y-3432666D1*
X-908545Y-3410234D1*
X-837834Y-3480945D1*
G37*
X-676300Y-2267400D2*
D16*
Y-2377400D1*
D17*
Y-3248700D1*
X-1028900Y-3601300D1*
G36*
X-1157266Y-3806655D2*
X-1113900Y-3596445D1*
X-1110284Y-3588752D1*
X-997986Y-3763607D1*
X-1001602Y-3771300D1*
X-1086555Y-3877366D1*
X-1157266Y-3806655D1*
G37*
X-2368000Y-8201100D2*
D17*
X-2319700D1*
X-1761100Y-7642500D1*
X-1127400Y-3847500D2*
X-1044400Y-3764500D1*
Y-3616800D1*
X-1028900Y-3601300D1*
X-421100Y-1454200D2*
X-676300D1*
G36*
X-996300Y-2217400D2*
X-896300Y-2207397D1*
X-856300Y-2267400D1*
X-896300Y-2327403D1*
X-996300Y-2317400D1*
Y-2217400D1*
G37*
G36*
X-978900Y-2441300D2*
X-944630Y-2553034D1*
Y-2570034D1*
X-1113170D1*
Y-2553034D1*
X-1078900Y-2441300D1*
X-978900D1*
G37*
X-856300Y-2267400D2*
D16*
X-946300D1*
D17*
X-1028900D1*
Y-2711300D1*
G36*
X-1071359Y-2961406D2*
X-1111364Y-2873517D1*
X-1112256Y-2865064D1*
X-945186Y-2859842D1*
X-944294Y-2868295D1*
X-958851Y-2934339D1*
X-1071359Y-2961406D1*
G37*
X-2139500Y-8271300D2*
D17*
X-1707200Y-7839000D1*
X-950300Y-3013600D2*
X-1028900Y-2935000D1*
Y-2711300D1*
G36*
X-1710900Y-1201300D2*
X-1745170Y-1089566D1*
Y-1072566D1*
X-1576630D1*
Y-1089566D1*
X-1610900Y-1201300D1*
X-1710900D1*
G37*
G36*
X-1610900Y-1551300D2*
X-1576630Y-1663034D1*
Y-1680034D1*
X-1745170D1*
Y-1663034D1*
X-1710900Y-1551300D1*
X-1610900D1*
G37*
X-1660900Y-931300D2*
D17*
Y-1821300D1*
G36*
X-1522072Y-1906939D2*
X-1575900Y-1921644D1*
X-1584345Y-1920680D1*
Y-1743192D1*
X-1575900Y-1744155D1*
X-1507276Y-1781095D1*
X-1522072Y-1906939D1*
G37*
G36*
X-2448890Y-9122000D2*
X-2398890Y-9222000D1*
Y-9267000D1*
X-2498890Y-9672000D1*
X-2598890Y-9222000D1*
X-2548890Y-9122000D1*
X-2448890D1*
G37*
G36*
X-2382824Y-8974634D2*
X-2399162Y-9114782D1*
X-2401727Y-9123824D1*
X-2564969Y-9050116D1*
X-2562404Y-9041074D1*
X-2538052Y-8988904D1*
X-2382824Y-8974634D1*
G37*
G36*
X-2548890Y-9297663D2*
X-2584593Y-9122689D1*
X-2584263Y-9113297D1*
X-2401533Y-9119314D1*
X-2401863Y-9128706D1*
X-2448890Y-9297663D1*
X-2548890D1*
G37*
X-1660900Y-1821300D2*
D17*
X-1537000D1*
X-1292600Y-2065700D1*
X-1187900Y-8683600D2*
X-2162500D1*
X-2498890Y-9019990D1*
Y-9672000D1*
G36*
X-1851966Y-2003455D2*
X-1745900Y-1784181D1*
X-1740775Y-1777399D1*
X-1682956Y-1984519D1*
X-1688081Y-1991300D1*
X-1781255Y-2074166D1*
X-1851966Y-2003455D1*
G37*
X-1901900Y-2263200D2*
D19*
Y-2124100D1*
D17*
X-1660900Y-1883100D1*
Y-1821300D1*
G36*
X-2512510Y-9237880D2*
X-2532510Y-9188943D1*
Y-9179545D1*
X-2452510D1*
Y-9188943D1*
X-2472510Y-9237880D1*
X-2512510D1*
G37*
G36*
X-2472510Y-9182000D2*
X-2453578Y-9222000D1*
X-2454264Y-9266995D1*
X-2533642D1*
X-2532956Y-9222000D1*
X-2512510Y-9182000D1*
X-2472510D1*
G37*
X-2492510Y-9103900D2*
D18*
Y-9665620D1*
X-2498890Y-9672000D1*
G36*
X-2843333Y-9122000D2*
X-2793333Y-9222000D1*
Y-9267000D1*
X-2893333Y-9672000D1*
X-2993333Y-9222000D1*
X-2943333Y-9122000D1*
X-2843333D1*
G37*
G36*
X-1710900Y-3871300D2*
X-1745170Y-3759566D1*
Y-3742566D1*
X-1576630D1*
Y-3759566D1*
X-1610900Y-3871300D1*
X-1710900D1*
G37*
G36*
X-2943333Y-9297812D2*
X-2981552Y-9124093D1*
X-2981367Y-9114697D1*
X-2798602Y-9118058D1*
X-2798786Y-9127454D1*
X-2843333Y-9297812D1*
X-2943333D1*
G37*
G36*
X-2816961Y-8946772D2*
X-2796703Y-9090811D1*
X-2797234Y-9100194D1*
X-2971666Y-9066256D1*
X-2971134Y-9056873D1*
X-2938730Y-8931478D1*
X-2816961Y-8946772D1*
G37*
X-2893333Y-9672000D2*
D17*
Y-8952433D1*
X-2400300Y-8459400D1*
X-1339600D1*
X-1131300Y-7500800D2*
X-1213100D1*
X-1517050Y-7196850D1*
X-1680800Y-3863100D2*
X-1660900Y-3883000D1*
Y-3601300D1*
G36*
X-1610900Y-3331300D2*
X-1576630Y-3443034D1*
Y-3460034D1*
X-1745170D1*
Y-3443034D1*
X-1710900Y-3331300D1*
X-1610900D1*
G37*
G36*
X-1710900Y-2981300D2*
X-1745170Y-2869566D1*
Y-2852566D1*
X-1576630D1*
Y-2869566D1*
X-1610900Y-2981300D1*
X-1710900D1*
G37*
X-1660900Y-3601300D2*
D17*
Y-2711300D1*
G36*
X-1610900Y-2441300D2*
X-1576630Y-2553034D1*
Y-2570034D1*
X-1745170D1*
Y-2553034D1*
X-1710900Y-2441300D1*
X-1610900D1*
G37*
X-1741900Y-2263200D2*
D19*
X-1671190Y-2333910D1*
D17*
Y-2384110D1*
X-1660900Y-2394400D1*
Y-2711300D1*
G36*
X-2909767Y-9237880D2*
X-2929767Y-9188943D1*
Y-9179545D1*
X-2849767D1*
Y-9188943D1*
X-2869767Y-9237880D1*
X-2909767D1*
G37*
G36*
X-2869767Y-9182000D2*
X-2850494Y-9222000D1*
X-2850878Y-9266998D1*
X-2930269D1*
X-2929886Y-9222000D1*
X-2909767Y-9182000D1*
X-2869767D1*
G37*
X-2889767Y-9103900D2*
D18*
Y-9668433D1*
X-2893333Y-9672000D1*
G36*
X-5541150Y-6725350D2*
X-5581150Y-6745350D1*
X-5586150D1*
Y-6665350D1*
X-5581150D1*
X-5541150Y-6685350D1*
Y-6725350D1*
G37*
G36*
X-5509200Y-6685350D2*
X-5469200Y-6665350D1*
X-5464200D1*
Y-6745350D1*
X-5469200D1*
X-5509200Y-6725350D1*
Y-6685350D1*
G37*
X-5631150Y-6705350D2*
D18*
X-5419200D1*
G36*
X-5651100Y-6628700D2*
X-5671100Y-6588700D1*
Y-6582450D1*
X-5591100D1*
Y-6588700D1*
X-5611100Y-6628700D1*
X-5651100D1*
G37*
G36*
X-5611100Y-6617800D2*
X-5591100Y-6657800D1*
Y-6662550D1*
X-5671100D1*
Y-6657800D1*
X-5651100Y-6617800D1*
X-5611100D1*
G37*
X-5631100Y-6526200D2*
D18*
Y-6705300D1*
X-5631150Y-6705350D1*
G36*
X-5696264Y-6823902D2*
X-5681150Y-6820861D1*
X-5676496Y-6821811D1*
Y-6891701D1*
X-5681150Y-6890751D1*
X-5696385Y-6880300D1*
X-5696264Y-6823902D1*
G37*
G36*
X-5781458Y-6795276D2*
X-5852191Y-6752850D1*
X-5855550Y-6749491D1*
X-5796459Y-6697068D1*
X-5793100Y-6700427D1*
X-5753174Y-6766992D1*
X-5781458Y-6795276D1*
G37*
X-5631150Y-6865350D2*
D18*
X-5683100D1*
X-5843100Y-6705350D1*
G36*
X-6008008Y-6719492D2*
X-6048800Y-6769212D1*
X-6055449Y-6773662D1*
Y-6699469D1*
X-6048800Y-6695020D1*
X-6036292Y-6691208D1*
X-6008008Y-6719492D1*
G37*
G36*
X-5933100Y-6685350D2*
X-5893100Y-6665350D1*
X-5888100D1*
Y-6745350D1*
X-5893100D1*
X-5933100Y-6725350D1*
Y-6685350D1*
G37*
X-6128800Y-6796900D2*
D18*
X-6113700D1*
X-6022150Y-6705350D1*
X-5843100D1*
G36*
X-4942100Y-5809800D2*
X-4907830Y-5921534D1*
Y-5938534D1*
X-5076370D1*
Y-5921534D1*
X-5042100Y-5809800D1*
X-4942100D1*
G37*
G36*
X-5042100Y-5459800D2*
X-5076370Y-5348066D1*
Y-5331066D1*
X-4907830D1*
Y-5348066D1*
X-4942100Y-5459800D1*
X-5042100D1*
G37*
X-4992100Y-6079800D2*
D17*
Y-5189800D1*
G36*
X-5914800Y-6033800D2*
X-6014800Y-6120751D1*
X-6047236Y-6132208D1*
Y-5941598D1*
X-6014800Y-5930140D1*
X-5914800Y-5933800D1*
Y-6033800D1*
G37*
G36*
X-5177100Y-5933800D2*
X-5077100Y-5947914D1*
X-5069510Y-5951741D1*
Y-6139336D1*
X-5077100Y-6135509D1*
X-5177100Y-6033800D1*
Y-5933800D1*
G37*
X-6358800Y-6122400D2*
D17*
X-6154300D1*
X-6015700Y-5983800D1*
X-5631103D1*
X-5250503D1*
X-5200187D1*
X-4992100D1*
Y-6079800D1*
G36*
X-5611102Y-6078700D2*
X-5591101Y-6118699D1*
Y-6124949D1*
X-5671101Y-6124951D1*
Y-6118701D1*
X-5651102Y-6078700D1*
X-5611102D1*
G37*
X-5631100Y-6181200D2*
D18*
X-5631103Y-5983800D1*
G36*
X-5309539Y-9297818D2*
X-5350701Y-9125767D1*
X-5350689Y-9116369D1*
X-5167942Y-9116594D1*
X-5167953Y-9125992D1*
X-5209539Y-9297941D1*
X-5309539Y-9297818D1*
G37*
G36*
X-5209322Y-9122062D2*
X-5159446Y-9222124D1*
X-5260000Y-9672000D1*
X-5359501Y-9266877D1*
X-5359445Y-9221877D1*
X-5309322Y-9121939D1*
X-5209322Y-9122062D1*
G37*
X-5259300Y-9103900D2*
D17*
X-5260000Y-9672000D1*
G36*
X-5063260Y-6349997D2*
X-5052869Y-6364800D1*
X-5051885Y-6369447D1*
X-5121800D1*
X-5122784Y-6364800D1*
X-5119850Y-6349935D1*
X-5063260Y-6349997D1*
G37*
G36*
X-5270140Y-6124589D2*
X-5259766Y-6135476D1*
X-5264681Y-6101682D1*
X-5255417Y-6127276D1*
X-5251192Y-6156334D1*
X-5270140Y-6124589D1*
G37*
G36*
X-5230503Y-6059703D2*
X-5191628Y-6069000D1*
X-5168071Y-6093725D1*
X-5235833Y-6143366D1*
X-5259390Y-6118642D1*
X-5270503Y-6059703D1*
X-5230503D1*
G37*
X-5078150Y-6414800D2*
D18*
Y-6363350D1*
X-5250503Y-6190997D1*
Y-5983800D1*
G36*
X-5209300Y-8909920D2*
X-5167926Y-9081921D1*
Y-9091319D1*
X-5350674D1*
Y-9081921D1*
X-5309300Y-8909920D1*
X-5209300D1*
G37*
X-5200187Y-5983800D2*
D17*
Y-6128387D1*
Y-8476713D2*
X-5259300Y-8535827D1*
Y-9103900D1*
G36*
X-6308800Y-5680900D2*
X-6258800Y-5780900D1*
Y-5815050D1*
X-6458800D1*
Y-5780900D1*
X-6408800Y-5680900D1*
X-6308800D1*
G37*
X-6358800Y-6122400D2*
D17*
Y-5648887D1*
X-6305013Y-5595100D1*
X-5846400D1*
X-6241400Y-5990100D1*
X-6272000D1*
G36*
X-4815557Y-9122000D2*
X-4765557Y-9222000D1*
Y-9267000D1*
X-4865557Y-9672000D1*
X-4965557Y-9222000D1*
X-4915557Y-9122000D1*
X-4815557D1*
G37*
G36*
X-5042100Y-8129800D2*
X-5076370Y-8018066D1*
Y-8001066D1*
X-4907830D1*
Y-8018066D1*
X-4942100Y-8129800D1*
X-5042100D1*
G37*
G36*
X-4915557Y-9297880D2*
X-4955597Y-9125119D1*
Y-9115721D1*
X-4772490D1*
Y-9125119D1*
X-4815557Y-9297880D1*
X-4915557D1*
G37*
G36*
X-4815557Y-8909920D2*
X-4772856Y-9081161D1*
Y-9090559D1*
X-4955231D1*
Y-9081161D1*
X-4915557Y-8909920D1*
X-4815557D1*
G37*
X-4865557Y-9672000D2*
D17*
Y-8774857D1*
X-4992100Y-8648313D1*
Y-7859800D1*
G36*
X-4942100Y-7589800D2*
X-4907830Y-7701534D1*
Y-7718534D1*
X-5076370D1*
Y-7701534D1*
X-5042100Y-7589800D1*
X-4942100D1*
G37*
G36*
X-5042100Y-7239800D2*
X-5076370Y-7128066D1*
Y-7111066D1*
X-4907830D1*
Y-7128066D1*
X-4942100Y-7239800D1*
X-5042100D1*
G37*
X-4992100Y-7859800D2*
D17*
Y-6969800D1*
G36*
X-6531345Y-7052966D2*
X-6620309Y-6946900D1*
X-6623862Y-6939733D1*
X-6510854Y-6768951D1*
X-6507300Y-6776118D1*
X-6460634Y-6982255D1*
X-6531345Y-7052966D1*
G37*
G36*
X-5183166Y-7124955D2*
X-5077100Y-6932877D1*
X-5071452Y-6926525D1*
X-5028843Y-7133448D1*
X-5034491Y-7139800D1*
X-5112455Y-7195666D1*
X-5183166Y-7124955D1*
G37*
X-6587300Y-6796900D2*
D17*
Y-6926300D1*
X-6253800Y-7259800D1*
X-5247300D1*
X-4992100Y-7004600D1*
Y-6969800D1*
G36*
X-5778958Y-6945726D2*
X-5849616Y-6912850D1*
X-5853259Y-6909803D1*
X-5796744Y-6854111D1*
X-5793100Y-6857159D1*
X-5750674Y-6917442D1*
X-5778958Y-6945726D1*
G37*
G36*
X-5119526Y-7068942D2*
X-5077100Y-7011889D1*
X-5070354Y-7006718D1*
Y-7086462D1*
X-5077100Y-7091633D1*
X-5091242Y-7097226D1*
X-5119526Y-7068942D1*
G37*
X-5843100Y-6865350D2*
D18*
X-5831050D1*
X-5697300Y-6999100D1*
X-5631600D1*
Y-7268000D1*
X-5290300D1*
X-4992100Y-6969800D1*
G36*
X-5509676Y-6926992D2*
X-5469200Y-6860270D1*
X-5465828Y-6856924D1*
X-5406859Y-6909504D1*
X-5410231Y-6912850D1*
X-5481392Y-6955276D1*
X-5509676Y-6926992D1*
G37*
X-5419200Y-6865350D2*
D18*
X-5419750D1*
X-5553500Y-6999100D1*
X-5631600D1*
G36*
X-4884043Y-9237880D2*
X-4904043Y-9188943D1*
Y-9179545D1*
X-4824043D1*
Y-9188943D1*
X-4844043Y-9237880D1*
X-4884043D1*
G37*
G36*
X-4844043Y-9182000D2*
X-4824525Y-9222000D1*
X-4824688Y-9267000D1*
X-4904084D1*
X-4903921Y-9222000D1*
X-4884043Y-9182000D1*
X-4844043D1*
G37*
X-4864043Y-9103900D2*
D18*
Y-9670487D1*
X-4865557Y-9672000D1*
G36*
X-5112455Y-6778734D2*
X-5067092Y-6801166D1*
X-5060712Y-6806783D1*
X-5070721Y-7014830D1*
X-5077100Y-7009212D1*
X-5183166Y-6849445D1*
X-5112455Y-6778734D1*
G37*
X-5238150Y-6414800D2*
D19*
Y-6514800D1*
D17*
Y-6723750D1*
X-4992100Y-6969800D1*
D34*
X-2655200Y-7415400D3*
X-2820900Y-5908400D3*
X-3000500Y-3869000D3*
X-2668000Y-7157000D3*
Y-5754713D3*
X-2784700Y-2884300D3*
X-3668300Y-6695900D3*
Y-3902400D3*
X-3984200Y-2448300D3*
X-3835100Y-6928500D3*
Y-2098300D3*
X-4360100Y-5211600D3*
X-4040000Y-6853100D3*
X-4814600Y-8378300D3*
X-4607500Y-7221500D3*
X-2214200Y-6164500D3*
X-2394700Y-6659300D3*
X-1522900Y-5784500D3*
X-1523100Y-6005300D3*
X-409500Y-6765400D3*
X-864800Y-9109000D3*
X-675300Y-7631400D3*
X-1029600Y-8897900D3*
X-2368000Y-8201100D3*
X-1761100Y-7642500D3*
X-1127400Y-3847500D3*
X-2139500Y-8271300D3*
X-1707200Y-7839000D3*
X-950300Y-3013600D3*
X-1292600Y-2065700D3*
X-1187900Y-8683600D3*
X-1339600Y-8459400D3*
X-1131300Y-7500800D3*
X-1517050Y-7196850D3*
X-1680800Y-3863100D3*
X-5200187Y-6128387D3*
Y-8476713D3*
X-421100Y-705827D3*
Y-1454200D3*
Y-2202577D3*
Y-3699323D3*
Y-2950950D3*
X-1911200Y-2574100D3*
Y-3813000D3*
X-1252200Y-3604800D3*
Y-2876900D3*
X-1248600Y-2334000D3*
X-1252200Y-1421100D3*
Y-693200D3*
X-1923350Y-611300D3*
Y-1314000D3*
Y-2016700D3*
X-1911200Y-3193550D3*
X-3354200Y-5026300D3*
X-3331300Y-5650800D3*
X-3325500Y-6137800D3*
X-3431600Y-8653600D3*
X-3291200Y-7906500D3*
X-2661000Y-7885200D3*
X-2620800Y-8183100D3*
X-2523500Y-5530500D3*
X-2540600Y-4917500D3*
X-1996400Y-4940400D3*
X-2002100Y-5352900D3*
X-1916200Y-6183600D3*
X-1933300Y-7444000D3*
X-1944800Y-6825200D3*
X-3141300Y-8436000D3*
X-758500Y-3952700D3*
X-764400Y-3088900D3*
X-3258100Y-7462200D3*
X-975277Y-594917D2*
D21*
X-395393D1*
X-975277Y-658083D2*
X-395393D1*
X-894249Y-721250D2*
X-395393D1*
X-871690Y-784417D2*
X-395393D1*
X-871690Y-847583D2*
X-395393D1*
X-871690Y-910750D2*
X-395393D1*
X-871690Y-973917D2*
X-395393D1*
X-871690Y-1037083D2*
X-395393D1*
X-873194Y-1100250D2*
X-395393D1*
X-929613Y-1163417D2*
X-395393D1*
X-975277Y-1226583D2*
X-395393D1*
X-975277Y-1289750D2*
X-395393D1*
X-975277Y-1352917D2*
X-395393D1*
X-975277Y-1416083D2*
X-395393D1*
X-975277Y-1479250D2*
X-395393D1*
X-975277Y-1542417D2*
X-395393D1*
X-900173Y-1605583D2*
X-395393D1*
X-871690Y-1668750D2*
X-395393D1*
X-871690Y-1731917D2*
X-395393D1*
X-871690Y-1795083D2*
X-395393D1*
X-871690Y-1858250D2*
X-395393D1*
X-871690Y-1921417D2*
X-395393D1*
X-872282Y-1984583D2*
X-395393D1*
X-915941Y-2047750D2*
X-395393D1*
X-578474Y-2110917D2*
X-395393D1*
X-534724Y-2174083D2*
X-395393D1*
X-534678Y-2237250D2*
X-395393D1*
X-534678Y-2300417D2*
X-395393D1*
X-534678Y-2363583D2*
X-395393D1*
X-573598Y-2426750D2*
X-395393D1*
X-888780Y-2489917D2*
X-395393D1*
X-871827Y-2553083D2*
X-395393D1*
X-871690Y-2616250D2*
X-395393D1*
X-871690Y-2679417D2*
X-395393D1*
X-871690Y-2742583D2*
X-395393D1*
X-871690Y-2805750D2*
X-395393D1*
X-871827Y-2868917D2*
X-395393D1*
X-848083Y-2932083D2*
X-395393D1*
X-819463Y-2995250D2*
X-395393D1*
X-826345Y-3058417D2*
X-395393D1*
X-879301Y-3121583D2*
X-395393D1*
X-975277Y-3184750D2*
X-395393D1*
X-975277Y-3247917D2*
X-395393D1*
X-975277Y-3311083D2*
X-395393D1*
X-917081Y-3374250D2*
X-395393D1*
X-872374Y-3437417D2*
X-395393D1*
X-871690Y-3500583D2*
X-395393D1*
X-871690Y-3563750D2*
X-395393D1*
X-871690Y-3626917D2*
X-395393D1*
X-871690Y-3690083D2*
X-395393D1*
X-871690Y-3753250D2*
X-395393D1*
X-899489Y-3816417D2*
X-395393D1*
X-975277Y-3879583D2*
X-395393D1*
X-975277Y-3942750D2*
X-395393D1*
X-975277Y-4005917D2*
X-395393D1*
X-945499Y-2108469D2*
X-965967Y-2117964D1*
X-981650Y-2132625D1*
X-981632Y-2057150D1*
X-958137Y-2057116D1*
X-935217Y-2053178D1*
X-914309Y-2042996D1*
X-897076Y-2027381D1*
X-884888Y-2007575D1*
X-878716Y-1985131D1*
X-878050Y-1974645D1*
X-878084Y-1665537D1*
X-882022Y-1642617D1*
X-892204Y-1621709D1*
X-907819Y-1604476D1*
X-927625Y-1592288D1*
X-950069Y-1586116D1*
X-960563Y-1585450D1*
X-981650Y-1585431D1*
X-981632Y-1167150D1*
X-958138Y-1167116D1*
X-935218Y-1163178D1*
X-914310Y-1152996D1*
X-897076Y-1137381D1*
X-884888Y-1117575D1*
X-878716Y-1095131D1*
X-878050Y-1084645D1*
X-878084Y-775538D1*
X-882022Y-752618D1*
X-892204Y-731710D1*
X-907819Y-714476D1*
X-927625Y-702288D1*
X-950069Y-696116D1*
X-960563Y-695450D1*
X-981650Y-695437D1*
X-981634Y-531750D1*
X-389050Y-531757D1*
X-389066Y-4068250D1*
X-981650Y-4068243D1*
X-981632Y-3837150D1*
X-958137Y-3837116D1*
X-935217Y-3833178D1*
X-914309Y-3822996D1*
X-897076Y-3807381D1*
X-884888Y-3787575D1*
X-878716Y-3765131D1*
X-878050Y-3754645D1*
X-878084Y-3445537D1*
X-882022Y-3422617D1*
X-892204Y-3401709D1*
X-907819Y-3384476D1*
X-927625Y-3372288D1*
X-950069Y-3366116D1*
X-960563Y-3365450D1*
X-981650Y-3365463D1*
X-981671Y-3135214D1*
X-961988Y-3138906D1*
X-938764Y-3138920D1*
X-915933Y-3134667D1*
X-894272Y-3126290D1*
X-874519Y-3114076D1*
X-857347Y-3098441D1*
X-843340Y-3079916D1*
X-832976Y-3059133D1*
X-826607Y-3036800D1*
X-824450Y-3013600D1*
X-826579Y-2990550D1*
X-832921Y-2968209D1*
X-843260Y-2947413D1*
X-857244Y-2928872D1*
X-874398Y-2913216D1*
X-885288Y-2906463D1*
X-880020Y-2882613D1*
X-878716Y-2875131D1*
X-878050Y-2864645D1*
Y-2557902D1*
X-878355Y-2550857D1*
X-881687Y-2533683D1*
X-912294Y-2433947D1*
X-610797D1*
X-595565Y-2432263D1*
X-574652Y-2423851D1*
X-557514Y-2409208D1*
X-545941Y-2389863D1*
X-541144Y-2367816D1*
X-541047Y-2362552D1*
Y-2175650D1*
X-542730Y-2160418D1*
X-551143Y-2139505D1*
X-565786Y-2122367D1*
X-585130Y-2110794D1*
X-607177Y-2105997D1*
X-610836Y-2105900D1*
X-926646D1*
X-945499Y-2108469D1*
X-1028900Y-931300D2*
D22*
X-878103Y-780503D1*
X-1028900Y-931300D2*
X-878103Y-1082097D1*
X-1028900Y-3601300D2*
X-878102Y-3450502D1*
X-1028900Y-3601300D2*
X-878102Y-3752098D1*
X-1451977Y-594917D2*
D21*
X-1089020D1*
X-1451977Y-658083D2*
X-1089020D1*
X-1451977Y-721250D2*
X-1163577D1*
X-1451977Y-784417D2*
X-1186090D1*
X-1451977Y-847583D2*
X-1186090D1*
X-1451977Y-910750D2*
X-1186090D1*
X-1451977Y-973917D2*
X-1186090D1*
X-1451977Y-1037083D2*
X-1186090D1*
X-1451977Y-1100250D2*
X-1184632D1*
X-1451977Y-1163417D2*
X-1128167D1*
X-1451977Y-1226583D2*
X-1089020D1*
X-1451977Y-1289750D2*
X-1089020D1*
X-1451977Y-1352917D2*
X-1089020D1*
X-1451977Y-1416083D2*
X-1089020D1*
X-1451977Y-1479250D2*
X-1089020D1*
X-1451977Y-1542417D2*
X-1089020D1*
X-1451977Y-1605583D2*
X-1157652D1*
X-1451977Y-1668750D2*
X-1186090D1*
X-1451977Y-1731917D2*
X-1186090D1*
X-1393051Y-1795083D2*
X-1186090D1*
X-1329842Y-1858250D2*
X-1186090D1*
X-1266678Y-1921417D2*
X-1186090D1*
X-1161678Y-2047750D2*
X-1141884D1*
X-1451977Y-2110917D2*
X-1417555D1*
X-1168787D2*
X-1089020D1*
X-1451977Y-2174083D2*
X-1362913D1*
X-1222290D2*
X-1089020D1*
X-1451977Y-2237250D2*
X-1089020D1*
X-1451977Y-2300417D2*
X-1089020D1*
X-1451977Y-2363583D2*
X-1089020D1*
X-1451977Y-2426750D2*
X-1089020D1*
X-1451977Y-2489917D2*
X-1150315D1*
X-1451977Y-2553083D2*
X-1185953D1*
X-1451977Y-2616250D2*
X-1186090D1*
X-1451977Y-2679417D2*
X-1186090D1*
X-1451977Y-2742583D2*
X-1186090D1*
X-1451977Y-2805750D2*
X-1186090D1*
X-1451977Y-2868917D2*
X-1185999D1*
X-1451977Y-2932083D2*
X-1151181D1*
X-1451977Y-2995250D2*
X-1089020D1*
X-1451977Y-3058417D2*
X-1089020D1*
X-1451977Y-3121583D2*
X-1089020D1*
X-1451977Y-3184750D2*
X-1089020D1*
X-1451977Y-3247917D2*
X-1089020D1*
X-1451977Y-3311083D2*
X-1089020D1*
X-1451977Y-3374250D2*
X-1140699D1*
X-1451977Y-3437417D2*
X-1185452D1*
X-1451977Y-3500583D2*
X-1186090D1*
X-1451977Y-3563750D2*
X-1186090D1*
X-1451977Y-3626917D2*
X-1193792D1*
X-1451977Y-3690083D2*
X-1206826D1*
X-1451977Y-3753250D2*
X-1219814D1*
X-1451977Y-3816417D2*
X-1255680D1*
X-1451977Y-3879583D2*
X-1255452D1*
X-1451977Y-3942750D2*
X-1215986D1*
X-1451977Y-4005917D2*
X-1089020D1*
X-1179750Y-1974634D2*
Y-1667955D1*
X-1179085Y-1657447D1*
X-1172912Y-1635025D1*
X-1160724Y-1615219D1*
X-1143491Y-1599604D1*
X-1122583Y-1589422D1*
X-1099663Y-1585484D1*
X-1082670Y-1585450D1*
X-1082650Y-1416623D1*
X-1082668Y-1167150D1*
X-1097298D1*
X-1120321Y-1163870D1*
X-1141513Y-1154293D1*
X-1159187Y-1139178D1*
X-1171938Y-1119730D1*
X-1178751Y-1097472D1*
X-1179750Y-1084634D1*
Y-777955D1*
X-1179084Y-767446D1*
X-1172912Y-745025D1*
X-1160724Y-725219D1*
X-1143490Y-709604D1*
X-1122582Y-699422D1*
X-1099662Y-695484D1*
X-1082670Y-695450D1*
X-1082650Y-553290D1*
Y-531757D1*
X-1458339Y-531750D1*
X-1458350Y-1736231D1*
X-1455082Y-1739382D1*
X-1245442Y-1949021D1*
X-1236436Y-1953078D1*
X-1216698Y-1965316D1*
X-1199544Y-1980972D1*
X-1185560Y-1999513D1*
X-1175221Y-2020309D1*
X-1168879Y-2042650D1*
X-1166750Y-2065700D1*
X-1168907Y-2088900D1*
X-1175276Y-2111233D1*
X-1185640Y-2132016D1*
X-1199647Y-2150541D1*
X-1216819Y-2166176D1*
X-1236572Y-2178390D1*
X-1258233Y-2186767D1*
X-1281064Y-2191020D1*
X-1304288Y-2191006D1*
X-1327114Y-2186725D1*
X-1348764Y-2178322D1*
X-1368502Y-2166084D1*
X-1385656Y-2150428D1*
X-1399640Y-2131887D1*
X-1408919Y-2113223D1*
X-1458352Y-2063785D1*
X-1458350Y-4068243D1*
X-1082661Y-4068250D1*
X-1082650Y-3965129D1*
X-1093033Y-3968567D1*
X-1115864Y-3972820D1*
X-1139088Y-3972806D1*
X-1161914Y-3968525D1*
X-1183564Y-3960122D1*
X-1203302Y-3947884D1*
X-1220456Y-3932228D1*
X-1234440Y-3913687D1*
X-1244779Y-3892891D1*
X-1251121Y-3870550D1*
X-1253250Y-3847424D1*
X-1251093Y-3824300D1*
X-1244724Y-3801967D1*
X-1234360Y-3781184D1*
X-1220353Y-3762659D1*
X-1214299Y-3757147D1*
X-1179748Y-3589714D1*
X-1179750Y-3447955D1*
X-1179085Y-3437446D1*
X-1172912Y-3415025D1*
X-1160724Y-3395219D1*
X-1143491Y-3379604D1*
X-1122582Y-3369422D1*
X-1099663Y-3365484D1*
X-1082670Y-3365450D1*
X-1082650Y-3119957D1*
X-1082668Y-2947150D1*
X-1097298D1*
X-1120321Y-2943871D1*
X-1141513Y-2934293D1*
X-1159187Y-2919178D1*
X-1171938Y-2899730D1*
X-1178751Y-2877472D1*
X-1179750Y-2864634D1*
Y-2557955D1*
X-1179084Y-2547446D1*
X-1172912Y-2525025D1*
X-1160724Y-2505219D1*
X-1143490Y-2489604D1*
X-1122582Y-2479422D1*
X-1099662Y-2475484D1*
X-1082670Y-2475450D1*
X-1082650Y-2256623D1*
Y-2057128D1*
X-1097298Y-2057150D1*
X-1120321Y-2053871D1*
X-1141513Y-2044293D1*
X-1159187Y-2029179D1*
X-1171938Y-2009730D1*
X-1178751Y-1987473D1*
X-1179750Y-1974634D1*
X-1179697Y-2862097D2*
D22*
X-1028900Y-2711300D1*
X-1179697Y-2560503D2*
X-1028900Y-2711300D1*
X-1179698Y-1972098D2*
X-1028900Y-1821300D1*
X-1179698Y-1670502D2*
X-1028900Y-1821300D1*
X-2179277Y-594917D2*
D21*
X-1613019D1*
X-2179277Y-658083D2*
X-1612791D1*
X-2179277Y-721250D2*
X-1795538D1*
X-2179277Y-784417D2*
X-1818097D1*
X-2179277Y-847583D2*
X-1818097D1*
X-2179277Y-910750D2*
X-1818097D1*
X-2179277Y-973917D2*
X-1818097D1*
X-2179277Y-1037083D2*
X-1818097D1*
X-2179277Y-1100250D2*
X-1816639D1*
X-2179277Y-1163417D2*
X-1760174D1*
X-2179277Y-1226583D2*
X-1610968D1*
X-2179277Y-1289750D2*
X-1610786D1*
X-2179277Y-1352917D2*
X-1610558D1*
X-2179277Y-1416083D2*
X-1610376D1*
X-2179277Y-1479250D2*
X-1610148D1*
X-2179277Y-1542417D2*
X-1609965D1*
X-2179277Y-1605583D2*
X-1789614D1*
X-2179277Y-1668750D2*
X-1818097D1*
X-2179277Y-1731917D2*
X-1818097D1*
X-2179277Y-1795083D2*
X-1818097D1*
X-2179277Y-1858250D2*
X-1818097D1*
X-2179277Y-1921417D2*
X-1818097D1*
X-2179277Y-1984583D2*
X-1817505D1*
X-2179277Y-2047750D2*
X-1773891D1*
X-2179277Y-2110917D2*
X-1608143D1*
X-2179277Y-2174083D2*
X-2021580D1*
X-1811750Y-777954D2*
X-1811716Y-1087062D1*
X-1811127Y-1094815D1*
X-1809810Y-1102477D1*
X-1807778Y-1109982D1*
X-1805047Y-1117262D1*
X-1801643Y-1124252D1*
X-1797596Y-1130890D1*
X-1792941Y-1137118D1*
X-1787721Y-1142879D1*
X-1781981Y-1148124D1*
X-1775773Y-1152804D1*
X-1769151Y-1156879D1*
X-1762175Y-1160312D1*
X-1754907Y-1163072D1*
X-1747411Y-1165136D1*
X-1739754Y-1166484D1*
X-1731996Y-1167106D1*
X-1724546Y-1167150D1*
X-1604812Y-1167163D1*
X-1603474Y-1585450D1*
X-1731663Y-1585484D1*
X-1739415Y-1586073D1*
X-1747078Y-1587390D1*
X-1754582Y-1589422D1*
X-1761862Y-1592153D1*
X-1768852Y-1595557D1*
X-1775490Y-1599604D1*
X-1781718Y-1604259D1*
X-1787480Y-1609479D1*
X-1792724Y-1615219D1*
X-1797404Y-1621427D1*
X-1801479Y-1628049D1*
X-1804912Y-1635025D1*
X-1807672Y-1642293D1*
X-1809736Y-1649789D1*
X-1811085Y-1657446D1*
X-1811706Y-1665204D1*
X-1811750Y-1671472D1*
X-1811716Y-1977063D1*
X-1811127Y-1984815D1*
X-1809810Y-1992478D1*
X-1807778Y-1999982D1*
X-1805047Y-2007262D1*
X-1801643Y-2014252D1*
X-1797596Y-2020890D1*
X-1792941Y-2027118D1*
X-1787721Y-2032880D1*
X-1781981Y-2038124D1*
X-1775773Y-2042804D1*
X-1769151Y-2046879D1*
X-1762175Y-2050312D1*
X-1754907Y-2053072D1*
X-1747411Y-2055136D1*
X-1739754Y-2056485D1*
X-1731996Y-2057106D1*
X-1724546Y-2057150D1*
X-1601959Y-2057152D1*
X-1601542Y-2183827D1*
X-1628549Y-2183741D1*
Y-2147351D1*
X-2015249D1*
X-2015250Y-2182230D1*
X-2185650Y-2181573D1*
X-2185639Y-531750D1*
X-1606849Y-531743D1*
X-1606330Y-695450D1*
X-1731662Y-695484D1*
X-1739415Y-696073D1*
X-1747077Y-697390D1*
X-1754582Y-699422D1*
X-1761862Y-702153D1*
X-1768852Y-705557D1*
X-1775490Y-709604D1*
X-1781718Y-714259D1*
X-1787479Y-719479D1*
X-1792724Y-725219D1*
X-1797404Y-731427D1*
X-1801479Y-738049D1*
X-1804912Y-745025D1*
X-1807672Y-752293D1*
X-1809736Y-759789D1*
X-1811084Y-767446D1*
X-1811706Y-775204D1*
X-1811750Y-777954D1*
X-1660900Y-931300D2*
D22*
X-1811697Y-1082097D1*
X-1660900Y-931300D2*
X-1811697Y-780503D1*
X-1660900Y-1821300D2*
X-1811697Y-1972097D1*
X-1660900Y-1821300D2*
X-1811697Y-1670503D1*
X-2179277Y-2407017D2*
D21*
X-1602537D1*
X-2179277Y-2470183D2*
X-1602674D1*
X-2179277Y-2533350D2*
X-1814360D1*
X-2179277Y-2596517D2*
X-1818097D1*
X-2179277Y-2659683D2*
X-1818097D1*
X-2179277Y-2722850D2*
X-1818097D1*
X-2179277Y-2786017D2*
X-1818097D1*
X-2179277Y-2849183D2*
X-1818097D1*
X-2179277Y-2912350D2*
X-1802921D1*
X-2179277Y-2975517D2*
X-1603494D1*
X-2179277Y-3038683D2*
X-1603631D1*
X-2179277Y-3101850D2*
X-1603722D1*
X-2179277Y-3165017D2*
X-1603813D1*
X-2179277Y-3228183D2*
X-1603950D1*
X-2179277Y-3291350D2*
X-1604041D1*
X-2179277Y-3354517D2*
X-1604132D1*
X-2179277Y-3417683D2*
X-1812355D1*
X-2179277Y-3480850D2*
X-1818097D1*
X-2179277Y-3544017D2*
X-1818097D1*
X-2179277Y-3607183D2*
X-1818097D1*
X-2179277Y-3670350D2*
X-1818097D1*
X-2179277Y-3733517D2*
X-1818097D1*
X-2179277Y-3796683D2*
X-1806613D1*
X-2179277Y-3859850D2*
X-1604998D1*
X-2179277Y-3923017D2*
X-1605089D1*
X-2179277Y-3986183D2*
X-1605226D1*
X-2179277Y-4049350D2*
X-1605317D1*
X-1811750Y-2557954D2*
X-1811716Y-2867062D1*
X-1811127Y-2874815D1*
X-1809810Y-2882477D1*
X-1807778Y-2889982D1*
X-1805047Y-2897262D1*
X-1801643Y-2904252D1*
X-1797596Y-2910890D1*
X-1792941Y-2917118D1*
X-1787721Y-2922879D1*
X-1781981Y-2928124D1*
X-1775773Y-2932804D1*
X-1769151Y-2936879D1*
X-1762175Y-2940312D1*
X-1754907Y-2943072D1*
X-1747411Y-2945136D1*
X-1739754Y-2946484D1*
X-1731996Y-2947106D1*
X-1724546Y-2947150D1*
X-1597111Y-2947161D1*
X-1597808Y-3365450D1*
X-1731663Y-3365484D1*
X-1739415Y-3366073D1*
X-1747078Y-3367390D1*
X-1754582Y-3369422D1*
X-1761862Y-3372153D1*
X-1768852Y-3375557D1*
X-1775490Y-3379604D1*
X-1781718Y-3384259D1*
X-1787480Y-3389479D1*
X-1792724Y-3395219D1*
X-1797404Y-3401427D1*
X-1801479Y-3408049D1*
X-1804912Y-3415025D1*
X-1807672Y-3422293D1*
X-1809736Y-3429789D1*
X-1811085Y-3437446D1*
X-1811706Y-3445204D1*
X-1811750Y-3451472D1*
X-1811716Y-3757063D1*
X-1811127Y-3764815D1*
X-1809810Y-3772478D1*
X-1807778Y-3779982D1*
X-1805047Y-3787262D1*
X-1801643Y-3794252D1*
X-1797596Y-3800890D1*
X-1792941Y-3807118D1*
X-1787721Y-3812880D1*
X-1781981Y-3818124D1*
X-1775773Y-3822804D1*
X-1769151Y-3826879D1*
X-1762175Y-3830312D1*
X-1754907Y-3833072D1*
X-1747411Y-3835136D1*
X-1739754Y-3836485D1*
X-1731996Y-3837106D1*
X-1724546Y-3837150D1*
X-1598608Y-3837154D1*
X-1598977Y-4068250D1*
X-2185650Y-4068228D1*
X-2185628Y-2344065D1*
X-2015249Y-2345213D1*
Y-2379051D1*
X-1628549D1*
X-1628557Y-2347818D1*
X-1596103Y-2348015D1*
X-1596321Y-2475450D1*
X-1731662Y-2475484D1*
X-1739415Y-2476073D1*
X-1747077Y-2477390D1*
X-1754582Y-2479422D1*
X-1761862Y-2482153D1*
X-1768852Y-2485557D1*
X-1775490Y-2489604D1*
X-1781718Y-2494259D1*
X-1787479Y-2499479D1*
X-1792724Y-2505219D1*
X-1797404Y-2511427D1*
X-1801479Y-2518049D1*
X-1804912Y-2525025D1*
X-1807672Y-2532293D1*
X-1809736Y-2539789D1*
X-1811084Y-2547446D1*
X-1811706Y-2555204D1*
X-1811750Y-2557954D1*
X-1660900Y-2711300D2*
D22*
X-1811697Y-2862097D1*
X-1660900Y-2711300D2*
X-1811697Y-2560503D1*
X-1660900Y-3601300D2*
X-1811697Y-3752097D1*
X-1660900Y-3601300D2*
X-1811697Y-3450503D1*
X-2346977Y-4894917D2*
D21*
X-1822418D1*
X-2346977Y-4958083D2*
X-1822418D1*
X-2240564Y-5021250D2*
X-1822418D1*
X-2237511Y-5084417D2*
X-1822418D1*
X-2237511Y-5147583D2*
X-1822418D1*
X-2237511Y-5210750D2*
X-1822418D1*
X-2237511Y-5273917D2*
X-1822418D1*
X-2237511Y-5337083D2*
X-1822418D1*
X-2254373Y-5400250D2*
X-1822418D1*
X-2346977Y-5463417D2*
X-1822418D1*
X-2346977Y-5526583D2*
X-1822418D1*
X-2346977Y-5589750D2*
X-1822418D1*
X-2346977Y-5652917D2*
X-1822418D1*
X-2346977Y-5716083D2*
X-1822418D1*
X-2346977Y-5779250D2*
X-1822418D1*
X-2346977Y-5842417D2*
X-1822418D1*
X-2242387Y-5905583D2*
X-1822418D1*
X-2237511Y-5968750D2*
X-1822418D1*
X-2237511Y-6031917D2*
X-1822418D1*
X-2237511Y-6095083D2*
X-1822418D1*
X-2237511Y-6158250D2*
X-1822418D1*
X-2237511Y-6221417D2*
X-1822418D1*
X-2247309Y-6284583D2*
X-1822418D1*
X-2266678Y-6347750D2*
X-1822418D1*
X-1860669Y-6410917D2*
X-1822418D1*
X-1858618Y-6474083D2*
X-1822418D1*
X-1858618Y-6537250D2*
X-1822418D1*
X-1858618Y-6600417D2*
X-1822418D1*
X-1876938Y-6663583D2*
X-1822418D1*
X-2263396Y-6726750D2*
X-1822418D1*
X-2244028Y-6789917D2*
X-1822418D1*
X-2237511Y-6853083D2*
X-1822418D1*
X-2237511Y-6916250D2*
X-1822418D1*
X-2237511Y-6979417D2*
X-1822418D1*
X-2237511Y-7042583D2*
X-1822418D1*
X-2237511Y-7105750D2*
X-1822418D1*
X-2247081Y-7168917D2*
X-1822418D1*
X-2346977Y-7232083D2*
X-1822418D1*
X-2346977Y-7295250D2*
X-1822418D1*
X-2346977Y-7358417D2*
X-1822418D1*
X-2346977Y-7421583D2*
X-1822418D1*
X-2346977Y-7484750D2*
X-1822418D1*
X-2346977Y-7547917D2*
X-1850491D1*
X-2346977Y-7611083D2*
X-1899892D1*
X-2247446Y-7674250D2*
X-1963056D1*
X-2237511Y-7737417D2*
X-2026220D1*
X-2237511Y-7800583D2*
X-2089384D1*
X-2237511Y-7863750D2*
X-2152548D1*
X-2250546Y-6358127D2*
X-1934736D1*
X-1931055Y-6358222D1*
X-1909030Y-6363021D1*
X-1889686Y-6374593D1*
X-1875043Y-6391732D1*
X-1866630Y-6412645D1*
X-1864947Y-6427877D1*
Y-6616374D1*
X-1865042Y-6620065D1*
X-1869841Y-6642090D1*
X-1881413Y-6661434D1*
X-1898552Y-6676077D1*
X-1919465Y-6684490D1*
X-1934697Y-6686174D1*
X-2250617D1*
X-2254319Y-6686074D1*
X-2271172Y-6683078D1*
X-2276931Y-6703274D1*
X-2247487Y-6799283D1*
X-2245469Y-6807245D1*
X-2243850Y-6823502D1*
Y-7130245D1*
X-2244516Y-7140754D1*
X-2250688Y-7163175D1*
X-2262876Y-7182981D1*
X-2280110Y-7198596D1*
X-2301018Y-7208778D1*
X-2323938Y-7212716D1*
X-2353363Y-7212750D1*
X-2353350Y-7631055D1*
X-2326363Y-7631050D1*
X-2315846Y-7631716D1*
X-2293425Y-7637888D1*
X-2273619Y-7650076D1*
X-2258004Y-7667310D1*
X-2247822Y-7688218D1*
X-2243884Y-7711138D1*
X-2243850Y-7735416D1*
Y-7961435D1*
X-1923212Y-7640776D1*
X-1877791Y-7595355D1*
X-1868060Y-7576184D1*
X-1854053Y-7557659D1*
X-1836881Y-7542024D1*
X-1817128Y-7529810D1*
X-1816049Y-7529393D1*
X-1816050Y-4831739D1*
X-2353348Y-4831750D1*
X-2353350Y-4961029D1*
X-2326363Y-4961050D1*
X-2315847Y-4961715D1*
X-2293425Y-4967888D1*
X-2273619Y-4980076D1*
X-2258004Y-4997309D1*
X-2247822Y-5018217D1*
X-2243884Y-5041137D1*
X-2243850Y-5065416D1*
Y-5350245D1*
X-2244515Y-5360753D1*
X-2250688Y-5383175D1*
X-2262876Y-5402981D1*
X-2280109Y-5418596D1*
X-2301017Y-5428778D1*
X-2323937Y-5432716D1*
X-2353363Y-5432750D1*
X-2353350Y-5851068D1*
X-2326363Y-5851050D1*
X-2315846Y-5851715D1*
X-2293425Y-5857888D1*
X-2273619Y-5870076D1*
X-2258004Y-5887309D1*
X-2247822Y-5908218D1*
X-2243884Y-5931137D1*
X-2243850Y-5955416D1*
Y-6240245D1*
X-2244521Y-6250775D1*
X-2247536Y-6264675D1*
X-2277902Y-6363680D1*
X-2269399Y-6360695D1*
X-2250546Y-6358127D1*
X-2394700Y-7866900D2*
D22*
X-2243903Y-7716103D1*
X-2394700Y-5196900D2*
X-2243902Y-5046102D1*
X-2394700Y-5196900D2*
X-2243902Y-5347698D1*
X-2865486Y-4894917D2*
D21*
X-2470035D1*
X-2865440Y-4958083D2*
X-2469944D1*
X-2865349Y-5021250D2*
X-2540217D1*
X-2865304Y-5084417D2*
X-2543635D1*
X-2865258Y-5147583D2*
X-2543635D1*
X-2865167Y-5210750D2*
X-2543635D1*
X-2865121Y-5273917D2*
X-2543635D1*
X-2865030Y-5337083D2*
X-2543635D1*
X-2864985Y-5400250D2*
X-2524312D1*
X-2864894Y-5463417D2*
X-2469488D1*
X-2864848Y-5526583D2*
X-2469443D1*
X-2864802Y-5589750D2*
X-2469397D1*
X-2864711Y-5652917D2*
X-2733219D1*
X-2602804D2*
X-2469351D1*
X-2864666Y-5716083D2*
X-2785400D1*
X-2550577D2*
X-2469306D1*
X-2864575Y-5779250D2*
X-2789364D1*
X-2546658D2*
X-2469215D1*
X-2554086Y-5842417D2*
X-2469169D1*
X-2554086Y-6284583D2*
X-2528961D1*
X-2554086Y-6347750D2*
X-2468713D1*
X-2554086Y-6410917D2*
X-2468668D1*
X-2554086Y-6474083D2*
X-2468622D1*
X-2554086Y-6537250D2*
X-2468577D1*
X-2554086Y-6600417D2*
X-2468486D1*
X-2554086Y-6663583D2*
X-2468440D1*
X-2554086Y-6726750D2*
X-2468394D1*
X-2571176Y-7232083D2*
X-2467939D1*
X-2642862Y-7295250D2*
X-2467893D1*
X-2545974Y-7358417D2*
X-2467848D1*
X-2862888Y-7421583D2*
X-2833525D1*
X-2531437D2*
X-2467756D1*
X-2862843Y-7484750D2*
X-2770361D1*
X-2553904D2*
X-2467711D1*
X-2862752Y-7547917D2*
X-2467665D1*
X-2862706Y-7611083D2*
X-2467620D1*
X-2862615Y-7674250D2*
X-2532379D1*
X-2862569Y-7737417D2*
X-2543635D1*
X-2862478Y-7800583D2*
X-2543635D1*
X-2862433Y-7863750D2*
X-2543635D1*
X-2862387Y-7926917D2*
X-2543635D1*
X-2862296Y-7990083D2*
X-2543635D1*
X-2862250Y-8053250D2*
X-2535933D1*
X-2862159Y-8116417D2*
X-2467164D1*
X-2862114Y-8179583D2*
X-2489950D1*
X-2862023Y-8242750D2*
X-2484299D1*
X-2861977Y-8305917D2*
X-2466982D1*
X-2861931Y-8369083D2*
X-2466936D1*
X-2861840Y-8432250D2*
X-2531650D1*
X-2861795Y-8495417D2*
X-2594814D1*
X-2861704Y-8558583D2*
X-2657978D1*
X-2861658Y-8621750D2*
X-2721142D1*
X-2861567Y-8684917D2*
X-2784306D1*
X-2460575Y-8370291D2*
X-2460676Y-8272618D1*
X-2465903Y-8266221D1*
X-2476727Y-8245870D1*
X-2483372Y-8223798D1*
X-2485583Y-8200854D1*
X-2483276Y-8177920D1*
X-2476538Y-8155876D1*
X-2465630Y-8135570D1*
X-2460777Y-8129681D1*
X-2460818Y-8094483D1*
X-2463098D1*
X-2483162Y-8091719D1*
X-2501731Y-8083630D1*
X-2517420Y-8070822D1*
X-2529060Y-8054247D1*
X-2535785Y-8035122D1*
X-2537283Y-8020234D1*
Y-7713555D1*
X-2537089Y-7708134D1*
X-2532880Y-7688323D1*
X-2523469Y-7670388D1*
X-2509559Y-7655667D1*
X-2492185Y-7645257D1*
X-2472644Y-7639933D1*
X-2463098Y-7639317D1*
X-2461205D1*
X-2461422Y-7418296D1*
X-2461612Y-7204491D1*
X-2463098Y-7204483D1*
X-2483162Y-7201719D1*
X-2501731Y-7193630D1*
X-2517420Y-7180822D1*
X-2529060Y-7164247D1*
X-2535785Y-7145122D1*
X-2537283Y-7130234D1*
Y-6823555D1*
X-2537089Y-6818134D1*
X-2532880Y-6798323D1*
X-2523469Y-6780388D1*
X-2509559Y-6765667D1*
X-2492185Y-6755257D1*
X-2472644Y-6749933D1*
X-2463098Y-6749317D1*
X-2462007D1*
X-2462392Y-6314484D1*
X-2463098D1*
X-2483162Y-6311719D1*
X-2501731Y-6303631D1*
X-2517420Y-6290822D1*
X-2529060Y-6274247D1*
X-2535785Y-6255122D1*
X-2537283Y-6240234D1*
Y-5933555D1*
X-2537089Y-5928135D1*
X-2532880Y-5908323D1*
X-2523469Y-5890388D1*
X-2509559Y-5875667D1*
X-2492185Y-5865257D1*
X-2472644Y-5859933D1*
X-2462808Y-5859316D1*
X-2463195Y-5424505D1*
X-2483162Y-5421719D1*
X-2501731Y-5413631D1*
X-2517420Y-5400822D1*
X-2529060Y-5384247D1*
X-2535785Y-5365122D1*
X-2537284Y-5350234D1*
Y-5043555D1*
X-2537089Y-5038135D1*
X-2532880Y-5018323D1*
X-2523469Y-5000388D1*
X-2509559Y-4985667D1*
X-2492185Y-4975257D1*
X-2472635Y-4969932D1*
X-2463600Y-4969323D1*
X-2463720Y-4831750D1*
X-2871917Y-4831728D1*
X-2870897Y-5802453D1*
X-2865670Y-5799673D1*
X-2843598Y-5793028D1*
X-2820654Y-5790817D1*
X-2797720Y-5793124D1*
X-2776687Y-5799552D1*
X-2783372Y-5777411D1*
X-2785583Y-5754467D1*
X-2783276Y-5731533D1*
X-2776538Y-5709489D1*
X-2765630Y-5689183D1*
X-2750970Y-5671396D1*
X-2733121Y-5656810D1*
X-2712770Y-5645987D1*
X-2690698Y-5639342D1*
X-2667754Y-5637130D1*
X-2644820Y-5639438D1*
X-2622776Y-5646175D1*
X-2602470Y-5657083D1*
X-2584682Y-5671743D1*
X-2570097Y-5689592D1*
X-2559273Y-5709943D1*
X-2552628Y-5732015D1*
X-2550417Y-5754713D1*
X-2552724Y-5777894D1*
X-2559462Y-5799938D1*
X-2560410Y-5801702D1*
X-2560416Y-7109566D1*
X-2559273Y-7112230D1*
X-2552628Y-7134302D1*
X-2550417Y-7157000D1*
X-2552724Y-7180180D1*
X-2559462Y-7202224D1*
X-2570370Y-7222530D1*
X-2585030Y-7240318D1*
X-2602879Y-7254903D1*
X-2623230Y-7265727D1*
X-2645302Y-7272372D1*
X-2668246Y-7274583D1*
X-2670060Y-7274401D1*
X-2646304Y-7298150D1*
X-2632020Y-7300124D1*
X-2609976Y-7306862D1*
X-2589670Y-7317770D1*
X-2571882Y-7332430D1*
X-2557297Y-7350279D1*
X-2546473Y-7370630D1*
X-2539828Y-7392702D1*
X-2537617Y-7415400D1*
X-2539924Y-7438580D1*
X-2546662Y-7460624D1*
X-2557570Y-7480930D1*
X-2572230Y-7498718D1*
X-2590079Y-7513303D1*
X-2610430Y-7524127D1*
X-2632502Y-7530772D1*
X-2636244Y-7531132D1*
X-2648163Y-7534101D1*
X-2671379Y-7535937D1*
X-2694445Y-7532733D1*
X-2716281Y-7524641D1*
X-2735865Y-7512040D1*
X-2744273Y-7504473D1*
X-2869285Y-7379461D1*
X-2867841Y-8774785D1*
X-2476416Y-8383370D1*
X-2474074Y-8381099D1*
X-2460575Y-8370291D1*
X-3237087Y-6653917D2*
X-3017547D1*
X-3397093Y-6717083D2*
X-3017456D1*
X-3397093Y-6780250D2*
X-3171629D1*
X-3397093Y-6843417D2*
X-3183888D1*
X-3397093Y-6906583D2*
X-3183888D1*
X-3397093Y-6969750D2*
X-3183888D1*
X-3397093Y-7032917D2*
X-3183888D1*
X-3397093Y-7096083D2*
X-3183888D1*
X-3397093Y-7159250D2*
X-3178647D1*
X-3397093Y-7222417D2*
X-3016772D1*
X-3397093Y-7285583D2*
X-3016681D1*
X-3397093Y-7348750D2*
X-3016590D1*
X-3397093Y-7411917D2*
X-3016499D1*
X-3397093Y-7475083D2*
X-3016408D1*
X-3397093Y-7538250D2*
X-3016317D1*
X-3397093Y-7601417D2*
X-3016225D1*
X-3397093Y-7664583D2*
X-3167801D1*
X-3397093Y-7727750D2*
X-3183888D1*
X-3397093Y-7790917D2*
X-3183888D1*
X-3397093Y-7854083D2*
X-3183888D1*
X-3397093Y-7917250D2*
X-3183888D1*
X-3397093Y-7980417D2*
X-3183888D1*
X-3397093Y-8043583D2*
X-3180561D1*
X-3397093Y-8106750D2*
X-3015496D1*
X-3397093Y-8169917D2*
X-3015405D1*
X-3397093Y-8233083D2*
X-3015314D1*
X-3397093Y-8296250D2*
X-3015223D1*
X-3395680Y-8359417D2*
X-3015132D1*
X-3425713Y-8422583D2*
X-3015086D1*
X-3488740Y-8485750D2*
X-3014995D1*
X-3524788Y-8548917D2*
X-3014904D1*
X-3524697Y-8612083D2*
X-3014813D1*
X-3524606Y-8675250D2*
X-3014721D1*
X-3524515Y-8738417D2*
X-3014630D1*
X-3524424Y-8801583D2*
X-3014539D1*
X-3177550Y-7713554D2*
X-3177516Y-8022662D1*
X-3176927Y-8030415D1*
X-3175610Y-8038077D1*
X-3173578Y-8045582D1*
X-3170847Y-8052862D1*
X-3167443Y-8059852D1*
X-3163396Y-8066490D1*
X-3158741Y-8072718D1*
X-3153521Y-8078479D1*
X-3147781Y-8083724D1*
X-3141573Y-8088404D1*
X-3134951Y-8092479D1*
X-3127975Y-8095912D1*
X-3120707Y-8098672D1*
X-3113211Y-8100736D1*
X-3105554Y-8102084D1*
X-3097796Y-8102706D1*
X-3090346Y-8102750D1*
X-3009166Y-8102749D1*
X-3008105Y-8860310D1*
X-3530694Y-8861277D1*
X-3531164Y-8521801D1*
X-3434881Y-8425519D1*
X-3425631Y-8415081D1*
X-3413174Y-8395398D1*
X-3404907Y-8373621D1*
X-3401163Y-8350630D1*
X-3402094Y-8327354D1*
X-3403450Y-8319650D1*
X-3403449Y-6662901D1*
X-3243449D1*
X-3243443Y-6590975D1*
X-3011305Y-6590778D1*
X-3011095Y-6741050D1*
X-3097463Y-6741084D1*
X-3105215Y-6741673D1*
X-3112878Y-6742990D1*
X-3120382Y-6745022D1*
X-3127662Y-6747753D1*
X-3134652Y-6751157D1*
X-3141290Y-6755204D1*
X-3147518Y-6759859D1*
X-3153280Y-6765079D1*
X-3158524Y-6770819D1*
X-3163204Y-6777027D1*
X-3167279Y-6783649D1*
X-3170712Y-6790625D1*
X-3173472Y-6797893D1*
X-3175536Y-6805389D1*
X-3176885Y-6813046D1*
X-3177506Y-6820804D1*
X-3177550Y-6827072D1*
X-3177516Y-7132663D1*
X-3176927Y-7140415D1*
X-3175610Y-7148078D1*
X-3173578Y-7155582D1*
X-3170847Y-7162862D1*
X-3167443Y-7169852D1*
X-3163396Y-7176490D1*
X-3158741Y-7182718D1*
X-3153521Y-7188480D1*
X-3147781Y-7193724D1*
X-3141573Y-7198404D1*
X-3134951Y-7202479D1*
X-3127975Y-7205912D1*
X-3120707Y-7208672D1*
X-3113211Y-7210736D1*
X-3105554Y-7212085D1*
X-3097796Y-7212706D1*
X-3090346Y-7212750D1*
X-3010425Y-7212756D1*
X-3009834Y-7631050D1*
X-3097462Y-7631084D1*
X-3105215Y-7631673D1*
X-3112877Y-7632990D1*
X-3120382Y-7635022D1*
X-3127662Y-7637753D1*
X-3134652Y-7641157D1*
X-3141290Y-7645204D1*
X-3147518Y-7649859D1*
X-3153279Y-7655079D1*
X-3158524Y-7660819D1*
X-3163204Y-7667027D1*
X-3167279Y-7673649D1*
X-3170712Y-7680625D1*
X-3173472Y-7687893D1*
X-3175536Y-7695389D1*
X-3176884Y-7703046D1*
X-3177506Y-7710804D1*
X-3177550Y-7713554D1*
X-3026700Y-7866900D2*
D22*
X-3177497Y-8017697D1*
X-3026700Y-7866900D2*
X-3177497Y-7716103D1*
X-3026700Y-6976900D2*
X-3177497Y-7127697D1*
X-3026700Y-6976900D2*
X-3177497Y-6826103D1*
X-3243463Y-6660387D2*
X-3356800Y-6547050D1*
X-3655077Y-4894917D2*
D21*
X-3022419D1*
X-3655077Y-4958083D2*
X-3022419D1*
X-3655077Y-5021250D2*
X-3180831D1*
X-3655077Y-5084417D2*
X-3183884D1*
X-3655077Y-5147583D2*
X-3183884D1*
X-3655077Y-5210750D2*
X-3183884D1*
X-3655077Y-5273917D2*
X-3183884D1*
X-3655077Y-5337083D2*
X-3183884D1*
X-3655077Y-5400250D2*
X-3167068D1*
X-3655077Y-5463417D2*
X-3022419D1*
X-3655077Y-5526583D2*
X-3022419D1*
X-3655077Y-5589750D2*
X-3022419D1*
X-3655077Y-5652917D2*
X-3022419D1*
X-3655077Y-5716083D2*
X-3022419D1*
X-3655077Y-5779250D2*
X-3022419D1*
X-3655077Y-5842417D2*
X-3022419D1*
X-3655077Y-5905583D2*
X-3179008D1*
X-3655077Y-5968750D2*
X-3183884D1*
X-3655077Y-6031917D2*
X-3183884D1*
X-3655077Y-6095083D2*
X-3183884D1*
X-3655077Y-6158250D2*
X-3183884D1*
X-3655077Y-6221417D2*
X-3183884D1*
X-3655077Y-6284583D2*
X-3170987D1*
X-3655077Y-6347750D2*
X-3022419D1*
X-3655077Y-6410917D2*
X-3022419D1*
X-3177550Y-5933554D2*
X-3177516Y-6242662D1*
X-3176927Y-6250415D1*
X-3175610Y-6258077D1*
X-3173578Y-6265582D1*
X-3170847Y-6272862D1*
X-3167443Y-6279852D1*
X-3163396Y-6286490D1*
X-3158741Y-6292718D1*
X-3153521Y-6298479D1*
X-3147781Y-6303724D1*
X-3141573Y-6308404D1*
X-3134951Y-6312479D1*
X-3127975Y-6315912D1*
X-3120707Y-6318672D1*
X-3113211Y-6320736D1*
X-3105554Y-6322084D1*
X-3097796Y-6322706D1*
X-3090346Y-6322750D1*
X-3016050Y-6322754D1*
X-3016029Y-6433859D1*
X-3243449Y-6435370D1*
Y-6431201D1*
X-3630149D1*
X-3630156Y-6437931D1*
X-3661450Y-6438141D1*
X-3661468Y-4831750D1*
X-3016050Y-4831745D1*
X-3016047Y-4961050D1*
X-3097463Y-4961084D1*
X-3105215Y-4961673D1*
X-3112878Y-4962990D1*
X-3120382Y-4965022D1*
X-3127662Y-4967753D1*
X-3134652Y-4971157D1*
X-3141290Y-4975204D1*
X-3147518Y-4979859D1*
X-3153280Y-4985079D1*
X-3158524Y-4990819D1*
X-3163204Y-4997027D1*
X-3167279Y-5003649D1*
X-3170712Y-5010625D1*
X-3173472Y-5017893D1*
X-3175536Y-5025389D1*
X-3176885Y-5033046D1*
X-3177506Y-5040804D1*
X-3177550Y-5047072D1*
X-3177516Y-5352663D1*
X-3176927Y-5360415D1*
X-3175610Y-5368078D1*
X-3173578Y-5375582D1*
X-3170847Y-5382862D1*
X-3167443Y-5389852D1*
X-3163396Y-5396490D1*
X-3158741Y-5402718D1*
X-3153521Y-5408480D1*
X-3147781Y-5413724D1*
X-3141573Y-5418404D1*
X-3134951Y-5422479D1*
X-3127975Y-5425912D1*
X-3120707Y-5428672D1*
X-3113211Y-5430736D1*
X-3105554Y-5432085D1*
X-3097796Y-5432706D1*
X-3090346Y-5432750D1*
X-3016050Y-5432761D1*
X-3016047Y-5851050D1*
X-3097462Y-5851084D1*
X-3105215Y-5851673D1*
X-3112877Y-5852990D1*
X-3120382Y-5855022D1*
X-3127662Y-5857753D1*
X-3134652Y-5861157D1*
X-3141290Y-5865204D1*
X-3147518Y-5869859D1*
X-3153279Y-5875079D1*
X-3158524Y-5880819D1*
X-3163204Y-5887027D1*
X-3167279Y-5893649D1*
X-3170712Y-5900625D1*
X-3173472Y-5907893D1*
X-3175536Y-5915389D1*
X-3176884Y-5923046D1*
X-3177506Y-5930804D1*
X-3177550Y-5933554D1*
X-3026700Y-6086900D2*
D22*
X-3177497Y-6237697D1*
X-3026700Y-6086900D2*
X-3177497Y-5936103D1*
X-3026700Y-5196900D2*
X-3177497Y-5347697D1*
X-3026700Y-5196900D2*
X-3177497Y-5046103D1*
X-2950000Y-594917D2*
D21*
X-2425418D1*
X-2950000Y-658083D2*
X-2425418D1*
X-2862796Y-721250D2*
X-2425418D1*
X-2843291Y-784417D2*
X-2425418D1*
X-2843291Y-847583D2*
X-2425418D1*
X-2843291Y-910750D2*
X-2425418D1*
X-2843291Y-973917D2*
X-2425418D1*
X-2843291Y-1037083D2*
X-2425418D1*
X-2845524Y-1100250D2*
X-2425418D1*
X-2918350Y-1163417D2*
X-2425418D1*
X-2950000Y-1226583D2*
X-2425418D1*
X-2950000Y-1289750D2*
X-2425418D1*
X-2950000Y-1352917D2*
X-2425418D1*
X-2950000Y-1416083D2*
X-2425418D1*
X-2950000Y-1479250D2*
X-2425418D1*
X-2950000Y-1542417D2*
X-2425418D1*
X-2868083Y-1605583D2*
X-2425418D1*
X-2843291Y-1668750D2*
X-2425418D1*
X-2843291Y-1731917D2*
X-2425418D1*
X-2843291Y-1795083D2*
X-2425418D1*
X-2843291Y-1858250D2*
X-2425418D1*
X-2843291Y-1921417D2*
X-2425418D1*
X-2844385Y-1984583D2*
X-2425418D1*
X-2862979Y-2047750D2*
X-2425418D1*
X-2518721Y-2110917D2*
X-2425418D1*
X-2477295Y-2174083D2*
X-2425418D1*
X-2477295Y-2237250D2*
X-2425418D1*
X-2477295Y-2300417D2*
X-2425418D1*
X-2477295Y-2363583D2*
X-2425418D1*
X-2518311Y-2426750D2*
X-2425418D1*
X-2859333Y-2489917D2*
X-2425418D1*
X-2843291Y-2553083D2*
X-2425418D1*
X-2843291Y-2616250D2*
X-2425418D1*
X-2812529Y-2679417D2*
X-2425418D1*
X-2756110Y-2742583D2*
X-2425418D1*
X-2680003Y-2805750D2*
X-2425418D1*
X-2653434Y-2868917D2*
X-2425418D1*
X-2661911Y-2932083D2*
X-2425418D1*
X-2950000Y-2995250D2*
X-2850431D1*
X-2718968D2*
X-2425418D1*
X-2950000Y-3058417D2*
X-2425418D1*
X-2950000Y-3121583D2*
X-2425418D1*
X-2950000Y-3184750D2*
X-2425418D1*
X-2950000Y-3247917D2*
X-2425418D1*
X-2950000Y-3311083D2*
X-2425418D1*
X-2882575Y-3374250D2*
X-2425418D1*
X-2843610Y-3437417D2*
X-2425418D1*
X-2843291Y-3500583D2*
X-2425418D1*
X-2843291Y-3563750D2*
X-2425418D1*
X-2843291Y-3626917D2*
X-2425418D1*
X-2843291Y-3690083D2*
X-2425418D1*
X-2843337Y-3753250D2*
X-2425418D1*
X-2875192Y-3816417D2*
X-2425418D1*
X-2950000Y-3879583D2*
X-2425418D1*
X-2950000Y-3942750D2*
X-2425418D1*
X-2950000Y-4005917D2*
X-2425418D1*
X-2853290Y-2530275D2*
X-2881833Y-2437213D1*
X-2872976Y-2432849D1*
X-2869317Y-2432947D1*
X-2553397D1*
X-2538165Y-2431263D1*
X-2517252Y-2422851D1*
X-2500113Y-2408208D1*
X-2488541Y-2388863D1*
X-2483744Y-2366816D1*
X-2483647Y-2361552D1*
Y-2174650D1*
X-2485330Y-2159418D1*
X-2493743Y-2138505D1*
X-2508386Y-2121367D1*
X-2527730Y-2109794D1*
X-2549777Y-2104997D1*
X-2553436Y-2104900D1*
X-2869246D1*
X-2884650Y-2106584D1*
Y-2097773D1*
X-2853272Y-1995467D1*
X-2850316Y-1981731D1*
X-2849650Y-1971245D1*
X-2849684Y-1662137D1*
X-2853622Y-1639218D1*
X-2863804Y-1618309D1*
X-2879419Y-1601076D1*
X-2899225Y-1588888D1*
X-2921669Y-1582716D1*
X-2932163Y-1582050D1*
X-2956350Y-1582058D1*
X-2956337Y-1163750D1*
X-2929737Y-1163716D1*
X-2906817Y-1159778D1*
X-2885909Y-1149596D1*
X-2868676Y-1133981D1*
X-2856488Y-1114175D1*
X-2850316Y-1091731D1*
X-2849650Y-1081245D1*
X-2849684Y-772137D1*
X-2853622Y-749217D1*
X-2863804Y-728309D1*
X-2879419Y-711076D1*
X-2899225Y-698888D1*
X-2921669Y-692716D1*
X-2932163Y-692050D1*
X-2956350Y-692065D1*
X-2956348Y-531750D1*
X-2419050Y-531757D1*
X-2419052Y-4068250D1*
X-2956350Y-4068243D1*
X-2956337Y-3833750D1*
X-2929738Y-3833716D1*
X-2906818Y-3829778D1*
X-2885910Y-3819596D1*
X-2868676Y-3803981D1*
X-2856488Y-3784175D1*
X-2850316Y-3761731D1*
X-2849650Y-3751245D1*
X-2849684Y-3442138D1*
X-2853622Y-3419218D1*
X-2863804Y-3398310D1*
X-2879419Y-3381076D1*
X-2899225Y-3368888D1*
X-2921669Y-3362716D1*
X-2932163Y-3362050D1*
X-2956350Y-3362045D1*
X-2956337Y-2943750D1*
X-2929738Y-2943716D1*
X-2906818Y-2939778D1*
X-2898616Y-2936657D1*
X-2891740Y-2950487D1*
X-2877756Y-2969028D1*
X-2860602Y-2984684D1*
X-2840864Y-2996922D1*
X-2819214Y-3005325D1*
X-2796388Y-3009606D1*
X-2773164Y-3009620D1*
X-2750333Y-3005367D1*
X-2728672Y-2996990D1*
X-2708919Y-2984776D1*
X-2691747Y-2969141D1*
X-2677740Y-2950616D1*
X-2667376Y-2929833D1*
X-2661007Y-2907500D1*
X-2658850Y-2884300D1*
X-2660165Y-2866155D1*
X-2665620Y-2843580D1*
X-2675129Y-2822393D1*
X-2688370Y-2803313D1*
X-2704892Y-2786992D1*
X-2724131Y-2773984D1*
X-2737531Y-2767632D1*
X-2761569Y-2743592D1*
X-2849650Y-2644935D1*
Y-2554502D1*
X-2849955Y-2547457D1*
X-2853290Y-2530275D1*
X-3000500Y-3597900D2*
D22*
X-2849703Y-3447103D1*
X-3000500Y-3597900D2*
X-2849703Y-3748697D1*
X-3000500Y-927900D2*
X-2849702Y-777102D1*
X-3000500Y-927900D2*
X-2849702Y-1078698D1*
X-3433177Y-594917D2*
D21*
X-3070220D1*
X-3433177Y-658083D2*
X-3070220D1*
X-3433177Y-721250D2*
X-3138214D1*
X-3433177Y-784417D2*
X-3157720D1*
X-3433177Y-847583D2*
X-3157720D1*
X-3433177Y-910750D2*
X-3157720D1*
X-3433177Y-973917D2*
X-3157720D1*
X-3433177Y-1037083D2*
X-3157720D1*
X-3433177Y-1100250D2*
X-3155487D1*
X-3433177Y-1163417D2*
X-3082661D1*
X-3433177Y-1226583D2*
X-3070220D1*
X-3433177Y-1289750D2*
X-3070220D1*
X-3433177Y-1352917D2*
X-3070220D1*
X-3433177Y-1416083D2*
X-3070220D1*
X-3433177Y-1479250D2*
X-3070220D1*
X-3433177Y-1542417D2*
X-3070220D1*
X-3433177Y-1605583D2*
X-3132928D1*
X-3433177Y-1668750D2*
X-3157720D1*
X-3433177Y-1731917D2*
X-3157720D1*
X-3433177Y-1795083D2*
X-3157720D1*
X-3433177Y-1858250D2*
X-3157720D1*
X-3433177Y-1921417D2*
X-3157720D1*
X-3433177Y-1984583D2*
X-3156626D1*
X-3433177Y-2047750D2*
X-3106131D1*
X-3433177Y-2110917D2*
X-3070220D1*
X-3433177Y-2174083D2*
X-3070220D1*
X-3433177Y-2237250D2*
X-3070220D1*
X-3433177Y-2300417D2*
X-3070220D1*
X-3433177Y-2363583D2*
X-3070220D1*
X-3433177Y-2426750D2*
X-3070220D1*
X-3433177Y-2489917D2*
X-3126502D1*
X-3433177Y-2553083D2*
X-3157674D1*
X-3433177Y-2616250D2*
X-3157720D1*
X-3433177Y-2679417D2*
X-3157720D1*
X-3433177Y-2742583D2*
X-3157720D1*
X-3433177Y-2805750D2*
X-3157720D1*
X-3433177Y-2868917D2*
X-3157355D1*
X-3433177Y-2932083D2*
X-3117524D1*
X-3433177Y-2995250D2*
X-3070220D1*
X-3433177Y-3058417D2*
X-3070220D1*
X-3433177Y-3121583D2*
X-3070220D1*
X-3433177Y-3184750D2*
X-3070220D1*
X-3433177Y-3247917D2*
X-3070220D1*
X-3433177Y-3311083D2*
X-3070220D1*
X-3433177Y-3374250D2*
X-3118390D1*
X-3433177Y-3437417D2*
X-3157401D1*
X-3433177Y-3500583D2*
X-3157720D1*
X-3433177Y-3563750D2*
X-3157720D1*
X-3433177Y-3626917D2*
X-3157720D1*
X-3433177Y-3690083D2*
X-3157720D1*
X-3433177Y-3753250D2*
X-3157674D1*
X-3433177Y-3816417D2*
X-3141496D1*
X-3433177Y-3879583D2*
X-3132244D1*
X-3433177Y-3942750D2*
X-3108820D1*
X-3433177Y-4005917D2*
X-3070220D1*
X-3151350Y-2861234D2*
Y-2554555D1*
X-3150685Y-2544047D1*
X-3144512Y-2521625D1*
X-3132324Y-2501819D1*
X-3115091Y-2486204D1*
X-3094183Y-2476022D1*
X-3071263Y-2472084D1*
X-3063844Y-2472050D1*
X-3063833Y-2053750D1*
X-3068898D1*
X-3091921Y-2050471D1*
X-3113113Y-2040893D1*
X-3130787Y-2025778D1*
X-3143538Y-2006330D1*
X-3150351Y-1984072D1*
X-3151350Y-1971234D1*
Y-1664555D1*
X-3150684Y-1654046D1*
X-3144512Y-1631625D1*
X-3132324Y-1611819D1*
X-3115090Y-1596204D1*
X-3094182Y-1586022D1*
X-3071262Y-1582084D1*
X-3063844Y-1582050D1*
X-3063850Y-1163762D1*
X-3068898Y-1163750D1*
X-3091921Y-1160471D1*
X-3113113Y-1150893D1*
X-3130787Y-1135779D1*
X-3143538Y-1116330D1*
X-3150351Y-1094072D1*
X-3151350Y-1081234D1*
Y-774555D1*
X-3150685Y-764046D1*
X-3144512Y-741625D1*
X-3132324Y-721819D1*
X-3115091Y-706204D1*
X-3094182Y-696022D1*
X-3071263Y-692084D1*
X-3063844Y-692050D1*
X-3063850Y-531757D1*
X-3439539Y-531750D1*
X-3439550Y-2226710D1*
Y-4068243D1*
X-3063861Y-4068250D1*
X-3063850Y-3977753D1*
X-3076402Y-3969384D1*
X-3093556Y-3953728D1*
X-3107540Y-3935187D1*
X-3117879Y-3914391D1*
X-3124221Y-3892050D1*
X-3126350Y-3868924D1*
X-3124650Y-3850700D1*
X-3147713Y-3775517D1*
X-3150351Y-3764072D1*
X-3151350Y-3751234D1*
Y-3444555D1*
X-3150684Y-3434046D1*
X-3144512Y-3411625D1*
X-3132324Y-3391819D1*
X-3115090Y-3376204D1*
X-3094182Y-3366022D1*
X-3071262Y-3362084D1*
X-3063844Y-3362050D1*
X-3063850Y-2943749D1*
X-3068898Y-2943750D1*
X-3091921Y-2940471D1*
X-3113113Y-2930893D1*
X-3130787Y-2915779D1*
X-3143538Y-2896330D1*
X-3150351Y-2874073D1*
X-3151350Y-2861234D1*
X-3151297Y-1968697D2*
D22*
X-3000500Y-1817900D1*
X-3151297Y-1667103D2*
X-3000500Y-1817900D1*
X-3151298Y-2858698D2*
X-3000500Y-2707900D1*
X-3151298Y-2557102D2*
X-3000500Y-2707900D1*
X-4039377Y-594917D2*
D21*
X-3651993D1*
X-4039377Y-658083D2*
X-3651810D1*
X-4039377Y-721250D2*
X-3770209D1*
X-4039377Y-784417D2*
X-3789714D1*
X-4039377Y-847583D2*
X-3789714D1*
X-4039377Y-910750D2*
X-3789714D1*
X-4039377Y-973917D2*
X-3789714D1*
X-4039377Y-1037083D2*
X-3789714D1*
X-4039377Y-1100250D2*
X-3787481D1*
X-4039377Y-1163417D2*
X-3714655D1*
X-4039377Y-1226583D2*
X-3649987D1*
X-4039377Y-1289750D2*
X-3649805D1*
X-4039377Y-1352917D2*
X-3649577D1*
X-4039377Y-1416083D2*
X-3649395D1*
X-4039377Y-1479250D2*
X-3649167D1*
X-4039377Y-1542417D2*
X-3648985D1*
X-4039377Y-1605583D2*
X-3764922D1*
X-4039377Y-1668750D2*
X-3789714D1*
X-4039377Y-1731917D2*
X-3789714D1*
X-4039377Y-1795083D2*
X-3789714D1*
X-4039377Y-1858250D2*
X-3789714D1*
X-4039377Y-1921417D2*
X-3789714D1*
X-4039377Y-1984583D2*
X-3788620D1*
X-4039377Y-2047750D2*
X-3738125D1*
X-4039377Y-2110917D2*
X-3647162D1*
X-3783350Y-1664554D2*
X-3783316Y-1973662D1*
X-3782727Y-1981415D1*
X-3781410Y-1989077D1*
X-3779378Y-1996582D1*
X-3776647Y-2003862D1*
X-3773243Y-2010852D1*
X-3769196Y-2017490D1*
X-3764541Y-2023718D1*
X-3759321Y-2029479D1*
X-3753581Y-2034724D1*
X-3747373Y-2039404D1*
X-3740751Y-2043479D1*
X-3733775Y-2046912D1*
X-3726507Y-2049672D1*
X-3719011Y-2051736D1*
X-3711354Y-2053084D1*
X-3703596Y-2053706D1*
X-3696146Y-2053750D1*
X-3640998Y-2053732D1*
X-3640554Y-2193650D1*
X-3668449Y-2193633D1*
Y-2149451D1*
X-4045750Y-2149472D1*
X-4045767Y-531750D1*
X-3645849Y-531741D1*
X-3645333Y-692050D1*
X-3703263Y-692084D1*
X-3711015Y-692673D1*
X-3718678Y-693990D1*
X-3726182Y-696022D1*
X-3733462Y-698753D1*
X-3740452Y-702157D1*
X-3747090Y-706204D1*
X-3753318Y-710859D1*
X-3759080Y-716079D1*
X-3764324Y-721819D1*
X-3769004Y-728027D1*
X-3773079Y-734649D1*
X-3776512Y-741625D1*
X-3779272Y-748893D1*
X-3781336Y-756389D1*
X-3782685Y-764046D1*
X-3783306Y-771804D1*
X-3783350Y-778072D1*
X-3783316Y-1083663D1*
X-3782727Y-1091415D1*
X-3781410Y-1099078D1*
X-3779378Y-1106582D1*
X-3776647Y-1113862D1*
X-3773243Y-1120852D1*
X-3769196Y-1127490D1*
X-3764541Y-1133718D1*
X-3759321Y-1139480D1*
X-3753581Y-1144724D1*
X-3747373Y-1149404D1*
X-3740751Y-1153479D1*
X-3733775Y-1156912D1*
X-3726507Y-1159672D1*
X-3719011Y-1161736D1*
X-3711354Y-1163085D1*
X-3703596Y-1163706D1*
X-3696146Y-1163750D1*
X-3643835Y-1163743D1*
X-3642507Y-1582050D1*
X-3703262Y-1582084D1*
X-3711015Y-1582673D1*
X-3718677Y-1583990D1*
X-3726182Y-1586022D1*
X-3733462Y-1588753D1*
X-3740452Y-1592157D1*
X-3747090Y-1596204D1*
X-3753318Y-1600859D1*
X-3759079Y-1606079D1*
X-3764324Y-1611819D1*
X-3769004Y-1618027D1*
X-3773079Y-1624649D1*
X-3776512Y-1631625D1*
X-3779272Y-1638893D1*
X-3781336Y-1646389D1*
X-3782684Y-1654046D1*
X-3783306Y-1661804D1*
X-3783350Y-1664554D1*
X-3632500Y-1817900D2*
D22*
X-3783297Y-1968697D1*
X-3632500Y-1817900D2*
X-3783297Y-1667103D1*
X-3632500Y-927900D2*
X-3783297Y-1078697D1*
X-3632500Y-927900D2*
X-3783297Y-777103D1*
X-4036613Y-2421117D2*
D21*
X-3641572D1*
X-4036613Y-2484283D2*
X-3750445D1*
X-4036658Y-2547450D2*
X-3789410D1*
X-4036658Y-2610617D2*
X-3789684D1*
X-4036658Y-2673783D2*
X-3789684D1*
X-4036704Y-2736950D2*
X-3789684D1*
X-4036704Y-2800117D2*
X-3789684D1*
X-4036704Y-2863283D2*
X-3789684D1*
X-4036749Y-2926450D2*
X-3757783D1*
X-4036749Y-2989617D2*
X-3642529D1*
X-4036749Y-3052783D2*
X-3642620D1*
X-4036795Y-3115950D2*
X-3642757D1*
X-4036795Y-3179117D2*
X-3642848D1*
X-4036795Y-3242283D2*
X-3642939D1*
X-4036840Y-3305450D2*
X-3643076D1*
X-4036840Y-3368617D2*
X-3739508D1*
X-4036840Y-3431783D2*
X-3788727D1*
X-4036840Y-3494950D2*
X-3789684D1*
X-4036886Y-3558117D2*
X-3789684D1*
X-4036886Y-3621283D2*
X-3789684D1*
X-4036886Y-3684450D2*
X-3789684D1*
X-4036932Y-3747617D2*
X-3789684D1*
X-4036932Y-3810783D2*
X-3764345D1*
X-4036932Y-3873950D2*
X-3644033D1*
X-4036977Y-3937117D2*
X-3644124D1*
X-4036977Y-4000283D2*
X-3644215D1*
X-4036977Y-4063450D2*
X-3644352D1*
X-3783350Y-3444554D2*
X-3783316Y-3753662D1*
X-3782727Y-3761415D1*
X-3781410Y-3769077D1*
X-3779378Y-3776582D1*
X-3776647Y-3783862D1*
X-3773243Y-3790852D1*
X-3769196Y-3797490D1*
X-3764541Y-3803718D1*
X-3759321Y-3809479D1*
X-3753581Y-3814724D1*
X-3747373Y-3819404D1*
X-3740751Y-3823479D1*
X-3733775Y-3826912D1*
X-3726507Y-3829672D1*
X-3719011Y-3831736D1*
X-3711354Y-3833084D1*
X-3703596Y-3833706D1*
X-3696146Y-3833750D1*
X-3637600Y-3833772D1*
X-3638017Y-4068250D1*
X-4043342Y-4068261D1*
X-4042967Y-2381151D1*
X-3668449D1*
X-3668455Y-2357950D1*
X-3635104Y-2357941D1*
X-3635291Y-2472050D1*
X-3703263Y-2472084D1*
X-3711015Y-2472673D1*
X-3718678Y-2473990D1*
X-3726182Y-2476022D1*
X-3733462Y-2478753D1*
X-3740452Y-2482157D1*
X-3747090Y-2486204D1*
X-3753318Y-2490859D1*
X-3759080Y-2496079D1*
X-3764324Y-2501819D1*
X-3769004Y-2508027D1*
X-3773079Y-2514649D1*
X-3776512Y-2521625D1*
X-3779272Y-2528893D1*
X-3781336Y-2536389D1*
X-3782685Y-2544046D1*
X-3783306Y-2551804D1*
X-3783350Y-2558072D1*
X-3783316Y-2863663D1*
X-3782727Y-2871415D1*
X-3781410Y-2879078D1*
X-3779378Y-2886582D1*
X-3776647Y-2893862D1*
X-3773243Y-2900852D1*
X-3769196Y-2907490D1*
X-3764541Y-2913718D1*
X-3759321Y-2919480D1*
X-3753581Y-2924724D1*
X-3747373Y-2929404D1*
X-3740751Y-2933479D1*
X-3733775Y-2936912D1*
X-3726507Y-2939672D1*
X-3719011Y-2941736D1*
X-3711354Y-2943085D1*
X-3703596Y-2943706D1*
X-3696146Y-2943750D1*
X-3636095Y-2943734D1*
X-3636795Y-3362050D1*
X-3703262Y-3362084D1*
X-3711015Y-3362673D1*
X-3718677Y-3363990D1*
X-3726182Y-3366022D1*
X-3733462Y-3368753D1*
X-3740452Y-3372157D1*
X-3747090Y-3376204D1*
X-3753318Y-3380859D1*
X-3759079Y-3386079D1*
X-3764324Y-3391819D1*
X-3769004Y-3398027D1*
X-3773079Y-3404649D1*
X-3776512Y-3411625D1*
X-3779272Y-3418893D1*
X-3781336Y-3426389D1*
X-3782684Y-3434046D1*
X-3783306Y-3441804D1*
X-3783350Y-3444554D1*
X-3632500Y-3597900D2*
D22*
X-3783297Y-3748697D1*
X-3632500Y-3597900D2*
X-3783297Y-3447103D1*
X-3632500Y-2707900D2*
X-3783297Y-2858697D1*
X-3632500Y-2707900D2*
X-3783297Y-2557103D1*
X-1676977Y-4894917D2*
D21*
X-1375862D1*
X-1676977Y-4958083D2*
X-1404573D1*
X-1676977Y-5021250D2*
X-1462906D1*
X-1676977Y-5084417D2*
X-1464501D1*
X-1676977Y-5147583D2*
X-1464501D1*
X-1676977Y-5210750D2*
X-1464501D1*
X-1676977Y-5273917D2*
X-1464501D1*
X-1676977Y-5337083D2*
X-1464501D1*
X-1676977Y-5400250D2*
X-1442535D1*
X-1676977Y-5463417D2*
X-1374905D1*
X-1676977Y-5526583D2*
X-1374814D1*
X-1676977Y-5589750D2*
X-1374677D1*
X-1676977Y-5652917D2*
X-1374586D1*
X-1676977Y-5716083D2*
X-1374495D1*
X-1676977Y-5779250D2*
X-1374404D1*
X-1676977Y-5842417D2*
X-1374267D1*
X-1676977Y-5905583D2*
X-1606233D1*
X-1676977Y-5968750D2*
X-1649892D1*
X-1676977Y-6031917D2*
X-1652444D1*
X-1676977Y-6095083D2*
X-1617626D1*
X-1676977Y-6158250D2*
X-1540335D1*
X-1676977Y-6221417D2*
X-1464501D1*
X-1676977Y-6284583D2*
X-1452835D1*
X-1676977Y-6347750D2*
X-1433466D1*
X-1676977Y-6726750D2*
X-1440485D1*
X-1676977Y-6789917D2*
X-1459853D1*
X-1676977Y-6853083D2*
X-1464501D1*
X-1676977Y-6916250D2*
X-1464501D1*
X-1676977Y-6979417D2*
X-1464501D1*
X-1676977Y-7042583D2*
X-1464501D1*
X-1676977Y-7105750D2*
X-1610244D1*
X-1676977Y-7168917D2*
X-1646110D1*
X-1676977Y-7232083D2*
X-1644195D1*
X-1676977Y-7295250D2*
X-1601858D1*
X-1676977Y-7358417D2*
X-1525660D1*
X-1676977Y-7421583D2*
X-1462496D1*
X-1676977Y-7484750D2*
X-1399332D1*
X-1671736Y-7547917D2*
X-1371442D1*
X-1632863Y-7611083D2*
X-1371350D1*
X-1632954Y-7674250D2*
X-1457529D1*
X-1626574Y-7737417D2*
X-1464501D1*
X-1581001Y-7800583D2*
X-1464501D1*
X-1577446Y-7863750D2*
X-1464501D1*
X-1610805Y-7926917D2*
X-1464501D1*
X-1676977Y-7990083D2*
X-1464501D1*
X-1676977Y-8053250D2*
X-1454658D1*
X-1676977Y-8116417D2*
X-1370530D1*
X-1676977Y-8179583D2*
X-1370393D1*
X-1676977Y-8242750D2*
X-1370302D1*
X-1676977Y-8305917D2*
X-1370211D1*
X-1458113Y-6236586D2*
X-1458150Y-6206792D1*
X-1496411Y-6185866D1*
X-1513435Y-6176123D1*
X-1529555Y-6162682D1*
X-1570250Y-6121987D1*
X-1579264Y-6117922D1*
X-1599002Y-6105684D1*
X-1616156Y-6090028D1*
X-1630140Y-6071487D1*
X-1640479Y-6050691D1*
X-1646821Y-6028350D1*
X-1648950Y-6005224D1*
X-1646793Y-5982100D1*
X-1640424Y-5959767D1*
X-1630060Y-5938984D1*
X-1616053Y-5920459D1*
X-1598881Y-5904824D1*
X-1579128Y-5892610D1*
X-1557467Y-5884233D1*
X-1534636Y-5879980D1*
X-1511412Y-5879994D1*
X-1488586Y-5884275D1*
X-1466936Y-5892678D1*
X-1453770Y-5900840D1*
X-1451312Y-5894525D1*
X-1439124Y-5874719D1*
X-1421891Y-5859104D1*
X-1400983Y-5848922D1*
X-1378063Y-5844984D1*
X-1367927Y-5844950D1*
X-1368614Y-5426650D1*
X-1375640D1*
X-1386154Y-5425984D1*
X-1408575Y-5419812D1*
X-1428381Y-5407624D1*
X-1443996Y-5390390D1*
X-1454178Y-5369482D1*
X-1458116Y-5346562D1*
X-1458150Y-5322284D1*
Y-5037455D1*
X-1457484Y-5026946D1*
X-1451312Y-5004525D1*
X-1439124Y-4984719D1*
X-1421890Y-4969104D1*
X-1400982Y-4958922D1*
X-1378062Y-4954984D1*
X-1369397Y-4954950D1*
X-1369598Y-4831753D1*
X-1683334Y-4831750D1*
X-1683350Y-5313169D1*
Y-6358134D1*
X-1427383Y-6358127D1*
X-1423909Y-6358198D1*
X-1454483Y-6258516D1*
X-1458113Y-6236586D1*
X-1454528Y-6793233D2*
X-1423150Y-6690931D1*
Y-6686046D1*
X-1427343Y-6686173D1*
X-1683359D1*
X-1683350Y-7543531D1*
X-1668044Y-7557772D1*
X-1654060Y-7576313D1*
X-1643721Y-7597109D1*
X-1637379Y-7619450D1*
X-1635250Y-7642500D1*
X-1637407Y-7665700D1*
X-1643776Y-7688033D1*
X-1654140Y-7708816D1*
X-1663373Y-7721027D1*
X-1651036Y-7726378D1*
X-1631298Y-7738616D1*
X-1614144Y-7754272D1*
X-1600160Y-7772813D1*
X-1589821Y-7793609D1*
X-1583479Y-7815950D1*
X-1581350Y-7839000D1*
X-1583507Y-7862200D1*
X-1589876Y-7884533D1*
X-1600240Y-7905316D1*
X-1614247Y-7923841D1*
X-1631419Y-7939476D1*
X-1651172Y-7951690D1*
X-1659147Y-7954774D1*
X-1683334Y-7978971D1*
X-1683350Y-8336408D1*
X-1368428Y-8336893D1*
X-1364627Y-8336593D1*
X-1363797Y-8336439D1*
X-1364206Y-8096650D1*
X-1375647D1*
X-1386154Y-8095985D1*
X-1408575Y-8089812D1*
X-1428381Y-8077624D1*
X-1443996Y-8060391D1*
X-1454178Y-8039483D1*
X-1458116Y-8016563D1*
X-1458150Y-7992284D1*
Y-7707455D1*
X-1457485Y-7696947D1*
X-1451312Y-7674525D1*
X-1439124Y-7654719D1*
X-1421891Y-7639104D1*
X-1400983Y-7628922D1*
X-1378063Y-7624984D1*
X-1364988Y-7624950D1*
X-1365166Y-7512576D1*
X-1564210Y-7313527D1*
X-1573214Y-7309472D1*
X-1592952Y-7297234D1*
X-1610106Y-7281578D1*
X-1624090Y-7263037D1*
X-1634429Y-7242241D1*
X-1640771Y-7219900D1*
X-1642900Y-7196774D1*
X-1640743Y-7173650D1*
X-1634374Y-7151317D1*
X-1624010Y-7130534D1*
X-1610003Y-7112009D1*
X-1592831Y-7096374D1*
X-1573078Y-7084160D1*
X-1551417Y-7075783D1*
X-1528586Y-7071530D1*
X-1505362Y-7071544D1*
X-1482536Y-7075825D1*
X-1460886Y-7084228D1*
X-1458168Y-7085913D1*
X-1458150Y-7008950D1*
Y-6817455D1*
X-1454528Y-6793233D1*
X-1307300Y-5190800D2*
D22*
X-1458097Y-5341597D1*
X-1307300Y-5190800D2*
X-1458097Y-5040003D1*
X-1307300Y-7860800D2*
X-1458098Y-8011598D1*
X-1307300Y-7860800D2*
X-1458098Y-7710002D1*
X-1257777Y-4894917D2*
D21*
X-894820D1*
X-1210017Y-4958083D2*
X-894820D1*
X-1151683Y-5021250D2*
X-894820D1*
X-1150088Y-5084417D2*
X-894820D1*
X-1150088Y-5147583D2*
X-894820D1*
X-1150088Y-5210750D2*
X-894820D1*
X-1150088Y-5273917D2*
X-894820D1*
X-1150088Y-5337083D2*
X-894820D1*
X-1172100Y-5400250D2*
X-894820D1*
X-1257777Y-5463417D2*
X-894820D1*
X-1257777Y-5526583D2*
X-894820D1*
X-1257777Y-5589750D2*
X-894820D1*
X-1257777Y-5652917D2*
X-894820D1*
X-1257777Y-5716083D2*
X-894820D1*
X-1257777Y-5779250D2*
X-894820D1*
X-1257777Y-5842417D2*
X-894820D1*
X-1153051Y-5905583D2*
X-894820D1*
X-1150088Y-5968750D2*
X-894820D1*
X-1150088Y-6031917D2*
X-894820D1*
X-1150088Y-6095083D2*
X-894820D1*
X-1150088Y-6158250D2*
X-894820D1*
X-1150088Y-6221417D2*
X-894820D1*
X-1167269Y-6284583D2*
X-894820D1*
X-1257777Y-6347750D2*
X-894820D1*
X-1257777Y-6410917D2*
X-894820D1*
X-1257777Y-6474083D2*
X-894820D1*
X-1257777Y-6537250D2*
X-894820D1*
X-1257777Y-6600417D2*
X-894820D1*
X-1257777Y-6663583D2*
X-894820D1*
X-1257777Y-6726750D2*
X-894820D1*
X-1154828Y-6789917D2*
X-894820D1*
X-1150088Y-6853083D2*
X-894820D1*
X-1150088Y-6916250D2*
X-894820D1*
X-1150088Y-6979417D2*
X-894820D1*
X-1150088Y-7042583D2*
X-894820D1*
X-1150088Y-7105750D2*
X-894820D1*
X-1163259Y-7168917D2*
X-894820D1*
X-1257777Y-7232083D2*
X-894820D1*
X-1248480Y-7295250D2*
X-894820D1*
X-1185316Y-7358417D2*
X-894820D1*
X-1027178Y-7421583D2*
X-894820D1*
X-1000108Y-7484750D2*
X-894820D1*
X-1008265Y-7547917D2*
X-894820D1*
X-1064320Y-7611083D2*
X-894820D1*
X-1157061Y-7674250D2*
X-894820D1*
X-1150088Y-7737417D2*
X-894820D1*
X-1150088Y-7800583D2*
X-894820D1*
X-1150088Y-7863750D2*
X-894820D1*
X-1150088Y-7926917D2*
X-894820D1*
X-1150088Y-7990083D2*
X-894820D1*
X-1159932Y-8053250D2*
X-894820D1*
X-1257777Y-8116417D2*
X-894820D1*
X-1257777Y-8179583D2*
X-894820D1*
X-1257777Y-8242750D2*
X-894820D1*
X-1257777Y-8305917D2*
X-894820D1*
X-1264150Y-7604782D2*
X-1264145Y-7624950D1*
X-1238902D1*
X-1215879Y-7628229D1*
X-1194687Y-7637807D1*
X-1177013Y-7652921D1*
X-1164262Y-7672370D1*
X-1157449Y-7694627D1*
X-1156450Y-7707509D1*
Y-8014145D1*
X-1157115Y-8024654D1*
X-1163288Y-8047075D1*
X-1175476Y-8066881D1*
X-1192709Y-8082496D1*
X-1213617Y-8092678D1*
X-1236537Y-8096616D1*
X-1264140Y-8096650D1*
X-1264150Y-8317770D1*
X-1064042Y-8317111D1*
X-888428Y-8316551D1*
X-888450Y-8114857D1*
Y-4831761D1*
X-1264139Y-4831750D1*
X-1264145Y-4954950D1*
X-1238902D1*
X-1215879Y-4958230D1*
X-1194687Y-4967807D1*
X-1177013Y-4982922D1*
X-1164262Y-5002370D1*
X-1157449Y-5024628D1*
X-1156450Y-5037509D1*
Y-5344145D1*
X-1157116Y-5354654D1*
X-1163288Y-5377075D1*
X-1175476Y-5396881D1*
X-1192710Y-5412496D1*
X-1213618Y-5422678D1*
X-1236538Y-5426616D1*
X-1264140Y-5426650D1*
X-1264150Y-5844938D1*
X-1239165Y-5844950D1*
X-1228447Y-5845615D1*
X-1206025Y-5851788D1*
X-1186219Y-5863976D1*
X-1170604Y-5881209D1*
X-1160422Y-5902117D1*
X-1156484Y-5925037D1*
X-1156450Y-5949316D1*
Y-6234145D1*
X-1157115Y-6244653D1*
X-1163288Y-6267075D1*
X-1175476Y-6286881D1*
X-1192709Y-6302496D1*
X-1213617Y-6312678D1*
X-1236537Y-6316616D1*
X-1264140Y-6316650D1*
X-1264145Y-6734950D1*
X-1238902D1*
X-1215879Y-6738229D1*
X-1194687Y-6747807D1*
X-1177013Y-6762922D1*
X-1164262Y-6782370D1*
X-1157449Y-6804628D1*
X-1156450Y-6817509D1*
Y-7124145D1*
X-1157115Y-7134654D1*
X-1163288Y-7157075D1*
X-1175476Y-7176881D1*
X-1192710Y-7192496D1*
X-1213618Y-7202678D1*
X-1236537Y-7206616D1*
X-1264140Y-7206650D1*
X-1264150Y-7285908D1*
X-1169260Y-7380804D1*
X-1165667Y-7379733D1*
X-1142836Y-7375480D1*
X-1119612Y-7375494D1*
X-1096786Y-7379775D1*
X-1075136Y-7388178D1*
X-1055398Y-7400416D1*
X-1038244Y-7416072D1*
X-1024260Y-7434613D1*
X-1013921Y-7455409D1*
X-1007579Y-7477750D1*
X-1005450Y-7500800D1*
X-1007607Y-7524000D1*
X-1013976Y-7546333D1*
X-1024340Y-7567116D1*
X-1038347Y-7585641D1*
X-1055519Y-7601276D1*
X-1075272Y-7613490D1*
X-1096933Y-7621867D1*
X-1119764Y-7626120D1*
X-1142988Y-7626106D1*
X-1165814Y-7621825D1*
X-1179155Y-7616647D1*
X-1213028Y-7616650D1*
X-1220130Y-7616437D1*
X-1243143Y-7612685D1*
X-1264150Y-7604782D1*
X-1156503Y-6820003D2*
D22*
X-1307300Y-6970800D1*
X-1156503Y-7121597D2*
X-1307300Y-6970800D1*
X-1156502Y-5930002D2*
X-1307300Y-6080800D1*
X-1156502Y-6231598D2*
X-1307300Y-6080800D1*
X-752000Y-4894917D2*
D21*
X-364593D1*
X-578025Y-4958083D2*
X-364410D1*
X-519692Y-5021250D2*
X-364182D1*
X-518097Y-5084417D2*
X-364000D1*
X-518097Y-5147583D2*
X-363772D1*
X-518097Y-5210750D2*
X-363590D1*
X-518097Y-5273917D2*
X-363362D1*
X-518097Y-5337083D2*
X-363180D1*
X-540063Y-5400250D2*
X-362952D1*
X-752000Y-5463417D2*
X-362770D1*
X-752000Y-5526583D2*
X-362542D1*
X-752000Y-5589750D2*
X-362360D1*
X-752000Y-5652917D2*
X-362132D1*
X-752000Y-5716083D2*
X-361949D1*
X-752000Y-5779250D2*
X-361721D1*
X-752000Y-5842417D2*
X-361539D1*
X-521059Y-5905583D2*
X-361311D1*
X-518097Y-5968750D2*
X-361129D1*
X-518097Y-6031917D2*
X-360901D1*
X-518097Y-6095083D2*
X-360719D1*
X-518097Y-6158250D2*
X-360491D1*
X-518097Y-6221417D2*
X-360309D1*
X-535278Y-6284583D2*
X-360081D1*
X-752000Y-6347750D2*
X-359899D1*
X-752000Y-6410917D2*
X-689208D1*
X-751472Y-6316283D2*
X-743698Y-6316650D1*
X-604537Y-6316616D1*
X-596785Y-6316027D1*
X-589122Y-6314710D1*
X-581618Y-6312678D1*
X-574338Y-6309947D1*
X-567348Y-6306543D1*
X-560710Y-6302496D1*
X-554482Y-6297841D1*
X-548720Y-6292621D1*
X-543476Y-6286881D1*
X-538796Y-6280673D1*
X-534721Y-6274051D1*
X-531288Y-6267075D1*
X-528528Y-6259807D1*
X-526464Y-6252311D1*
X-525115Y-6244654D1*
X-524494Y-6236896D1*
X-524450Y-6230628D1*
X-524484Y-5925037D1*
X-525073Y-5917285D1*
X-526390Y-5909622D1*
X-528422Y-5902118D1*
X-531153Y-5894838D1*
X-534557Y-5887848D1*
X-538604Y-5881210D1*
X-543259Y-5874982D1*
X-548479Y-5869220D1*
X-554219Y-5863976D1*
X-560427Y-5859296D1*
X-567049Y-5855221D1*
X-574025Y-5851788D1*
X-581293Y-5849028D1*
X-588789Y-5846964D1*
X-596446Y-5845615D1*
X-604204Y-5844994D1*
X-611654Y-5844950D1*
X-746063Y-5844984D1*
X-753823Y-5845574D1*
X-758350Y-5846264D1*
Y-5425353D1*
X-751464Y-5426284D1*
X-743698Y-5426650D1*
X-604538Y-5426616D1*
X-596785Y-5426027D1*
X-589123Y-5424710D1*
X-581618Y-5422678D1*
X-574338Y-5419947D1*
X-567348Y-5416543D1*
X-560710Y-5412496D1*
X-554482Y-5407841D1*
X-548721Y-5402621D1*
X-543476Y-5396881D1*
X-538796Y-5390673D1*
X-534721Y-5384051D1*
X-531288Y-5377075D1*
X-528528Y-5369807D1*
X-526464Y-5362311D1*
X-525116Y-5354654D1*
X-524494Y-5346896D1*
X-524450Y-5340628D1*
X-524484Y-5035038D1*
X-525073Y-5027285D1*
X-526390Y-5019623D1*
X-528422Y-5012118D1*
X-531153Y-5004838D1*
X-534557Y-4997848D1*
X-538604Y-4991210D1*
X-543259Y-4984982D1*
X-548479Y-4979221D1*
X-554219Y-4973976D1*
X-560427Y-4969296D1*
X-567049Y-4965221D1*
X-574025Y-4961788D1*
X-581293Y-4959028D1*
X-588789Y-4956964D1*
X-596446Y-4955616D1*
X-604204Y-4954994D1*
X-611654Y-4954950D1*
X-746062Y-4954984D1*
X-753822Y-4955574D1*
X-758350Y-4956271D1*
X-758367Y-4831750D1*
X-358448Y-4831745D1*
X-353341Y-6406301D1*
X-682849D1*
X-682829Y-6466350D1*
X-758350Y-6466329D1*
Y-6315346D1*
X-751472Y-6316283D1*
X-675300Y-5190800D2*
D22*
X-524503Y-5040003D1*
X-675300Y-5190800D2*
X-524503Y-5341597D1*
X-675300Y-6080800D2*
X-524503Y-5930003D1*
X-675300Y-6080800D2*
X-524503Y-6231597D1*
X-409500Y-6522150D2*
X-522837Y-6408813D1*
X-759413Y-6651017D2*
D21*
X-529209D1*
X-759413Y-6714183D2*
X-530804D1*
X-518104Y-6903683D2*
X-364782D1*
X-518104Y-6966850D2*
X-364873D1*
X-518104Y-7030017D2*
X-365010D1*
X-518104Y-7093183D2*
X-365101D1*
X-524621Y-7156350D2*
X-365192D1*
X-759549Y-7219517D2*
X-365329D1*
X-759549Y-7282683D2*
X-365420D1*
X-759595Y-7345850D2*
X-365511D1*
X-759595Y-7409017D2*
X-365648D1*
X-759595Y-7472183D2*
X-365739D1*
X-759640Y-7535350D2*
X-365830D1*
X-759640Y-7598517D2*
X-365967D1*
X-531958Y-7661683D2*
X-366058D1*
X-518104Y-7724850D2*
X-366149D1*
X-518104Y-7788017D2*
X-366286D1*
X-518104Y-7851183D2*
X-366377D1*
X-518104Y-7914350D2*
X-366468D1*
X-518104Y-7977517D2*
X-366605D1*
X-522479Y-8040683D2*
X-366696D1*
X-759732Y-8103850D2*
X-366833D1*
X-759777Y-8167017D2*
X-366924D1*
X-759777Y-8230183D2*
X-367015D1*
X-759777Y-8293350D2*
X-367152D1*
X-761485Y-6736892D2*
X-753815Y-6735573D1*
X-746062Y-6734984D1*
X-728320Y-6734950D1*
X-604196Y-6734994D1*
X-596446Y-6735616D1*
X-588789Y-6736964D1*
X-581293Y-6739028D1*
X-574025Y-6741788D1*
X-567049Y-6745221D1*
X-560427Y-6749296D1*
X-554219Y-6753976D1*
X-548479Y-6759221D1*
X-543259Y-6764982D1*
X-540858Y-6768041D1*
X-538604Y-6771210D1*
X-536500Y-6774485D1*
X-534747Y-6777502D1*
X-535026Y-6774420D1*
X-535274Y-6769761D1*
X-535350Y-6765095D1*
X-535252Y-6760429D1*
X-534981Y-6755771D1*
X-534538Y-6751126D1*
X-529786Y-6728393D1*
X-522847Y-6711555D1*
X-522845Y-6638001D1*
X-682849D1*
Y-6587848D1*
X-765774Y-6587850D1*
X-765791Y-6737952D1*
X-761485Y-6736892D1*
X-759169Y-8095185D2*
X-751464Y-8096284D1*
X-743698Y-8096650D1*
X-604537Y-8096616D1*
X-596785Y-8096027D1*
X-589122Y-8094710D1*
X-581618Y-8092678D1*
X-574338Y-8089947D1*
X-567348Y-8086543D1*
X-560710Y-8082496D1*
X-554482Y-8077841D1*
X-548720Y-8072621D1*
X-543476Y-8066881D1*
X-538796Y-8060673D1*
X-534721Y-8054051D1*
X-531288Y-8047075D1*
X-528528Y-8039807D1*
X-526464Y-8032311D1*
X-525115Y-8024654D1*
X-524494Y-8016896D1*
X-524450Y-8010628D1*
X-524484Y-7705037D1*
X-525073Y-7697285D1*
X-526390Y-7689622D1*
X-528422Y-7682118D1*
X-531153Y-7674838D1*
X-534557Y-7667848D1*
X-538604Y-7661210D1*
X-543259Y-7654982D1*
X-548479Y-7649220D1*
X-554219Y-7643976D1*
X-560427Y-7639296D1*
X-567049Y-7635221D1*
X-574025Y-7631788D1*
X-581293Y-7629028D1*
X-588789Y-7626964D1*
X-596446Y-7625615D1*
X-604204Y-7624994D1*
X-611654Y-7624950D1*
X-746063Y-7624984D1*
X-753815Y-7625573D1*
X-761485Y-7626892D1*
X-765991Y-7628037D1*
X-765895Y-7203616D1*
X-759161Y-7205187D1*
X-751464Y-7206284D1*
X-743698Y-7206650D1*
X-604538Y-7206616D1*
X-596785Y-7206027D1*
X-589123Y-7204710D1*
X-581618Y-7202678D1*
X-574338Y-7199947D1*
X-567348Y-7196543D1*
X-560710Y-7192496D1*
X-554482Y-7187841D1*
X-548721Y-7182621D1*
X-543476Y-7176881D1*
X-538796Y-7170673D1*
X-534721Y-7164051D1*
X-531288Y-7157075D1*
X-528528Y-7149807D1*
X-526464Y-7142311D1*
X-525116Y-7134654D1*
X-524494Y-7126896D1*
X-524450Y-7120628D1*
X-524454Y-6816574D1*
X-523226Y-6819295D1*
X-521150Y-6823474D1*
X-518920Y-6827573D1*
X-516540Y-6831587D1*
X-502556Y-6850128D1*
X-485402Y-6865784D1*
X-465664Y-6878022D1*
X-444014Y-6886425D1*
X-421188Y-6890706D1*
X-397964Y-6890720D1*
X-375133Y-6886467D1*
X-358401Y-6879996D1*
X-360817Y-8303550D1*
X-766142Y-8303564D1*
X-766095Y-8093564D1*
X-759169Y-8095185D1*
X-675300Y-6970800D2*
D22*
X-524503Y-6820003D1*
X-675300Y-6970800D2*
X-524503Y-7121597D1*
X-675300Y-7860800D2*
X-524503Y-7710003D1*
X-675300Y-7860800D2*
X-524503Y-8011597D1*
X-4239677Y-4894917D2*
D21*
X-3938562D1*
X-4239677Y-4958083D2*
X-3938425D1*
X-4204313Y-5021250D2*
X-3938334D1*
X-4202900Y-5084417D2*
X-3938243D1*
X-4202900Y-5147583D2*
X-3938152D1*
X-4202900Y-5210750D2*
X-3938015D1*
X-4202900Y-5273917D2*
X-3937924D1*
X-4202900Y-5337083D2*
X-3937833D1*
X-4225823Y-5400250D2*
X-3937696D1*
X-4239677Y-5463417D2*
X-3937605D1*
X-4239677Y-5526583D2*
X-3937514D1*
X-4239677Y-5589750D2*
X-3937423D1*
X-4239677Y-5652917D2*
X-3937286D1*
X-4239677Y-5716083D2*
X-3937195D1*
X-4239677Y-5779250D2*
X-3937104D1*
X-4239677Y-5842417D2*
X-3937013D1*
X-4205589Y-5905583D2*
X-3936876D1*
X-4202900Y-5968750D2*
X-3936785D1*
X-4202900Y-6031917D2*
X-3936694D1*
X-4202900Y-6095083D2*
X-3936602D1*
X-4202900Y-6158250D2*
X-3936466D1*
X-4202900Y-6221417D2*
X-3936375D1*
X-4214886Y-6284583D2*
X-3936283D1*
X-4234254Y-6347750D2*
X-3936147D1*
X-4226598Y-6726750D2*
X-3935554D1*
X-4207229Y-6789917D2*
X-3935463D1*
X-4202900Y-6853083D2*
X-3942208D1*
X-4202900Y-6916250D2*
X-3966681D1*
X-4202900Y-6979417D2*
X-3957293D1*
X-4202900Y-7042583D2*
X-3957293D1*
X-4202900Y-7105750D2*
X-3957293D1*
X-4216754Y-7168917D2*
X-3957293D1*
X-4239677Y-7232083D2*
X-3957293D1*
X-4239677Y-7295250D2*
X-3957293D1*
X-4239677Y-7358417D2*
X-3957293D1*
X-4239677Y-7421583D2*
X-3957293D1*
X-4239677Y-7484750D2*
X-3957293D1*
X-4239677Y-7547917D2*
X-3957293D1*
X-4239677Y-7611083D2*
X-3957293D1*
X-4209417Y-7674250D2*
X-3957293D1*
X-4202900Y-7737417D2*
X-3957293D1*
X-4202900Y-7800583D2*
X-3957293D1*
X-4202900Y-7863750D2*
X-3957293D1*
X-4202900Y-7926917D2*
X-3957293D1*
X-4202900Y-7990083D2*
X-3963263D1*
X-4213290Y-8053250D2*
X-4026427D1*
X-4239677Y-8116417D2*
X-4089591D1*
X-4239677Y-8179583D2*
X-4152755D1*
X-4239677Y-8242750D2*
X-4215919D1*
X-3929781Y-6370974D2*
X-3932310Y-4831750D1*
X-4246034D1*
X-4246050Y-4967749D1*
X-4239019Y-4972976D1*
X-4223404Y-4990210D1*
X-4213222Y-5011118D1*
X-4209284Y-5034038D1*
X-4209250Y-5058316D1*
Y-5343145D1*
X-4209916Y-5353654D1*
X-4216088Y-5376075D1*
X-4228276Y-5395881D1*
X-4245530Y-5411506D1*
X-4246050Y-5429790D1*
Y-5857742D1*
X-4239019Y-5862976D1*
X-4223404Y-5880209D1*
X-4213222Y-5901117D1*
X-4209284Y-5924037D1*
X-4209250Y-5948316D1*
Y-6233145D1*
X-4209921Y-6243675D1*
X-4212902Y-6257466D1*
X-4243778Y-6358126D1*
X-3970136D1*
X-3966456Y-6358221D1*
X-3944411Y-6363032D1*
X-3929781Y-6370974D1*
X-4209288Y-6814015D2*
X-4209250Y-6838316D1*
Y-7123145D1*
X-4209915Y-7133654D1*
X-4216088Y-7156075D1*
X-4228276Y-7175881D1*
X-4245530Y-7191506D1*
X-4246050Y-7203123D1*
Y-7637729D1*
X-4239019Y-7642976D1*
X-4223404Y-7660209D1*
X-4213222Y-7681118D1*
X-4209284Y-7704037D1*
X-4209250Y-7728316D1*
Y-8013145D1*
X-4209915Y-8023654D1*
X-4216088Y-8046075D1*
X-4228276Y-8065881D1*
X-4245530Y-8081506D1*
X-4246050Y-8089790D1*
Y-8279214D1*
X-3950941Y-7984104D1*
X-3950950Y-6977679D1*
X-3952479Y-6973891D1*
X-3958821Y-6951550D1*
X-3960950Y-6928424D1*
X-3958793Y-6905300D1*
X-3952424Y-6882967D1*
X-3942060Y-6862184D1*
X-3928997Y-6844907D1*
X-3929287Y-6672986D1*
X-3930886Y-6674109D1*
X-3951354Y-6683605D1*
X-3970339Y-6686173D1*
X-4244251D1*
X-4244250Y-6689916D1*
X-4212887Y-6792183D1*
X-4209288Y-6814015D1*
X-4761877Y-4894917D2*
X-4371485D1*
X-4761877Y-4958083D2*
X-4460625D1*
X-4761877Y-5021250D2*
X-4515905D1*
X-4761877Y-5084417D2*
X-4517318D1*
X-4761877Y-5147583D2*
X-4517318D1*
X-4761877Y-5210750D2*
X-4517318D1*
X-4761877Y-5273917D2*
X-4517318D1*
X-4761877Y-5337083D2*
X-4517318D1*
X-4761877Y-5400250D2*
X-4494395D1*
X-4761877Y-5463417D2*
X-4371485D1*
X-4761877Y-5526583D2*
X-4371485D1*
X-4761877Y-5589750D2*
X-4371485D1*
X-4761877Y-5652917D2*
X-4371485D1*
X-4761877Y-5716083D2*
X-4371485D1*
X-4761877Y-5779250D2*
X-4371485D1*
X-4761877Y-5842417D2*
X-4371485D1*
X-4761877Y-5905583D2*
X-4514629D1*
X-4761877Y-5968750D2*
X-4517318D1*
X-4761877Y-6031917D2*
X-4517318D1*
X-4761877Y-6095083D2*
X-4517318D1*
X-4761877Y-6158250D2*
X-4517318D1*
X-4761877Y-6221417D2*
X-4517318D1*
X-4761877Y-6284583D2*
X-4499317D1*
X-4761877Y-6347750D2*
X-4371485D1*
X-4761877Y-6410917D2*
X-4371485D1*
X-4761877Y-6474083D2*
X-4371485D1*
X-4761877Y-6537250D2*
X-4371485D1*
X-4761877Y-6600417D2*
X-4371485D1*
X-4761877Y-6663583D2*
X-4371485D1*
X-4761877Y-6726750D2*
X-4371485D1*
X-4761877Y-6789917D2*
X-4512943D1*
X-4761877Y-6853083D2*
X-4517318D1*
X-4761877Y-6916250D2*
X-4517318D1*
X-4761877Y-6979417D2*
X-4517318D1*
X-4761877Y-7042583D2*
X-4517318D1*
X-4761877Y-7105750D2*
X-4517318D1*
X-4761877Y-7168917D2*
X-4503464D1*
X-4761877Y-7232083D2*
X-4371485D1*
X-4761877Y-7295250D2*
X-4371485D1*
X-4761877Y-7358417D2*
X-4371485D1*
X-4761877Y-7421583D2*
X-4371485D1*
X-4761877Y-7484750D2*
X-4371485D1*
X-4761877Y-7547917D2*
X-4371485D1*
X-4761877Y-7611083D2*
X-4371485D1*
X-4761877Y-7674250D2*
X-4510756D1*
X-4761877Y-7737417D2*
X-4517318D1*
X-4761877Y-7800583D2*
X-4517318D1*
X-4761877Y-7863750D2*
X-4543933D1*
X-4761877Y-7926917D2*
X-4574284D1*
X-4761877Y-7990083D2*
X-4604590D1*
X-4761877Y-8053250D2*
X-4659733D1*
X-4761877Y-8116417D2*
X-4722898D1*
X-4445692Y-8179583D2*
X-4371485D1*
X-4508856Y-8242750D2*
X-4371485D1*
X-4572020Y-8305917D2*
X-4371485D1*
X-4635185Y-8369083D2*
X-4371485D1*
X-4510950Y-5343091D2*
Y-5036455D1*
X-4510284Y-5025946D1*
X-4504112Y-5003525D1*
X-4491924Y-4983719D1*
X-4474690Y-4968104D1*
X-4453782Y-4957922D1*
X-4430862Y-4953984D1*
X-4405699Y-4953950D1*
X-4365161D1*
X-4365150Y-4831751D1*
X-4768231Y-4831750D1*
X-4768250Y-5126729D1*
Y-8168106D1*
X-4605682Y-8005545D1*
X-4510949Y-7808240D1*
X-4510950Y-7706455D1*
X-4510285Y-7695946D1*
X-4504112Y-7673525D1*
X-4491924Y-7653719D1*
X-4474691Y-7638104D1*
X-4453783Y-7627922D1*
X-4430863Y-7623984D1*
X-4405699Y-7623950D1*
X-4365161D1*
X-4365147Y-7205650D1*
X-4428498D1*
X-4436264Y-7205284D1*
X-4443961Y-7204187D1*
X-4451521Y-7202371D1*
X-4458876Y-7199850D1*
X-4465961Y-7196648D1*
X-4472713Y-7192793D1*
X-4479071Y-7188319D1*
X-4484980Y-7183266D1*
X-4490387Y-7177678D1*
X-4495243Y-7171607D1*
X-4499506Y-7165105D1*
X-4503138Y-7158230D1*
X-4506106Y-7151044D1*
X-4508384Y-7143610D1*
X-4509951Y-7135995D1*
X-4510794Y-7128258D1*
X-4510950Y-7123100D1*
X-4510906Y-6813696D1*
X-4510285Y-6805946D1*
X-4508936Y-6798289D1*
X-4506872Y-6790793D1*
X-4504112Y-6783525D1*
X-4500679Y-6776549D1*
X-4496604Y-6769927D1*
X-4491924Y-6763719D1*
X-4486680Y-6757979D1*
X-4480918Y-6752759D1*
X-4474690Y-6748104D1*
X-4468052Y-6744057D1*
X-4461062Y-6740653D1*
X-4453782Y-6737922D1*
X-4446278Y-6735890D1*
X-4438615Y-6734573D1*
X-4430863Y-6733984D1*
X-4413120Y-6733950D1*
X-4365155D1*
X-4365150Y-6315651D1*
X-4431203Y-6315606D1*
X-4438953Y-6314985D1*
X-4446610Y-6313636D1*
X-4454106Y-6311573D1*
X-4461375Y-6308812D1*
X-4468351Y-6305379D1*
X-4474972Y-6301305D1*
X-4481181Y-6296624D1*
X-4486921Y-6291380D1*
X-4492141Y-6285619D1*
X-4496796Y-6279391D1*
X-4500843Y-6272753D1*
X-4504247Y-6265762D1*
X-4506978Y-6258483D1*
X-4509010Y-6250978D1*
X-4510327Y-6243316D1*
X-4510916Y-6235563D1*
X-4510950Y-6217750D1*
X-4510906Y-5923697D1*
X-4510285Y-5915947D1*
X-4508936Y-5908290D1*
X-4506873Y-5900794D1*
X-4504112Y-5893525D1*
X-4500679Y-5886549D1*
X-4496605Y-5879928D1*
X-4491924Y-5873719D1*
X-4486680Y-5867979D1*
X-4480919Y-5862759D1*
X-4474691Y-5858104D1*
X-4468053Y-5854057D1*
X-4461063Y-5850653D1*
X-4453783Y-5847922D1*
X-4446278Y-5845890D1*
X-4438616Y-5844573D1*
X-4430863Y-5843984D1*
X-4413120Y-5843950D1*
X-4365155D1*
X-4365156Y-5425650D1*
X-4428498D1*
X-4451521Y-5422370D1*
X-4472713Y-5412793D1*
X-4490387Y-5397678D1*
X-4503138Y-5378230D1*
X-4509951Y-5355972D1*
X-4510950Y-5343091D1*
X-4435059Y-8162596D2*
X-4643232Y-8370769D1*
X-4365130Y-8369945D1*
X-4365150Y-8121546D1*
Y-8099466D1*
X-4435070Y-8162607D1*
X-4510897Y-7120597D2*
D22*
X-4360100Y-6969800D1*
X-4510897Y-6819003D2*
X-4360100Y-6969800D1*
X-4510898Y-6230598D2*
X-4360100Y-6079800D1*
X-4510898Y-5929002D2*
X-4360100Y-6079800D1*
X-6672740Y-4894917D2*
D21*
X-4906000D1*
X-6672649Y-4958083D2*
X-5092621D1*
X-6672513Y-5021250D2*
X-5147901D1*
X-6672421Y-5084417D2*
X-5149314D1*
X-6672330Y-5147583D2*
X-5149314D1*
X-6672239Y-5210750D2*
X-5149314D1*
X-6672102Y-5273917D2*
X-5149314D1*
X-6672011Y-5337083D2*
X-5149314D1*
X-6671920Y-5400250D2*
X-5126391D1*
X-6671783Y-5463417D2*
X-4903676D1*
X-6671692Y-5526583D2*
X-4903448D1*
X-6671601Y-5589750D2*
X-4903175D1*
X-6671464Y-5652917D2*
X-4902901D1*
X-6019772Y-5716083D2*
X-4902674D1*
X-5946582Y-5779250D2*
X-4902400D1*
X-5942617Y-5842417D2*
X-4902127D1*
X-5942617Y-5905583D2*
X-5146625D1*
X-5942617Y-5968750D2*
X-5149314D1*
X-5942617Y-6031917D2*
X-5149314D1*
X-5942617Y-6095083D2*
X-5769243D1*
X-5492949D2*
X-5149314D1*
X-5942617Y-6158250D2*
X-5783279D1*
X-5478912D2*
X-5149314D1*
X-5942617Y-6221417D2*
X-5783279D1*
X-5478958D2*
X-5149314D1*
X-5426093Y-6284583D2*
X-5131313D1*
X-5426093Y-6347750D2*
X-5357856D1*
X-4958470D2*
X-4900076D1*
X-5426139Y-6410917D2*
X-5357856D1*
X-4958470D2*
X-4899802D1*
X-4931302Y-6315650D2*
X-4964806D1*
X-4964800Y-6455379D1*
X-4893296Y-6454873D1*
X-4893872Y-6310052D1*
X-4898417Y-6311678D1*
X-4905922Y-6313710D1*
X-4913584Y-6315027D1*
X-4921337Y-6315616D1*
X-4931302Y-6315650D1*
X-5485402Y-6224081D2*
X-5486186Y-6231825D1*
X-5487629Y-6239465D1*
X-5489720Y-6246954D1*
X-5492449Y-6254243D1*
X-5470628Y-6254464D1*
X-5464272Y-6254450D1*
X-5449552Y-6258031D1*
X-5438168Y-6268023D1*
X-5432710Y-6282169D1*
X-5432454Y-6306649D1*
X-5432481Y-6458657D1*
X-5351520Y-6458091D1*
X-5351499Y-6298951D1*
X-5110251Y-6298950D1*
X-5113181Y-6296624D1*
X-5118921Y-6291380D1*
X-5124141Y-6285618D1*
X-5128796Y-6279391D1*
X-5132843Y-6272752D1*
X-5136247Y-6265762D1*
X-5138978Y-6258483D1*
X-5141010Y-6250978D1*
X-5142327Y-6243316D1*
X-5142916Y-6235563D1*
X-5142950Y-6217750D1*
X-5142906Y-5923697D1*
X-5142285Y-5915947D1*
X-5140936Y-5908290D1*
X-5138873Y-5900793D1*
X-5136112Y-5893525D1*
X-5132679Y-5886549D1*
X-5128605Y-5879928D1*
X-5123924Y-5873719D1*
X-5118680Y-5867979D1*
X-5112918Y-5862759D1*
X-5106691Y-5858104D1*
X-5100052Y-5854057D1*
X-5093062Y-5850653D1*
X-5085783Y-5847922D1*
X-5078278Y-5845890D1*
X-5070616Y-5844573D1*
X-5062863Y-5843984D1*
X-5045120Y-5843950D1*
X-4923702D1*
X-4915936Y-5844316D1*
X-4908239Y-5845413D1*
X-4900672Y-5847232D1*
X-4895759Y-5848813D1*
X-4897508Y-5421388D1*
X-4905922Y-5423710D1*
X-4913585Y-5425027D1*
X-4921337Y-5425616D1*
X-4939080Y-5425650D1*
X-5063204Y-5425606D1*
X-5070954Y-5424985D1*
X-5078611Y-5423636D1*
X-5086107Y-5421572D1*
X-5093375Y-5418812D1*
X-5100351Y-5415379D1*
X-5106973Y-5411304D1*
X-5113181Y-5406624D1*
X-5118921Y-5401380D1*
X-5124141Y-5395618D1*
X-5128796Y-5389390D1*
X-5132843Y-5382752D1*
X-5136247Y-5375762D1*
X-5138978Y-5368482D1*
X-5141010Y-5360978D1*
X-5142327Y-5353315D1*
X-5142916Y-5345563D1*
X-5142950Y-5327750D1*
X-5142906Y-5033696D1*
X-5142285Y-5025946D1*
X-5140936Y-5018289D1*
X-5138872Y-5010793D1*
X-5136112Y-5003525D1*
X-5132679Y-4996549D1*
X-5128604Y-4989927D1*
X-5123924Y-4983719D1*
X-5118680Y-4977979D1*
X-5112918Y-4972759D1*
X-5106691Y-4968104D1*
X-5100052Y-4964057D1*
X-5093062Y-4960653D1*
X-5085782Y-4957922D1*
X-5078278Y-4955890D1*
X-5070615Y-4954573D1*
X-5062863Y-4953984D1*
X-5045120Y-4953950D1*
X-4923702D1*
X-4915936Y-4954316D1*
X-4908239Y-4955413D1*
X-4900672Y-4957232D1*
X-4899451Y-4946454D1*
X-4899920Y-4831770D1*
X-5148000Y-4831750D1*
X-6679182D1*
X-6678245Y-5406774D1*
X-6677850Y-5645720D1*
X-6677565Y-5715050D1*
X-6039800D1*
X-6032032Y-5715383D1*
X-6024320Y-5716378D1*
X-6016722Y-5718030D1*
X-6009293Y-5720325D1*
X-6002088Y-5723247D1*
X-5995158Y-5726774D1*
X-5988556Y-5730881D1*
X-5982329Y-5735538D1*
X-5976523Y-5740709D1*
X-5971181Y-5746359D1*
X-5966341Y-5752444D1*
X-5962039Y-5758921D1*
X-5958307Y-5765742D1*
X-5955172Y-5772858D1*
X-5952656Y-5780215D1*
X-5950779Y-5787760D1*
X-5949554Y-5795439D1*
X-5948990Y-5803201D1*
X-5948950Y-5813619D1*
Y-6255548D1*
X-5769381Y-6255137D1*
X-5772555Y-6246721D1*
X-5774627Y-6239227D1*
X-5776049Y-6231583D1*
X-5776811Y-6223845D1*
X-5776950Y-6218825D1*
Y-6143634D1*
X-5776798Y-6138311D1*
X-5776014Y-6130575D1*
X-5774571Y-6122935D1*
X-5772480Y-6115446D1*
X-5769754Y-6108164D1*
X-5766416Y-6101142D1*
X-5762488Y-6094432D1*
X-5758000Y-6088082D1*
X-5752985Y-6082140D1*
X-5747480Y-6076650D1*
X-5741524Y-6071651D1*
X-5735163Y-6067180D1*
X-5728442Y-6063270D1*
X-5721411Y-6059950D1*
X-5714121Y-6057245D1*
X-5706627Y-6055173D1*
X-5698983Y-6053751D1*
X-5691245Y-6052989D1*
X-5686225Y-6052850D1*
X-5575975D1*
X-5568207Y-6053183D1*
X-5560496Y-6054180D1*
X-5552898Y-6055834D1*
X-5545470Y-6058132D1*
X-5538266Y-6061058D1*
X-5531339Y-6064589D1*
X-5524740Y-6068701D1*
X-5518517Y-6073363D1*
X-5512716Y-6078541D1*
X-5507380Y-6084196D1*
X-5502548Y-6090288D1*
X-5498255Y-6096770D1*
X-5494533Y-6103597D1*
X-5491409Y-6110717D1*
X-5488906Y-6118079D1*
X-5487043Y-6125627D1*
X-5485832Y-6133308D1*
X-5485284Y-6141072D1*
X-5485250Y-6158878D1*
Y-6218766D1*
X-5485402Y-6224081D1*
X-5976881Y-5740481D2*
D22*
X-6358800Y-6122400D1*
X-5521168Y-6071268D2*
X-5631100Y-6181200D1*
X-5741032Y-6071268D1*
X-4992100Y-5189800D2*
X-5142898Y-5340598D1*
X-4992100Y-5189800D2*
X-5142898Y-5039002D1*
X-4992100Y-6079800D2*
X-5142898Y-6230598D1*
X-4992100Y-6079800D2*
X-5142898Y-5929002D1*
X-5191486Y-6301464D2*
X-5078150Y-6414800D1*
X-4964814Y-6301464D2*
X-5078150Y-6414800D1*
X-6435384Y-6670717D2*
D21*
X-6280694D1*
X-5297018D2*
X-4898058D1*
X-6435110Y-6733883D2*
X-6281013D1*
X-5297018D2*
X-4898149D1*
X-6435110Y-6797050D2*
X-6281013D1*
X-5297018D2*
X-5146977D1*
X-6435110Y-6860217D2*
X-6281013D1*
X-5297018D2*
X-5149301D1*
X-6435429Y-6923383D2*
X-6280694D1*
X-5297018D2*
X-5149301D1*
X-6466009Y-6986550D2*
X-6250115D1*
X-6007500D2*
X-5149301D1*
X-6642877Y-7049717D2*
X-5149301D1*
X-6642877Y-7112883D2*
X-5149301D1*
X-6642877Y-7176050D2*
X-5130115D1*
X-6642877Y-7239217D2*
X-4899015D1*
X-6642877Y-7302383D2*
X-4899106D1*
X-6642877Y-7365550D2*
X-4899243D1*
X-5434921Y-7428717D2*
X-4899334D1*
X-5434921Y-7491883D2*
X-4899425D1*
X-5434921Y-7555050D2*
X-4899562D1*
X-5434921Y-7618217D2*
X-4899653D1*
X-5434921Y-7681383D2*
X-5145427D1*
X-5434921Y-7744550D2*
X-5149301D1*
X-5434921Y-7807717D2*
X-5149301D1*
X-5434921Y-7870883D2*
X-5149301D1*
X-5434921Y-7934050D2*
X-5149301D1*
X-5434921Y-7997217D2*
X-5149301D1*
X-5434921Y-8060383D2*
X-5134444D1*
X-5434921Y-8123550D2*
X-4900519D1*
X-5434921Y-8186717D2*
X-4900610D1*
X-5434921Y-8249883D2*
X-4900701D1*
X-5434921Y-8313050D2*
X-4928546D1*
X-6244072Y-6607574D2*
X-6472027Y-6607562D1*
X-6467215Y-6612423D1*
X-6462178Y-6618347D1*
X-6457629Y-6624653D1*
X-6453599Y-6631303D1*
X-6450112Y-6638253D1*
X-6447191Y-6645459D1*
X-6444855Y-6652876D1*
X-6443117Y-6660455D1*
X-6441991Y-6668148D1*
X-6441482Y-6675907D1*
X-6441450Y-6694074D1*
X-6441486Y-6918048D1*
X-6442007Y-6925806D1*
X-6443146Y-6933498D1*
X-6444895Y-6941075D1*
X-6447244Y-6948487D1*
X-6450176Y-6955689D1*
X-6453674Y-6962633D1*
X-6457715Y-6969276D1*
X-6462274Y-6975576D1*
X-6467320Y-6981491D1*
X-6472823Y-6986985D1*
X-6478747Y-6992022D1*
X-6485053Y-6996571D1*
X-6491703Y-7000601D1*
X-6498653Y-7004088D1*
X-6505859Y-7007009D1*
X-6513276Y-7009345D1*
X-6520855Y-7011083D1*
X-6528548Y-7012209D1*
X-6536307Y-7012718D1*
X-6554658Y-7012750D1*
X-6635804D1*
X-6643581Y-7012439D1*
X-6649250Y-7011823D1*
X-6649270Y-7385850D1*
X-5473000D1*
X-5458289Y-7389464D1*
X-5446927Y-7399482D1*
X-5441501Y-7413640D1*
X-5441250Y-7417623D1*
Y-8324013D1*
X-4927258Y-8323410D1*
X-4921560Y-8311984D1*
X-4907553Y-8293459D1*
X-4894422Y-8281503D1*
X-4894103Y-8090168D1*
X-4898418Y-8091678D1*
X-4905923Y-8093710D1*
X-4913585Y-8095027D1*
X-4921338Y-8095616D1*
X-4939080Y-8095650D1*
X-5063204Y-8095606D1*
X-5070954Y-8094984D1*
X-5078611Y-8093636D1*
X-5086107Y-8091572D1*
X-5093375Y-8088812D1*
X-5100351Y-8085379D1*
X-5106973Y-8081304D1*
X-5113181Y-8076624D1*
X-5118921Y-8071380D1*
X-5124141Y-8065618D1*
X-5128796Y-8059390D1*
X-5132843Y-8052752D1*
X-5136247Y-8045762D1*
X-5138978Y-8038482D1*
X-5141010Y-8030978D1*
X-5142327Y-8023315D1*
X-5142916Y-8015562D1*
X-5142950Y-7997750D1*
X-5142906Y-7703696D1*
X-5142284Y-7695946D1*
X-5140936Y-7688289D1*
X-5138872Y-7680793D1*
X-5136112Y-7673525D1*
X-5132679Y-7666549D1*
X-5128604Y-7659927D1*
X-5123924Y-7653719D1*
X-5118680Y-7647979D1*
X-5112918Y-7642759D1*
X-5106690Y-7638104D1*
X-5100052Y-7634057D1*
X-5093062Y-7630653D1*
X-5085782Y-7627922D1*
X-5078278Y-7625890D1*
X-5070615Y-7624573D1*
X-5062862Y-7623984D1*
X-5045120Y-7623950D1*
X-4923702D1*
X-4915936Y-7624316D1*
X-4908239Y-7625413D1*
X-4900672Y-7627232D1*
X-4893327Y-7629746D1*
X-4892602Y-7199538D1*
X-4898417Y-7201678D1*
X-4905922Y-7203710D1*
X-4913584Y-7205027D1*
X-4921337Y-7205616D1*
X-4939080Y-7205650D1*
X-5060498D1*
X-5068264Y-7205284D1*
X-5075961Y-7204187D1*
X-5083521Y-7202371D1*
X-5090876Y-7199850D1*
X-5097961Y-7196648D1*
X-5104713Y-7192793D1*
X-5111071Y-7188319D1*
X-5116980Y-7183266D1*
X-5122387Y-7177679D1*
X-5127243Y-7171607D1*
X-5131506Y-7165105D1*
X-5135138Y-7158231D1*
X-5138106Y-7151044D1*
X-5140384Y-7143611D1*
X-5141951Y-7135995D1*
X-5142795Y-7128259D1*
X-5142950Y-7122936D1*
X-5142906Y-6813696D1*
X-5142284Y-6805946D1*
X-5140936Y-6798289D1*
X-5138872Y-6790793D1*
X-5136112Y-6783525D1*
X-5132679Y-6776549D1*
X-5128604Y-6769927D1*
X-5123924Y-6763719D1*
X-5118679Y-6757979D1*
X-5112918Y-6752758D1*
X-5106690Y-6748104D1*
X-5100052Y-6744057D1*
X-5093061Y-6740653D1*
X-5085782Y-6737922D1*
X-5078277Y-6735890D1*
X-5070615Y-6734573D1*
X-5062862Y-6733984D1*
X-5045120Y-6733950D1*
X-4920997Y-6733994D1*
X-4913247Y-6734615D1*
X-4905590Y-6735964D1*
X-4898086Y-6738030D1*
X-4891827Y-6740346D1*
X-4891604Y-6607638D1*
X-5303349Y-6607609D1*
X-5303350Y-6978700D1*
X-5747000Y-6978678D1*
X-5758361Y-6978700D1*
X-5958950D1*
Y-6791197D1*
X-5981658Y-6791200D1*
X-5982949Y-6792768D1*
X-5982950Y-6915349D1*
X-5983507Y-6925807D1*
X-5988744Y-6948487D1*
X-5999216Y-6969276D1*
X-6014323Y-6986985D1*
X-6033203Y-7000601D1*
X-6054776Y-7009345D1*
X-6077808Y-7012718D1*
X-6127881Y-7012750D1*
X-6177304D1*
X-6200415Y-7009967D1*
X-6222204Y-7001777D1*
X-6241425Y-6988648D1*
X-6256981Y-6971331D1*
X-6267980Y-6950817D1*
X-6273795Y-6928254D1*
X-6274650Y-6915288D1*
Y-6678451D1*
X-6274093Y-6667993D1*
X-6268856Y-6645313D1*
X-6258370Y-6624506D1*
X-6244072Y-6607574D1*
X-5843100Y-6865350D2*
D22*
X-5956437Y-6978687D1*
X-5729763D2*
X-5843100Y-6865350D1*
X-6587300Y-6796900D2*
X-6444573Y-6654173D1*
X-6587300Y-6796900D2*
X-6444573Y-6939627D1*
X-4992100Y-6969800D2*
X-5142898Y-7120598D1*
X-4992100Y-6969800D2*
X-5142898Y-6819002D1*
X-4992100Y-7859800D2*
X-5142897Y-8010597D1*
X-4992100Y-7859800D2*
X-5142897Y-7709003D1*
X-5532537Y-6978687D2*
X-5419200Y-6865350D1*
X-5305863Y-6978687D1*
D26*
X-5843100Y-6705350D3*
Y-6865350D3*
D29*
X-2618900Y-2266400D3*
X-2798900D3*
X-4035600Y-6519627D3*
X-4215600D3*
X-2000200D3*
X-2180200D3*
X-1677800Y-6524673D3*
X-1497800D3*
X-676300Y-2267400D3*
X-856300D3*
D54*
X-6128800Y-6796900D3*
X-6587300D3*
D57*
X-6358800Y-6122400D3*
D60*
X-5631100Y-6181200D3*
Y-6526200D3*
D63*
X-3632500Y-3597900D3*
D66*
X-3000500D3*
D63*
X-4992100Y-5189800D3*
D66*
X-4360100D3*
D63*
X-3026700Y-7866900D3*
D66*
X-2394700D3*
X-675300Y-5190800D3*
D63*
X-1307300D3*
X-1660900Y-931300D3*
D66*
X-1028900D3*
X-3000500Y-1817900D3*
D63*
X-3632500D3*
D66*
X-4360100Y-6969800D3*
D63*
X-4992100D3*
D66*
X-2394700Y-6086900D3*
D63*
X-3026700D3*
X-1307300Y-6970800D3*
D66*
X-675300D3*
X-1028900Y-2711300D3*
D63*
X-1660900D3*
D66*
X-3000500Y-927900D3*
D63*
X-3632500D3*
D66*
X-4360100Y-7859800D3*
D63*
X-4992100D3*
D66*
X-2394700Y-5196900D3*
D63*
X-3026700D3*
X-1307300Y-7860800D3*
D66*
X-675300D3*
X-1028900Y-3601300D3*
D63*
X-1660900D3*
X-3632500Y-2707900D3*
D66*
X-3000500D3*
D63*
X-4992100Y-6079800D3*
D66*
X-4360100D3*
D63*
X-3026700Y-6976900D3*
D66*
X-2394700D3*
X-675300Y-6080800D3*
D63*
X-1307300D3*
X-1660900Y-1821300D3*
D66*
X-1028900D3*
D69*
X-5260000Y-9672000D3*
X-4865557D3*
X-4471110D3*
X-4076667D3*
X-3682223D3*
X-3287777D3*
X-2893333D3*
X-2498890D3*
X-2104443D3*
X-1710000D3*
D32*
X-5259300Y-9103900D3*
X-4864043D3*
X-4468790D3*
X-4073533D3*
X-3678277D3*
X-3283023D3*
X-2889767D3*
X-2492510D3*
X-2097257D3*
X-1702000D3*
D26*
X-5631150Y-6865350D3*
Y-6705350D3*
D33*
X-3781800Y-2265300D3*
X-3941800D3*
X-5238150Y-6414800D3*
X-5078150D3*
X-3356800Y-6547050D3*
X-3516800D3*
X-409500Y-6522150D3*
X-569500D3*
X-1901900Y-2263200D3*
X-1741900D3*
D26*
X-5419200Y-6865350D3*
Y-6705350D3*
X-6093913Y-852243D2*
D23*
X-6093910Y-852241D1*
G36*
X-6193728Y-1606774D2*
X-6253646Y-1651470D1*
X-6298342Y-1711388D1*
X-6263609Y-1722692D1*
D1*
X-6274060Y-1744985D1*
X-6273065Y-1766061D1*
X-6246454Y-1812461D1*
X-6224562Y-1829837D1*
X-6198970Y-1835400D1*
X-6162691Y-1817463D1*
X-6146170Y-1779451D1*
X-6170978Y-1732459D1*
X-6175595Y-1728125D1*
X-6199814Y-1709629D1*
X-6221270Y-1707246D1*
X-6251079Y-1711397D1*
X-6260985Y-1719828D1*
X-6263609Y-1722692D1*
X-6298342Y-1711388D1*
X-6321012Y-1777408D1*
X-6318200Y-1839480D1*
X-6290337Y-1888150D1*
X-6241667Y-1916013D1*
X-6179595Y-1918825D1*
X-6113575Y-1896155D1*
X-6053657Y-1851458D1*
X-6008961Y-1791541D1*
X-5986293Y-1725523D1*
X-5989105Y-1663451D1*
X-6016965Y-1614778D1*
X-6065638Y-1586918D1*
X-6127710Y-1584106D1*
X-6193728Y-1606774D1*
G37*
X-6253646Y-1651470D2*
D23*
D3*
X-6260985Y-1719828D2*
X-6260983Y-1719826D1*
G36*
X-5734533Y-1372405D2*
X-5750266Y-1377584D1*
X-5747628Y-1382404D1*
X-5743810Y-1387311D1*
X-5731351Y-1401043D1*
X-5689153Y-1443962D1*
X-5559116Y-1566362D1*
X-5415983Y-1686943D1*
X-5357147Y-1727955D1*
X-5314405Y-1746326D1*
X-5312588Y-1729772D1*
X-5348599Y-1713768D1*
X-5405886Y-1673758D1*
X-5548021Y-1553995D1*
X-5677514Y-1432139D1*
X-5719254Y-1389678D1*
X-5731077Y-1376582D1*
X-5734172Y-1372766D1*
X-5734533Y-1372405D1*
G37*
G36*
X-5825012Y-1439606D2*
X-5832012Y-1434600D1*
X-5842197Y-1448787D1*
X-5835104Y-1453881D1*
X-5588081Y-1637735D1*
X-5458448Y-1748876D1*
X-5408886Y-1802982D1*
X-5402431Y-1813261D1*
X-5401799Y-1814444D1*
X-5400161Y-1822993D1*
X-5383065Y-1819719D1*
X-5384699Y-1811170D1*
X-5386702Y-1805532D1*
X-5394704Y-1792802D1*
X-5446354Y-1736419D1*
X-5577223Y-1624109D1*
X-5825012Y-1439606D1*
G37*
G36*
X-5860754Y-1506437D2*
X-5873936Y-1517805D1*
X-5781454Y-1616105D1*
X-5660088Y-1718911D1*
X-5464727Y-1861542D1*
X-5454903Y-1847173D1*
X-5649350Y-1705231D1*
X-5769633Y-1603375D1*
X-5860754Y-1506437D1*
G37*
G36*
X-6691750Y-2266417D2*
X-6734917Y-2296761D1*
X-6765263Y-2339930D1*
X-6778074Y-2387978D1*
X-6772396Y-2435111D1*
X-6747284Y-2475544D1*
X-6724277Y-2452537D1*
D1*
X-6695748Y-2469946D1*
X-6661316Y-2473755D1*
X-6591692Y-2439986D1*
X-6557970Y-2370409D1*
X-6561810Y-2336008D1*
X-6579233Y-2307493D1*
X-6607765Y-2290053D1*
X-6642196Y-2286183D1*
X-6711818Y-2319860D1*
X-6745542Y-2389529D1*
X-6741703Y-2423991D1*
X-6724277Y-2452537D1*
X-6747284Y-2475544D1*
X-6706866Y-2500641D1*
X-6659765Y-2506286D1*
X-6611748Y-2493445D1*
X-6568593Y-2463085D1*
X-6538235Y-2419932D1*
X-6525394Y-2371915D1*
X-6531037Y-2324812D1*
X-6556137Y-2284396D1*
X-6596567Y-2259282D1*
X-6643702Y-2253607D1*
X-6691750Y-2266417D1*
G37*
X-6734917Y-2296761D2*
D23*
D3*
X-6711818Y-2319860D2*
D3*
G36*
X-6983208Y-1953591D2*
X-7041283Y-1993488D1*
X-7081196Y-2051579D1*
X-7096668Y-2116770D1*
X-7086990Y-2181159D1*
X-7051467Y-2236834D1*
X-6995792Y-2272357D1*
X-6931405Y-2282032D1*
X-6866212Y-2266563D1*
X-6808121Y-2226649D1*
X-6768224Y-2168575D1*
X-6752785Y-2103412D1*
X-6788874Y-2102444D1*
D1*
X-6796331Y-2052041D1*
X-6823673Y-2009040D1*
X-6866677Y-1981696D1*
X-6917077Y-1974240D1*
X-6968766Y-1986704D1*
X-7015638Y-2019132D1*
X-7048066Y-2066004D1*
X-7060532Y-2117696D1*
X-7053072Y-2168096D1*
X-7025733Y-2211100D1*
X-6982729Y-2238439D1*
X-6932329Y-2245899D1*
X-6880637Y-2233433D1*
X-6833766Y-2201005D1*
X-6801338Y-2154133D1*
X-6788874Y-2102444D1*
X-6752785Y-2103412D1*
X-6762492Y-2039056D1*
X-6798028Y-1983395D1*
X-6853689Y-1947858D1*
X-6918048Y-1938150D1*
X-6983208Y-1953591D1*
G37*
X-7041283Y-1993488D2*
D23*
D3*
X-7015638Y-2019132D2*
D3*
G36*
X-7150950Y-1478973D2*
X-7163320Y-1476428D1*
X-7183053Y-1574183D1*
X-7170683Y-1576729D1*
X-7150950Y-1478973D1*
G37*
G36*
X-7023275Y-1605739D2*
X-7089658Y-1633382D1*
X-7089660Y-1633384D1*
X-7086476Y-1645478D1*
X-7017545Y-1616923D1*
X-7023275Y-1605739D1*
G37*
X-7089658Y-1633382D2*
D23*
X-7089660Y-1633384D1*
G36*
X-7019640Y-1704856D2*
X-7092298Y-1699492D1*
X-7092753Y-1712132D1*
X-7020642Y-1717497D1*
X-7019640Y-1704856D1*
G37*
X-7092298Y-1699492D2*
D23*
D3*
G36*
X-7076020Y-1512075D2*
X-7082024Y-1514803D1*
D1*
X-7089387Y-1525258D1*
X-7137312Y-1595552D1*
X-7127036Y-1602920D1*
X-7078931Y-1532080D1*
X-7073201Y-1523804D1*
X-7075931Y-1524714D1*
X-7077656Y-1524440D1*
X-7071108Y-1513711D1*
X-7076020Y-1512075D1*
G37*
X-7082024Y-1514803D2*
D23*
D3*
G36*
X-7271260Y-1542908D2*
X-7281810Y-1535987D1*
X-7282807Y-1537904D1*
X-7283533Y-1541175D1*
X-7282533Y-1552362D1*
X-7257799Y-1599464D1*
X-7247522Y-1592280D1*
X-7270255Y-1549361D1*
X-7271076Y-1542724D1*
X-7271260Y-1542908D1*
G37*
G36*
X-7305095Y-1657485D2*
X-7358109Y-1662849D1*
X-7358106Y-1662842D1*
X-7357015Y-1675394D1*
X-7303546Y-1669937D1*
X-7296814Y-1669027D1*
X-7295360Y-1668662D1*
X-7294816Y-1668485D1*
X-7293722Y-1667943D1*
X-7296998Y-1662668D1*
X-7302273Y-1659213D1*
X-7301821Y-1658576D1*
X-7301092Y-1657848D1*
X-7301000Y-1657756D1*
X-7297005Y-1662670D1*
X-7299277Y-1656759D1*
X-7298818Y-1656667D1*
X-7298910Y-1656575D1*
X-7305095Y-1657485D1*
G37*
X-7358109Y-1662849D2*
D23*
X-7358106Y-1662842D1*
G36*
X-7291726Y-1666121D2*
X-7297001Y-1662666D1*
X-7296996Y-1662661D1*
X-7293090Y-1667486D1*
X-7292906Y-1667302D1*
X-7292270Y-1666666D1*
X-7291726Y-1666121D1*
G37*
X-7297001Y-1662666D2*
D23*
X-7296996Y-1662661D1*
G36*
X-7297811Y-1739325D2*
X-7376472Y-1782155D1*
X-7369925Y-1792884D1*
X-7292447Y-1750691D1*
X-7297811Y-1739325D1*
G37*
X-7376472Y-1782155D2*
D23*
D3*
G36*
X-7237342Y-1779242D2*
X-7249436Y-1775878D1*
X-7251527Y-1783791D1*
X-7270989Y-1812162D1*
X-7285357Y-1833620D1*
X-7290721Y-1841898D1*
X-7293722Y-1847444D1*
X-7282083Y-1852173D1*
X-7279990Y-1848444D1*
X-7274809Y-1840534D1*
X-7260620Y-1819254D1*
X-7240616Y-1790157D1*
X-7239980Y-1789337D1*
X-7237342Y-1779242D1*
G37*
G36*
X-7170959Y-1795793D2*
X-7183508D1*
X-7183781Y-1860630D1*
X-7171230Y-1860632D1*
X-7170959Y-1795793D1*
G37*
G36*
X-5217911Y-1218742D2*
D1*
X-5221494Y-1260230D1*
X-5208709Y-1282164D1*
X-5190949Y-1303008D1*
X-5136775Y-1358775D1*
X-4981768Y-1506023D1*
X-4776761Y-1697255D1*
X-4727264Y-1644222D1*
X-4691908Y-1679577D1*
X-4920563Y-1960299D1*
X-5126442Y-2157084D1*
X-5151731Y-2166128D1*
X-5176001Y-2154628D1*
X-5184960Y-2129302D1*
X-5173363Y-2105067D1*
X-4971760Y-1912373D1*
X-4736103Y-1653061D1*
X-4729032Y-1642454D1*
X-4934111Y-1454585D1*
X-5087478Y-1308879D1*
X-5139014Y-1255853D1*
X-5144337Y-1249630D1*
X-5101804Y-1228094D1*
X-4996037Y-1157372D1*
X-4848398Y-1015281D1*
X-4839566Y-989945D1*
X-4851236Y-965784D1*
X-4876572Y-956952D1*
X-4900731Y-968619D1*
X-5039291Y-1102380D1*
X-5135085Y-1166359D1*
X-5217911Y-1218742D1*
G37*
D23*
D3*
G36*
X-5055194Y-697658D2*
X-5108027Y-663932D1*
X-5238509Y-812422D1*
X-5329721Y-961758D1*
X-5360516Y-1046193D1*
X-5372723Y-1134080D1*
X-5363457Y-1157025D1*
X-5340688Y-1166713D1*
X-5317693Y-1157445D1*
X-5308004Y-1134627D1*
X-5297350Y-1062766D1*
X-5270058Y-989022D1*
X-5186574Y-851025D1*
X-5147823Y-806899D1*
X-5158410Y-915935D1*
X-5134241Y-1018767D1*
X-5114989Y-1033942D1*
X-5007509Y-1040871D1*
X-4873376Y-1012997D1*
X-4853902Y-997747D1*
X-4850890Y-973201D1*
X-4866142Y-953678D1*
X-4890735Y-950666D1*
X-5001824Y-973536D1*
X-5080614Y-972503D1*
X-5090750Y-902604D1*
X-5083796Y-815804D1*
X-5055194Y-697658D1*
G37*
X-5716565Y-813020D2*
D23*
X-5716563Y-813018D1*
G36*
X-5634086Y-809341D2*
X-5644233Y-784863D1*
X-5644230Y-784861D1*
X-5643585Y-785507D1*
X-5642196Y-787102D1*
X-5639856Y-790037D1*
X-5634086Y-809341D1*
G37*
X-5644233Y-784863D2*
D23*
X-5644230Y-784861D1*
G36*
X-5632349Y-815957D2*
X-5632193Y-815604D1*
X-5632146Y-815858D1*
X-5632349Y-815957D1*
G37*
X-5632193Y-815604D2*
D23*
D3*
G36*
X-5594955Y-657058D2*
X-5697252Y-753812D1*
X-5697259Y-753819D1*
X-5714637Y-793061D1*
X-5708851Y-838837D1*
X-5632641Y-795460D1*
X-5591452Y-833863D1*
X-5460272Y-955889D1*
X-5458035Y-958130D1*
X-5322577Y-1094880D1*
X-5308612Y-1124034D1*
X-5319343Y-1154527D1*
X-5348530Y-1168488D1*
X-5379037Y-1157709D1*
X-5517632Y-1017926D1*
X-5517882Y-1017676D1*
X-5649109Y-895698D1*
X-5690199Y-857295D1*
X-5700495Y-847791D1*
X-5701190Y-847096D1*
X-5698805Y-848887D1*
X-5703979Y-844609D1*
X-5705023Y-843565D1*
X-5706564Y-841821D1*
X-5708851Y-838837D1*
X-5632641Y-795460D1*
X-5639248Y-793412D1*
X-5553216Y-715065D1*
X-5318785Y-569455D1*
X-5352662Y-507920D1*
X-5594955Y-657058D1*
G37*
X-5697252Y-753812D2*
D23*
X-5697259Y-753819D1*
G36*
X-5696568Y-503081D2*
X-5934500Y-691091D1*
X-6090252Y-849234D1*
X-6037872Y-895844D1*
X-6175737Y-1073957D1*
X-6291118Y-1270174D1*
X-6381578Y-1478151D1*
X-6441284Y-1688852D1*
X-6463765Y-1880148D1*
X-6449465Y-2057436D1*
X-6395267Y-2215234D1*
X-6298061Y-2348050D1*
X-6283783Y-2315947D1*
X-6198305Y-2136623D1*
X-6139283Y-2047591D1*
X-6065539Y-1980032D1*
X-6020977Y-1960176D1*
X-5971692Y-1955113D1*
X-5925152Y-1968023D1*
X-5879756Y-1996491D1*
X-5858566Y-2021862D1*
X-5858295Y-2038684D1*
X-5864388Y-2060965D1*
X-5888849Y-2116162D1*
X-5968510Y-2270935D1*
X-6046261Y-2422343D1*
X-6056535Y-2445897D1*
X-5887551Y-2451450D1*
X-5683060Y-2415553D1*
X-5567974Y-2373148D1*
X-5444581Y-2309690D1*
X-5313073Y-2221608D1*
X-5173637Y-2105340D1*
X-5148424Y-2096117D1*
X-5124078Y-2107433D1*
X-5114945Y-2132618D1*
X-5126261Y-2156903D1*
X-5280495Y-2284125D1*
X-5427387Y-2379276D1*
X-5566074Y-2446569D1*
X-5695708Y-2490223D1*
X-5924403Y-2523469D1*
X-6106641Y-2512733D1*
X-6136740Y-2488093D1*
X-6138741Y-2468815D1*
X-6133011Y-2446171D1*
X-6109460Y-2392063D1*
X-6030436Y-2238288D1*
X-5951959Y-2085607D1*
X-5934135Y-2045595D1*
X-5977056Y-2025046D1*
X-6028616Y-2039686D1*
X-6084209Y-2092096D1*
X-6137287Y-2171271D1*
X-6219311Y-2343503D1*
X-6246591Y-2404612D1*
X-6259503Y-2426075D1*
X-6274142Y-2438531D1*
X-6314702Y-2435076D1*
X-6315060Y-2434713D1*
X-6315612Y-2434345D1*
X-6387503Y-2362817D1*
X-6444133Y-2282103D1*
X-6486333Y-2193455D1*
X-6514936Y-2098121D1*
X-6534683Y-1892376D1*
X-6510033Y-1674847D1*
X-6447732Y-1454234D1*
X-6353845Y-1238093D1*
X-6234021Y-1034675D1*
X-6090252Y-849234D1*
X-6038947Y-894689D1*
X-6037872Y-895844D1*
X-5886813Y-742852D1*
X-5732390Y-614894D1*
X-5584171Y-515720D1*
X-5451716Y-449077D1*
X-5432610Y-430240D1*
X-5432417Y-403412D1*
X-5451221Y-384297D1*
X-5478032Y-384059D1*
X-5696568Y-503081D1*
G37*
X-5934500Y-691091D2*
D23*
D3*
G36*
X-5466134Y-381593D2*
X-5490918Y-391971D1*
X-5501096Y-416871D1*
X-5490668Y-441667D1*
X-5364365Y-566678D1*
X-5339479Y-576809D1*
X-5314719Y-566379D1*
X-5304588Y-541531D1*
X-5314966Y-516785D1*
X-5441270Y-391773D1*
X-5466134Y-381593D1*
G37*
X-5490918Y-391971D2*
D23*
D3*
G36*
X-6054494Y-870850D2*
X-6063354Y-875703D1*
X-6063356Y-875710D1*
X-6066208Y-885402D1*
X-6061355Y-894262D1*
X-5628469Y-1260378D1*
X-5262669Y-1600596D1*
X-5093559Y-1775744D1*
X-4953121Y-1941204D1*
X-4934661Y-1943660D1*
X-4929614Y-1934876D1*
X-4932296Y-1925108D1*
X-5074295Y-1757663D1*
X-5244536Y-1581167D1*
X-5611581Y-1239710D1*
X-6044802Y-873702D1*
X-6054494Y-870850D1*
G37*
X-6063354Y-875703D2*
D23*
X-6063356Y-875710D1*
X-4768882Y-1664391D2*
D3*
G36*
X-5368277Y-3296098D2*
X-5384944Y-3299432D1*
X-5398277Y-3302765D1*
X-5414944Y-3309432D1*
X-5431611Y-3319432D1*
X-5464944Y-3352765D1*
X-5478277Y-3379432D1*
X-5481611Y-3389432D1*
X-5484944Y-3402765D1*
Y-3462765D1*
X-5481611Y-3476098D1*
X-5478277Y-3486098D1*
X-5464944Y-3512765D1*
X-5454944Y-3526098D1*
X-5448277Y-3532765D1*
X-5434944Y-3542765D1*
X-5408277Y-3556098D1*
X-5398277Y-3559432D1*
X-5381611Y-3562765D1*
X-5341611D1*
X-5321611Y-3559432D1*
X-5291611Y-3549432D1*
X-5264944Y-3536098D1*
X-5254944Y-3529432D1*
Y-3522765D1*
X-5258277Y-3516098D1*
X-5288277Y-3529432D1*
X-5294944Y-3532765D1*
X-5304944Y-3536098D1*
X-5321611Y-3539432D1*
X-5337166Y-3542765D1*
X-5352722D1*
X-5368277Y-3539432D1*
X-5381611Y-3536098D1*
X-5391611Y-3532765D1*
X-5398277Y-3529432D1*
X-5401611Y-3526098D1*
X-5408277Y-3522765D1*
X-5431611Y-3499432D1*
Y-3496098D1*
X-5438277Y-3486098D1*
X-5444944Y-3466098D1*
X-5448277Y-3449432D1*
X-5451611Y-3446098D1*
Y-3402765D1*
X-5448277Y-3399432D1*
X-5444944Y-3382765D1*
X-5438277Y-3362765D1*
X-5431611Y-3352765D1*
Y-3349432D1*
X-5408277Y-3326098D1*
X-5388277Y-3316098D1*
X-5371611Y-3312765D1*
X-5356055Y-3309432D1*
X-5340500D1*
X-5324944Y-3312765D1*
X-5311611Y-3316098D1*
X-5291611Y-3326098D1*
X-5281611Y-3336098D1*
Y-3339432D1*
X-5278277Y-3346098D1*
X-5274944Y-3356098D1*
X-5268277Y-3382765D1*
X-5254944D1*
Y-3379432D1*
X-5258277Y-3312765D1*
X-5264944Y-3309432D1*
X-5284944Y-3302765D1*
X-5301611Y-3299432D1*
X-5321611Y-3296098D1*
X-5368277D1*
G37*
G36*
X-4474944Y-3312765D2*
X-4481611Y-3316098D1*
X-4491611Y-3322765D1*
X-4511611Y-3342765D1*
X-4524944Y-3362765D1*
X-4528277Y-3369432D1*
X-4534944Y-3389432D1*
X-4538277Y-3402765D1*
Y-3466098D1*
X-4534944Y-3479432D1*
X-4528277Y-3499432D1*
X-4524944Y-3506098D1*
X-4518277Y-3516098D1*
X-4508277Y-3529432D1*
X-4504944Y-3532765D1*
X-4491611Y-3542765D1*
X-4481611Y-3549432D1*
X-4474944Y-3552765D1*
X-4454944Y-3559432D1*
X-4438277Y-3562765D1*
X-4394944D1*
X-4378277Y-3559432D1*
X-4368277Y-3556098D1*
X-4351611Y-3549432D1*
X-4331611Y-3536098D1*
X-4311611Y-3516098D1*
X-4304944Y-3506098D1*
X-4294944Y-3486098D1*
X-4288277Y-3466098D1*
X-4284944Y-3449432D1*
Y-3396098D1*
X-4288277Y-3379432D1*
X-4291611Y-3369432D1*
X-4304944Y-3342765D1*
X-4331611Y-3316098D1*
X-4341611Y-3309432D1*
X-4348277Y-3306098D1*
X-4368277Y-3299432D1*
X-4384944Y-3296098D1*
X-4424944D1*
X-4441611Y-3299432D1*
X-4454944Y-3302765D1*
X-4474944Y-3312765D1*
X-4431611D1*
X-4418277Y-3309432D1*
X-4404944D1*
X-4391611Y-3312765D1*
X-4371611Y-3319432D1*
X-4364944Y-3322765D1*
X-4338277Y-3349432D1*
Y-3352765D1*
X-4331611Y-3366098D1*
X-4328277Y-3376098D1*
X-4324944Y-3389432D1*
X-4321611Y-3412765D1*
X-4318277Y-3416098D1*
Y-3446098D1*
X-4321611Y-3449432D1*
X-4324944Y-3472765D1*
X-4334944Y-3502765D1*
X-4341611Y-3512765D1*
Y-3516098D1*
X-4358277Y-3532765D1*
X-4378277Y-3542765D1*
X-4388277Y-3546098D1*
X-4402722Y-3549432D1*
X-4417166D1*
X-4431611Y-3546098D1*
X-4441611Y-3542765D1*
X-4461611Y-3532765D1*
X-4484944Y-3509432D1*
Y-3506098D1*
X-4491611Y-3492765D1*
X-4494944Y-3482765D1*
X-4498277Y-3469432D1*
X-4501611Y-3446098D1*
X-4504944Y-3442765D1*
Y-3412765D1*
X-4501611Y-3409432D1*
X-4498277Y-3386098D1*
X-4494944Y-3372765D1*
X-4491611Y-3362765D1*
X-4488277Y-3356098D1*
X-4481611Y-3346098D1*
Y-3342765D1*
X-4468277Y-3329432D1*
X-4461611Y-3326098D1*
X-4458277Y-3322765D1*
X-4444944Y-3316098D1*
X-4431611Y-3312765D1*
X-4474944D1*
G37*
G36*
X-4151611Y-3352765D2*
X-4154944Y-3356098D1*
X-4161611Y-3369432D1*
X-4164944Y-3379432D1*
X-4171611Y-3392765D1*
X-4174944Y-3402765D1*
X-4181611Y-3416098D1*
X-4184944Y-3426098D1*
X-4191611Y-3439432D1*
X-4194944Y-3449432D1*
X-4201611Y-3462765D1*
X-4204944Y-3472765D1*
X-4214944Y-3492765D1*
X-4218277Y-3502765D1*
X-4228277Y-3522765D1*
X-4234944Y-3532765D1*
X-4236040Y-3536809D1*
X-4238277Y-3539432D1*
X-4244944Y-3542765D1*
X-4254944Y-3546098D1*
X-4261611Y-3549432D1*
Y-3556098D1*
X-4181611D1*
Y-3549432D1*
X-4188277Y-3546098D1*
X-4201611Y-3542765D1*
X-4208277Y-3539432D1*
X-4212789Y-3534920D1*
X-4208277Y-3532765D1*
X-4204944Y-3522765D1*
X-4201611Y-3516098D1*
X-4198277Y-3506098D1*
X-4194944Y-3499432D1*
X-4191611Y-3489432D1*
X-4188277Y-3482765D1*
Y-3476098D1*
X-4151611Y-3472765D1*
X-4114944D1*
X-4078277Y-3476098D1*
X-4075592Y-3480402D1*
X-4074944Y-3482765D1*
X-4071611Y-3492765D1*
X-4068277Y-3499432D1*
X-4064944Y-3509432D1*
X-4061611Y-3516098D1*
X-4058277Y-3526098D1*
X-4054944Y-3529432D1*
Y-3536098D1*
X-4058277Y-3539432D1*
X-4064944Y-3542765D1*
X-4084944Y-3549432D1*
Y-3556098D1*
X-3984944D1*
Y-3549432D1*
X-3991611Y-3546098D1*
X-4011611Y-3539432D1*
X-4018277Y-3532765D1*
Y-3529432D1*
X-4024944Y-3516098D1*
X-4028277Y-3506098D1*
X-4041611Y-3479432D1*
X-4044944Y-3469432D1*
X-4054944Y-3449432D1*
X-4058277Y-3439432D1*
X-4068277Y-3419432D1*
X-4071611Y-3409432D1*
X-4078277Y-3396098D1*
X-4081611Y-3386098D1*
X-4088277Y-3372765D1*
X-4091611Y-3362765D1*
X-4094944Y-3356098D1*
X-4098277Y-3346098D1*
X-4104944Y-3332765D1*
X-4108277Y-3322765D1*
X-4111611Y-3316098D1*
X-4118277Y-3296098D1*
X-4128277D1*
X-4131611Y-3299432D1*
X-4134944Y-3309432D1*
X-4141611Y-3322765D1*
X-4144944Y-3332765D1*
X-4151611Y-3346098D1*
Y-3352765D1*
X-4134944D1*
X-4132455Y-3350624D1*
X-4130769Y-3350903D1*
X-4128872Y-3353660D1*
X-4128277Y-3356098D1*
X-4121611Y-3369432D1*
X-4118277Y-3379432D1*
X-4114944Y-3386098D1*
X-4111611Y-3396098D1*
X-4104944Y-3409432D1*
X-4101611Y-3419432D1*
X-4098277Y-3426098D1*
X-4094944Y-3436098D1*
X-4088277Y-3449432D1*
X-4084944Y-3452765D1*
X-4116055Y-3456098D1*
X-4147166D1*
X-4178277Y-3452765D1*
X-4174944Y-3449432D1*
X-4171611Y-3442765D1*
X-4168277Y-3432765D1*
X-4164944Y-3426098D1*
X-4161611Y-3416098D1*
X-4154944Y-3402765D1*
X-4151611Y-3392765D1*
X-4148277Y-3386098D1*
X-4144944Y-3376098D1*
X-4138277Y-3362765D1*
X-4134944Y-3352765D1*
X-4151611D1*
G37*
G36*
X-6811611Y-3439432D2*
X-6821611Y-3449432D1*
X-6828277Y-3452765D1*
X-6838277Y-3462765D1*
X-6844944Y-3472765D1*
X-6848277Y-3479432D1*
X-6851611Y-3492765D1*
Y-3516098D1*
X-6848277Y-3526098D1*
X-6844944Y-3532765D1*
X-6838277Y-3542765D1*
X-6831611Y-3549432D1*
X-6811611Y-3559432D1*
X-6798277Y-3562765D1*
X-6764944D1*
X-6751611Y-3559432D1*
X-6731611Y-3549432D1*
X-6711611Y-3529432D1*
X-6704944Y-3516098D1*
X-6701611Y-3506098D1*
Y-3476098D1*
X-6704944Y-3466098D1*
X-6711611Y-3456098D1*
X-6734944Y-3432765D1*
X-6748277Y-3422765D1*
X-6754944Y-3419432D1*
Y-3416098D1*
X-6748277Y-3412765D1*
X-6731611Y-3399432D1*
X-6721611Y-3389432D1*
X-6714944Y-3379432D1*
X-6708277Y-3366098D1*
Y-3336098D1*
X-6711611Y-3326098D1*
X-6728277Y-3309432D1*
X-6741611Y-3302765D1*
X-6751611Y-3299432D1*
X-6784944D1*
X-6798277Y-3302765D1*
X-6808277Y-3306098D1*
X-6814944Y-3309432D1*
X-6821611Y-3316098D1*
X-6791611D1*
X-6780500Y-3312765D1*
X-6769389D1*
X-6758277Y-3316098D1*
X-6744944Y-3322765D1*
X-6734944Y-3332765D1*
Y-3336098D1*
X-6731611Y-3346098D1*
X-6728277Y-3349432D1*
Y-3359432D1*
X-6731611Y-3362765D1*
X-6734944Y-3376098D1*
Y-3379432D1*
X-6758277Y-3402765D1*
X-6764944Y-3406098D1*
X-6769008Y-3409577D1*
X-6771611Y-3409432D1*
X-6781611Y-3399432D1*
X-6788277Y-3396098D1*
X-6814944Y-3369432D1*
Y-3366098D1*
X-6818277Y-3362765D1*
Y-3339432D1*
X-6814944Y-3336098D1*
Y-3332765D1*
X-6804944Y-3322765D1*
X-6791611Y-3316098D1*
X-6821611D1*
X-6838277Y-3332765D1*
X-6841611Y-3339432D1*
X-6844944Y-3349432D1*
Y-3372765D1*
X-6841611Y-3382765D1*
X-6838277Y-3389432D1*
X-6811611Y-3416098D1*
X-6804944Y-3419432D1*
X-6798277Y-3426098D1*
X-6799373Y-3430142D1*
X-6801611Y-3432765D1*
X-6808277Y-3436098D1*
X-6811611Y-3439432D1*
X-6788277D1*
X-6784716Y-3437206D1*
X-6781611Y-3436098D1*
X-6774944Y-3442765D1*
X-6758277Y-3456098D1*
X-6751611Y-3459432D1*
X-6741611Y-3469432D1*
Y-3472765D1*
X-6734944Y-3482765D1*
X-6731611Y-3492765D1*
X-6728277Y-3496098D1*
Y-3512765D1*
X-6731611Y-3516098D1*
X-6734944Y-3526098D1*
Y-3529432D1*
X-6744944Y-3539432D1*
X-6758277Y-3546098D1*
X-6769389Y-3549432D1*
X-6780500D1*
X-6791611Y-3546098D1*
X-6804944Y-3539432D1*
X-6818277Y-3526098D1*
Y-3522765D1*
X-6821611Y-3512765D1*
X-6824944Y-3509432D1*
Y-3486098D1*
X-6821611Y-3482765D1*
X-6818277Y-3472765D1*
X-6811611Y-3462765D1*
Y-3459432D1*
X-6798277Y-3446098D1*
X-6791611Y-3442765D1*
X-6788277Y-3439432D1*
X-6811611D1*
G37*
G36*
X-6661611Y-3419432D2*
Y-3426098D1*
X-6664944Y-3429432D1*
X-6668277Y-3446098D1*
Y-3489432D1*
X-6664944Y-3502765D1*
X-6661611Y-3512765D1*
X-6654944Y-3526098D1*
X-6648277Y-3536098D1*
X-6634944Y-3549432D1*
X-6614944Y-3559432D1*
X-6604944Y-3562765D1*
X-6574944D1*
X-6561611Y-3559432D1*
X-6548277Y-3552765D1*
X-6538277Y-3546098D1*
X-6534944Y-3542765D1*
X-6524944Y-3529432D1*
X-6518277Y-3519432D1*
X-6514944Y-3509432D1*
X-6511611Y-3502765D1*
X-6508277Y-3489432D1*
Y-3446098D1*
X-6514944Y-3426098D1*
X-6521611Y-3416098D1*
X-6531611Y-3406098D1*
X-6541611Y-3399432D1*
X-6548277Y-3396098D1*
X-6561611Y-3392765D1*
X-6584944D1*
X-6604944Y-3402765D1*
X-6618277Y-3412765D1*
X-6625145Y-3419719D1*
X-6626871Y-3419177D1*
X-6628277Y-3416098D1*
Y-3409432D1*
X-6624944Y-3406098D1*
X-6621611Y-3396098D1*
X-6614944Y-3382765D1*
X-6608277Y-3372765D1*
Y-3369432D1*
X-6581611Y-3342765D1*
X-6574944Y-3339432D1*
X-6564944Y-3332765D1*
X-6561611Y-3329432D1*
X-6534944Y-3316098D1*
X-6524944Y-3312765D1*
Y-3306098D1*
X-6528277Y-3299432D1*
X-6541611Y-3302765D1*
X-6558277Y-3309432D1*
X-6584944Y-3322765D1*
X-6604944Y-3336098D1*
X-6634944Y-3366098D1*
X-6648277Y-3386098D1*
X-6658277Y-3406098D1*
X-6661611Y-3416098D1*
Y-3419432D1*
X-6601611D1*
X-6591611Y-3416098D1*
X-6581611D1*
X-6571611Y-3419432D1*
X-6558277Y-3426098D1*
X-6548277Y-3436098D1*
Y-3439432D1*
X-6541611Y-3452765D1*
X-6538277Y-3466098D1*
X-6534944Y-3469432D1*
Y-3506098D1*
X-6538277Y-3509432D1*
X-6541611Y-3519432D1*
X-6544944Y-3526098D1*
Y-3529432D1*
X-6558277Y-3542765D1*
X-6564944Y-3546098D1*
X-6574944Y-3549432D1*
X-6584944D1*
X-6594944Y-3546098D1*
X-6608277Y-3539432D1*
X-6618277Y-3529432D1*
Y-3526098D1*
X-6624944Y-3516098D1*
X-6628277Y-3506098D1*
X-6631611Y-3492765D1*
X-6634944Y-3489432D1*
Y-3452765D1*
X-6631611Y-3449432D1*
Y-3442765D1*
X-6614944Y-3426098D1*
X-6601611Y-3419432D1*
X-6661611D1*
G37*
G36*
X-6398277Y-3349432D2*
X-6401611Y-3352765D1*
X-6414944Y-3372765D1*
X-6424944Y-3386098D1*
X-6438277Y-3406098D1*
X-6448277Y-3419432D1*
X-6454944Y-3429432D1*
X-6464944Y-3442765D1*
X-6471611Y-3452765D1*
X-6481611Y-3466098D1*
X-6484944Y-3472765D1*
Y-3492765D1*
X-6374944Y-3496098D1*
Y-3536098D1*
X-6378277Y-3539432D1*
X-6384944Y-3542765D1*
X-6401611Y-3546098D1*
X-6408277Y-3549432D1*
Y-3556098D1*
X-6314944D1*
Y-3549432D1*
X-6321611Y-3546098D1*
X-6334944Y-3542765D1*
X-6341611Y-3539432D1*
X-6348277Y-3532765D1*
Y-3496098D1*
X-6318277Y-3492765D1*
X-6314944Y-3486098D1*
X-6311611Y-3476098D1*
Y-3472765D1*
X-6348277Y-3469432D1*
Y-3316098D1*
X-6344944Y-3312765D1*
Y-3302765D1*
X-6348277Y-3299432D1*
X-6368277Y-3309432D1*
X-6378277Y-3319432D1*
X-6398277Y-3349432D1*
X-6381611D1*
X-6379121Y-3347291D1*
X-6377394Y-3347486D1*
X-6374944Y-3349432D1*
Y-3469432D1*
X-6404944Y-3472765D1*
X-6434944D1*
X-6464944Y-3469432D1*
X-6458277Y-3462765D1*
X-6444944Y-3442765D1*
X-6434944Y-3429432D1*
X-6414944Y-3399432D1*
X-6404944Y-3386098D1*
X-6384944Y-3356098D1*
X-6381611Y-3349432D1*
X-6398277D1*
G37*
G36*
X-6248277Y-3316098D2*
X-6261611Y-3329432D1*
X-6268277Y-3339432D1*
X-6271611Y-3346098D1*
X-6281611Y-3376098D1*
X-6284944Y-3396098D1*
Y-3476098D1*
X-6281611Y-3496098D1*
X-6274944Y-3516098D1*
X-6264944Y-3536098D1*
X-6248277Y-3552765D1*
X-6234944Y-3559432D1*
X-6221611Y-3562765D1*
X-6191611D1*
X-6181611Y-3559432D1*
X-6168277Y-3552765D1*
X-6151611Y-3536098D1*
X-6144944Y-3526098D1*
X-6141611Y-3519432D1*
X-6134944Y-3499432D1*
X-6131611Y-3486098D1*
X-6128277Y-3469432D1*
X-6124944Y-3436098D1*
Y-3406098D1*
X-6128277Y-3372765D1*
X-6131611Y-3359432D1*
X-6134944Y-3349432D1*
X-6144944Y-3329432D1*
X-6164944Y-3309432D1*
X-6178277Y-3302765D1*
X-6188277Y-3299432D1*
X-6214944D1*
X-6228277Y-3302765D1*
X-6241611Y-3309432D1*
X-6248277Y-3316098D1*
X-6221611D1*
X-6211611Y-3312765D1*
X-6201611D1*
X-6191611Y-3316098D1*
X-6184944Y-3319432D1*
X-6174944Y-3329432D1*
Y-3332765D1*
X-6171611Y-3339432D1*
X-6168277Y-3349432D1*
X-6164944Y-3366098D1*
X-6161611Y-3392765D1*
X-6158277Y-3396098D1*
Y-3486098D1*
X-6161611Y-3489432D1*
X-6164944Y-3506098D1*
X-6171611Y-3526098D1*
Y-3529432D1*
X-6184944Y-3542765D1*
X-6191611Y-3546098D1*
X-6200500Y-3549432D1*
X-6209389D1*
X-6218277Y-3546098D1*
X-6224944Y-3542765D1*
X-6234944Y-3532765D1*
Y-3529432D1*
X-6241611Y-3516098D1*
X-6244944Y-3506098D1*
X-6248277Y-3492765D1*
X-6251611Y-3456098D1*
X-6254944Y-3452765D1*
Y-3406098D1*
X-6251611Y-3402765D1*
X-6248277Y-3369432D1*
X-6244944Y-3349432D1*
X-6241611Y-3339432D1*
X-6238277Y-3332765D1*
Y-3329432D1*
X-6228277Y-3319432D1*
X-6221611Y-3316098D1*
X-6248277D1*
G37*
G36*
X-7478277Y-3302765D2*
Y-3309432D1*
X-7471611Y-3312765D1*
X-7451611Y-3316098D1*
X-7441611Y-3319432D1*
X-7438277Y-3322765D1*
Y-3536098D1*
X-7441611Y-3539432D1*
X-7454944Y-3542765D1*
X-7471611Y-3546098D1*
X-7478277Y-3549432D1*
Y-3556098D1*
X-7364944D1*
Y-3549432D1*
X-7374944Y-3546098D1*
X-7401611Y-3539432D1*
X-7405564Y-3535684D1*
X-7404944Y-3532765D1*
X-7408277Y-3529432D1*
Y-3436098D1*
X-7362722Y-3432765D1*
X-7317166D1*
X-7271611Y-3436098D1*
Y-3472765D1*
X-7274944Y-3476098D1*
Y-3536098D1*
X-7278277Y-3539432D1*
X-7304944Y-3546098D1*
X-7314944Y-3549432D1*
Y-3556098D1*
X-7201611D1*
Y-3549432D1*
X-7211611Y-3546098D1*
X-7224944Y-3542765D1*
X-7234944Y-3539432D1*
X-7241611Y-3536098D1*
Y-3322765D1*
X-7234944Y-3319432D1*
X-7224944Y-3316098D1*
X-7208277Y-3312765D1*
X-7201611Y-3309432D1*
Y-3302765D1*
X-7314944D1*
Y-3309432D1*
X-7304944Y-3312765D1*
X-7278277Y-3319432D1*
X-7274944Y-3322765D1*
Y-3336098D1*
X-7271611Y-3339432D1*
Y-3416098D1*
X-7317166Y-3419432D1*
X-7362722D1*
X-7408277Y-3416098D1*
Y-3352765D1*
X-7404944Y-3349432D1*
Y-3322765D1*
X-7401611Y-3319432D1*
X-7391611Y-3316098D1*
X-7374944Y-3312765D1*
X-7364944Y-3309432D1*
Y-3302765D1*
X-7478277D1*
G37*
G36*
X-7148277Y-3319432D2*
X-7141611Y-3326098D1*
Y-3532765D1*
X-7148277Y-3539432D1*
X-7158277Y-3542765D1*
X-7174944Y-3546098D1*
X-7181611Y-3549432D1*
Y-3556098D1*
X-7064944D1*
Y-3549432D1*
X-7074944Y-3546098D1*
X-7094944Y-3542765D1*
X-7104944Y-3539432D1*
X-7108277Y-3536098D1*
Y-3526098D1*
X-7111611Y-3522765D1*
Y-3442765D1*
X-7103833Y-3439432D1*
X-7096055D1*
X-7088277Y-3442765D1*
X-7051611D1*
X-7034944Y-3439432D1*
X-7024944Y-3436098D1*
X-7018277Y-3432765D1*
X-7008277Y-3426098D1*
X-6994944Y-3412765D1*
X-6988277Y-3402765D1*
X-6984944Y-3396098D1*
X-6981611Y-3386098D1*
X-6978277Y-3369432D1*
Y-3359432D1*
X-6981611Y-3342765D1*
X-6988277Y-3329432D1*
X-6994944Y-3319432D1*
X-7004944Y-3312765D1*
X-7018277Y-3306098D1*
X-7034944Y-3302765D1*
X-7181611D1*
Y-3309432D1*
X-7174944Y-3312765D1*
X-7148277Y-3319432D1*
X-7101611D1*
X-7084944Y-3316098D1*
X-7068277D1*
X-7051611Y-3319432D1*
X-7041611Y-3322765D1*
X-7028277Y-3329432D1*
X-7021611Y-3336098D1*
Y-3339432D1*
X-7018277Y-3346098D1*
X-7014944Y-3356098D1*
X-7011611Y-3359432D1*
Y-3382765D1*
X-7014944Y-3386098D1*
X-7018277Y-3396098D1*
X-7021611Y-3402765D1*
Y-3406098D1*
X-7031611Y-3416098D1*
X-7044944Y-3422765D1*
X-7054944Y-3426098D1*
X-7069389Y-3429432D1*
X-7083833D1*
X-7098277Y-3426098D1*
X-7111611Y-3422765D1*
Y-3376098D1*
X-7108277Y-3372765D1*
Y-3322765D1*
X-7101611Y-3319432D1*
X-7148277D1*
G37*
G36*
X-5974944D2*
X-5968277Y-3326098D1*
Y-3532765D1*
X-5974944Y-3539432D1*
X-5984944Y-3542765D1*
X-6001611Y-3546098D1*
X-6008277Y-3549432D1*
Y-3556098D1*
X-5894944D1*
Y-3549432D1*
X-5904944Y-3546098D1*
X-5931611Y-3539432D1*
X-5934944Y-3536098D1*
Y-3509432D1*
X-5938277Y-3506098D1*
Y-3439432D1*
X-5934709Y-3437441D1*
X-5931815Y-3437655D1*
X-5928277Y-3439432D1*
X-5901611Y-3442765D1*
X-5891611Y-3452765D1*
Y-3456098D1*
X-5881611Y-3469432D1*
X-5874944Y-3479432D1*
X-5854944Y-3506098D1*
X-5848277Y-3516098D1*
X-5838277Y-3529432D1*
X-5824944Y-3549432D1*
X-5821611Y-3556098D1*
X-5804944D1*
X-5794944Y-3552765D1*
X-5784944D1*
X-5774944Y-3556098D1*
X-5751611D1*
Y-3549432D1*
X-5758277Y-3546098D1*
X-5771611Y-3542765D1*
X-5791611Y-3536098D1*
X-5811611Y-3516098D1*
Y-3512765D1*
X-5831611Y-3486098D1*
X-5844944Y-3469432D1*
X-5864944Y-3442765D1*
X-5868897Y-3439017D1*
X-5868277Y-3436098D1*
X-5858277Y-3432765D1*
X-5838277Y-3422765D1*
X-5818277Y-3402765D1*
X-5811611Y-3389432D1*
X-5808277Y-3379432D1*
Y-3349432D1*
X-5811611Y-3339432D1*
X-5818277Y-3326098D1*
X-5831611Y-3312765D1*
X-5844944Y-3306098D1*
X-5858277Y-3302765D1*
X-6008277D1*
Y-3309432D1*
X-6001611Y-3312765D1*
X-5974944Y-3319432D1*
X-5928277D1*
X-5911611Y-3316098D1*
X-5894944D1*
X-5878277Y-3319432D1*
X-5868277Y-3322765D1*
X-5854944Y-3329432D1*
X-5852259Y-3333735D1*
X-5851611Y-3336098D1*
X-5844944Y-3349432D1*
X-5841611Y-3352765D1*
Y-3386098D1*
X-5844944Y-3389432D1*
X-5851611Y-3402765D1*
X-5852706Y-3406809D1*
X-5854944Y-3409432D1*
X-5861611Y-3412765D1*
X-5864944Y-3416098D1*
X-5871611Y-3419432D1*
X-5884944Y-3422765D1*
X-5901611Y-3426098D1*
X-5918277D1*
X-5934944Y-3422765D1*
X-5938277Y-3419432D1*
Y-3326098D1*
X-5934944Y-3322765D1*
X-5928277Y-3319432D1*
X-5974944D1*
G37*
G36*
X-5741611Y-3302765D2*
Y-3309432D1*
X-5734944Y-3312765D1*
X-5708277Y-3319432D1*
X-5701611Y-3326098D1*
Y-3532765D1*
X-5708277Y-3539432D1*
X-5718277Y-3542765D1*
X-5734944Y-3546098D1*
X-5741611Y-3549432D1*
Y-3556098D1*
X-5541611D1*
X-5521611Y-3496098D1*
Y-3492765D1*
X-5528277D1*
X-5531611Y-3496098D1*
X-5538277Y-3506098D1*
X-5544944Y-3519432D1*
Y-3522765D1*
X-5558277Y-3536098D1*
X-5564944Y-3539432D1*
X-5600500Y-3542765D1*
X-5636055D1*
X-5671611Y-3539432D1*
Y-3432765D1*
X-5644944Y-3429432D1*
X-5618277D1*
X-5591611Y-3432765D1*
X-5584944Y-3439432D1*
Y-3442765D1*
X-5581611Y-3459432D1*
X-5578277Y-3466098D1*
X-5571611D1*
Y-3379432D1*
X-5578277D1*
X-5581611Y-3386098D1*
X-5584944Y-3399432D1*
Y-3406098D1*
X-5588277Y-3409432D1*
X-5594944Y-3412765D1*
X-5620500Y-3416098D1*
X-5646055D1*
X-5671611Y-3412765D1*
Y-3319432D1*
X-5637166Y-3316098D1*
X-5602722D1*
X-5568277Y-3319432D1*
X-5558277Y-3329432D1*
Y-3332765D1*
X-5548277Y-3362765D1*
X-5538277D1*
Y-3352765D1*
X-5541611Y-3302765D1*
X-5741611D1*
G37*
G36*
X-5221611D2*
X-5224944Y-3306098D1*
X-5228277Y-3346098D1*
Y-3366098D1*
X-5218277D1*
X-5214944Y-3356098D1*
X-5211611Y-3342765D1*
X-5208277Y-3332765D1*
X-5204944Y-3326098D1*
Y-3322765D1*
X-5198277Y-3319432D1*
X-5176055Y-3316098D1*
X-5153833D1*
X-5131611Y-3319432D1*
Y-3529432D1*
X-5134944Y-3532765D1*
X-5136040Y-3536809D1*
X-5138277Y-3539432D1*
X-5148277Y-3542765D1*
X-5168277Y-3546098D1*
X-5174944Y-3549432D1*
Y-3556098D1*
X-5058277D1*
Y-3549432D1*
X-5068277Y-3546098D1*
X-5084944Y-3542765D1*
X-5094944Y-3539432D1*
X-5098897Y-3535684D1*
X-5098277Y-3532765D1*
X-5101611Y-3529432D1*
Y-3319432D1*
X-5079389Y-3316098D1*
X-5057166D1*
X-5034944Y-3319432D1*
X-5028277Y-3322765D1*
X-5025592Y-3327069D1*
X-5024944Y-3329432D1*
X-5021611Y-3339432D1*
X-5014944Y-3366098D1*
X-5004944D1*
Y-3339432D1*
X-5008277Y-3302765D1*
X-5221611D1*
G37*
G36*
X-4748277Y-3432765D2*
Y-3536098D1*
X-4751611Y-3539432D1*
X-4764944Y-3542765D1*
X-4781611Y-3546098D1*
X-4788277Y-3549432D1*
Y-3556098D1*
X-4661611D1*
X-4641611Y-3552765D1*
X-4621611Y-3546098D1*
X-4614944Y-3542765D1*
X-4604944Y-3536098D1*
X-4588277Y-3519432D1*
X-4578277Y-3499432D1*
Y-3459432D1*
X-4584944Y-3446098D1*
X-4598277Y-3432765D1*
X-4611611Y-3426098D1*
X-4621611Y-3422765D1*
X-4638277Y-3419432D1*
X-4611611Y-3406098D1*
X-4601611Y-3396098D1*
X-4594944Y-3386098D1*
X-4591611Y-3379432D1*
X-4588277Y-3369432D1*
Y-3346098D1*
X-4591611Y-3336098D1*
X-4594944Y-3329432D1*
X-4611611Y-3312765D1*
X-4624944Y-3306098D1*
X-4641611Y-3302765D1*
X-4788277D1*
Y-3309432D1*
X-4781611Y-3312765D1*
X-4754944Y-3319432D1*
X-4708277D1*
X-4690500Y-3316098D1*
X-4672722D1*
X-4654944Y-3319432D1*
X-4641611Y-3322765D1*
X-4634944Y-3326098D1*
X-4624944Y-3336098D1*
Y-3339432D1*
X-4621611Y-3346098D1*
X-4618277Y-3349432D1*
Y-3372765D1*
X-4621611Y-3376098D1*
X-4624944Y-3386098D1*
Y-3389432D1*
X-4641611Y-3406098D1*
X-4651611Y-3409432D1*
X-4664944Y-3412765D1*
X-4682722Y-3416098D1*
X-4700500D1*
X-4718277Y-3412765D1*
Y-3326098D1*
X-4714944Y-3322765D1*
X-4708277Y-3319432D1*
X-4754944D1*
X-4748277Y-3322765D1*
Y-3432765D1*
X-4718277D1*
X-4697166Y-3429432D1*
X-4676055D1*
X-4654944Y-3432765D1*
X-4638277Y-3436098D1*
X-4631611Y-3439432D1*
X-4614944Y-3456098D1*
Y-3459432D1*
X-4611611Y-3472765D1*
X-4608277Y-3476098D1*
Y-3489432D1*
X-4611611Y-3492765D1*
X-4614944Y-3506098D1*
X-4618277Y-3512765D1*
Y-3516098D1*
X-4631611Y-3529432D1*
X-4644944Y-3536098D1*
X-4658277Y-3539432D1*
X-4674944Y-3542765D1*
X-4691611D1*
X-4708277Y-3539432D1*
X-4718277Y-3536098D1*
Y-3432765D1*
X-4748277D1*
G37*
G36*
X-3934944Y-3319432D2*
X-3928277Y-3326098D1*
Y-3532765D1*
X-3934944Y-3539432D1*
X-3944944Y-3542765D1*
X-3961611Y-3546098D1*
X-3968277Y-3549432D1*
Y-3556098D1*
X-3854944D1*
Y-3549432D1*
X-3864944Y-3546098D1*
X-3891611Y-3539432D1*
X-3894944Y-3536098D1*
Y-3509432D1*
X-3898277Y-3506098D1*
Y-3439432D1*
X-3894709Y-3437441D1*
X-3891815Y-3437655D1*
X-3888277Y-3439432D1*
X-3861611Y-3442765D1*
X-3851611Y-3452765D1*
Y-3456098D1*
X-3841611Y-3469432D1*
X-3834944Y-3479432D1*
X-3814944Y-3506098D1*
X-3808277Y-3516098D1*
X-3798277Y-3529432D1*
X-3784944Y-3549432D1*
X-3781611Y-3556098D1*
X-3764944D1*
X-3754944Y-3552765D1*
X-3744944D1*
X-3734944Y-3556098D1*
X-3711611D1*
Y-3549432D1*
X-3718277Y-3546098D1*
X-3731611Y-3542765D1*
X-3751611Y-3536098D1*
X-3771611Y-3516098D1*
Y-3512765D1*
X-3791611Y-3486098D1*
X-3804944Y-3469432D1*
X-3824944Y-3442765D1*
X-3828897Y-3439017D1*
X-3828277Y-3436098D1*
X-3818277Y-3432765D1*
X-3798277Y-3422765D1*
X-3778277Y-3402765D1*
X-3771611Y-3389432D1*
X-3768277Y-3379432D1*
Y-3349432D1*
X-3771611Y-3339432D1*
X-3778277Y-3326098D1*
X-3791611Y-3312765D1*
X-3804944Y-3306098D1*
X-3818277Y-3302765D1*
X-3968277D1*
Y-3309432D1*
X-3961611Y-3312765D1*
X-3934944Y-3319432D1*
X-3888277D1*
X-3871611Y-3316098D1*
X-3854944D1*
X-3838277Y-3319432D1*
X-3828277Y-3322765D1*
X-3814944Y-3329432D1*
X-3812259Y-3333735D1*
X-3811611Y-3336098D1*
X-3804944Y-3349432D1*
X-3801611Y-3352765D1*
Y-3386098D1*
X-3804944Y-3389432D1*
X-3811611Y-3402765D1*
X-3812706Y-3406809D1*
X-3814944Y-3409432D1*
X-3821611Y-3412765D1*
X-3824944Y-3416098D1*
X-3831611Y-3419432D1*
X-3844944Y-3422765D1*
X-3861611Y-3426098D1*
X-3878277D1*
X-3894944Y-3422765D1*
X-3898277Y-3419432D1*
Y-3326098D1*
X-3894944Y-3322765D1*
X-3888277Y-3319432D1*
X-3934944D1*
G37*
G36*
X-3668277D2*
X-3661611Y-3322765D1*
Y-3402765D1*
X-3658277Y-3406098D1*
Y-3446098D1*
X-3661611Y-3449432D1*
Y-3536098D1*
X-3664944Y-3539432D1*
X-3674944Y-3542765D1*
X-3691611Y-3546098D1*
X-3701611Y-3549432D1*
Y-3556098D1*
X-3561611D1*
X-3541611Y-3552765D1*
X-3511611Y-3542765D1*
X-3498277Y-3536098D1*
X-3488277Y-3529432D1*
X-3468277Y-3512765D1*
X-3454944Y-3496098D1*
X-3448277Y-3486098D1*
X-3441611Y-3472765D1*
X-3434944Y-3452765D1*
X-3431611Y-3439432D1*
Y-3382765D1*
X-3434944Y-3369432D1*
X-3438277Y-3362765D1*
X-3441611Y-3352765D1*
X-3454944Y-3332765D1*
X-3464944Y-3322765D1*
X-3474944Y-3316098D1*
X-3481611Y-3312765D1*
X-3501611Y-3306098D1*
X-3518277Y-3302765D1*
X-3701611D1*
Y-3309432D1*
X-3691611Y-3312765D1*
X-3668277Y-3319432D1*
X-3628277D1*
X-3599389Y-3316098D1*
X-3570500D1*
X-3541611Y-3319432D1*
X-3524944Y-3322765D1*
X-3514944Y-3326098D1*
X-3508277Y-3329432D1*
X-3504944Y-3332765D1*
X-3498277Y-3336098D1*
X-3481611Y-3352765D1*
Y-3356098D1*
X-3474944Y-3369432D1*
X-3471611Y-3382765D1*
X-3468277Y-3409432D1*
X-3464944Y-3412765D1*
Y-3422765D1*
X-3468277Y-3426098D1*
X-3471611Y-3456098D1*
X-3474944Y-3469432D1*
X-3478277Y-3479432D1*
X-3484944Y-3492765D1*
X-3494944Y-3506098D1*
Y-3509432D1*
X-3501611Y-3516098D1*
X-3508277Y-3519432D1*
X-3514944Y-3526098D1*
X-3528277Y-3532765D1*
X-3538277Y-3536098D1*
X-3551611Y-3539432D1*
X-3577166Y-3542765D1*
X-3602722D1*
X-3628277Y-3539432D1*
Y-3319432D1*
X-3668277D1*
G37*
G36*
X-4951611Y-3522765D2*
X-4961611Y-3532765D1*
Y-3549432D1*
X-4954944Y-3556098D1*
X-4948277Y-3559432D1*
X-4938277D1*
X-4931611Y-3556098D1*
X-4928277Y-3552765D1*
X-4924944Y-3546098D1*
Y-3536098D1*
X-4928277Y-3529432D1*
X-4931611Y-3526098D1*
X-4938277Y-3522765D1*
X-4951611D1*
G37*
G36*
X-4568375Y-1791279D2*
X-4666430Y-1889334D1*
Y-1892218D1*
X-4530883Y-2027765D1*
X-4527999D1*
X-4427060Y-1926826D1*
X-4441480Y-1912406D1*
X-4444364D1*
X-4525115Y-1993157D1*
X-4528173Y-1996290D1*
X-4529666Y-1995821D1*
X-4530883Y-1993157D1*
X-4577027Y-1947014D1*
X-4502043Y-1872030D1*
Y-1869146D1*
X-4513579Y-1857611D1*
X-4516463D1*
X-4588562Y-1929710D1*
X-4591620Y-1932842D1*
X-4593114Y-1932374D1*
X-4594330Y-1929710D1*
X-4634706Y-1889334D1*
Y-1886450D1*
X-4553955Y-1805699D1*
X-4568375Y-1791279D1*
G37*
G36*
X-4758717Y-2062373D2*
X-4660662Y-2160428D1*
X-4657778D1*
X-4600098Y-2102748D1*
X-4591446Y-2091212D1*
X-4582795Y-2073908D1*
X-4579911Y-2065256D1*
Y-2045069D1*
X-4582795Y-2036417D1*
X-4588562Y-2027765D1*
X-4605866Y-2010461D1*
X-4611634Y-2007577D1*
X-4620286Y-2004693D1*
X-4640474D1*
X-4649126Y-2007577D1*
X-4652642Y-2010587D1*
X-4655397Y-2010354D1*
X-4658685Y-2006634D1*
X-4654894Y-2004693D1*
Y-1981621D1*
X-4657778Y-1972969D1*
X-4663546Y-1964318D1*
X-4669314Y-1958550D1*
X-4677966Y-1952782D1*
X-4683734Y-1949898D1*
X-4698153Y-1947014D1*
X-4712573Y-1949898D1*
X-4721225Y-1952782D1*
X-4726993Y-1955666D1*
X-4735645Y-1961434D1*
X-4747181Y-1972969D1*
X-4709689D1*
X-4703921Y-1970085D1*
X-4698153D1*
X-4686617Y-1975853D1*
X-4675082Y-1987389D1*
Y-1990273D1*
X-4672198Y-1993157D1*
Y-2007577D1*
X-4675082Y-2010461D1*
X-4677966Y-2016229D1*
Y-2019113D1*
X-4721225Y-2062373D1*
X-4724109D1*
X-4764485Y-2021997D1*
Y-2019113D1*
X-4726993Y-1981621D1*
X-4709689Y-1972969D1*
X-4747181D1*
X-4796208Y-2021997D1*
Y-2024881D1*
X-4758717Y-2062373D1*
X-4689501D1*
X-4657778Y-2033533D1*
X-4654894Y-2030649D1*
X-4649126Y-2027765D1*
X-4641435Y-2024881D1*
X-4633745D1*
X-4626054Y-2027765D1*
X-4620286Y-2030649D1*
X-4605866Y-2045069D1*
Y-2047953D1*
X-4602982Y-2050837D1*
Y-2065256D1*
X-4605866Y-2068140D1*
X-4611634Y-2079676D1*
X-4654894Y-2125820D1*
X-4657952Y-2128952D1*
X-4659445Y-2128484D1*
X-4660662Y-2125820D1*
X-4706805Y-2079676D1*
X-4689501Y-2062373D1*
X-4758717D1*
G37*
G36*
X-4882727Y-2108516D2*
X-4900031Y-2125820D1*
X-4842352Y-2183499D1*
X-4914451Y-2255599D1*
X-4917335D1*
X-4972131Y-2200803D1*
X-4975015D1*
X-4989434Y-2215223D1*
Y-2218107D1*
X-4853888Y-2353654D1*
X-4851004D1*
X-4836584Y-2339234D1*
Y-2336350D1*
X-4900031Y-2272902D1*
Y-2270018D1*
X-4830816Y-2200803D1*
X-4828662Y-2198951D1*
X-4827168Y-2199119D1*
X-4825048Y-2200803D1*
X-4761601Y-2264250D1*
X-4744297Y-2246947D1*
X-4882727Y-2108516D1*
G37*
G36*
X-4715457Y-2174847D2*
X-4729877Y-2189267D1*
Y-2192151D1*
X-4712573Y-2209455D1*
X-4695269Y-2192151D1*
X-4712573Y-2174847D1*
X-4715457D1*
G37*
G36*
X-5032694Y-2270018D2*
X-5044230Y-2272902D1*
X-5055766Y-2278670D1*
X-5064418Y-2284438D1*
X-5087489Y-2307510D1*
X-5093257Y-2316162D1*
X-5099025Y-2327698D1*
X-5101909Y-2339234D1*
Y-2359421D1*
X-5099025Y-2368073D1*
X-5096141Y-2373841D1*
X-5090373Y-2382493D1*
X-5087489Y-2385377D1*
X-5078837Y-2391145D1*
X-5067302Y-2396913D1*
X-5047114D1*
X-5029810Y-2391145D1*
X-5018274Y-2385377D1*
X-5003854Y-2376725D1*
X-4995202Y-2370957D1*
X-4992318Y-2368073D1*
X-4969247Y-2356537D1*
X-4960595Y-2353654D1*
X-4955788Y-2350770D1*
X-4950981D1*
X-4946175Y-2353654D1*
X-4937523Y-2356537D1*
X-4925987Y-2368073D1*
Y-2373841D1*
X-4923103Y-2376725D1*
Y-2385377D1*
X-4925987Y-2388261D1*
X-4928871Y-2399797D1*
X-4934639Y-2408449D1*
Y-2411333D1*
X-4949059Y-2425753D1*
X-4954827Y-2428637D1*
X-4957711Y-2431521D1*
X-4969247Y-2437289D1*
X-4977898Y-2440173D1*
X-4985589Y-2443057D1*
X-4993280D1*
X-5000970Y-2440173D1*
X-5012506Y-2434405D1*
X-5018274D1*
X-5032694Y-2448825D1*
X-5029810Y-2451709D1*
X-5021158Y-2457476D1*
X-5009622Y-2463244D1*
X-4998086Y-2466128D1*
X-4980782D1*
X-4969247Y-2463244D1*
X-4946175Y-2451709D1*
X-4917335Y-2422869D1*
X-4911567Y-2414217D1*
X-4905799Y-2402681D1*
X-4902915Y-2391145D1*
Y-2370957D1*
X-4908683Y-2353654D1*
X-4928871Y-2333466D1*
X-4934639Y-2330582D1*
X-4943291Y-2327698D1*
X-4957711D1*
X-4969247Y-2330582D1*
X-4977898Y-2333466D1*
X-5000970Y-2345002D1*
X-5009622Y-2350770D1*
X-5024042Y-2359421D1*
X-5026926Y-2362305D1*
X-5038462Y-2368073D1*
X-5047114Y-2370957D1*
X-5052882Y-2373841D1*
X-5058650D1*
X-5070186Y-2368073D1*
X-5078837Y-2359421D1*
Y-2353654D1*
X-5081721Y-2350770D1*
Y-2345002D1*
X-5078837Y-2342118D1*
X-5075953Y-2330582D1*
X-5067302Y-2319046D1*
Y-2316162D1*
X-5058650Y-2307510D1*
X-5052882Y-2304626D1*
X-5047114Y-2298858D1*
X-5041346Y-2295974D1*
X-5029810Y-2293090D1*
X-5025965Y-2290206D1*
X-5022119D1*
X-5018274Y-2293090D1*
X-5003854Y-2298858D1*
X-4998086D1*
X-4983666Y-2284438D1*
X-4989434Y-2278670D1*
X-5000970Y-2272902D1*
X-5009622Y-2270018D1*
X-5032694D1*
G37*
G36*
X-5156705Y-2379609D2*
X-5174008Y-2396913D1*
X-5038462Y-2532460D1*
X-5032694D1*
X-5018274Y-2518040D1*
X-5156705Y-2379609D1*
G37*
G36*
X-5202848Y-2425753D2*
X-5292251Y-2515156D1*
Y-2518040D1*
X-5156705Y-2653586D1*
X-5153821D1*
X-5139401Y-2639167D1*
Y-2636283D1*
X-5199964Y-2575719D1*
Y-2572835D1*
X-5136517Y-2509388D1*
X-5150937Y-2494968D1*
X-5153821D1*
X-5214384Y-2555531D1*
X-5217442Y-2558664D1*
X-5218935Y-2558195D1*
X-5220152Y-2555531D1*
X-5260528Y-2515156D1*
Y-2512272D1*
X-5188428Y-2440173D1*
Y-2437289D1*
X-5199964Y-2425753D1*
X-5202848D1*
G37*
G36*
X-5318207Y-2541112D2*
X-5338395Y-2561299D1*
Y-2567067D1*
X-5335511Y-2581487D1*
X-5326859Y-2633399D1*
X-5323975Y-2636283D1*
Y-2647819D1*
X-5327033Y-2650951D1*
X-5328526Y-2650482D1*
X-5329743Y-2647819D1*
X-5361467Y-2642051D1*
X-5410494Y-2633399D1*
X-5430682Y-2653586D1*
X-5427798Y-2656470D1*
X-5352815Y-2668006D1*
X-5332627Y-2670890D1*
X-5318207Y-2673774D1*
Y-2685310D1*
X-5315323Y-2702614D1*
X-5312439Y-2722802D1*
X-5306671Y-2757409D1*
X-5303787Y-2777597D1*
X-5300903Y-2794901D1*
X-5298019Y-2797785D1*
X-5280715Y-2780481D1*
Y-2763177D1*
X-5283599Y-2745874D1*
X-5286483Y-2731454D1*
X-5292251Y-2696846D1*
X-5295135Y-2682426D1*
X-5298019Y-2679542D1*
X-5292251Y-2676658D1*
X-5286483D1*
X-5280715Y-2679542D1*
X-5231688Y-2688194D1*
X-5197080Y-2693962D1*
X-5194196D1*
X-5174008Y-2673774D1*
X-5182660Y-2670890D1*
X-5199964Y-2668006D1*
X-5274947Y-2656470D1*
X-5295135Y-2653586D1*
X-5300903Y-2650702D1*
Y-2647819D1*
X-5303787Y-2627631D1*
X-5306671Y-2610327D1*
X-5309555Y-2590139D1*
X-5312439Y-2572835D1*
X-5315323Y-2552647D1*
X-5318207Y-2549764D1*
Y-2541112D1*
G37*
G36*
X-5514317Y-2734338D2*
X-5525853Y-2745874D1*
X-5531621Y-2754525D1*
X-5540273Y-2771829D1*
X-5543157Y-2780481D1*
Y-2823741D1*
X-5540273Y-2832393D1*
X-5528737Y-2855464D1*
X-5517201Y-2869884D1*
X-5505665Y-2881420D1*
X-5494129Y-2890072D1*
X-5485477Y-2895840D1*
X-5473941Y-2901608D1*
X-5456638Y-2907376D1*
X-5422030D1*
X-5410494Y-2904492D1*
X-5387422Y-2892956D1*
X-5361467Y-2867000D1*
X-5355699Y-2858348D1*
X-5352815Y-2852580D1*
X-5347047Y-2835277D1*
Y-2794901D1*
X-5352815Y-2777597D1*
X-5358583Y-2766061D1*
X-5364351Y-2757409D1*
X-5393190Y-2728570D1*
X-5401842Y-2722802D1*
X-5419146Y-2714150D1*
X-5427798Y-2711266D1*
X-5439334Y-2708382D1*
X-5465290D1*
X-5476825Y-2711266D1*
X-5485477Y-2714150D1*
X-5497013Y-2719918D1*
X-5505665Y-2725686D1*
X-5514317Y-2734338D1*
X-5476825D1*
X-5463367Y-2731454D1*
X-5449908D1*
X-5436450Y-2734338D1*
X-5427798Y-2737222D1*
X-5416262Y-2742990D1*
X-5413378Y-2745874D1*
X-5407610Y-2748757D1*
X-5384538Y-2771829D1*
Y-2774713D1*
X-5378770Y-2783365D1*
X-5373002Y-2794901D1*
X-5370118Y-2803553D1*
X-5367235Y-2806437D1*
Y-2832393D1*
X-5370118Y-2835277D1*
X-5373002Y-2843929D1*
X-5375886Y-2849696D1*
X-5384538Y-2861232D1*
X-5385486Y-2864731D1*
X-5387422Y-2867000D1*
X-5393190Y-2869884D1*
X-5398958Y-2875652D1*
X-5404726Y-2878536D1*
X-5413378Y-2881420D1*
X-5424914Y-2884304D1*
X-5430682Y-2887188D1*
X-5436450D1*
X-5442218Y-2884304D1*
X-5456638Y-2881420D1*
X-5465290Y-2878536D1*
X-5471057Y-2875652D1*
X-5473941Y-2872768D1*
X-5488361Y-2861232D1*
X-5494129Y-2858348D1*
X-5497549Y-2855106D1*
X-5497013Y-2852580D1*
X-5508549Y-2838161D1*
X-5514317Y-2829509D1*
X-5517201Y-2823741D1*
X-5520085Y-2812205D1*
X-5522969Y-2809321D1*
Y-2786249D1*
X-5520085Y-2783365D1*
X-5517201Y-2771829D1*
X-5514317Y-2766061D1*
Y-2763177D1*
X-5494129Y-2742990D1*
X-5476825Y-2734338D1*
X-5514317D1*
G37*
G36*
X-5667167Y-2967939D2*
X-5569112Y-3065994D1*
X-5566228D1*
X-5508549Y-3008315D1*
X-5499897Y-2996779D1*
X-5491245Y-2979475D1*
X-5488361Y-2970823D1*
Y-2950635D1*
X-5491245Y-2941984D1*
X-5497013Y-2933332D1*
X-5514317Y-2916028D1*
X-5520085Y-2913144D1*
X-5528737Y-2910260D1*
X-5548925D1*
X-5557577Y-2913144D1*
X-5561093Y-2916154D1*
X-5563848Y-2915920D1*
X-5567136Y-2912201D1*
X-5563345Y-2910260D1*
Y-2887188D1*
X-5566228Y-2878536D1*
X-5571996Y-2869884D1*
X-5577764Y-2864116D1*
X-5586416Y-2858348D1*
X-5592184Y-2855464D1*
X-5606604Y-2852580D1*
X-5621024Y-2855464D1*
X-5629676Y-2858348D1*
X-5635444Y-2861232D1*
X-5644096Y-2867000D1*
X-5655632Y-2878536D1*
X-5618140D1*
X-5612372Y-2875652D1*
X-5606604D1*
X-5595068Y-2881420D1*
X-5583532Y-2892956D1*
Y-2895840D1*
X-5580648Y-2898724D1*
Y-2913144D1*
X-5583532Y-2916028D1*
X-5586416Y-2921796D1*
Y-2924680D1*
X-5629676Y-2967939D1*
X-5632560D1*
X-5672935Y-2927564D1*
Y-2924680D1*
X-5635444Y-2887188D1*
X-5618140Y-2878536D1*
X-5655632D1*
X-5704659Y-2927564D1*
Y-2930448D1*
X-5667167Y-2967939D1*
X-5597952D1*
X-5566228Y-2939100D1*
X-5563345Y-2936216D1*
X-5557577Y-2933332D1*
X-5549886Y-2930448D1*
X-5542195D1*
X-5534505Y-2933332D1*
X-5528737Y-2936216D1*
X-5514317Y-2950635D1*
Y-2953519D1*
X-5511433Y-2956403D1*
Y-2970823D1*
X-5514317Y-2973707D1*
X-5520085Y-2985243D1*
X-5563345Y-3031387D1*
X-5566403Y-3034519D1*
X-5567896Y-3034051D1*
X-5569112Y-3031387D1*
X-5615256Y-2985243D1*
X-5597952Y-2967939D1*
X-5667167D1*
G37*
G36*
X-5928277Y-3742765D2*
X-5941611Y-3746098D1*
X-5961611Y-3756098D1*
X-5984944Y-3779432D1*
X-5994944Y-3799432D1*
X-5998277Y-3812765D1*
X-6001611Y-3836098D1*
Y-3849432D1*
X-5998277Y-3872765D1*
X-5994944Y-3886098D1*
X-5984944Y-3906098D1*
X-5961611Y-3929432D1*
X-5941611Y-3939432D1*
X-5928277Y-3942765D1*
X-5891611D1*
X-5878277Y-3939432D1*
X-5858277Y-3929432D1*
X-5841611Y-3912765D1*
X-5834944Y-3899432D1*
X-5831611Y-3886098D1*
Y-3879432D1*
X-5854944D1*
X-5861611Y-3899432D1*
Y-3902765D1*
X-5874944Y-3916098D1*
X-5881611Y-3919432D1*
X-5891611Y-3922765D1*
X-5903833Y-3926098D1*
X-5916055D1*
X-5928277Y-3922765D1*
X-5938277Y-3919432D1*
X-5944944Y-3916098D1*
X-5948277Y-3912765D1*
X-5954944Y-3909432D1*
X-5958897Y-3905684D1*
X-5958277Y-3902765D1*
X-5964944Y-3892765D1*
X-5968277Y-3886098D1*
X-5971611Y-3876098D1*
X-5974944Y-3856098D1*
X-5978277Y-3852765D1*
Y-3832765D1*
X-5974944Y-3829432D1*
X-5971611Y-3809432D1*
X-5968277Y-3799432D1*
X-5964944Y-3792765D1*
X-5958277Y-3782765D1*
X-5957629Y-3780402D1*
X-5954944Y-3776098D1*
X-5948277Y-3772765D1*
X-5944944Y-3769432D1*
X-5938277Y-3766098D1*
X-5928277Y-3762765D1*
X-5916055Y-3759432D1*
X-5903833D1*
X-5891611Y-3762765D1*
X-5881611Y-3766098D1*
X-5874944Y-3769432D1*
X-5861611Y-3782765D1*
Y-3786098D1*
X-5858277Y-3792765D1*
X-5854944Y-3802765D1*
X-5831611D1*
Y-3796098D1*
X-5834944Y-3786098D1*
X-5841611Y-3772765D1*
X-5854944Y-3759432D1*
X-5864944Y-3752765D1*
X-5871611Y-3749432D1*
X-5881611Y-3746098D1*
X-5894944Y-3742765D1*
X-5928277D1*
G37*
G36*
X-6894944Y-3766098D2*
Y-3939432D1*
X-6871611D1*
Y-3859432D1*
X-6850500Y-3856098D1*
X-6829389D1*
X-6808277Y-3859432D1*
X-6798277Y-3862765D1*
X-6794944Y-3866098D1*
X-6788277Y-3869432D1*
X-6785592Y-3873735D1*
X-6784944Y-3876098D1*
X-6778277Y-3886098D1*
X-6764944Y-3926098D1*
X-6758277Y-3939432D1*
X-6734944D1*
Y-3932765D1*
X-6738277Y-3926098D1*
X-6744944Y-3906098D1*
X-6748277Y-3899432D1*
X-6751611Y-3889432D1*
X-6761611Y-3869432D1*
X-6771611Y-3859432D1*
X-6784944Y-3852765D1*
X-6774944Y-3849432D1*
X-6761611Y-3842765D1*
X-6744944Y-3826098D1*
X-6741611Y-3816098D1*
Y-3782765D1*
X-6744944Y-3772765D1*
X-6751611Y-3762765D1*
X-6758277Y-3756098D1*
X-6771611Y-3749432D1*
X-6784944Y-3746098D1*
X-6894944D1*
Y-3766098D1*
X-6871611D1*
X-6843833Y-3762765D1*
X-6816055D1*
X-6788277Y-3766098D1*
X-6774944Y-3772765D1*
X-6768277Y-3779432D1*
Y-3782765D1*
X-6764944Y-3786098D1*
Y-3816098D1*
X-6768277Y-3819432D1*
Y-3822765D1*
X-6774944Y-3829432D1*
X-6781611Y-3832765D1*
X-6791611Y-3836098D1*
X-6818277Y-3839432D1*
X-6844944D1*
X-6871611Y-3836098D1*
Y-3766098D1*
X-6894944D1*
G37*
G36*
X-6694944Y-3746098D2*
Y-3939432D1*
X-6551611D1*
Y-3922765D1*
X-6671611Y-3919432D1*
Y-3849432D1*
X-6564944Y-3846098D1*
Y-3829432D1*
X-6671611Y-3826098D1*
Y-3766098D1*
X-6558277Y-3762765D1*
Y-3746098D1*
X-6694944D1*
G37*
G36*
X-6511611Y-3766098D2*
Y-3939432D1*
X-6488277D1*
Y-3862765D1*
X-6418277Y-3859432D1*
X-6404944Y-3856098D1*
X-6394944Y-3852765D1*
X-6388277Y-3849432D1*
X-6374944Y-3836098D1*
X-6368277Y-3822765D1*
X-6364944Y-3809432D1*
Y-3792765D1*
X-6368277Y-3779432D1*
X-6371611Y-3772765D1*
X-6378277Y-3762765D1*
X-6384944Y-3756098D1*
X-6391611Y-3752765D1*
X-6401611Y-3749432D1*
X-6414944Y-3746098D1*
X-6511611D1*
Y-3766098D1*
X-6488277D1*
X-6463833Y-3762765D1*
X-6439389D1*
X-6414944Y-3766098D1*
X-6404944Y-3769432D1*
X-6394944Y-3779432D1*
Y-3782765D1*
X-6391611Y-3792765D1*
X-6388277Y-3796098D1*
Y-3809432D1*
X-6391611Y-3812765D1*
X-6394944Y-3822765D1*
Y-3826098D1*
X-6401611Y-3832765D1*
X-6408277Y-3836098D1*
X-6418277Y-3839432D1*
X-6441611Y-3842765D1*
X-6464944D1*
X-6488277Y-3839432D1*
Y-3766098D1*
X-6511611D1*
G37*
G36*
X-6328277Y-3746098D2*
Y-3939432D1*
X-6208277D1*
Y-3922765D1*
X-6304944Y-3919432D1*
Y-3746098D1*
X-6328277D1*
G37*
G36*
X-6134944Y-3776098D2*
Y-3782765D1*
X-6138277Y-3786098D1*
X-6141611Y-3792765D1*
X-6148277Y-3812765D1*
X-6151611Y-3819432D1*
X-6154944Y-3829432D1*
X-6158277Y-3836098D1*
X-6164944Y-3856098D1*
X-6168277Y-3862765D1*
X-6174944Y-3882765D1*
X-6178277Y-3889432D1*
X-6181611Y-3899432D1*
X-6184944Y-3906098D1*
X-6191611Y-3926098D1*
X-6194944Y-3932765D1*
Y-3939432D1*
X-6171611D1*
X-6168277Y-3929432D1*
X-6164944Y-3922765D1*
X-6154944Y-3892765D1*
Y-3886098D1*
X-6151611Y-3882765D1*
X-6122722Y-3879432D1*
X-6093833D1*
X-6064944Y-3882765D1*
Y-3886098D1*
X-6061611Y-3896098D1*
X-6058277Y-3902765D1*
X-6051611Y-3922765D1*
X-6048277Y-3929432D1*
X-6044944Y-3939432D1*
X-6018277D1*
Y-3936098D1*
X-6021611Y-3929432D1*
X-6024944Y-3919432D1*
X-6028277Y-3912765D1*
X-6031611Y-3902765D1*
X-6034944Y-3896098D1*
X-6038277Y-3886098D1*
X-6041611Y-3879432D1*
X-6044944Y-3869432D1*
X-6051611Y-3856098D1*
X-6054944Y-3846098D1*
X-6058277Y-3839432D1*
X-6061611Y-3829432D1*
X-6064944Y-3822765D1*
X-6068277Y-3812765D1*
X-6071611Y-3806098D1*
X-6074944Y-3796098D1*
X-6078277Y-3789432D1*
X-6081611Y-3779432D1*
X-6088277Y-3766098D1*
X-6091611Y-3756098D1*
X-6094944Y-3749432D1*
X-6098277Y-3746098D1*
X-6121611D1*
X-6124944Y-3749432D1*
X-6131611Y-3769432D1*
X-6134944Y-3776098D1*
X-6114944D1*
X-6111376Y-3774108D1*
X-6108541Y-3774482D1*
X-6105675Y-3777343D1*
X-6101611Y-3789432D1*
X-6098277Y-3796098D1*
X-6091611Y-3816098D1*
X-6088277Y-3822765D1*
X-6081611Y-3842765D1*
X-6078277Y-3849432D1*
X-6074944Y-3852765D1*
Y-3859432D1*
X-6098277Y-3862765D1*
X-6121611D1*
X-6144944Y-3859432D1*
X-6141611Y-3856098D1*
X-6134944Y-3836098D1*
X-6131611Y-3829432D1*
X-6121611Y-3799432D1*
X-6118277Y-3792765D1*
X-6114944Y-3782765D1*
Y-3776098D1*
X-6134944D1*
G37*
G36*
X-5791611Y-3746098D2*
Y-3939432D1*
X-5648277D1*
Y-3922765D1*
X-5768277Y-3919432D1*
Y-3849432D1*
X-5661611Y-3846098D1*
Y-3829432D1*
X-5768277Y-3826098D1*
Y-3766098D1*
X-5654944Y-3762765D1*
Y-3746098D1*
X-5791611D1*
G37*
G36*
X-5608277D2*
Y-3939432D1*
X-5588277D1*
Y-3779432D1*
X-5585788Y-3777291D1*
X-5584102Y-3777570D1*
X-5582205Y-3780326D1*
X-5581611Y-3782765D1*
X-5558277Y-3852765D1*
X-5554944Y-3859432D1*
X-5528277Y-3939432D1*
X-5508277D1*
X-5504944Y-3936098D1*
X-5471611Y-3836098D1*
X-5468277Y-3829432D1*
X-5454944Y-3789432D1*
Y-3782765D1*
X-5452455Y-3780624D1*
X-5450727Y-3780819D1*
X-5448277Y-3782765D1*
Y-3939432D1*
X-5424944D1*
Y-3746098D1*
X-5461611D1*
X-5464944Y-3749432D1*
X-5471611Y-3769432D1*
X-5474944Y-3782765D1*
X-5514944Y-3902765D1*
X-5515790Y-3906697D1*
X-5518472Y-3909739D1*
X-5520198Y-3909177D1*
X-5521611Y-3906098D1*
Y-3896098D1*
X-5564944Y-3766098D1*
X-5568277Y-3752765D1*
X-5571611Y-3746098D1*
X-5608277D1*
G37*
G36*
X-5378277D2*
Y-3939432D1*
X-5234944D1*
Y-3922765D1*
X-5354944Y-3919432D1*
Y-3849432D1*
X-5248277Y-3846098D1*
Y-3829432D1*
X-5354944Y-3826098D1*
Y-3766098D1*
X-5241611Y-3762765D1*
Y-3746098D1*
X-5378277D1*
G37*
G36*
X-5194944D2*
Y-3939432D1*
X-5174944D1*
Y-3789432D1*
X-5172455Y-3787291D1*
X-5170727Y-3787486D1*
X-5168277Y-3789432D1*
X-5068277Y-3939432D1*
X-5041611D1*
Y-3746098D1*
X-5064944D1*
Y-3896098D1*
X-5068479Y-3899719D1*
X-5070196Y-3899184D1*
X-5072337Y-3895514D1*
X-5071611Y-3892765D1*
X-5164944Y-3752765D1*
X-5171611Y-3746098D1*
X-5194944D1*
G37*
G36*
X-5011611D2*
Y-3762765D1*
X-4944944Y-3766098D1*
Y-3939432D1*
X-4921611D1*
Y-3766098D1*
X-4858277Y-3762765D1*
Y-3746098D1*
X-5011611D1*
G37*
G36*
X-6344944Y-4079432D2*
X-6351611Y-4086098D1*
X-6354944Y-4092765D1*
X-6361611Y-4112765D1*
X-6364944Y-4136098D1*
Y-4186098D1*
X-6361611Y-4206098D1*
X-6354944Y-4226098D1*
X-6351611Y-4232765D1*
X-6344944Y-4242765D1*
X-6341611Y-4246098D1*
X-6331611Y-4252765D1*
X-6324944Y-4256098D1*
X-6314944Y-4259432D1*
X-6288277D1*
X-6278277Y-4256098D1*
X-6271611Y-4252765D1*
X-6254944Y-4236098D1*
X-6248277Y-4222765D1*
X-6244944Y-4212765D1*
X-6241611Y-4199432D1*
X-6238277Y-4172765D1*
Y-4149432D1*
X-6241611Y-4119432D1*
X-6244944Y-4106098D1*
X-6248277Y-4096098D1*
X-6254944Y-4082765D1*
X-6271611Y-4066098D1*
X-6278277Y-4062765D1*
X-6288277Y-4059432D1*
X-6314944D1*
X-6324944Y-4062765D1*
X-6331611Y-4066098D1*
X-6341611Y-4072765D1*
X-6344944Y-4079432D1*
X-6314944D1*
X-6306055Y-4076098D1*
X-6297166D1*
X-6288277Y-4079432D1*
X-6281611Y-4082765D1*
X-6274944Y-4089432D1*
Y-4092765D1*
X-6271611Y-4099432D1*
X-6268277Y-4109432D1*
X-6264944Y-4129432D1*
X-6261611Y-4132765D1*
Y-4186098D1*
X-6264944Y-4189432D1*
X-6268277Y-4209432D1*
X-6271611Y-4219432D1*
X-6274944Y-4226098D1*
Y-4229432D1*
X-6281611Y-4236098D1*
X-6288277Y-4239432D1*
X-6297166Y-4242765D1*
X-6306055D1*
X-6314944Y-4239432D1*
X-6321611Y-4236098D1*
X-6331611Y-4226098D1*
Y-4222765D1*
X-6334944Y-4212765D1*
X-6338277Y-4196098D1*
X-6341611Y-4192765D1*
Y-4126098D1*
X-6338277Y-4122765D1*
X-6334944Y-4106098D1*
X-6331611Y-4096098D1*
Y-4092765D1*
X-6321611Y-4082765D1*
X-6314944Y-4079432D1*
X-6344944D1*
G37*
G36*
X-6064944Y-4059432D2*
Y-4066098D1*
X-6068277Y-4069432D1*
Y-4072765D1*
X-6081611Y-4086098D1*
X-6088277Y-4089432D1*
X-6098277Y-4092765D1*
X-6114944Y-4096098D1*
Y-4112765D1*
X-6098277D1*
X-6084944Y-4109432D1*
X-6074944Y-4106098D1*
X-6072455Y-4103958D1*
X-6070727Y-4104152D1*
X-6068277Y-4106098D1*
Y-4256098D1*
X-6048277D1*
Y-4059432D1*
X-6064944D1*
G37*
G36*
X-5754944D2*
X-5768277Y-4062765D1*
X-5774944Y-4066098D1*
X-5784944Y-4072765D1*
X-5791611Y-4079432D1*
X-5798277Y-4089432D1*
X-5801611Y-4099432D1*
X-5804944Y-4112765D1*
X-5781611D1*
X-5778277Y-4106098D1*
X-5774944Y-4096098D1*
Y-4092765D1*
X-5764944Y-4082765D1*
X-5754944Y-4079432D1*
X-5746055Y-4076098D1*
X-5737166D1*
X-5728277Y-4079432D1*
X-5718277Y-4082765D1*
X-5708277Y-4092765D1*
Y-4096098D1*
X-5704944Y-4099432D1*
Y-4126098D1*
X-5708277Y-4129432D1*
X-5714944Y-4142765D1*
Y-4146098D1*
X-5738277Y-4169432D1*
X-5744944Y-4172765D1*
X-5764944Y-4189432D1*
X-5798277Y-4222765D1*
X-5804944Y-4236098D1*
X-5808277Y-4246098D1*
Y-4256098D1*
X-5681611D1*
Y-4236098D1*
X-5774944Y-4232765D1*
Y-4229432D1*
X-5741611Y-4196098D1*
X-5734944Y-4192765D1*
X-5691611Y-4149432D1*
X-5684944Y-4136098D1*
X-5681611Y-4126098D1*
Y-4102765D1*
X-5684944Y-4092765D1*
X-5691611Y-4079432D1*
X-5701611Y-4069432D1*
X-5714944Y-4062765D1*
X-5724944Y-4059432D1*
X-5754944D1*
G37*
G36*
X-5631611Y-4079432D2*
X-5638277Y-4086098D1*
X-5641611Y-4092765D1*
X-5648277Y-4112765D1*
X-5651611Y-4136098D1*
Y-4186098D1*
X-5648277Y-4206098D1*
X-5641611Y-4226098D1*
X-5638277Y-4232765D1*
X-5631611Y-4242765D1*
X-5628277Y-4246098D1*
X-5618277Y-4252765D1*
X-5611611Y-4256098D1*
X-5601611Y-4259432D1*
X-5574944D1*
X-5564944Y-4256098D1*
X-5558277Y-4252765D1*
X-5541611Y-4236098D1*
X-5534944Y-4222765D1*
X-5531611Y-4212765D1*
X-5528277Y-4199432D1*
X-5524944Y-4172765D1*
Y-4149432D1*
X-5528277Y-4119432D1*
X-5531611Y-4106098D1*
X-5534944Y-4096098D1*
X-5541611Y-4082765D1*
X-5558277Y-4066098D1*
X-5564944Y-4062765D1*
X-5574944Y-4059432D1*
X-5601611D1*
X-5611611Y-4062765D1*
X-5618277Y-4066098D1*
X-5628277Y-4072765D1*
X-5631611Y-4079432D1*
X-5601611D1*
X-5592722Y-4076098D1*
X-5583833D1*
X-5574944Y-4079432D1*
X-5568277Y-4082765D1*
X-5561611Y-4089432D1*
Y-4092765D1*
X-5558277Y-4099432D1*
X-5554944Y-4109432D1*
X-5551611Y-4129432D1*
X-5548277Y-4132765D1*
Y-4186098D1*
X-5551611Y-4189432D1*
X-5554944Y-4209432D1*
X-5558277Y-4219432D1*
X-5561611Y-4226098D1*
Y-4229432D1*
X-5568277Y-4236098D1*
X-5574944Y-4239432D1*
X-5583833Y-4242765D1*
X-5592722D1*
X-5601611Y-4239432D1*
X-5608277Y-4236098D1*
X-5618277Y-4226098D1*
Y-4222765D1*
X-5621611Y-4212765D1*
X-5624944Y-4196098D1*
X-5628277Y-4192765D1*
Y-4126098D1*
X-5624944Y-4122765D1*
X-5621611Y-4106098D1*
X-5618277Y-4096098D1*
Y-4092765D1*
X-5608277Y-4082765D1*
X-5601611Y-4079432D1*
X-5631611D1*
G37*
G36*
X-5448277Y-4059432D2*
X-5461611Y-4062765D1*
X-5468277Y-4066098D1*
X-5478277Y-4072765D1*
X-5484944Y-4079432D1*
X-5491611Y-4089432D1*
X-5494944Y-4099432D1*
X-5498277Y-4112765D1*
X-5474944D1*
X-5471611Y-4106098D1*
X-5468277Y-4096098D1*
Y-4092765D1*
X-5458277Y-4082765D1*
X-5448277Y-4079432D1*
X-5439389Y-4076098D1*
X-5430500D1*
X-5421611Y-4079432D1*
X-5411611Y-4082765D1*
X-5401611Y-4092765D1*
Y-4096098D1*
X-5398277Y-4099432D1*
Y-4126098D1*
X-5401611Y-4129432D1*
X-5408277Y-4142765D1*
Y-4146098D1*
X-5431611Y-4169432D1*
X-5438277Y-4172765D1*
X-5458277Y-4189432D1*
X-5491611Y-4222765D1*
X-5498277Y-4236098D1*
X-5501611Y-4246098D1*
Y-4256098D1*
X-5374944D1*
Y-4236098D1*
X-5468277Y-4232765D1*
Y-4229432D1*
X-5434944Y-4196098D1*
X-5428277Y-4192765D1*
X-5384944Y-4149432D1*
X-5378277Y-4136098D1*
X-5374944Y-4126098D1*
Y-4102765D1*
X-5378277Y-4092765D1*
X-5384944Y-4079432D1*
X-5394944Y-4069432D1*
X-5408277Y-4062765D1*
X-5418277Y-4059432D1*
X-5448277D1*
G37*
G36*
X-5298277D2*
X-5308277Y-4062765D1*
X-5321611Y-4069432D1*
X-5334944Y-4082765D1*
X-5338277Y-4089432D1*
X-5341611Y-4099432D1*
Y-4106098D1*
X-5318277D1*
X-5311611Y-4089432D1*
Y-4086098D1*
X-5298277Y-4079432D1*
X-5288277Y-4076098D1*
X-5278277D1*
X-5268277Y-4079432D1*
X-5261611Y-4082765D1*
X-5254944Y-4089432D1*
Y-4092765D1*
X-5251611Y-4096098D1*
Y-4119432D1*
X-5254944Y-4122765D1*
Y-4126098D1*
X-5264944Y-4136098D1*
X-5271611Y-4139432D1*
X-5294944Y-4142765D1*
Y-4159432D1*
X-5268277Y-4162765D1*
X-5254944Y-4169432D1*
X-5244944Y-4179432D1*
Y-4186098D1*
X-5241611Y-4189432D1*
Y-4212765D1*
X-5244944Y-4216098D1*
X-5248277Y-4222765D1*
Y-4226098D1*
X-5254944Y-4232765D1*
X-5268277Y-4239432D1*
X-5278277Y-4242765D1*
X-5288277D1*
X-5298277Y-4239432D1*
X-5304944Y-4236098D1*
X-5318277Y-4222765D1*
Y-4219432D1*
X-5321611Y-4206098D1*
X-5344944D1*
Y-4216098D1*
X-5341611Y-4226098D1*
X-5338277Y-4232765D1*
X-5321611Y-4249432D1*
X-5308277Y-4256098D1*
X-5298277Y-4259432D1*
X-5268277D1*
X-5258277Y-4256098D1*
X-5244944Y-4249432D1*
X-5224944Y-4229432D1*
X-5221611Y-4222765D1*
X-5218277Y-4209432D1*
Y-4189432D1*
X-5221611Y-4179432D1*
X-5228277Y-4166098D1*
X-5234944Y-4159432D1*
X-5244944Y-4152765D1*
X-5254944Y-4149432D1*
X-5251611Y-4146098D1*
X-5244944Y-4142765D1*
X-5234944Y-4132765D1*
X-5231611Y-4126098D1*
X-5228277Y-4116098D1*
Y-4099432D1*
X-5231611Y-4089432D1*
X-5234944Y-4082765D1*
X-5251611Y-4066098D1*
X-5258277Y-4062765D1*
X-5271611Y-4059432D1*
X-5298277D1*
G37*
G36*
X-6558277Y-4062765D2*
Y-4066098D1*
X-6554944Y-4072765D1*
X-6551611Y-4082765D1*
X-6548277Y-4089432D1*
X-6544944Y-4099432D1*
X-6541611Y-4106098D1*
X-6534944Y-4126098D1*
X-6531611Y-4132765D1*
X-6528277Y-4142765D1*
X-6524944Y-4149432D1*
X-6521611Y-4159432D1*
X-6518277Y-4166098D1*
X-6511611Y-4186098D1*
X-6508277Y-4192765D1*
X-6504944Y-4202765D1*
X-6501611Y-4209432D1*
X-6498277Y-4219432D1*
X-6494944Y-4226098D1*
X-6488277Y-4246098D1*
X-6484944Y-4252765D1*
X-6481611Y-4256098D1*
X-6458277D1*
X-6451611Y-4242765D1*
X-6444944Y-4222765D1*
X-6441611Y-4216098D1*
X-6438277Y-4206098D1*
X-6434944Y-4199432D1*
X-6431611Y-4189432D1*
X-6428277Y-4182765D1*
X-6421611Y-4162765D1*
X-6418277Y-4156098D1*
X-6414944Y-4146098D1*
X-6411611Y-4139432D1*
X-6408277Y-4129432D1*
X-6404944Y-4122765D1*
X-6398277Y-4102765D1*
X-6394944Y-4096098D1*
X-6391611Y-4086098D1*
X-6388277Y-4079432D1*
X-6384944Y-4069432D1*
X-6381611Y-4062765D1*
X-6408277D1*
X-6411611Y-4072765D1*
X-6414944Y-4079432D1*
X-6424944Y-4109432D1*
X-6428277Y-4116098D1*
X-6434944Y-4136098D1*
X-6438277Y-4142765D1*
X-6448277Y-4172765D1*
X-6451611Y-4179432D1*
X-6458277Y-4199432D1*
X-6461611Y-4206098D1*
X-6468277Y-4226098D1*
X-6471812Y-4229719D1*
X-6473538Y-4229177D1*
X-6474944Y-4226098D1*
Y-4219432D1*
X-6478277Y-4212765D1*
X-6488277Y-4182765D1*
X-6491611Y-4176098D1*
X-6498277Y-4156098D1*
X-6501611Y-4149432D1*
X-6511611Y-4119432D1*
X-6514944Y-4112765D1*
X-6521611Y-4092765D1*
X-6524944Y-4086098D1*
X-6531611Y-4066098D1*
X-6534944Y-4062765D1*
X-6558277D1*
G37*
G36*
X-6198277Y-4232765D2*
Y-4256098D1*
X-6174944D1*
Y-4232765D1*
X-6198277D1*
G37*
G36*
X-5968277D2*
Y-4256098D1*
X-5954944Y-4259432D1*
Y-4269432D1*
X-5958277Y-4272765D1*
Y-4279432D1*
X-5961611Y-4282765D1*
X-5968277Y-4286098D1*
Y-4292765D1*
X-5958277D1*
X-5951611Y-4286098D1*
X-5948277Y-4279432D1*
X-5944944Y-4269432D1*
Y-4232765D1*
X-5968277D1*
G37*
X-5230273Y-4407141D2*
D51*
Y-4625860D1*
X-5339492Y-4516641D2*
X-5120773D1*
X-4920768Y-4643969D2*
Y-4389031D1*
X-5042342Y-4558896D1*
X-4860122D1*
X-4660118Y-4643969D2*
Y-4389031D1*
X-4781691Y-4558896D1*
X-4599472D1*
X-4508967Y-4619542D2*
X-4521040Y-4631896D1*
X-4508967Y-4643969D1*
X-4496613Y-4631896D1*
X-4508967Y-4619542D1*
X-4272463Y-4425250D2*
X-4284536Y-4401104D1*
X-4321036Y-4389031D1*
X-4345182D1*
X-4381682Y-4401104D1*
X-4406109Y-4437604D1*
X-4418182Y-4498250D1*
Y-4558896D1*
X-4406109Y-4607469D1*
X-4381682Y-4631896D1*
X-4345182Y-4643969D1*
X-4333109D1*
X-4296890Y-4631896D1*
X-4272463Y-4607469D1*
X-4260390Y-4570969D1*
Y-4558896D1*
X-4272463Y-4522396D1*
X-4296890Y-4498250D1*
X-4333109Y-4486177D1*
X-4345182D1*
X-4381682Y-4498250D1*
X-4406109Y-4522396D1*
X-4418182Y-4558896D1*
X-4181958Y-4388750D2*
X-4084812Y-4643969D1*
X-3987666Y-4388750D1*
X-3689080Y-152217D2*
Y-370936D1*
X-3798299Y-261717D2*
X-3579580D1*
X-3488794Y-194754D2*
Y-182681D1*
X-3476721Y-158254D1*
X-3464648Y-146181D1*
X-3440221Y-134108D1*
X-3391648D1*
X-3367502Y-146181D1*
X-3355429Y-158254D1*
X-3343075Y-182681D1*
Y-206827D1*
X-3355429Y-231254D1*
X-3379575Y-267473D1*
X-3501148Y-389046D1*
X-3331002D1*
X-3179571Y-134108D2*
X-3216071Y-146181D1*
X-3240498Y-182681D1*
X-3252571Y-243327D1*
Y-279827D1*
X-3240498Y-340473D1*
X-3216071Y-376973D1*
X-3179571Y-389046D1*
X-3155425D1*
X-3118925Y-376973D1*
X-3094778Y-340473D1*
X-3082425Y-279827D1*
Y-243327D1*
X-3094778Y-182681D1*
X-3118925Y-146181D1*
X-3155425Y-134108D1*
X-3179571D1*
X-3094778Y-182681D2*
X-3240498Y-340473D1*
X-3003993Y-133827D2*
X-2906847Y-389046D1*
X-2809701Y-133827D1*
X-3147250Y-4407141D2*
Y-4625860D1*
X-3256469Y-4516641D2*
X-3037750D1*
X-2813599Y-4389031D2*
X-2934891D1*
X-2946964Y-4498250D1*
X-2934891Y-4486177D1*
X-2898391Y-4473823D1*
X-2862172D1*
X-2825672Y-4486177D1*
X-2801245Y-4510323D1*
X-2789172Y-4546823D1*
Y-4570969D1*
X-2801245Y-4607469D1*
X-2825672Y-4631896D1*
X-2862172Y-4643969D1*
X-2898391D1*
X-2934891Y-4631896D1*
X-2946964Y-4619542D1*
X-2959318Y-4595396D1*
X-2698668Y-4619542D2*
X-2710741Y-4631896D1*
X-2698668Y-4643969D1*
X-2686314Y-4631896D1*
X-2698668Y-4619542D1*
X-2595529Y-4449677D2*
Y-4437604D1*
X-2583455Y-4413177D1*
X-2571382Y-4401104D1*
X-2546955Y-4389031D1*
X-2498382D1*
X-2474236Y-4401104D1*
X-2462163Y-4413177D1*
X-2449809Y-4437604D1*
Y-4461750D1*
X-2462163Y-4486177D1*
X-2486309Y-4522396D1*
X-2607882Y-4643969D1*
X-2437736D1*
X-2359305Y-4388750D2*
X-2262159Y-4643969D1*
X-2165013Y-4388750D1*
X-1838992Y-261623D2*
X-1698608D1*
X-1474457Y-134154D2*
X-1595749D1*
X-1607822Y-243373D1*
X-1595749Y-231300D1*
X-1559249Y-218947D1*
X-1523030D1*
X-1486530Y-231300D1*
X-1462103Y-255447D1*
X-1450030Y-291947D1*
Y-316093D1*
X-1462103Y-352593D1*
X-1486530Y-377020D1*
X-1523030Y-389093D1*
X-1559249D1*
X-1595749Y-377020D1*
X-1607822Y-364666D1*
X-1620176Y-340520D1*
X-1359526Y-364666D2*
X-1371599Y-377020D1*
X-1359526Y-389093D1*
X-1347172Y-377020D1*
X-1359526Y-364666D1*
X-1256387Y-194800D2*
Y-182727D1*
X-1244313Y-158300D1*
X-1232240Y-146227D1*
X-1207813Y-134154D1*
X-1159240D1*
X-1135094Y-146227D1*
X-1123021Y-158300D1*
X-1110667Y-182727D1*
Y-206873D1*
X-1123021Y-231300D1*
X-1147167Y-267520D1*
X-1268740Y-389093D1*
X-1098594D1*
X-1020163Y-133873D2*
X-923017Y-389093D1*
X-825871Y-133873D1*
X-1446392Y-4516500D2*
X-1306008D1*
X-1215222Y-4449677D2*
Y-4437604D1*
X-1203149Y-4413177D1*
X-1191076Y-4401104D1*
X-1166649Y-4389031D1*
X-1118076D1*
X-1093930Y-4401104D1*
X-1081857Y-4413177D1*
X-1069503Y-4437604D1*
Y-4461750D1*
X-1081857Y-4486177D1*
X-1106003Y-4522396D1*
X-1227576Y-4643969D1*
X-1057430D1*
X-905999Y-4389031D2*
X-942499Y-4401104D1*
X-966926Y-4437604D1*
X-978999Y-4498250D1*
Y-4534750D1*
X-966926Y-4595396D1*
X-942499Y-4631896D1*
X-905999Y-4643969D1*
X-881852D1*
X-845352Y-4631896D1*
X-821206Y-4595396D1*
X-808852Y-4534750D1*
Y-4498250D1*
X-821206Y-4437604D1*
X-845352Y-4401104D1*
X-881852Y-4389031D1*
X-905999D1*
X-821206Y-4437604D2*
X-966926Y-4595396D1*
X-730421Y-4388750D2*
X-633275Y-4643969D1*
X-536129Y-4388750D1*
X-5559314Y-9112503D2*
D52*
X-5539772Y-9102620D1*
X-5510572Y-9073645D1*
Y-9277596D1*
M02*
