G04 DipTrace 4.3.0.5*
G04 2-Bottom.gbr*
%MOMM*%
G04 #@! TF.FileFunction,Copper,L2,Bot*
G04 #@! TF.Part,Single*
%AMOUTLINE15*
4,1,15,
-1.0,4.5,
1.0,4.5,
1.0,-3.5,
0.96593,-3.75882,
0.86603,-4.0,
0.70711,-4.20711,
0.5,-4.36603,
0.25882,-4.46593,
0.0,-4.5,
-0.25882,-4.46593,
-0.5,-4.36603,
-0.70711,-4.20711,
-0.86603,-4.0,
-0.96593,-3.75882,
-1.0,-3.5,
-1.0,4.5,
0*%
G04 #@! TA.AperFunction,Conductor*
%ADD17C,1.0*%
%ADD18C,0.4*%
%ADD20C,0.5*%
G04 #@! TA.AperFunction,CopperBalancing*
%ADD21C,0.635*%
%ADD31R,0.9X1.0*%
%ADD32C,1.8796*%
%ADD33R,0.95X1.0*%
G04 #@! TA.AperFunction,ViaPad*
%ADD34C,1.2*%
%ADD52C,0.31373*%
%ADD69OUTLINE15*%
%FSLAX35Y35*%
G04*
G71*
G90*
G75*
G01*
G04 Bottom*
%LPD*%
G36*
X-2054400Y-9122000D2*
X-2004397Y-9222000D1*
X-2104400Y-9322000D1*
X-2204403Y-9222000D1*
X-2154400Y-9122000D1*
X-2054400D1*
G37*
G36*
X-2154400Y-9227116D2*
X-2202696Y-9059497D1*
X-2203109Y-9050108D1*
X-2020660Y-9042579D1*
X-2020247Y-9051968D1*
X-2054400Y-9227116D1*
X-2154400D1*
G37*
G36*
X-2054400Y-8839837D2*
X-2020147Y-9015489D1*
X-2020561Y-9024878D1*
X-2203250Y-9017340D1*
X-2202837Y-9007951D1*
X-2154400Y-8839837D1*
X-2054400D1*
G37*
X-2104400Y-9672000D2*
D17*
Y-9454173D1*
Y-8541800D1*
X-1922900Y-8360300D1*
Y-8147700D1*
X-2655200Y-7415400D1*
X-2820900Y-5908400D2*
Y-5492800D1*
X-3000500Y-5313200D1*
Y-3869000D1*
G36*
X-2132390Y-9167457D2*
X-2152390Y-9118519D1*
Y-9109121D1*
X-2072390D1*
Y-9118519D1*
X-2092390Y-9167457D1*
X-2132390D1*
G37*
G36*
X-2092390Y-9182000D2*
X-2071759Y-9222000D1*
X-2070900Y-9266992D1*
X-2150267D1*
X-2151125Y-9222000D1*
X-2132390Y-9182000D1*
X-2092390D1*
G37*
X-2112390Y-9033477D2*
D18*
Y-9446183D1*
X-2104400Y-9454173D1*
G36*
X-1684800Y-9122000D2*
X-1612456Y-9222000D1*
X-1725766Y-9322355D1*
X-1801518Y-9266193D1*
X-1810003Y-9222000D1*
X-1784800Y-9122000D1*
X-1684800D1*
G37*
X-1710000Y-9672000D2*
D17*
X-1734800D1*
Y-9033450D1*
Y-8090200D1*
X-2668000Y-7157000D1*
Y-5754713D2*
Y-5398300D1*
X-2784700Y-5281600D1*
Y-2884300D1*
G36*
X-1784800Y-9226015D2*
X-1811359Y-9047291D1*
X-1810508Y-9037931D1*
X-1628266Y-9053454D1*
X-1629116Y-9062814D1*
X-1684800Y-9226015D1*
X-1784800D1*
G37*
G36*
X-1684800Y-8840939D2*
X-1629456Y-9003126D1*
X-1628605Y-9012485D1*
X-1810345Y-9027965D1*
X-1811196Y-9018606D1*
X-1784800Y-8840939D1*
X-1684800D1*
G37*
X-1718400Y-9033477D2*
D18*
X-1734800Y-9033450D1*
X-3668300Y-6695900D2*
D17*
Y-3902400D1*
G36*
X-5830684Y-2042020D2*
X-5866978Y-1986799D1*
X-5868031Y-1981911D1*
X-5776648Y-1981908D1*
X-5775595Y-1986795D1*
X-5782327Y-2029304D1*
X-5830684Y-2042020D1*
G37*
G36*
X-4080189Y-2423257D2*
X-4027030Y-2406281D1*
X-4017632Y-2406285D1*
X-4017669Y-2490285D1*
X-4027067Y-2490281D1*
X-4080211Y-2473257D1*
X-4080189Y-2423257D1*
G37*
X-5823100Y-1936797D2*
D20*
Y-1936796D1*
G03X-5270520Y-2447725I551021J41663D01*
G01*
X-3984200Y-2448300D1*
X-3835100Y-6928500D2*
D17*
Y-2613279D1*
Y-2098300D1*
G36*
X-6309100Y-2040200D2*
X-6329100Y-1990200D1*
X-6284100Y-1940200D1*
X-6239100Y-1985200D1*
Y-1990200D1*
X-6259100Y-2040200D1*
X-6309100D1*
G37*
X-6284100Y-1940200D2*
D20*
Y-2088984D1*
G03X-5760795Y-2617368I521219J-7121D01*
G01*
X-3835100Y-2613279D1*
X-4360100Y-5211600D2*
D17*
Y-6533000D1*
X-4040000Y-6853100D1*
G36*
X-5210000Y-9122000D2*
X-5159997Y-9222000D1*
X-5260000Y-9322000D1*
X-5360003Y-9222000D1*
X-5310000Y-9122000D1*
X-5210000D1*
G37*
G36*
Y-8839595D2*
X-5172435Y-9013650D1*
X-5172657Y-9023046D1*
X-5355418Y-9018992D1*
X-5355196Y-9009597D1*
X-5310000Y-8839595D1*
X-5210000D1*
G37*
G36*
X-5310000Y-9227358D2*
X-5355125Y-9057623D1*
X-5355347Y-9048228D1*
X-5172716Y-9044177D1*
X-5172494Y-9053573D1*
X-5210000Y-9227358D1*
X-5310000D1*
G37*
X-4814600Y-8378300D2*
D17*
X-5260000Y-8823700D1*
Y-9378953D1*
Y-9672000D1*
G36*
X-5284300Y-9167457D2*
X-5304300Y-9118519D1*
Y-9109121D1*
X-5224300D1*
Y-9118519D1*
X-5244300Y-9167457D1*
X-5284300D1*
G37*
G36*
X-5244300Y-9182000D2*
X-5224095Y-9222000D1*
X-5223633Y-9266998D1*
X-5303022D1*
X-5303484Y-9222000D1*
X-5284300Y-9182000D1*
X-5244300D1*
G37*
X-5264300Y-9033477D2*
D18*
Y-9378953D1*
X-5260000D1*
G36*
X-4815600Y-9122000D2*
X-4765600Y-9222000D1*
Y-9267000D1*
X-4865600Y-9672000D1*
X-4965600Y-9222000D1*
X-4915600Y-9122000D1*
X-4815600D1*
G37*
X-4865600Y-9672000D2*
D17*
Y-9033450D1*
Y-8781300D1*
X-4607500Y-8523200D1*
Y-7221500D1*
G36*
X-4915600Y-9227339D2*
X-4961080Y-9057831D1*
X-4961323Y-9048436D1*
X-4778708Y-9043999D1*
X-4778465Y-9053394D1*
X-4815600Y-9227339D1*
X-4915600D1*
G37*
G36*
X-4815600Y-8839615D2*
X-4778401Y-9013855D1*
X-4778645Y-9023250D1*
X-4961401Y-9018810D1*
X-4961157Y-9009415D1*
X-4915600Y-8839615D1*
X-4815600D1*
G37*
X-4870310Y-9033477D2*
D18*
X-4865600Y-9033450D1*
G36*
X-3632200Y-9122000D2*
X-3582200Y-9222000D1*
X-3682200Y-9672000D1*
X-3782200Y-9267000D1*
Y-9222000D1*
X-3732200Y-9122000D1*
X-3632200D1*
G37*
X-3682200Y-9672000D2*
D17*
Y-9033477D1*
Y-7632500D1*
X-2214200Y-6164500D1*
G36*
X-3732200Y-9227256D2*
X-3778915Y-9058557D1*
X-3779232Y-9049165D1*
X-3596683Y-9043377D1*
X-3596365Y-9052770D1*
X-3632200Y-9227256D1*
X-3732200D1*
G37*
G36*
X-3632200Y-8839698D2*
X-3596285Y-9014570D1*
X-3596602Y-9023962D1*
X-3779337Y-9018169D1*
X-3779019Y-9008777D1*
X-3732200Y-8839698D1*
X-3632200D1*
G37*
X-3688343Y-9033477D2*
D17*
X-3682200D1*
G36*
X-3237800Y-9122000D2*
X-3187800Y-9222000D1*
Y-9267000D1*
X-3287800Y-9672000D1*
X-3387800Y-9222000D1*
X-3337800Y-9122000D1*
X-3237800D1*
G37*
G36*
X-3337800Y-9227228D2*
X-3384870Y-9058767D1*
X-3385209Y-9049375D1*
X-3202680Y-9043198D1*
X-3202341Y-9052590D1*
X-3237800Y-9227228D1*
X-3337800D1*
G37*
G36*
X-3237800Y-8869800D2*
X-3203092Y-9011051D1*
X-3203505Y-9020440D1*
X-3383948Y-9013211D1*
X-3383536Y-9003822D1*
X-3337800Y-8869800D1*
X-3237800D1*
G37*
X-3287800Y-9672000D2*
D17*
Y-8869800D1*
X-2836500Y-8418500D1*
Y-7101100D1*
X-2394700Y-6659300D1*
G36*
X-3314357Y-9167457D2*
X-3334357Y-9118519D1*
Y-9109121D1*
X-3254357D1*
Y-9118519D1*
X-3274357Y-9167457D1*
X-3314357D1*
G37*
G36*
X-3274357Y-9182000D2*
X-3253890Y-9222000D1*
X-3253186Y-9266994D1*
X-3332562D1*
X-3333267Y-9222000D1*
X-3314357Y-9182000D1*
X-3274357D1*
G37*
X-3294357Y-9033477D2*
D18*
Y-9665443D1*
X-3287800Y-9672000D1*
G36*
X-4421100Y-9122000D2*
X-4371097Y-9222000D1*
X-4471100Y-9322000D1*
X-4571103Y-9222000D1*
X-4521100Y-9122000D1*
X-4421100D1*
G37*
G36*
X-4521100Y-9227311D2*
X-4567023Y-9058091D1*
X-4567293Y-9048696D1*
X-4384700Y-9043776D1*
X-4384430Y-9053170D1*
X-4421100Y-9227311D1*
X-4521100D1*
G37*
G36*
X-4421100Y-8860700D2*
X-4384933Y-9011568D1*
X-4385241Y-9020961D1*
X-4566532Y-9015480D1*
X-4566224Y-9006087D1*
X-4521100Y-8860700D1*
X-4421100D1*
G37*
X-4471100Y-9672000D2*
D17*
Y-9269343D1*
Y-8860700D1*
X-4353100Y-8742700D1*
Y-7698900D1*
X-2438700Y-5784500D1*
X-1522900D1*
G36*
X-4496323Y-9167457D2*
X-4516323Y-9118519D1*
Y-9109121D1*
X-4436323D1*
Y-9118519D1*
X-4456323Y-9167457D1*
X-4496323D1*
G37*
G36*
X-4456323Y-9182000D2*
X-4436011Y-9222000D1*
X-4435450Y-9266996D1*
X-4514834D1*
X-4515395Y-9222000D1*
X-4496323Y-9182000D1*
X-4456323D1*
G37*
X-4476323Y-9033477D2*
D18*
Y-9269343D1*
X-4471100D1*
G36*
X-4026700Y-9122000D2*
X-3976700Y-9222000D1*
Y-9267000D1*
X-4076700Y-9672000D1*
X-4176700Y-9222000D1*
X-4126700Y-9122000D1*
X-4026700D1*
G37*
X-4076700Y-9672000D2*
D17*
Y-9033477D1*
Y-7732200D1*
X-2349800Y-6005300D1*
X-1523100D1*
G36*
X-4126700Y-9227288D2*
X-4172976Y-9058298D1*
X-4173267Y-9048905D1*
X-3990693Y-9043598D1*
X-3990402Y-9052992D1*
X-4026700Y-9227288D1*
X-4126700D1*
G37*
G36*
X-4026700Y-8839666D2*
X-3990327Y-9014316D1*
X-3990619Y-9023709D1*
X-4173362Y-9018397D1*
X-4173071Y-9009004D1*
X-4126700Y-8839666D1*
X-4026700D1*
G37*
X-4082333Y-9033477D2*
D17*
X-4076700D1*
X-409500Y-6765400D2*
Y-8653700D1*
X-864800Y-9109000D1*
X-675300Y-7631400D2*
Y-8543600D1*
X-1029600Y-8897900D1*
G36*
X-2843300Y-9122000D2*
X-2793297Y-9222000D1*
X-2893300Y-9322000D1*
X-2993303Y-9222000D1*
X-2943300Y-9122000D1*
X-2843300D1*
G37*
G36*
X-2943300Y-9227191D2*
X-2990807Y-9059026D1*
X-2991172Y-9049635D1*
X-2808670Y-9042978D1*
X-2808305Y-9052369D1*
X-2843300Y-9227191D1*
X-2943300D1*
G37*
G36*
X-2843300Y-8839763D2*
X-2808215Y-9015030D1*
X-2808580Y-9024421D1*
X-2991295Y-9017755D1*
X-2990929Y-9008364D1*
X-2943300Y-8839763D1*
X-2843300D1*
G37*
X-2893300Y-9672000D2*
D17*
Y-9346000D1*
Y-8726400D1*
X-2368000Y-8201100D1*
X-1761100Y-7642500D2*
X-1742300D1*
X-1127400Y-7027600D1*
Y-3847500D1*
G36*
X-2920367Y-9167457D2*
X-2940367Y-9118519D1*
Y-9109121D1*
X-2860367D1*
Y-9118519D1*
X-2880367Y-9167457D1*
X-2920367D1*
G37*
G36*
X-2880367Y-9182000D2*
X-2859841Y-9222000D1*
X-2859082Y-9266994D1*
X-2938456D1*
X-2939215Y-9222000D1*
X-2920367Y-9182000D1*
X-2880367D1*
G37*
X-2900367Y-9033477D2*
D18*
Y-9338933D1*
X-2893300Y-9346000D1*
G36*
X-2448900Y-9122000D2*
X-2398897Y-9222000D1*
X-2498900Y-9322000D1*
X-2598903Y-9222000D1*
X-2548900Y-9122000D1*
X-2448900D1*
G37*
G36*
X-2548900Y-9227159D2*
X-2596758Y-9059235D1*
X-2597144Y-9049845D1*
X-2414665Y-9042801D1*
X-2414279Y-9052191D1*
X-2448900Y-9227159D1*
X-2548900D1*
G37*
G36*
X-2448900Y-8839795D2*
X-2414184Y-9015234D1*
X-2414571Y-9024624D1*
X-2597275Y-9017571D1*
X-2596888Y-9008181D1*
X-2548900Y-8839795D1*
X-2448900D1*
G37*
X-2498900Y-9672000D2*
D17*
Y-9421317D1*
Y-8630700D1*
X-2139500Y-8271300D1*
X-1707200Y-7839000D2*
Y-7827000D1*
X-950300Y-7070100D1*
Y-3013600D1*
G36*
X-2526377Y-9167457D2*
X-2546377Y-9118519D1*
Y-9109121D1*
X-2466377D1*
Y-9118519D1*
X-2486377Y-9167457D1*
X-2526377D1*
G37*
G36*
X-2486377Y-9182000D2*
X-2465804Y-9222000D1*
X-2465001Y-9266993D1*
X-2544372D1*
X-2545175Y-9222000D1*
X-2526377Y-9182000D1*
X-2486377D1*
G37*
X-2506377Y-9033477D2*
D18*
Y-9413840D1*
X-2498900Y-9421317D1*
X-1292600Y-2065700D2*
D17*
X-595300Y-2763000D1*
Y-6963500D1*
X-875200Y-7243400D1*
Y-8370900D1*
X-1187900Y-8683600D1*
X-1339600Y-8459400D2*
X-1131300Y-8251100D1*
Y-7500800D1*
X-1517050Y-7196850D2*
X-1366700Y-7046500D1*
Y-4278000D1*
X-1680800Y-3963900D1*
Y-3863100D1*
X-5200187Y-6128387D2*
Y-8476713D1*
G36*
X-6029100Y-1965200D2*
X-6079100Y-1990200D1*
X-6083600D1*
X-6124100Y-1940200D1*
X-6079100Y-1890200D1*
X-6029100Y-1915200D1*
Y-1965200D1*
G37*
G36*
X-6080600Y-1915200D2*
X-6030602Y-1888120D1*
X-6025856Y-1887910D1*
X-6025853Y-1986598D1*
X-6030598Y-1986808D1*
X-6080600Y-1965200D1*
Y-1915200D1*
G37*
X-6124100Y-1940200D2*
D20*
X-5986497D1*
X-5983100Y-1936803D1*
D34*
X-2655200Y-7415400D3*
X-2820900Y-5908400D3*
X-3000500Y-3869000D3*
X-2668000Y-7157000D3*
Y-5754713D3*
X-2784700Y-2884300D3*
X-3668300Y-6695900D3*
Y-3902400D3*
X-3984200Y-2448300D3*
X-3835100Y-6928500D3*
Y-2098300D3*
X-4360100Y-5211600D3*
X-4040000Y-6853100D3*
X-4814600Y-8378300D3*
X-4607500Y-7221500D3*
X-2214200Y-6164500D3*
X-2394700Y-6659300D3*
X-1522900Y-5784500D3*
X-1523100Y-6005300D3*
X-409500Y-6765400D3*
X-864800Y-9109000D3*
X-675300Y-7631400D3*
X-1029600Y-8897900D3*
X-2368000Y-8201100D3*
X-1761100Y-7642500D3*
X-1127400Y-3847500D3*
X-2139500Y-8271300D3*
X-1707200Y-7839000D3*
X-950300Y-3013600D3*
X-1292600Y-2065700D3*
X-1187900Y-8683600D3*
X-1339600Y-8459400D3*
X-1131300Y-7500800D3*
X-1517050Y-7196850D3*
X-1680800Y-3863100D3*
X-5200187Y-6128387D3*
Y-8476713D3*
X-421100Y-705827D3*
Y-1454200D3*
Y-2202577D3*
Y-3699323D3*
Y-2950950D3*
X-1911200Y-2574100D3*
Y-3813000D3*
X-1252200Y-3604800D3*
Y-2876900D3*
X-1248600Y-2334000D3*
X-1252200Y-1421100D3*
Y-693200D3*
X-1923350Y-611300D3*
Y-1314000D3*
Y-2016700D3*
X-1911200Y-3193550D3*
X-3354200Y-5026300D3*
X-3331300Y-5650800D3*
X-3325500Y-6137800D3*
X-3431600Y-8653600D3*
X-3291200Y-7906500D3*
X-2661000Y-7885200D3*
X-2620800Y-8183100D3*
X-2523500Y-5530500D3*
X-2540600Y-4917500D3*
X-1996400Y-4940400D3*
X-2002100Y-5352900D3*
X-1916200Y-6183600D3*
X-1933300Y-7444000D3*
X-1944800Y-6825200D3*
X-3141300Y-8436000D3*
X-758500Y-3952700D3*
X-764400Y-3088900D3*
X-3258100Y-7462200D3*
X-817402Y-200917D2*
D21*
X-229178D1*
X-817448Y-264083D2*
X-229269D1*
X-817448Y-327250D2*
X-229315D1*
X-817448Y-390417D2*
X-229360D1*
X-817448Y-453583D2*
X-229406D1*
X-817494Y-516750D2*
X-229497D1*
X-817494Y-579917D2*
X-229543D1*
X-817494Y-643083D2*
X-229588D1*
X-817539Y-706250D2*
X-229679D1*
X-817539Y-769417D2*
X-229725D1*
X-817539Y-832583D2*
X-229770D1*
X-817539Y-895750D2*
X-229862D1*
X-817585Y-958917D2*
X-229907D1*
X-817585Y-1022083D2*
X-229953D1*
X-817585Y-1085250D2*
X-229998D1*
X-817585Y-1148417D2*
X-230089D1*
X-817630Y-1211583D2*
X-230135D1*
X-817630Y-1274750D2*
X-230181D1*
X-817630Y-1337917D2*
X-230272D1*
X-817676Y-1401083D2*
X-230317D1*
X-817676Y-1464250D2*
X-230363D1*
X-817676Y-1527417D2*
X-230454D1*
X-817676Y-1590583D2*
X-230500D1*
X-817721Y-1653750D2*
X-230545D1*
X-817721Y-1716917D2*
X-230591D1*
X-817721Y-1780083D2*
X-230682D1*
X-817721Y-1843250D2*
X-230727D1*
X-817767Y-1906417D2*
X-230773D1*
X-817767Y-1969583D2*
X-230864D1*
X-817767Y-2032750D2*
X-230910D1*
X-817813Y-2095917D2*
X-230955D1*
X-817813Y-2159083D2*
X-231046D1*
X-817813Y-2222250D2*
X-231092D1*
X-817813Y-2285417D2*
X-231138D1*
X-817858Y-2348583D2*
X-231229D1*
X-776341Y-2411750D2*
X-231274D1*
X-713177Y-2474917D2*
X-231320D1*
X-650013Y-2538083D2*
X-231365D1*
X-586849Y-2601250D2*
X-231457D1*
X-523685Y-2664417D2*
X-231502D1*
X-478659Y-2727583D2*
X-231548D1*
X-817949Y-2790750D2*
X-737726D1*
X-473099D2*
X-231639D1*
X-817949Y-2853917D2*
X-717492D1*
X-473099D2*
X-231685D1*
X-817949Y-2917083D2*
X-717492D1*
X-473099D2*
X-231730D1*
X-817949Y-2980250D2*
X-717492D1*
X-473099D2*
X-231821D1*
X-817995Y-3043417D2*
X-717492D1*
X-473099D2*
X-231867D1*
X-817995Y-3106583D2*
X-717492D1*
X-473099D2*
X-231912D1*
X-817995Y-3169750D2*
X-717492D1*
X-473099D2*
X-231958D1*
X-818040Y-3232917D2*
X-717492D1*
X-473099D2*
X-232049D1*
X-818040Y-3296083D2*
X-717492D1*
X-473099D2*
X-232095D1*
X-818040Y-3359250D2*
X-717492D1*
X-473099D2*
X-232140D1*
X-818040Y-3422417D2*
X-717492D1*
X-473099D2*
X-232231D1*
X-818086Y-3485583D2*
X-717492D1*
X-473099D2*
X-232277D1*
X-818086Y-3548750D2*
X-717492D1*
X-473099D2*
X-232323D1*
X-818086Y-3611917D2*
X-717492D1*
X-473099D2*
X-232414D1*
X-818086Y-3675083D2*
X-717492D1*
X-473099D2*
X-232459D1*
X-818132Y-3738250D2*
X-717492D1*
X-473099D2*
X-232505D1*
X-818132Y-3801417D2*
X-717492D1*
X-473099D2*
X-232550D1*
X-818132Y-3864583D2*
X-717492D1*
X-473099D2*
X-232642D1*
X-818177Y-3927750D2*
X-717492D1*
X-473099D2*
X-232687D1*
X-818177Y-3990917D2*
X-717492D1*
X-473099D2*
X-232733D1*
X-818177Y-4054083D2*
X-717492D1*
X-473099D2*
X-232824D1*
X-818177Y-4117250D2*
X-717492D1*
X-473099D2*
X-232869D1*
X-711142Y-2810995D2*
X-824251Y-2697886D1*
X-824544Y-4120743D1*
X-711155Y-4120750D1*
X-711150Y-2811007D1*
X-508578Y-2686188D2*
X-494952Y-2705108D1*
X-485399Y-2726353D1*
X-480289Y-2749080D1*
X-479450Y-2763000D1*
Y-4120734D1*
X-226532Y-4120750D1*
X-225345Y-2869215D1*
X-222780Y-137735D1*
X-823746Y-137750D1*
X-824198Y-2370287D1*
X-699105Y-2495359D1*
X-513427Y-2681036D1*
X-508578Y-2686188D1*
X-2177577Y-200517D2*
X-1574314D1*
X-2177577Y-263683D2*
X-1574405D1*
X-2177577Y-326850D2*
X-1574450D1*
X-2177577Y-390017D2*
X-1574542D1*
X-2177577Y-453183D2*
X-1574587D1*
X-2177577Y-516350D2*
X-1574678D1*
X-2177577Y-579517D2*
X-1574769D1*
X-2177577Y-642683D2*
X-1574815D1*
X-2177577Y-705850D2*
X-1574906D1*
X-2177577Y-769017D2*
X-1574997D1*
X-2177577Y-832183D2*
X-1575043D1*
X-2177577Y-895350D2*
X-1575134D1*
X-2177577Y-958517D2*
X-1575180D1*
X-2177577Y-1021683D2*
X-1575271D1*
X-2177532Y-1084850D2*
X-1575362D1*
X-2177532Y-1148017D2*
X-1575407D1*
X-2177532Y-1211183D2*
X-1575499D1*
X-2177532Y-1274350D2*
X-1575590D1*
X-2177532Y-1337517D2*
X-1575635D1*
X-2177532Y-1400683D2*
X-1575726D1*
X-2177532Y-1463850D2*
X-1575772D1*
X-2177532Y-1527017D2*
X-1575863D1*
X-2177532Y-1590183D2*
X-1575954D1*
X-2177532Y-1653350D2*
X-1576000D1*
X-2177532Y-1716517D2*
X-1576091D1*
X-2177532Y-1779683D2*
X-1576182D1*
X-2177532Y-1842850D2*
X-1576228D1*
X-2177532Y-1906017D2*
X-1576319D1*
X-2177532Y-1969183D2*
X-1576364D1*
X-2177532Y-2032350D2*
X-1576456D1*
X-2177486Y-2095517D2*
X-1576547D1*
X-2177486Y-2158683D2*
X-1576592D1*
X-1567898Y-139352D2*
X-2183949Y-137448D1*
X-2183851Y-2199097D1*
X-1570305Y-2203805D1*
X-1567887Y-139361D1*
X-1428986Y-202817D2*
X-942981D1*
X-1429031Y-265983D2*
X-942981D1*
X-1429123Y-329150D2*
X-943027D1*
X-1429168Y-392317D2*
X-943073D1*
X-1429214Y-455483D2*
X-943118D1*
X-1429305Y-518650D2*
X-943164D1*
X-1429350Y-581817D2*
X-943209D1*
X-1429396Y-644983D2*
X-943255D1*
X-1429487Y-708150D2*
X-943255D1*
X-1429533Y-771317D2*
X-943300D1*
X-1429578Y-834483D2*
X-943346D1*
X-1429624Y-897650D2*
X-943392D1*
X-1429715Y-960817D2*
X-943437D1*
X-1429761Y-1023983D2*
X-943483D1*
X-1429806Y-1087150D2*
X-943528D1*
X-1429897Y-1150317D2*
X-943528D1*
X-1429943Y-1213483D2*
X-943574D1*
X-1429988Y-1276650D2*
X-943619D1*
X-1430080Y-1339817D2*
X-943665D1*
X-1430125Y-1402983D2*
X-943711D1*
X-1430171Y-1466150D2*
X-943756D1*
X-1430262Y-1529317D2*
X-943802D1*
X-1430307Y-1592483D2*
X-943802D1*
X-1430353Y-1655650D2*
X-943847D1*
X-1430399Y-1718817D2*
X-943893D1*
X-1430490Y-1781983D2*
X-943938D1*
X-1430535Y-1845150D2*
X-943984D1*
X-1430581Y-1908317D2*
X-944030D1*
X-1430672Y-1971483D2*
X-1382395D1*
X-1202807D2*
X-944075D1*
X-1153452Y-2034650D2*
X-944075D1*
X-1090288Y-2097817D2*
X-944121D1*
X-1430854Y-2160983D2*
X-1381165D1*
X-1027124D2*
X-944166D1*
X-1430900Y-2224150D2*
X-1304329D1*
X-963960D2*
X-944212D1*
X-1430945Y-2287317D2*
X-1241165D1*
X-1431037Y-2350483D2*
X-1178001D1*
X-1431082Y-2413650D2*
X-1114837D1*
X-1431128Y-2476817D2*
X-1051673D1*
X-1431173Y-2539983D2*
X-988509D1*
X-1431264Y-2603150D2*
X-944440D1*
X-1431310Y-2666317D2*
X-944485D1*
X-1431356Y-2729483D2*
X-944531D1*
X-1431447Y-2792650D2*
X-944576D1*
X-1431492Y-2855817D2*
X-944622D1*
X-1431538Y-2918983D2*
X-944622D1*
X-1431629Y-2982150D2*
X-944668D1*
X-1431675Y-3045317D2*
X-944713D1*
X-1431720Y-3108483D2*
X-944759D1*
X-1431811Y-3171650D2*
X-944804D1*
X-1431857Y-3234817D2*
X-944850D1*
X-1431902Y-3297983D2*
X-944895D1*
X-1431948Y-3361150D2*
X-944895D1*
X-1432039Y-3424317D2*
X-944941D1*
X-1432085Y-3487483D2*
X-944987D1*
X-1432130Y-3550650D2*
X-945032D1*
X-1432221Y-3613817D2*
X-945078D1*
X-1432267Y-3676983D2*
X-945123D1*
X-1432313Y-3740150D2*
X-1199420D1*
X-1055379D2*
X-945169D1*
X-1432404Y-3803317D2*
X-1251601D1*
X-1003198D2*
X-945214D1*
X-1432449Y-3866483D2*
X-1258164D1*
X-996636D2*
X-945214D1*
X-1432495Y-3929650D2*
X-1249596D1*
X-1005203D2*
X-945260D1*
X-1432586Y-3992817D2*
X-1249596D1*
X-1005203D2*
X-945306D1*
X-1418550Y-4055983D2*
X-1249596D1*
X-1005203D2*
X-945351D1*
X-1243250Y-4105529D2*
Y-3896668D1*
X-1244779Y-3892891D1*
X-1251121Y-3870550D1*
X-1253250Y-3847424D1*
X-1251093Y-3824300D1*
X-1244724Y-3801967D1*
X-1234360Y-3781184D1*
X-1220353Y-3762659D1*
X-1203181Y-3747024D1*
X-1183428Y-3734810D1*
X-1161767Y-3726433D1*
X-1138936Y-3722180D1*
X-1115712Y-3722194D1*
X-1092886Y-3726475D1*
X-1071236Y-3734878D1*
X-1051498Y-3747116D1*
X-1034344Y-3762772D1*
X-1020360Y-3781313D1*
X-1010021Y-3802109D1*
X-1003679Y-3824450D1*
X-1001550Y-3847500D1*
X-1003707Y-3870700D1*
X-1010076Y-3893033D1*
X-1011544Y-3895976D1*
X-1011550Y-4106017D1*
X-939048Y-4106182D1*
X-938804Y-3741486D1*
X-938086Y-2584048D1*
X-1339753Y-2182384D1*
X-1348764Y-2178322D1*
X-1368502Y-2166084D1*
X-1385656Y-2150428D1*
X-1399640Y-2131887D1*
X-1409979Y-2111091D1*
X-1416321Y-2088750D1*
X-1418450Y-2065624D1*
X-1416293Y-2042500D1*
X-1409924Y-2020167D1*
X-1399560Y-1999384D1*
X-1385553Y-1980859D1*
X-1368381Y-1965224D1*
X-1348628Y-1953010D1*
X-1326967Y-1944633D1*
X-1304136Y-1940380D1*
X-1280912Y-1940394D1*
X-1258086Y-1944675D1*
X-1236436Y-1953078D1*
X-1216698Y-1965316D1*
X-1199544Y-1980972D1*
X-1185560Y-1999513D1*
X-1176281Y-2018177D1*
X-937875Y-2256588D1*
X-936570Y-139654D1*
X-1435292Y-139650D1*
X-1436416Y-1344417D1*
X-1438960Y-4041900D1*
X-1375600Y-4105263D1*
X-1243247Y-4105534D1*
X-2171277Y-2389117D2*
X-1575351D1*
X-2171277Y-2452283D2*
X-1575214D1*
X-2171277Y-2515450D2*
X-1575077D1*
X-2171277Y-2578617D2*
X-1574895D1*
X-2171277Y-2641783D2*
X-1574758D1*
X-2171277Y-2704950D2*
X-1574576D1*
X-2171277Y-2768117D2*
X-1574439D1*
X-2171277Y-2831283D2*
X-1574303D1*
X-2171277Y-2894450D2*
X-1574120D1*
X-2171277Y-2957617D2*
X-1573984D1*
X-2171277Y-3020783D2*
X-1573847D1*
X-2171277Y-3083950D2*
X-1573665D1*
X-2171277Y-3147117D2*
X-1573528D1*
X-2171277Y-3210283D2*
X-1573346D1*
X-2171232Y-3273450D2*
X-1573209D1*
X-2171232Y-3336617D2*
X-1573072D1*
X-2171232Y-3399783D2*
X-1572890D1*
X-2171232Y-3462950D2*
X-1572753D1*
X-2171232Y-3526117D2*
X-1572571D1*
X-2171232Y-3589283D2*
X-1572434D1*
X-2171232Y-3652450D2*
X-1572298D1*
X-2171232Y-3715617D2*
X-1572115D1*
X-2171232Y-3778783D2*
X-1571979D1*
X-2171232Y-3841950D2*
X-1571842D1*
X-2171232Y-3905117D2*
X-1571660D1*
X-2171232Y-3968283D2*
X-1571523D1*
X-2171232Y-4031450D2*
X-1571340D1*
X-2171232Y-4094617D2*
X-1571204D1*
X-2171232Y-4157783D2*
X-1571067D1*
X-2171232Y-4220950D2*
X-1570885D1*
X-2171186Y-4284117D2*
X-1570748D1*
X-2171186Y-4347283D2*
X-1570566D1*
X-1569171Y-2325950D2*
X-2177660D1*
X-2177585Y-3670630D1*
X-2177551Y-4387697D1*
X-1564141Y-4392404D1*
X-1566385Y-3467993D1*
X-1569173Y-2325962D1*
X-3546079Y-4592417D2*
X-3122692D1*
X-3546079Y-4655583D2*
X-3122692D1*
X-3546079Y-4718750D2*
X-3122692D1*
X-3546079Y-4781917D2*
X-3122692D1*
X-3546079Y-4845083D2*
X-3122692D1*
X-3546079Y-4908250D2*
X-3122692D1*
X-3546079Y-4971417D2*
X-3122692D1*
X-3546079Y-5034583D2*
X-3122692D1*
X-3546079Y-5097750D2*
X-3122692D1*
X-3546079Y-5160917D2*
X-3122692D1*
X-3546079Y-5224083D2*
X-3122692D1*
X-3546079Y-5287250D2*
X-3122692D1*
X-3546079Y-5350417D2*
X-3116540D1*
X-3546079Y-5413583D2*
X-3070283D1*
X-3546079Y-5476750D2*
X-3007119D1*
X-3546079Y-5539917D2*
X-2954072D1*
X-3546079Y-5603083D2*
X-2953890D1*
X-3546079Y-5666250D2*
X-2953753D1*
X-3546079Y-5729417D2*
X-2953571D1*
X-3546079Y-5792583D2*
X-2953434D1*
X-3546079Y-5855750D2*
X-2953298D1*
X-3546079Y-5918917D2*
X-2953115D1*
X-3546079Y-5982083D2*
X-2952979D1*
X-3546079Y-6045250D2*
X-2952842D1*
X-3546079Y-6108417D2*
X-2952660D1*
X-3546079Y-6171583D2*
X-2995954D1*
X-3546079Y-6234750D2*
X-3059118D1*
X-3546079Y-6297917D2*
X-3122282D1*
X-3546079Y-6361083D2*
X-3185492D1*
X-3546079Y-6424250D2*
X-3248656D1*
X-3546079Y-6487417D2*
X-3311820D1*
X-3546079Y-6550583D2*
X-3374984D1*
X-3087222Y-5390012D2*
X-3100848Y-5371092D1*
X-3110401Y-5349847D1*
X-3115511Y-5327120D1*
X-3116350Y-5313200D1*
Y-4529272D1*
X-3290897Y-4529250D1*
X-3552462D1*
X-3552450Y-5185679D1*
Y-6591034D1*
X-3410154Y-6592133D1*
X-2946271Y-6128234D1*
X-2947738Y-5529799D1*
X-3082371Y-5395166D1*
X-3087222Y-5390012D1*
X-3037314Y-7157817D2*
X-2958686D1*
X-3100478Y-7220983D2*
X-2958686D1*
X-3163642Y-7284150D2*
X-2958686D1*
X-3226852Y-7347317D2*
X-2958686D1*
X-3290016Y-7410483D2*
X-2958686D1*
X-3353180Y-7473650D2*
X-2958686D1*
X-3416344Y-7536817D2*
X-2958686D1*
X-3479508Y-7599983D2*
X-2958686D1*
X-3542672Y-7663150D2*
X-2958686D1*
X-3558532Y-7726317D2*
X-2958686D1*
X-3558532Y-7789483D2*
X-2958686D1*
X-3558532Y-7852650D2*
X-2958686D1*
X-3558532Y-7915817D2*
X-2958686D1*
X-3558532Y-7978983D2*
X-2958686D1*
X-3558532Y-8042150D2*
X-2958686D1*
X-3558532Y-8105317D2*
X-2958686D1*
X-3558532Y-8168483D2*
X-2958686D1*
X-3558532Y-8231650D2*
X-2958686D1*
X-3558532Y-8294817D2*
X-2958686D1*
X-3558532Y-8357983D2*
X-2958686D1*
X-3558532Y-8421150D2*
X-3009318D1*
X-3558532Y-8484317D2*
X-3072482D1*
X-3558532Y-8547483D2*
X-3135691D1*
X-3558532Y-8610650D2*
X-3198855D1*
X-3558486Y-8673817D2*
X-3262019D1*
X-3558486Y-8736983D2*
X-3325183D1*
X-2949301Y-7063438D2*
X-3564894Y-7679031D1*
X-3564851Y-8777397D1*
X-3360811Y-8778960D1*
X-2952352Y-8370515D1*
X-2952350Y-7101172D1*
X-2949307Y-7074725D2*
X-2949294Y-7063423D1*
X-2949307Y-7074725D1*
X-2662488Y-4048317D2*
X-2329335D1*
X-2662488Y-4111483D2*
X-2329426D1*
X-2662488Y-4174650D2*
X-2329518D1*
X-2662488Y-4237817D2*
X-2329609D1*
X-2662488Y-4300983D2*
X-2329700D1*
X-2662488Y-4364150D2*
X-2329791D1*
X-2662488Y-4427317D2*
X-2329882D1*
X-2662488Y-4490483D2*
X-2329973D1*
X-2662488Y-4553650D2*
X-2330064D1*
X-2662488Y-4616817D2*
X-2330156D1*
X-2662488Y-4679983D2*
X-2330247D1*
X-2662488Y-4743150D2*
X-2330338D1*
X-2662488Y-4806317D2*
X-2330429D1*
X-2662488Y-4869483D2*
X-2330520D1*
X-2662488Y-4932650D2*
X-2330611D1*
X-2662488Y-4995817D2*
X-2330702D1*
X-2662488Y-5058983D2*
X-2330794D1*
X-2662488Y-5122150D2*
X-2330885D1*
X-2662488Y-5185317D2*
X-2330976D1*
X-2647631Y-5248483D2*
X-2331067D1*
X-2584467Y-5311650D2*
X-2331113D1*
X-2548191Y-5374817D2*
X-2331204D1*
X-2545821Y-5437983D2*
X-2331295D1*
X-2545821Y-5501150D2*
X-2331386D1*
X-2545821Y-5564317D2*
X-2331477D1*
X-2545821Y-5627483D2*
X-2331568D1*
X-2545821Y-5690650D2*
X-2512994D1*
X-2391329Y-6511817D2*
X-2332844D1*
X-2454493Y-6574983D2*
X-2332936D1*
X-2517657Y-6638150D2*
X-2333027D1*
X-2580821Y-6701317D2*
X-2333118D1*
X-2643986Y-6764483D2*
X-2333209D1*
X-2707150Y-6827650D2*
X-2333300D1*
X-2770314Y-6890817D2*
X-2333391D1*
X-2824318Y-6953983D2*
X-2333482D1*
X-2824272Y-7017150D2*
X-2333574D1*
X-2824226Y-7080317D2*
X-2774127D1*
X-2561863D2*
X-2333665D1*
X-2824181Y-7143483D2*
X-2799465D1*
X-2511323D2*
X-2333756D1*
X-2824135Y-7206650D2*
X-2789986D1*
X-2448159D2*
X-2333847D1*
X-2824090Y-7269817D2*
X-2730104D1*
X-2384995D2*
X-2333938D1*
X-2824090Y-7332983D2*
X-2756673D1*
X-2824044Y-7396150D2*
X-2785930D1*
X-2823999Y-7459317D2*
X-2779505D1*
X-2823953Y-7522483D2*
X-2727688D1*
X-2823907Y-7585650D2*
X-2655136D1*
X-2823862Y-7648817D2*
X-2591972D1*
X-2823816Y-7711983D2*
X-2528808D1*
X-2823771Y-7775150D2*
X-2465644D1*
X-2823725Y-7838317D2*
X-2402480D1*
X-2823680Y-7901483D2*
X-2339316D1*
X-2823634Y-7964650D2*
X-2334941D1*
X-2823588Y-8027817D2*
X-2335032D1*
X-2823588Y-8090983D2*
X-2435292D1*
X-2823543Y-8154150D2*
X-2491256D1*
X-2823497Y-8217317D2*
X-2554420D1*
X-2823452Y-8280483D2*
X-2617584D1*
X-2823406Y-8343650D2*
X-2680748D1*
X-2823361Y-8406817D2*
X-2743912D1*
X-2328484Y-7905952D2*
X-2702358Y-7532079D1*
X-2711364Y-7528022D1*
X-2731102Y-7515784D1*
X-2748256Y-7500128D1*
X-2762240Y-7481587D1*
X-2772579Y-7460791D1*
X-2778921Y-7438450D1*
X-2781050Y-7415324D1*
X-2778893Y-7392200D1*
X-2772524Y-7369867D1*
X-2762160Y-7349084D1*
X-2748153Y-7330559D1*
X-2730981Y-7314924D1*
X-2711228Y-7302710D1*
X-2693142Y-7295716D1*
X-2715142Y-7273694D1*
X-2724164Y-7269622D1*
X-2743902Y-7257384D1*
X-2761056Y-7241728D1*
X-2775040Y-7223187D1*
X-2785379Y-7202391D1*
X-2791721Y-7180050D1*
X-2793850Y-7156924D1*
X-2791693Y-7133800D1*
X-2785324Y-7111467D1*
X-2774960Y-7090684D1*
X-2760953Y-7072159D1*
X-2743781Y-7056524D1*
X-2724028Y-7044310D1*
X-2702367Y-7035933D1*
X-2679536Y-7031680D1*
X-2656312Y-7031694D1*
X-2633486Y-7035975D1*
X-2611836Y-7044378D1*
X-2592098Y-7056616D1*
X-2574944Y-7072272D1*
X-2560960Y-7090813D1*
X-2551681Y-7109477D1*
X-2327677Y-7333487D1*
X-2326396Y-6440529D1*
X-2830681Y-6944818D1*
X-2829649Y-8498897D1*
X-2484694Y-8153957D1*
X-2474960Y-8134784D1*
X-2460953Y-8116259D1*
X-2443781Y-8100624D1*
X-2424028Y-8088410D1*
X-2402367Y-8080033D1*
X-2379536Y-8075780D1*
X-2356312Y-8075794D1*
X-2333486Y-8080075D1*
X-2328729Y-8081921D1*
X-2328487Y-7905970D1*
X-2554044Y-5377449D2*
X-2560525Y-5355052D1*
X-2571350Y-5334425D1*
X-2586082Y-5316382D1*
X-2668850Y-5233598D1*
X-2668848Y-3986174D1*
X-2322895Y-3987980D1*
X-2325274Y-5668650D1*
X-2438700D1*
X-2443320Y-5668742D1*
X-2466384Y-5672006D1*
X-2488329Y-5679818D1*
X-2508284Y-5691878D1*
X-2521112Y-5703075D1*
X-2545218Y-5727185D1*
X-2552150Y-5705566D1*
Y-5398365D1*
X-2554044Y-5377449D1*
X-2186595Y-4690417D2*
X-1591124D1*
X-2186413Y-4753583D2*
X-1591124D1*
X-2186276Y-4816750D2*
X-1591170D1*
X-2186139Y-4879917D2*
X-1591170D1*
X-2186002Y-4943083D2*
X-1591170D1*
X-2185820Y-5006250D2*
X-1591215D1*
X-2185683Y-5069417D2*
X-1591215D1*
X-2185547Y-5132583D2*
X-1591215D1*
X-2185410Y-5195750D2*
X-1591261D1*
X-2185273Y-5258917D2*
X-1591261D1*
X-2185091Y-5322083D2*
X-1591261D1*
X-2184954Y-5385250D2*
X-1591307D1*
X-2184818Y-5448417D2*
X-1591307D1*
X-2184681Y-5511583D2*
X-1591307D1*
X-2184499Y-5574750D2*
X-1591352D1*
X-2184362Y-5637917D2*
X-1591352D1*
X-2183177Y-6143250D2*
X-1591489D1*
X-2183040Y-6206417D2*
X-1591489D1*
X-2182904Y-6269583D2*
X-1591535D1*
X-2182767Y-6332750D2*
X-1591535D1*
X-2182585Y-6395917D2*
X-1591535D1*
X-2182448Y-6459083D2*
X-1591580D1*
X-2182311Y-6522250D2*
X-1591580D1*
X-2182174Y-6585417D2*
X-1591580D1*
X-2182038Y-6648583D2*
X-1591626D1*
X-2181855Y-6711750D2*
X-1591626D1*
X-2181719Y-6774917D2*
X-1591626D1*
X-2181582Y-6838083D2*
X-1591671D1*
X-2181445Y-6901250D2*
X-1591671D1*
X-2181263Y-6964417D2*
X-1591671D1*
X-2181126Y-7027583D2*
X-1591717D1*
X-2180989Y-7090750D2*
X-1591717D1*
X-2180853Y-7153917D2*
X-1641710D1*
X-2180670Y-7217083D2*
X-1647635D1*
X-2180534Y-7280250D2*
X-1617648D1*
X-2180397Y-7343417D2*
X-1613410D1*
X-2180260Y-7406583D2*
X-1676574D1*
X-2180124Y-7469750D2*
X-1739738D1*
X-2121881Y-7532917D2*
X-1829334D1*
X-2058717Y-7596083D2*
X-1884432D1*
X-1995553Y-7659250D2*
X-1892179D1*
X-1932389Y-7722417D2*
X-1864653D1*
X-1869225Y-7785583D2*
X-1827511D1*
X-2190652Y-5668650D2*
X-1585034D1*
X-1584970Y-5481034D1*
X-1584758Y-4627248D1*
X-2193069Y-4627250D1*
X-2190650Y-5668638D1*
X-1585369Y-7091147D2*
X-1585143Y-6121150D1*
X-2189576D1*
X-2188965Y-6391947D1*
X-2186435Y-7474728D1*
X-1832605Y-7828558D1*
X-1830893Y-7815800D1*
X-1824524Y-7793467D1*
X-1814160Y-7772684D1*
X-1804927Y-7760473D1*
X-1817264Y-7755122D1*
X-1837002Y-7742884D1*
X-1854156Y-7727228D1*
X-1868140Y-7708687D1*
X-1878479Y-7687891D1*
X-1884821Y-7665550D1*
X-1886950Y-7642424D1*
X-1884793Y-7619300D1*
X-1878424Y-7596967D1*
X-1868060Y-7576184D1*
X-1854053Y-7557659D1*
X-1836881Y-7542024D1*
X-1817128Y-7529810D1*
X-1795467Y-7521433D1*
X-1782691Y-7519053D1*
X-1585411Y-7321774D1*
X-1585421Y-7302503D1*
X-1592952Y-7297234D1*
X-1610106Y-7281578D1*
X-1624090Y-7263037D1*
X-1634429Y-7242241D1*
X-1640771Y-7219900D1*
X-1642900Y-7196774D1*
X-1640743Y-7173650D1*
X-1634374Y-7151317D1*
X-1624010Y-7130534D1*
X-1610003Y-7112009D1*
X-1592831Y-7096374D1*
X-1585365Y-7091758D1*
D31*
X-6124100Y-1940200D3*
X-6284100D3*
D69*
X-5260000Y-9672000D3*
X-4865600D3*
X-4471100D3*
X-4076700D3*
X-3682200D3*
X-3287800D3*
X-2893300D3*
X-2498900D3*
X-2104400D3*
X-1710000D3*
D32*
X-1718400Y-9033477D3*
X-2112390D3*
X-2506377D3*
X-2900367D3*
X-3294357D3*
X-3688343D3*
X-4082333D3*
X-4476323D3*
X-4870310D3*
X-5264300D3*
D33*
X-5983100Y-1936803D3*
X-5823100Y-1936797D3*
X-1326586Y-9110003D2*
D52*
X-1346127Y-9100120D1*
X-1375327Y-9071145D1*
Y-9275096D1*
X-1438072Y-9110003D2*
X-1457614Y-9100120D1*
X-1486814Y-9071145D1*
Y-9275096D1*
M02*
