G04 DipTrace 4.3.0.5*
G04 BottomSilk.gbr*
%MOMM*%
G04 #@! TF.FileFunction,Legend,Bot*
G04 #@! TF.Part,Single*
%ADD10C,0.25*%
%ADD14C,0.05*%
%ADD50C,0.07843*%
%ADD52C,0.31373*%
%FSLAX35Y35*%
G04*
G71*
G90*
G75*
G01*
G04 BotSilk*
%LPD*%
G36*
X-6154450Y-2020020D2*
Y-2088870D1*
X-6222260Y-2021930D1*
X-6154450Y-2020020D1*
G37*
X-6075160Y-2014300D2*
D10*
X-6330180Y-2015250D1*
X-6225110Y-2021930D2*
Y-2081150D1*
X-5748097Y-2011794D2*
D14*
X-5748103Y-1861794D1*
X-6058103Y-1861806D1*
X-6058097Y-2011806D1*
X-5748097Y-2011794D1*
X-416680Y-4490739D2*
D52*
X-261246D1*
X-232046Y-4481081D1*
X-222388Y-4471198D1*
X-212504Y-4451881D1*
Y-4432339D1*
X-222388Y-4413022D1*
X-232046Y-4403364D1*
X-261246Y-4393481D1*
X-280563D1*
X-416680Y-4553484D2*
X-212504D1*
Y-4670060D1*
X-368163Y-4878580D2*
X-387480Y-4868922D1*
X-407021Y-4849380D1*
X-416680Y-4830063D1*
Y-4791205D1*
X-407021Y-4771663D1*
X-387480Y-4752346D1*
X-368163Y-4742463D1*
X-338963Y-4732805D1*
X-290221D1*
X-261246Y-4742463D1*
X-241704Y-4752346D1*
X-222388Y-4771663D1*
X-212504Y-4791205D1*
Y-4830063D1*
X-222388Y-4849380D1*
X-241704Y-4868922D1*
X-261246Y-4878580D1*
X-416680Y-5038584D2*
X-261246D1*
X-232046Y-5028925D1*
X-222388Y-5019042D1*
X-212504Y-4999725D1*
Y-4980184D1*
X-222388Y-4960867D1*
X-232046Y-4951208D1*
X-261246Y-4941325D1*
X-280563D1*
X-416680Y-5101329D2*
X-212504D1*
Y-5217904D1*
X-368163Y-5426425D2*
X-387480Y-5416766D1*
X-407021Y-5397225D1*
X-416680Y-5377908D1*
Y-5339049D1*
X-407021Y-5319508D1*
X-387480Y-5300191D1*
X-368163Y-5290308D1*
X-338963Y-5280649D1*
X-290221D1*
X-261246Y-5290308D1*
X-241704Y-5300191D1*
X-222388Y-5319508D1*
X-212504Y-5339049D1*
Y-5377908D1*
X-222388Y-5397225D1*
X-241704Y-5416766D1*
X-261246Y-5426425D1*
X-416680Y-5586428D2*
X-261246D1*
X-232046Y-5576770D1*
X-222388Y-5566887D1*
X-212504Y-5547570D1*
Y-5528028D1*
X-222388Y-5508711D1*
X-232046Y-5499053D1*
X-261246Y-5489170D1*
X-280563D1*
X-416680Y-5649173D2*
X-212504D1*
Y-5765749D1*
X-368163Y-5974269D2*
X-387480Y-5964611D1*
X-407021Y-5945069D1*
X-416680Y-5925752D1*
Y-5886894D1*
X-407021Y-5867352D1*
X-387480Y-5848035D1*
X-368163Y-5838152D1*
X-338963Y-5828494D1*
X-290221D1*
X-261246Y-5838152D1*
X-241704Y-5848035D1*
X-222388Y-5867352D1*
X-212504Y-5886894D1*
Y-5925752D1*
X-222388Y-5945069D1*
X-241704Y-5964611D1*
X-261246Y-5974269D1*
X-416680Y-6134273D2*
X-261246D1*
X-232046Y-6124614D1*
X-222388Y-6114731D1*
X-212504Y-6095414D1*
Y-6075873D1*
X-222388Y-6056556D1*
X-232046Y-6046897D1*
X-261246Y-6037014D1*
X-280563D1*
X-416680Y-6197018D2*
X-212504D1*
Y-6313593D1*
X-368163Y-6522114D2*
X-387480Y-6512455D1*
X-407021Y-6492914D1*
X-416680Y-6473597D1*
Y-6434738D1*
X-407021Y-6415197D1*
X-387480Y-6395880D1*
X-368163Y-6385997D1*
X-338963Y-6376338D1*
X-290221D1*
X-261246Y-6385997D1*
X-241704Y-6395880D1*
X-222388Y-6415197D1*
X-212504Y-6434738D1*
Y-6473597D1*
X-222388Y-6492914D1*
X-241704Y-6512455D1*
X-261246Y-6522114D1*
X-6162228Y-2106100D2*
D50*
Y-2157144D1*
X-6179242D1*
X-6186542Y-2154673D1*
X-6191428Y-2149844D1*
X-6193842Y-2144958D1*
X-6196257Y-2137715D1*
Y-2125529D1*
X-6193842Y-2118229D1*
X-6191428Y-2113400D1*
X-6186542Y-2108515D1*
X-6179242Y-2106100D1*
X-6162228D1*
X-6221658Y-2157144D2*
X-6245972Y-2106156D1*
X-6211943D1*
X-5859435Y-2061943D2*
X-5881279Y-2061944D1*
X-5888579Y-2059474D1*
X-5891050Y-2057059D1*
X-5893465Y-2052230D1*
Y-2047345D1*
X-5891050Y-2042515D1*
X-5888580Y-2040044D1*
X-5881280Y-2037629D1*
X-5859436D1*
X-5859434Y-2088672D1*
X-5876450Y-2061944D2*
X-5893463Y-2088674D1*
X-5940765Y-2054646D2*
X-5938294Y-2061946D1*
X-5933465Y-2066831D1*
X-5926165Y-2069246D1*
X-5923750D1*
X-5916450Y-2066831D1*
X-5911621Y-2061945D1*
X-5909151Y-2054645D1*
Y-2052230D1*
X-5911622Y-2044931D1*
X-5916451Y-2040102D1*
X-5923751Y-2037687D1*
X-5926166D1*
X-5933466Y-2040102D1*
X-5938295Y-2044932D1*
X-5940765Y-2054646D1*
Y-2066832D1*
X-5938294Y-2078961D1*
X-5933464Y-2086261D1*
X-5926164Y-2088675D1*
X-5921335D1*
X-5914035Y-2086260D1*
X-5911621Y-2081374D1*
M02*
