G04 DipTrace 4.3.0.5*
G04 BottomAssembly.gbr*
%MOMM*%
G04 #@! TF.FileFunction,Drawing,Bot*
G04 #@! TF.Part,Single*
%ADD13C,0.12*%
%ADD25C,0.1016*%
%FSLAX35Y35*%
G04*
G71*
G90*
G75*
G01*
G04 BotAssy*
%LPD*%
X-6292000Y-1860180D2*
D13*
Y-1940200D1*
X-6124100D1*
Y-1860180D1*
X-6292000D1*
X-6156360Y-1854770D2*
X-6181170Y-1807980D1*
X-6245180Y-1807030D1*
X-6265230Y-1850970D1*
X-6262370Y-1856690D1*
G36*
X-1693007Y-9058870D2*
Y-9008083D1*
X-1743793D1*
Y-9058870D1*
X-1693007D1*
G37*
G36*
X-2137783D2*
X-2086997D1*
Y-9008083D1*
X-2137783D1*
Y-9058870D1*
G37*
G36*
X-2531770D2*
X-2480983D1*
Y-9008083D1*
X-2531770D1*
Y-9058870D1*
G37*
G36*
X-2925760D2*
X-2874973D1*
Y-9008083D1*
X-2925760D1*
Y-9058870D1*
G37*
G36*
X-3319750Y-9008083D2*
Y-9058870D1*
X-3268963D1*
Y-9008083D1*
X-3319750D1*
G37*
G36*
X-3662950Y-9058870D2*
Y-9008083D1*
X-3713737D1*
Y-9058870D1*
X-3662950D1*
G37*
G36*
X-4107727D2*
X-4056940D1*
Y-9008083D1*
X-4107727D1*
Y-9058870D1*
G37*
G36*
X-4501717D2*
X-4450930D1*
Y-9008083D1*
X-4501717D1*
Y-9058870D1*
G37*
G36*
X-4844917D2*
Y-9008083D1*
X-4895703D1*
Y-9058870D1*
X-4844917D1*
G37*
G36*
X-5238907D2*
Y-9008083D1*
X-5289693D1*
Y-9058870D1*
X-5238907D1*
G37*
X-5935688Y-1980001D2*
D25*
X-5864518Y-1979999D1*
X-5935692Y-1894901D2*
X-5864522Y-1894899D1*
G36*
X-5933918Y-1984811D2*
X-5933922Y-1889811D1*
X-5983902Y-1889813D1*
X-5983898Y-1984813D1*
X-5933918Y-1984811D1*
G37*
G36*
X-5817068Y-1984807D2*
X-5817072Y-1889807D1*
X-5867082Y-1889809D1*
X-5867078Y-1984809D1*
X-5817068Y-1984807D1*
G37*
M02*
