M48
METRIC,0000.00
T01C0.6
T02C1.5
%
T01
X-000421Y-000706
X-000421Y-001454
X-000421Y-002203
X-000421Y-002951
X-000764Y-003089
X-000950Y-003014
X-001252Y-002877
X-001249Y-002334
X-001293Y-002066
X-001923Y-002017
X-001911Y-002574
X-001911Y-003194
X-001911Y-003813
X-001681Y-003863
X-001252Y-003605
X-001127Y-003848
X-000759Y-003953
X-000421Y-003699
X-001996Y-004940
X-002002Y-005353
X-002524Y-005530
X-002668Y-005755
X-002821Y-005908
X-003325Y-006138
X-003331Y-005651
X-003354Y-005026
X-002541Y-004917
X-003000Y-003869
X-003668Y-003902
X-002785Y-002884
X-003984Y-002448
X-003835Y-002098
X-001923Y-001314
X-001252Y-001421
X-001252Y-000693
X-001923Y-000611
X-001523Y-005785
X-001523Y-006005
X-001916Y-006184
X-002214Y-006164
X-002395Y-006659
X-001945Y-006825
X-001517Y-007197
X-001933Y-007444
X-001761Y-007642
X-001707Y-007839
X-002139Y-008271
X-002368Y-008201
X-002621Y-008183
X-002661Y-007885
X-002655Y-007415
X-002668Y-007157
X-003258Y-007462
X-003291Y-007906
X-003141Y-008436
X-003432Y-008654
X-004815Y-008378
X-005200Y-008477
X-004608Y-007222
X-004040Y-006853
X-003835Y-006928
X-003668Y-006696
X-005200Y-006128
X-004360Y-005212
X-001131Y-007501
X-000675Y-007631
X-000410Y-006765
X-001340Y-008459
X-001188Y-008684
X-001030Y-008898
X-000865Y-009109
T02
X-006206Y-001783
T00
M30
