G04 DipTrace 4.3.0.5*
G04 TopAssembly.gbr*
%MOMM*%
G04 #@! TF.FileFunction,Drawing,Top*
G04 #@! TF.Part,Single*
%ADD13C,0.12*%
%ADD25C,0.1016*%
%FSLAX35Y35*%
G04*
G71*
G90*
G75*
G01*
G04 TopAssy*
%LPD*%
X-5799903Y-6752760D2*
D25*
Y-6823930D1*
X-5885000Y-6752760D2*
Y-6823930D1*
G36*
X-5795093Y-6704547D2*
X-5890087D1*
Y-6754527D1*
X-5795093D1*
Y-6704547D1*
G37*
G36*
Y-6821367D2*
X-5890087D1*
Y-6871377D1*
X-5795093D1*
Y-6821367D1*
G37*
X-2673620Y-2195147D2*
D25*
X-2744803D1*
G36*
X-2574030Y-2345680D2*
Y-2188377D1*
X-2661803D1*
Y-2345680D1*
X-2574030D1*
G37*
G36*
X-2755010Y-2346470D2*
Y-2189150D1*
X-2842783D1*
Y-2346470D1*
X-2755010D1*
G37*
X-2673903Y-2333480D2*
D25*
X-2745057D1*
X-4090320Y-6448373D2*
X-4161503D1*
G36*
X-3990730Y-6598907D2*
Y-6441603D1*
X-4078503D1*
Y-6598907D1*
X-3990730D1*
G37*
G36*
X-4171710Y-6599697D2*
Y-6442377D1*
X-4259483D1*
Y-6599697D1*
X-4171710D1*
G37*
X-4090603Y-6586707D2*
D25*
X-4161757D1*
X-2054920Y-6448373D2*
X-2126103D1*
G36*
X-1955330Y-6598907D2*
Y-6441603D1*
X-2043103D1*
Y-6598907D1*
X-1955330D1*
G37*
G36*
X-2136310Y-6599697D2*
Y-6442377D1*
X-2224083D1*
Y-6599697D1*
X-2136310D1*
G37*
X-2055203Y-6586707D2*
D25*
X-2126357D1*
X-1623080Y-6595927D2*
X-1551897D1*
G36*
X-1722670Y-6445393D2*
Y-6602697D1*
X-1634897D1*
Y-6445393D1*
X-1722670D1*
G37*
G36*
X-1541690Y-6444603D2*
Y-6601923D1*
X-1453917D1*
Y-6444603D1*
X-1541690D1*
G37*
X-1622797Y-6457593D2*
D25*
X-1551643D1*
X-731020Y-2196147D2*
X-802203D1*
G36*
X-631430Y-2346680D2*
Y-2189377D1*
X-719203D1*
Y-2346680D1*
X-631430D1*
G37*
G36*
X-812410Y-2347470D2*
Y-2190150D1*
X-900183D1*
Y-2347470D1*
X-812410D1*
G37*
X-731303Y-2334480D2*
D25*
X-802457D1*
X-6691800Y-5884070D2*
D13*
X-6025800D1*
Y-6630070D1*
X-6591800D1*
X-6691800Y-6530070D1*
Y-5884070D1*
X-2911500Y-3342900D2*
Y-3852900D1*
X-3721500D1*
Y-3442900D1*
X-3621500Y-3342900D1*
X-2911500D1*
X-4271100Y-4934800D2*
Y-5444800D1*
X-5081100D1*
Y-5034800D1*
X-4981100Y-4934800D1*
X-4271100D1*
X-2305700Y-7611900D2*
Y-8121900D1*
X-3115700D1*
Y-7711900D1*
X-3015700Y-7611900D1*
X-2305700D1*
X-1396300Y-5445800D2*
Y-4935800D1*
X-586300D1*
Y-5345800D1*
X-686300Y-5445800D1*
X-1396300D1*
X-939900Y-676300D2*
Y-1186300D1*
X-1749900D1*
Y-776300D1*
X-1649900Y-676300D1*
X-939900D1*
X-3721500Y-2072900D2*
Y-1562900D1*
X-2911500D1*
Y-1972900D1*
X-3011500Y-2072900D1*
X-3721500D1*
X-5081100Y-7224800D2*
Y-6714800D1*
X-4271100D1*
Y-7124800D1*
X-4371100Y-7224800D1*
X-5081100D1*
X-3115700Y-6341900D2*
Y-5831900D1*
X-2305700D1*
Y-6241900D1*
X-2405700Y-6341900D1*
X-3115700D1*
X-586300Y-6715800D2*
Y-7225800D1*
X-1396300D1*
Y-6815800D1*
X-1296300Y-6715800D1*
X-586300D1*
X-1749900Y-2966300D2*
Y-2456300D1*
X-939900D1*
Y-2866300D1*
X-1039900Y-2966300D1*
X-1749900D1*
X-3721500Y-1182900D2*
Y-672900D1*
X-2911500D1*
Y-1082900D1*
X-3011500Y-1182900D1*
X-3721500D1*
X-5081100Y-8114800D2*
Y-7604800D1*
X-4271100D1*
Y-8014800D1*
X-4371100Y-8114800D1*
X-5081100D1*
X-3115700Y-5451900D2*
Y-4941900D1*
X-2305700D1*
Y-5351900D1*
X-2405700Y-5451900D1*
X-3115700D1*
X-586300Y-7605800D2*
Y-8115800D1*
X-1396300D1*
Y-7705800D1*
X-1296300Y-7605800D1*
X-586300D1*
X-1749900Y-3856300D2*
Y-3346300D1*
X-939900D1*
Y-3756300D1*
X-1039900Y-3856300D1*
X-1749900D1*
X-2911500Y-2452900D2*
Y-2962900D1*
X-3721500D1*
Y-2552900D1*
X-3621500Y-2452900D1*
X-2911500D1*
X-4271100Y-5824800D2*
Y-6334800D1*
X-5081100D1*
Y-5924800D1*
X-4981100Y-5824800D1*
X-4271100D1*
X-2305700Y-6721900D2*
Y-7231900D1*
X-3115700D1*
Y-6821900D1*
X-3015700Y-6721900D1*
X-2305700D1*
X-1396300Y-6335800D2*
Y-5825800D1*
X-586300D1*
Y-6235800D1*
X-686300Y-6335800D1*
X-1396300D1*
X-939900Y-1566300D2*
Y-2076300D1*
X-1749900D1*
Y-1666300D1*
X-1649900Y-1566300D1*
X-939900D1*
X-1585000Y-10222000D2*
X-5362500D1*
G36*
X-5233907Y-9129293D2*
Y-9078507D1*
X-5284693D1*
Y-9129293D1*
X-5233907D1*
G37*
G36*
X-4889437D2*
X-4838650D1*
Y-9078507D1*
X-4889437D1*
Y-9129293D1*
G37*
G36*
X-4494183D2*
X-4443397D1*
Y-9078507D1*
X-4494183D1*
Y-9129293D1*
G37*
G36*
X-4098927D2*
X-4048140D1*
Y-9078507D1*
X-4098927D1*
Y-9129293D1*
G37*
G36*
X-3652883D2*
Y-9078507D1*
X-3703670D1*
Y-9129293D1*
X-3652883D1*
G37*
G36*
X-3257630D2*
Y-9078507D1*
X-3308417D1*
Y-9129293D1*
X-3257630D1*
G37*
G36*
X-2915160D2*
X-2864373D1*
Y-9078507D1*
X-2915160D1*
Y-9129293D1*
G37*
G36*
X-2517903D2*
X-2467117D1*
Y-9078507D1*
X-2517903D1*
Y-9129293D1*
G37*
G36*
X-2122650D2*
X-2071863D1*
Y-9078507D1*
X-2122650D1*
Y-9129293D1*
G37*
G36*
X-1727393D2*
X-1676607D1*
Y-9078507D1*
X-1727393D1*
Y-9129293D1*
G37*
X-5674347Y-6817940D2*
D25*
Y-6746770D1*
X-5589250Y-6817940D2*
Y-6746770D1*
G36*
X-5679157Y-6866153D2*
X-5584163D1*
Y-6816173D1*
X-5679157D1*
Y-6866153D1*
G37*
G36*
Y-6749333D2*
X-5584163D1*
Y-6699323D1*
X-5679157D1*
Y-6749333D1*
G37*
X-3829210Y-2308497D2*
D25*
X-3900380D1*
X-3829210Y-2223400D2*
X-3900380D1*
G36*
X-3780997Y-2313307D2*
Y-2218313D1*
X-3830977D1*
Y-2313307D1*
X-3780997D1*
G37*
G36*
X-3897817D2*
Y-2218313D1*
X-3947827D1*
Y-2313307D1*
X-3897817D1*
G37*
X-5190740Y-6371600D2*
D25*
X-5119570D1*
X-5190740Y-6456700D2*
X-5119570D1*
G36*
X-5238950Y-6366790D2*
Y-6461790D1*
X-5188970D1*
Y-6366790D1*
X-5238950D1*
G37*
G36*
X-5122130D2*
Y-6461790D1*
X-5072120D1*
Y-6366790D1*
X-5122130D1*
G37*
X-3404210Y-6590247D2*
D25*
X-3475380D1*
X-3404210Y-6505150D2*
X-3475380D1*
G36*
X-3355997Y-6595057D2*
Y-6500063D1*
X-3405977D1*
Y-6595057D1*
X-3355997D1*
G37*
G36*
X-3472817D2*
Y-6500063D1*
X-3522827D1*
Y-6595057D1*
X-3472817D1*
G37*
X-456910Y-6565347D2*
D25*
X-528080D1*
X-456910Y-6480250D2*
X-528080D1*
G36*
X-408697Y-6570157D2*
Y-6475163D1*
X-458677D1*
Y-6570157D1*
X-408697D1*
G37*
G36*
X-525517D2*
Y-6475163D1*
X-575527D1*
Y-6570157D1*
X-525517D1*
G37*
X-1854490Y-2220003D2*
D25*
X-1783320D1*
X-1854490Y-2305100D2*
X-1783320D1*
G36*
X-1902703Y-2215193D2*
Y-2310187D1*
X-1852723D1*
Y-2215193D1*
X-1902703D1*
G37*
G36*
X-1785883D2*
Y-2310187D1*
X-1735873D1*
Y-2215193D1*
X-1785883D1*
G37*
X-5462397Y-6817940D2*
D25*
Y-6746770D1*
X-5377300Y-6817940D2*
Y-6746770D1*
G36*
X-5467207Y-6866153D2*
X-5372213D1*
Y-6816173D1*
X-5467207D1*
Y-6866153D1*
G37*
G36*
Y-6749333D2*
X-5372213D1*
Y-6699323D1*
X-5467207D1*
Y-6749333D1*
G37*
M02*
