G04 DipTrace 4.3.0.5*
G04 TopDimension.gbr*
%MOMM*%
G04 #@! TF.FileFunction,Drawing,Top*
G04 #@! TF.Part,Single*
%ADD15C,0.035*%
%ADD53C,0.15686*%
%FSLAX35Y35*%
G04*
G71*
G90*
G75*
G01*
G04 TopDimension*
%LPD*%
X-5650000Y-9465000D2*
D15*
Y-10665300D1*
X-5360000Y-9672000D2*
Y-10665300D1*
X-5650000Y-10615300D2*
X-5360000D1*
X-5800000D2*
X-5750000D1*
G36*
X-5650000D2*
X-5750000Y-10635300D1*
Y-10595300D1*
X-5650000Y-10615300D1*
G37*
X-5210000D2*
D15*
X-5260000D1*
G36*
X-5360000D2*
X-5260000Y-10595300D1*
Y-10635300D1*
X-5360000Y-10615300D1*
G37*
X-1610000Y-9672000D2*
D15*
Y-10753100D1*
X-1320000Y-9465000D2*
Y-10753100D1*
X-1610000Y-10703100D2*
X-1320000D1*
X-1760000D2*
X-1710000D1*
G36*
X-1610000D2*
X-1710000Y-10723100D1*
Y-10683100D1*
X-1610000Y-10703100D1*
G37*
X-1170000D2*
D15*
X-1220000D1*
G36*
X-1320000D2*
X-1220000Y-10683100D1*
Y-10723100D1*
X-1320000Y-10703100D1*
G37*
X-5594117Y-10506568D2*
D53*
Y-10501739D1*
X-5589288Y-10491968D1*
X-5584459Y-10487139D1*
X-5574688Y-10482309D1*
X-5555259D1*
X-5545600Y-10487139D1*
X-5540771Y-10491968D1*
X-5535829Y-10501739D1*
Y-10511397D1*
X-5540771Y-10521168D1*
X-5550429Y-10535655D1*
X-5599059Y-10584285D1*
X-5531000D1*
X-5494798Y-10574514D2*
X-5499628Y-10579455D1*
X-5494798Y-10584285D1*
X-5489857Y-10579455D1*
X-5494798Y-10574514D1*
X-5395255Y-10516226D2*
X-5400197Y-10530826D1*
X-5409855Y-10540597D1*
X-5424455Y-10545426D1*
X-5429284D1*
X-5443884Y-10540597D1*
X-5453543Y-10530826D1*
X-5458484Y-10516226D1*
Y-10511397D1*
X-5453543Y-10496797D1*
X-5443884Y-10487139D1*
X-5429284Y-10482309D1*
X-5424455D1*
X-5409855Y-10487139D1*
X-5400197Y-10496797D1*
X-5395255Y-10516226D1*
Y-10540597D1*
X-5400197Y-10564855D1*
X-5409855Y-10579455D1*
X-5424455Y-10584285D1*
X-5434114D1*
X-5448714Y-10579455D1*
X-5453543Y-10569685D1*
X-1554117Y-10594368D2*
Y-10589539D1*
X-1549288Y-10579768D1*
X-1544459Y-10574939D1*
X-1534688Y-10570109D1*
X-1515259D1*
X-1505600Y-10574939D1*
X-1500771Y-10579768D1*
X-1495829Y-10589539D1*
Y-10599197D1*
X-1500771Y-10608968D1*
X-1510429Y-10623455D1*
X-1559059Y-10672085D1*
X-1491000D1*
X-1454798Y-10662314D2*
X-1459628Y-10667255D1*
X-1454798Y-10672085D1*
X-1449857Y-10667255D1*
X-1454798Y-10662314D1*
X-1355255Y-10604026D2*
X-1360197Y-10618626D1*
X-1369855Y-10628397D1*
X-1384455Y-10633226D1*
X-1389284D1*
X-1403884Y-10628397D1*
X-1413543Y-10618626D1*
X-1418484Y-10604026D1*
Y-10599197D1*
X-1413543Y-10584597D1*
X-1403884Y-10574939D1*
X-1389284Y-10570109D1*
X-1384455D1*
X-1369855Y-10574939D1*
X-1360197Y-10584597D1*
X-1355255Y-10604026D1*
Y-10628397D1*
X-1360197Y-10652655D1*
X-1369855Y-10667255D1*
X-1384455Y-10672085D1*
X-1394114D1*
X-1408714Y-10667255D1*
X-1413543Y-10657485D1*
M02*
