G04 DipTrace 4.3.0.5*
G04 TopMask.gbr*
%MOMM*%
G04 #@! TF.FileFunction,Soldermask,Top*
G04 #@! TF.Part,Single*
%AMOUTLINE1*
4,1,28,
-0.85,-1.18832,
-0.85,1.18832,
-0.83798,1.27961,
-0.80148,1.36774,
-0.74341,1.44341,
-0.66774,1.50148,
-0.57961,1.53798,
-0.48832,1.55,
0.48832,1.55,
0.57961,1.53798,
0.66774,1.50148,
0.74341,1.44341,
0.80148,1.36774,
0.83798,1.27961,
0.85,1.18832,
0.85,-1.18832,
0.83798,-1.27961,
0.80148,-1.36774,
0.74341,-1.44341,
0.66774,-1.50148,
0.57961,-1.53798,
0.48832,-1.55,
-0.48832,-1.55,
-0.57961,-1.53798,
-0.66774,-1.50148,
-0.74341,-1.44341,
-0.80148,-1.36774,
-0.83798,-1.27961,
-0.85,-1.18832,
0*%
%AMOUTLINE4*
4,1,28,
3.49,3.16828,
3.49,-3.16828,
3.48019,-3.24276,
3.45018,-3.31522,
3.40244,-3.37744,
3.34022,-3.42518,
3.26776,-3.45519,
3.19328,-3.465,
-3.19328,-3.465,
-3.26776,-3.45519,
-3.34022,-3.42518,
-3.40244,-3.37744,
-3.45018,-3.31522,
-3.48019,-3.24276,
-3.49,-3.16828,
-3.49,3.16828,
-3.48019,3.24276,
-3.45018,3.31522,
-3.40244,3.37744,
-3.34022,3.42518,
-3.26776,3.45519,
-3.19328,3.465,
3.19328,3.465,
3.26776,3.45519,
3.34022,3.42518,
3.40244,3.37744,
3.45018,3.31522,
3.48019,3.24276,
3.49,3.16828,
0*%
%AMOUTLINE7*
4,1,28,
0.85,0.37953,
0.85,-0.37953,
0.84024,-0.45368,
0.81035,-0.52584,
0.7628,-0.5878,
0.70084,-0.63535,
0.62868,-0.66524,
0.55453,-0.675,
-0.55453,-0.675,
-0.62868,-0.66524,
-0.70084,-0.63535,
-0.7628,-0.5878,
-0.81035,-0.52584,
-0.84024,-0.45368,
-0.85,-0.37953,
-0.85,0.37953,
-0.84024,0.45368,
-0.81035,0.52584,
-0.7628,0.5878,
-0.70084,0.63535,
-0.62868,0.66524,
-0.55453,0.675,
0.55453,0.675,
0.62868,0.66524,
0.70084,0.63535,
0.7628,0.5878,
0.81035,0.52584,
0.84024,0.45368,
0.85,0.37953,
0*%
%AMOUTLINE10*
4,1,28,
0.9,1.53726,
0.9,-1.53726,
0.89306,-1.59,
0.87143,-1.6422,
0.83703,-1.68703,
0.7922,-1.72143,
0.74,-1.74306,
0.68726,-1.75,
-0.68726,-1.75,
-0.74,-1.74306,
-0.7922,-1.72143,
-0.83703,-1.68703,
-0.87143,-1.6422,
-0.89306,-1.59,
-0.9,-1.53726,
-0.9,1.53726,
-0.89306,1.59,
-0.87143,1.6422,
-0.83703,1.68703,
-0.7922,1.72143,
-0.74,1.74306,
-0.68726,1.75,
0.68726,1.75,
0.74,1.74306,
0.7922,1.72143,
0.83703,1.68703,
0.87143,1.6422,
0.89306,1.59,
0.9,1.53726,
0*%
%AMOUTLINE13*
4,1,28,
-0.9,-1.53726,
-0.9,1.53726,
-0.89306,1.59,
-0.87143,1.6422,
-0.83703,1.68703,
-0.7922,1.72143,
-0.74,1.74306,
-0.68726,1.75,
0.68726,1.75,
0.74,1.74306,
0.7922,1.72143,
0.83703,1.68703,
0.87143,1.6422,
0.89306,1.59,
0.9,1.53726,
0.9,-1.53726,
0.89306,-1.59,
0.87143,-1.6422,
0.83703,-1.68703,
0.7922,-1.72143,
0.74,-1.74306,
0.68726,-1.75,
-0.68726,-1.75,
-0.74,-1.74306,
-0.7922,-1.72143,
-0.83703,-1.68703,
-0.87143,-1.6422,
-0.89306,-1.59,
-0.9,-1.53726,
0*%
%AMOUTLINE16*
4,1,15,
-1.05,4.55,
1.05,4.55,
1.05,-3.50328,
1.01464,-3.77187,
0.9097,-4.02522,
0.74277,-4.24277,
0.52522,-4.4097,
0.27187,-4.51464,
0.0,-4.55043,
-0.27187,-4.51464,
-0.52522,-4.4097,
-0.74277,-4.24277,
-0.9097,-4.02522,
-1.01464,-3.77187,
-1.05,-3.50328,
-1.05,4.55,
0*%
%ADD13C,0.12*%
%ADD29R,0.8X1.2*%
%ADD36C,1.5*%
%ADD40R,1.05X1.1*%
%ADD48R,1.1X1.05*%
%ADD55OUTLINE1*%
%ADD58OUTLINE4*%
%ADD61OUTLINE7*%
%ADD64OUTLINE10*%
%ADD67OUTLINE13*%
%ADD70OUTLINE16*%
%FSLAX35Y35*%
G04*
G71*
G90*
G75*
G01*
G04 TopMask*
%LPD*%
D48*
X-5843100Y-6705350D3*
Y-6865350D3*
D29*
X-2618900Y-2266400D3*
X-2798900D3*
X-4035600Y-6519627D3*
X-4215600D3*
X-2000200D3*
X-2180200D3*
X-1677800Y-6524673D3*
X-1497800D3*
X-676300Y-2267400D3*
X-856300D3*
D55*
X-6128800Y-6796900D3*
X-6587300D3*
D58*
X-6358800Y-6122400D3*
D61*
X-5631100Y-6181200D3*
Y-6526200D3*
D64*
X-3632500Y-3597900D3*
D67*
X-3000500D3*
D64*
X-4992100Y-5189800D3*
D67*
X-4360100D3*
D64*
X-3026700Y-7866900D3*
D67*
X-2394700D3*
X-675300Y-5190800D3*
D64*
X-1307300D3*
X-1660900Y-931300D3*
D67*
X-1028900D3*
X-3000500Y-1817900D3*
D64*
X-3632500D3*
D67*
X-4360100Y-6969800D3*
D64*
X-4992100D3*
D67*
X-2394700Y-6086900D3*
D64*
X-3026700D3*
X-1307300Y-6970800D3*
D67*
X-675300D3*
X-1028900Y-2711300D3*
D64*
X-1660900D3*
D67*
X-3000500Y-927900D3*
D64*
X-3632500D3*
D67*
X-4360100Y-7859800D3*
D64*
X-4992100D3*
D67*
X-2394700Y-5196900D3*
D64*
X-3026700D3*
X-1307300Y-7860800D3*
D67*
X-675300D3*
X-1028900Y-3601300D3*
D64*
X-1660900D3*
X-3632500Y-2707900D3*
D67*
X-3000500D3*
D64*
X-4992100Y-6079800D3*
D67*
X-4360100D3*
D64*
X-3026700Y-6976900D3*
D67*
X-2394700D3*
X-675300Y-6080800D3*
D64*
X-1307300D3*
X-1660900Y-1821300D3*
D67*
X-1028900D3*
D70*
X-5260000Y-9672000D3*
X-4865557D3*
X-4471110D3*
X-4076667D3*
X-3682223D3*
X-3287777D3*
X-2893333D3*
X-2498890D3*
X-2104443D3*
X-1710000D3*
G36*
X-5258050Y-8991400D2*
X-5243529Y-8992352D1*
X-5229256Y-8995191D1*
X-5215476Y-8999868D1*
X-5202425Y-9006305D1*
X-5190325Y-9014389D1*
X-5179384Y-9023984D1*
X-5169789Y-9034925D1*
X-5161705Y-9047025D1*
X-5155268Y-9060076D1*
X-5150591Y-9073856D1*
X-5147752Y-9088129D1*
X-5146800Y-9102650D1*
X-5147752Y-9117171D1*
X-5150591Y-9131444D1*
X-5155268Y-9145224D1*
X-5161705Y-9158275D1*
X-5169789Y-9170375D1*
X-5179384Y-9181316D1*
X-5190325Y-9190911D1*
X-5202425Y-9198995D1*
X-5215476Y-9205432D1*
X-5229256Y-9210109D1*
X-5243529Y-9212948D1*
X-5258050Y-9213900D1*
X-5260550D1*
X-5275071Y-9212948D1*
X-5289344Y-9210109D1*
X-5303124Y-9205432D1*
X-5316175Y-9198995D1*
X-5328275Y-9190911D1*
X-5339216Y-9181316D1*
X-5348811Y-9170375D1*
X-5356895Y-9158275D1*
X-5363332Y-9145224D1*
X-5368009Y-9131444D1*
X-5370848Y-9117171D1*
X-5371800Y-9102650D1*
X-5370848Y-9088129D1*
X-5368009Y-9073856D1*
X-5363332Y-9060076D1*
X-5356895Y-9047025D1*
X-5348811Y-9034925D1*
X-5339216Y-9023984D1*
X-5328275Y-9014389D1*
X-5316175Y-9006305D1*
X-5303124Y-8999868D1*
X-5289344Y-8995191D1*
X-5275071Y-8992352D1*
X-5260550Y-8991400D1*
X-5258050D1*
G37*
G36*
X-4751543Y-9105150D2*
X-4752495Y-9119671D1*
X-4755334Y-9133944D1*
X-4760012Y-9147724D1*
X-4766448Y-9160775D1*
X-4774533Y-9172875D1*
X-4784128Y-9183816D1*
X-4795069Y-9193411D1*
X-4807168Y-9201495D1*
X-4820220Y-9207932D1*
X-4834000Y-9212609D1*
X-4848272Y-9215448D1*
X-4862793Y-9216400D1*
X-4877314Y-9215448D1*
X-4891587Y-9212609D1*
X-4905367Y-9207932D1*
X-4918418Y-9201495D1*
X-4930518Y-9193411D1*
X-4941459Y-9183816D1*
X-4951054Y-9172875D1*
X-4959139Y-9160775D1*
X-4965575Y-9147724D1*
X-4970253Y-9133944D1*
X-4973092Y-9119671D1*
X-4974043Y-9105150D1*
Y-9102650D1*
X-4973092Y-9088129D1*
X-4970253Y-9073856D1*
X-4965575Y-9060076D1*
X-4959139Y-9047025D1*
X-4951054Y-9034925D1*
X-4941459Y-9023984D1*
X-4930518Y-9014389D1*
X-4918418Y-9006305D1*
X-4905367Y-8999868D1*
X-4891587Y-8995191D1*
X-4877314Y-8992352D1*
X-4862793Y-8991400D1*
X-4848272Y-8992352D1*
X-4834000Y-8995191D1*
X-4820220Y-8999868D1*
X-4807168Y-9006305D1*
X-4795069Y-9014389D1*
X-4784128Y-9023984D1*
X-4774533Y-9034925D1*
X-4766448Y-9047025D1*
X-4760012Y-9060076D1*
X-4755334Y-9073856D1*
X-4752495Y-9088129D1*
X-4751543Y-9102650D1*
Y-9105150D1*
G37*
G36*
X-4356290D2*
X-4357242Y-9119671D1*
X-4360081Y-9133944D1*
X-4364758Y-9147724D1*
X-4371195Y-9160775D1*
X-4379279Y-9172875D1*
X-4388874Y-9183816D1*
X-4399815Y-9193411D1*
X-4411915Y-9201495D1*
X-4424966Y-9207932D1*
X-4438746Y-9212609D1*
X-4453019Y-9215448D1*
X-4467540Y-9216400D1*
X-4482061Y-9215448D1*
X-4496334Y-9212609D1*
X-4510114Y-9207932D1*
X-4523165Y-9201495D1*
X-4535265Y-9193411D1*
X-4546206Y-9183816D1*
X-4555801Y-9172875D1*
X-4563885Y-9160775D1*
X-4570322Y-9147724D1*
X-4574999Y-9133944D1*
X-4577838Y-9119671D1*
X-4578790Y-9105150D1*
Y-9102650D1*
X-4577838Y-9088129D1*
X-4574999Y-9073856D1*
X-4570322Y-9060076D1*
X-4563885Y-9047025D1*
X-4555801Y-9034925D1*
X-4546206Y-9023984D1*
X-4535265Y-9014389D1*
X-4523165Y-9006305D1*
X-4510114Y-8999868D1*
X-4496334Y-8995191D1*
X-4482061Y-8992352D1*
X-4467540Y-8991400D1*
X-4453019Y-8992352D1*
X-4438746Y-8995191D1*
X-4424966Y-8999868D1*
X-4411915Y-9006305D1*
X-4399815Y-9014389D1*
X-4388874Y-9023984D1*
X-4379279Y-9034925D1*
X-4371195Y-9047025D1*
X-4364758Y-9060076D1*
X-4360081Y-9073856D1*
X-4357242Y-9088129D1*
X-4356290Y-9102650D1*
Y-9105150D1*
G37*
G36*
X-3961033D2*
X-3961985Y-9119671D1*
X-3964824Y-9133944D1*
X-3969502Y-9147724D1*
X-3975938Y-9160775D1*
X-3984023Y-9172875D1*
X-3993618Y-9183816D1*
X-4004559Y-9193411D1*
X-4016658Y-9201495D1*
X-4029710Y-9207932D1*
X-4043490Y-9212609D1*
X-4057762Y-9215448D1*
X-4072283Y-9216400D1*
X-4086804Y-9215448D1*
X-4101077Y-9212609D1*
X-4114857Y-9207932D1*
X-4127908Y-9201495D1*
X-4140008Y-9193411D1*
X-4150949Y-9183816D1*
X-4160544Y-9172875D1*
X-4168629Y-9160775D1*
X-4175065Y-9147724D1*
X-4179743Y-9133944D1*
X-4182582Y-9119671D1*
X-4183533Y-9105150D1*
Y-9102650D1*
X-4182582Y-9088129D1*
X-4179743Y-9073856D1*
X-4175065Y-9060076D1*
X-4168629Y-9047025D1*
X-4160544Y-9034925D1*
X-4150949Y-9023984D1*
X-4140008Y-9014389D1*
X-4127908Y-9006305D1*
X-4114857Y-8999868D1*
X-4101077Y-8995191D1*
X-4086804Y-8992352D1*
X-4072283Y-8991400D1*
X-4057762Y-8992352D1*
X-4043490Y-8995191D1*
X-4029710Y-8999868D1*
X-4016658Y-9006305D1*
X-4004559Y-9014389D1*
X-3993618Y-9023984D1*
X-3984023Y-9034925D1*
X-3975938Y-9047025D1*
X-3969502Y-9060076D1*
X-3964824Y-9073856D1*
X-3961985Y-9088129D1*
X-3961033Y-9102650D1*
Y-9105150D1*
G37*
G36*
X-3677027Y-8991400D2*
X-3662506Y-8992352D1*
X-3648233Y-8995191D1*
X-3634453Y-8999868D1*
X-3621402Y-9006305D1*
X-3609302Y-9014389D1*
X-3598361Y-9023984D1*
X-3588766Y-9034925D1*
X-3580681Y-9047025D1*
X-3574245Y-9060076D1*
X-3569567Y-9073856D1*
X-3566728Y-9088129D1*
X-3565777Y-9102650D1*
X-3566728Y-9117171D1*
X-3569567Y-9131444D1*
X-3574245Y-9145224D1*
X-3580681Y-9158275D1*
X-3588766Y-9170375D1*
X-3598361Y-9181316D1*
X-3609302Y-9190911D1*
X-3621402Y-9198995D1*
X-3634453Y-9205432D1*
X-3648233Y-9210109D1*
X-3662506Y-9212948D1*
X-3677027Y-9213900D1*
X-3679527D1*
X-3694048Y-9212948D1*
X-3708320Y-9210109D1*
X-3722100Y-9205432D1*
X-3735152Y-9198995D1*
X-3747251Y-9190911D1*
X-3758192Y-9181316D1*
X-3767787Y-9170375D1*
X-3775872Y-9158275D1*
X-3782308Y-9145224D1*
X-3786986Y-9131444D1*
X-3789825Y-9117171D1*
X-3790777Y-9102650D1*
X-3789825Y-9088129D1*
X-3786986Y-9073856D1*
X-3782308Y-9060076D1*
X-3775872Y-9047025D1*
X-3767787Y-9034925D1*
X-3758192Y-9023984D1*
X-3747251Y-9014389D1*
X-3735152Y-9006305D1*
X-3722100Y-8999868D1*
X-3708320Y-8995191D1*
X-3694048Y-8992352D1*
X-3679527Y-8991400D1*
X-3677027D1*
G37*
G36*
X-3281773D2*
X-3267252Y-8992352D1*
X-3252980Y-8995191D1*
X-3239200Y-8999868D1*
X-3226148Y-9006305D1*
X-3214049Y-9014389D1*
X-3203108Y-9023984D1*
X-3193513Y-9034925D1*
X-3185428Y-9047025D1*
X-3178992Y-9060076D1*
X-3174314Y-9073856D1*
X-3171475Y-9088129D1*
X-3170523Y-9102650D1*
X-3171475Y-9117171D1*
X-3174314Y-9131444D1*
X-3178992Y-9145224D1*
X-3185428Y-9158275D1*
X-3193513Y-9170375D1*
X-3203108Y-9181316D1*
X-3214049Y-9190911D1*
X-3226148Y-9198995D1*
X-3239200Y-9205432D1*
X-3252980Y-9210109D1*
X-3267252Y-9212948D1*
X-3281773Y-9213900D1*
X-3284273D1*
X-3298794Y-9212948D1*
X-3313067Y-9210109D1*
X-3326847Y-9205432D1*
X-3339898Y-9198995D1*
X-3351998Y-9190911D1*
X-3362939Y-9181316D1*
X-3372534Y-9170375D1*
X-3380619Y-9158275D1*
X-3387055Y-9145224D1*
X-3391733Y-9131444D1*
X-3394572Y-9117171D1*
X-3395523Y-9102650D1*
X-3394572Y-9088129D1*
X-3391733Y-9073856D1*
X-3387055Y-9060076D1*
X-3380619Y-9047025D1*
X-3372534Y-9034925D1*
X-3362939Y-9023984D1*
X-3351998Y-9014389D1*
X-3339898Y-9006305D1*
X-3326847Y-8999868D1*
X-3313067Y-8995191D1*
X-3298794Y-8992352D1*
X-3284273Y-8991400D1*
X-3281773D1*
G37*
G36*
X-2777267Y-9105150D2*
X-2778218Y-9119671D1*
X-2781057Y-9133944D1*
X-2785735Y-9147724D1*
X-2792171Y-9160775D1*
X-2800256Y-9172875D1*
X-2809851Y-9183816D1*
X-2820792Y-9193411D1*
X-2832892Y-9201495D1*
X-2845943Y-9207932D1*
X-2859723Y-9212609D1*
X-2873996Y-9215448D1*
X-2888517Y-9216400D1*
X-2903038Y-9215448D1*
X-2917310Y-9212609D1*
X-2931090Y-9207932D1*
X-2944142Y-9201495D1*
X-2956241Y-9193411D1*
X-2967182Y-9183816D1*
X-2976777Y-9172875D1*
X-2984862Y-9160775D1*
X-2991298Y-9147724D1*
X-2995976Y-9133944D1*
X-2998815Y-9119671D1*
X-2999767Y-9105150D1*
Y-9102650D1*
X-2998815Y-9088129D1*
X-2995976Y-9073856D1*
X-2991298Y-9060076D1*
X-2984862Y-9047025D1*
X-2976777Y-9034925D1*
X-2967182Y-9023984D1*
X-2956241Y-9014389D1*
X-2944142Y-9006305D1*
X-2931090Y-8999868D1*
X-2917310Y-8995191D1*
X-2903038Y-8992352D1*
X-2888517Y-8991400D1*
X-2873996Y-8992352D1*
X-2859723Y-8995191D1*
X-2845943Y-8999868D1*
X-2832892Y-9006305D1*
X-2820792Y-9014389D1*
X-2809851Y-9023984D1*
X-2800256Y-9034925D1*
X-2792171Y-9047025D1*
X-2785735Y-9060076D1*
X-2781057Y-9073856D1*
X-2778218Y-9088129D1*
X-2777267Y-9102650D1*
Y-9105150D1*
G37*
G36*
X-2380010D2*
X-2380962Y-9119671D1*
X-2383801Y-9133944D1*
X-2388478Y-9147724D1*
X-2394915Y-9160775D1*
X-2402999Y-9172875D1*
X-2412594Y-9183816D1*
X-2423535Y-9193411D1*
X-2435635Y-9201495D1*
X-2448686Y-9207932D1*
X-2462466Y-9212609D1*
X-2476739Y-9215448D1*
X-2491260Y-9216400D1*
X-2505781Y-9215448D1*
X-2520054Y-9212609D1*
X-2533834Y-9207932D1*
X-2546885Y-9201495D1*
X-2558985Y-9193411D1*
X-2569926Y-9183816D1*
X-2579521Y-9172875D1*
X-2587605Y-9160775D1*
X-2594042Y-9147724D1*
X-2598719Y-9133944D1*
X-2601558Y-9119671D1*
X-2602510Y-9105150D1*
Y-9102650D1*
X-2601558Y-9088129D1*
X-2598719Y-9073856D1*
X-2594042Y-9060076D1*
X-2587605Y-9047025D1*
X-2579521Y-9034925D1*
X-2569926Y-9023984D1*
X-2558985Y-9014389D1*
X-2546885Y-9006305D1*
X-2533834Y-8999868D1*
X-2520054Y-8995191D1*
X-2505781Y-8992352D1*
X-2491260Y-8991400D1*
X-2476739Y-8992352D1*
X-2462466Y-8995191D1*
X-2448686Y-8999868D1*
X-2435635Y-9006305D1*
X-2423535Y-9014389D1*
X-2412594Y-9023984D1*
X-2402999Y-9034925D1*
X-2394915Y-9047025D1*
X-2388478Y-9060076D1*
X-2383801Y-9073856D1*
X-2380962Y-9088129D1*
X-2380010Y-9102650D1*
Y-9105150D1*
G37*
G36*
X-1984757D2*
X-1985708Y-9119671D1*
X-1988547Y-9133944D1*
X-1993225Y-9147724D1*
X-1999661Y-9160775D1*
X-2007746Y-9172875D1*
X-2017341Y-9183816D1*
X-2028282Y-9193411D1*
X-2040382Y-9201495D1*
X-2053433Y-9207932D1*
X-2067213Y-9212609D1*
X-2081486Y-9215448D1*
X-2096007Y-9216400D1*
X-2110528Y-9215448D1*
X-2124800Y-9212609D1*
X-2138580Y-9207932D1*
X-2151632Y-9201495D1*
X-2163731Y-9193411D1*
X-2174672Y-9183816D1*
X-2184267Y-9172875D1*
X-2192352Y-9160775D1*
X-2198788Y-9147724D1*
X-2203466Y-9133944D1*
X-2206305Y-9119671D1*
X-2207257Y-9105150D1*
Y-9102650D1*
X-2206305Y-9088129D1*
X-2203466Y-9073856D1*
X-2198788Y-9060076D1*
X-2192352Y-9047025D1*
X-2184267Y-9034925D1*
X-2174672Y-9023984D1*
X-2163731Y-9014389D1*
X-2151632Y-9006305D1*
X-2138580Y-8999868D1*
X-2124800Y-8995191D1*
X-2110528Y-8992352D1*
X-2096007Y-8991400D1*
X-2081486Y-8992352D1*
X-2067213Y-8995191D1*
X-2053433Y-8999868D1*
X-2040382Y-9006305D1*
X-2028282Y-9014389D1*
X-2017341Y-9023984D1*
X-2007746Y-9034925D1*
X-1999661Y-9047025D1*
X-1993225Y-9060076D1*
X-1988547Y-9073856D1*
X-1985708Y-9088129D1*
X-1984757Y-9102650D1*
Y-9105150D1*
G37*
G36*
X-1589500D2*
X-1590452Y-9119671D1*
X-1593291Y-9133944D1*
X-1597968Y-9147724D1*
X-1604405Y-9160775D1*
X-1612489Y-9172875D1*
X-1622084Y-9183816D1*
X-1633025Y-9193411D1*
X-1645125Y-9201495D1*
X-1658176Y-9207932D1*
X-1671956Y-9212609D1*
X-1686229Y-9215448D1*
X-1700750Y-9216400D1*
X-1715271Y-9215448D1*
X-1729544Y-9212609D1*
X-1743324Y-9207932D1*
X-1756375Y-9201495D1*
X-1768475Y-9193411D1*
X-1779416Y-9183816D1*
X-1789011Y-9172875D1*
X-1797095Y-9160775D1*
X-1803532Y-9147724D1*
X-1808209Y-9133944D1*
X-1811048Y-9119671D1*
X-1812000Y-9105150D1*
Y-9102650D1*
X-1811048Y-9088129D1*
X-1808209Y-9073856D1*
X-1803532Y-9060076D1*
X-1797095Y-9047025D1*
X-1789011Y-9034925D1*
X-1779416Y-9023984D1*
X-1768475Y-9014389D1*
X-1756375Y-9006305D1*
X-1743324Y-8999868D1*
X-1729544Y-8995191D1*
X-1715271Y-8992352D1*
X-1700750Y-8991400D1*
X-1686229Y-8992352D1*
X-1671956Y-8995191D1*
X-1658176Y-8999868D1*
X-1645125Y-9006305D1*
X-1633025Y-9014389D1*
X-1622084Y-9023984D1*
X-1612489Y-9034925D1*
X-1604405Y-9047025D1*
X-1597968Y-9060076D1*
X-1593291Y-9073856D1*
X-1590452Y-9088129D1*
X-1589500Y-9102650D1*
Y-9105150D1*
G37*
D48*
X-5631150Y-6865350D3*
Y-6705350D3*
D40*
X-3781800Y-2265300D3*
X-3941800D3*
X-5238150Y-6414800D3*
X-5078150D3*
X-3356800Y-6547050D3*
X-3516800D3*
X-409500Y-6522150D3*
X-569500D3*
X-1901900Y-2263200D3*
X-1741900D3*
D48*
X-5419200Y-6865350D3*
Y-6705350D3*
X-7587772Y-1771240D2*
D13*
X-6124283Y-3234729D1*
X-4285848Y-1396294D1*
X-5749337Y67196D1*
X-7587772Y-1771240D1*
D36*
X-6205600Y-1783100D3*
G36*
X-9239700Y1381900D2*
X291500D1*
Y-10622600D1*
X-9239700D1*
Y1381900D1*
G37*
M02*
