G04 DipTrace 4.3.0.5*
G04 TopPaste.gbr*
%MOMM*%
G04 #@! TF.FileFunction,Paste,Top*
G04 #@! TF.Part,Single*
%AMOUTLINE2*
4,1,28,
-0.75,-1.18176,
-0.75,1.18176,
-0.74055,1.25351,
-0.71413,1.3173,
-0.67209,1.37209,
-0.6173,1.41413,
-0.55351,1.44055,
-0.48176,1.45,
0.48176,1.45,
0.55351,1.44055,
0.6173,1.41413,
0.67209,1.37209,
0.71413,1.3173,
0.74055,1.25351,
0.75,1.18176,
0.75,-1.18176,
0.74055,-1.25351,
0.71413,-1.3173,
0.67209,-1.37209,
0.6173,-1.41413,
0.55351,-1.44055,
0.48176,-1.45,
-0.48176,-1.45,
-0.55351,-1.44055,
-0.6173,-1.41413,
-0.67209,-1.37209,
-0.71413,-1.3173,
-0.74055,-1.25351,
-0.75,-1.18176,
0*%
%AMOUTLINE8*
4,1,28,
0.75,0.37297,
0.75,-0.37297,
0.74281,-0.42758,
0.723,-0.47541,
0.69148,-0.51648,
0.65041,-0.548,
0.60258,-0.56781,
0.54797,-0.575,
-0.54797,-0.575,
-0.60258,-0.56781,
-0.65041,-0.548,
-0.69148,-0.51648,
-0.723,-0.47541,
-0.74281,-0.42758,
-0.75,-0.37297,
-0.75,0.37297,
-0.74281,0.42758,
-0.723,0.47541,
-0.69148,0.51648,
-0.65041,0.548,
-0.60258,0.56781,
-0.54797,0.575,
0.54797,0.575,
0.60258,0.56781,
0.65041,0.548,
0.69148,0.51648,
0.723,0.47541,
0.74281,0.42758,
0.75,0.37297,
0*%
%AMOUTLINE11*
4,1,28,
0.8,1.5307,
0.8,-1.5307,
0.79563,-1.5639,
0.78408,-1.59177,
0.76571,-1.61571,
0.74177,-1.63408,
0.7139,-1.64563,
0.6807,-1.65,
-0.6807,-1.65,
-0.7139,-1.64563,
-0.74177,-1.63408,
-0.76571,-1.61571,
-0.78408,-1.59177,
-0.79563,-1.5639,
-0.8,-1.5307,
-0.8,1.5307,
-0.79563,1.5639,
-0.78408,1.59177,
-0.76571,1.61571,
-0.74177,1.63408,
-0.7139,1.64563,
-0.6807,1.65,
0.6807,1.65,
0.7139,1.64563,
0.74177,1.63408,
0.76571,1.61571,
0.78408,1.59177,
0.79563,1.5639,
0.8,1.5307,
0*%
%AMOUTLINE14*
4,1,28,
-0.8,-1.5307,
-0.8,1.5307,
-0.79563,1.5639,
-0.78408,1.59177,
-0.76571,1.61571,
-0.74177,1.63408,
-0.7139,1.64563,
-0.6807,1.65,
0.6807,1.65,
0.7139,1.64563,
0.74177,1.63408,
0.76571,1.61571,
0.78408,1.59177,
0.79563,1.5639,
0.8,1.5307,
0.8,-1.5307,
0.79563,-1.5639,
0.78408,-1.59177,
0.76571,-1.61571,
0.74177,-1.63408,
0.7139,-1.64563,
0.6807,-1.65,
-0.6807,-1.65,
-0.7139,-1.64563,
-0.74177,-1.63408,
-0.76571,-1.61571,
-0.78408,-1.59177,
-0.79563,-1.5639,
-0.8,-1.5307,
0*%
%AMOUTLINE17*
4,1,15,
-0.95,4.45,
0.95,4.45,
0.95,-3.49672,
0.91721,-3.74577,
0.82235,-3.97478,
0.67145,-4.17145,
0.47478,-4.32235,
0.24577,-4.41721,
0.0,-4.44957,
-0.24577,-4.41721,
-0.47478,-4.32235,
-0.67145,-4.17145,
-0.82235,-3.97478,
-0.91721,-3.74577,
-0.95,-3.49672,
-0.95,4.45,
0*%
%ADD29R,0.8X1.2*%
%ADD41R,0.85X0.9*%
%ADD49R,0.9X0.85*%
%ADD56OUTLINE2*%
%ADD62OUTLINE8*%
%ADD65OUTLINE11*%
%ADD68OUTLINE14*%
%ADD71OUTLINE17*%
%FSLAX35Y35*%
G04*
G71*
G90*
G75*
G01*
G04 TopPaste*
%LPD*%
D49*
X-5843100Y-6705350D3*
Y-6865350D3*
D29*
X-2618900Y-2266400D3*
X-2798900D3*
X-4035600Y-6519627D3*
X-4215600D3*
X-2000200D3*
X-2180200D3*
X-1677800Y-6524673D3*
X-1497800D3*
X-676300Y-2267400D3*
X-856300D3*
D56*
X-6128800Y-6796900D3*
X-6587300D3*
G36*
X-6210800Y-5814900D2*
X-6048800D1*
Y-5974900D1*
X-6210800D1*
Y-5814900D1*
G37*
G36*
X-6439800D2*
X-6277800D1*
Y-5974900D1*
X-6439800D1*
Y-5814900D1*
G37*
G36*
X-6668800D2*
X-6506800D1*
Y-5974900D1*
X-6668800D1*
Y-5814900D1*
G37*
G36*
X-6210800Y-6042400D2*
X-6048800D1*
Y-6202400D1*
X-6210800D1*
Y-6042400D1*
G37*
G36*
X-6439800D2*
X-6277800D1*
Y-6202400D1*
X-6439800D1*
Y-6042400D1*
G37*
G36*
X-6668800D2*
X-6506800D1*
Y-6202400D1*
X-6668800D1*
Y-6042400D1*
G37*
G36*
X-6210800Y-6269900D2*
X-6048800D1*
Y-6429900D1*
X-6210800D1*
Y-6269900D1*
G37*
G36*
X-6439800D2*
X-6277800D1*
Y-6429900D1*
X-6439800D1*
Y-6269900D1*
G37*
G36*
X-6668800D2*
X-6506800D1*
Y-6429900D1*
X-6668800D1*
Y-6269900D1*
G37*
D62*
X-5631100Y-6181200D3*
Y-6526200D3*
D65*
X-3632500Y-3597900D3*
D68*
X-3000500D3*
D65*
X-4992100Y-5189800D3*
D68*
X-4360100D3*
D65*
X-3026700Y-7866900D3*
D68*
X-2394700D3*
X-675300Y-5190800D3*
D65*
X-1307300D3*
X-1660900Y-931300D3*
D68*
X-1028900D3*
X-3000500Y-1817900D3*
D65*
X-3632500D3*
D68*
X-4360100Y-6969800D3*
D65*
X-4992100D3*
D68*
X-2394700Y-6086900D3*
D65*
X-3026700D3*
X-1307300Y-6970800D3*
D68*
X-675300D3*
X-1028900Y-2711300D3*
D65*
X-1660900D3*
D68*
X-3000500Y-927900D3*
D65*
X-3632500D3*
D68*
X-4360100Y-7859800D3*
D65*
X-4992100D3*
D68*
X-2394700Y-5196900D3*
D65*
X-3026700D3*
X-1307300Y-7860800D3*
D68*
X-675300D3*
X-1028900Y-3601300D3*
D65*
X-1660900D3*
X-3632500Y-2707900D3*
D68*
X-3000500D3*
D65*
X-4992100Y-6079800D3*
D68*
X-4360100D3*
D65*
X-3026700Y-6976900D3*
D68*
X-2394700D3*
X-675300Y-6080800D3*
D65*
X-1307300D3*
X-1660900Y-1821300D3*
D68*
X-1028900D3*
D71*
X-5260000Y-9672000D3*
X-4865557D3*
X-4471110D3*
X-4076667D3*
X-3682223D3*
X-3287777D3*
X-2893333D3*
X-2498890D3*
X-2104443D3*
X-1710000D3*
D49*
X-5631150Y-6865350D3*
Y-6705350D3*
D41*
X-3781800Y-2265300D3*
X-3941800D3*
X-5238150Y-6414800D3*
X-5078150D3*
X-3356800Y-6547050D3*
X-3516800D3*
X-409500Y-6522150D3*
X-569500D3*
X-1901900Y-2263200D3*
X-1741900D3*
D49*
X-5419200Y-6865350D3*
Y-6705350D3*
M02*
