G04 DipTrace 4.3.0.5*
G04 TopSilk.gbr*
%MOMM*%
G04 #@! TF.FileFunction,Legend,Top*
G04 #@! TF.Part,Single*
%ADD10C,0.25*%
%ADD14C,0.05*%
%ADD24C,0.08*%
%ADD28C,0.1524*%
%ADD30C,0.15*%
%ADD50C,0.07843*%
%FSLAX35Y35*%
G04*
G71*
G90*
G75*
G01*
G04 TopSilk*
%LPD*%
X-5768100Y-6630350D2*
D24*
X-5918100D1*
Y-6940350D1*
X-5768100D1*
Y-6630350D1*
X-5891100Y-6759350D2*
D14*
Y-6812350D1*
X-5795100Y-6759350D2*
Y-6812350D1*
X-2582433Y-2341210D2*
D28*
X-2837633Y-2341587D1*
X-2584837Y-2192583D2*
X-2833113Y-2192507D1*
X-3999133Y-6594437D2*
X-4254333Y-6594813D1*
X-4001537Y-6445810D2*
X-4249813Y-6445733D1*
X-1963733Y-6594437D2*
X-2218933Y-6594813D1*
X-1966137Y-6445810D2*
X-2214413Y-6445733D1*
X-1714267Y-6449863D2*
X-1459067Y-6449487D1*
X-1711863Y-6598490D2*
X-1463587Y-6598567D1*
X-639833Y-2342210D2*
X-895033Y-2342587D1*
X-642237Y-2193583D2*
X-890513Y-2193507D1*
X-6714300Y-6479907D2*
D30*
Y-6622570D1*
X-6678400D1*
G36*
X-6739800Y-6832930D2*
X-6739586Y-6829667D1*
X-6738948Y-6826460D1*
X-6737897Y-6823363D1*
X-6736451Y-6820430D1*
X-6734634Y-6817711D1*
X-6732478Y-6815252D1*
X-6730019Y-6813096D1*
X-6727300Y-6811279D1*
X-6724367Y-6809833D1*
X-6721270Y-6808782D1*
X-6718063Y-6808144D1*
X-6714800Y-6807930D1*
X-6711537Y-6808144D1*
X-6708330Y-6808782D1*
X-6705233Y-6809833D1*
X-6702300Y-6811279D1*
X-6699581Y-6813096D1*
X-6697122Y-6815252D1*
X-6694966Y-6817711D1*
X-6693149Y-6820430D1*
X-6691703Y-6823363D1*
X-6690652Y-6826460D1*
X-6690014Y-6829667D1*
X-6689800Y-6832930D1*
D1*
X-6690014Y-6836193D1*
X-6690652Y-6839400D1*
X-6691703Y-6842497D1*
X-6693149Y-6845430D1*
X-6694966Y-6848149D1*
X-6697122Y-6850608D1*
X-6699581Y-6852764D1*
X-6702300Y-6854581D1*
X-6705233Y-6856027D1*
X-6708330Y-6857078D1*
X-6711537Y-6857716D1*
X-6714800Y-6857930D1*
X-6718063Y-6857716D1*
X-6721270Y-6857078D1*
X-6724367Y-6856027D1*
X-6727300Y-6854581D1*
X-6730019Y-6852764D1*
X-6732478Y-6850608D1*
X-6734634Y-6848149D1*
X-6736451Y-6845430D1*
X-6737897Y-6842497D1*
X-6738948Y-6839400D1*
X-6739586Y-6836193D1*
X-6739800Y-6832930D1*
D1*
G37*
X-6521700Y-6622570D2*
D30*
X-6195900D1*
X-6039200D2*
X-6003300D1*
Y-6479907D1*
X-5543600Y-6283717D2*
D10*
Y-6423683D1*
X-5551100Y-6283670D2*
X-5716100Y-6283717D1*
Y-6423683D1*
X-5543600Y-6303670D2*
X-5706100Y-6303700D1*
X-2911500Y-3376900D2*
D30*
Y-3342900D1*
X-3721500D1*
Y-3376900D1*
X-2911500Y-3818900D2*
Y-3852900D1*
X-3721500D1*
Y-3818900D1*
G36*
X-3833500Y-3597900D2*
X-3833286Y-3594637D1*
X-3832648Y-3591430D1*
X-3831597Y-3588333D1*
X-3830151Y-3585400D1*
X-3828334Y-3582681D1*
X-3826178Y-3580222D1*
X-3823719Y-3578066D1*
X-3821000Y-3576249D1*
X-3818067Y-3574803D1*
X-3814970Y-3573752D1*
X-3811763Y-3573114D1*
X-3808500Y-3572900D1*
X-3805237Y-3573114D1*
X-3802030Y-3573752D1*
X-3798933Y-3574803D1*
X-3796000Y-3576249D1*
X-3793281Y-3578066D1*
X-3790822Y-3580222D1*
X-3788666Y-3582681D1*
X-3786849Y-3585400D1*
X-3785403Y-3588333D1*
X-3784352Y-3591430D1*
X-3783714Y-3594637D1*
X-3783500Y-3597900D1*
D1*
X-3783714Y-3601163D1*
X-3784352Y-3604370D1*
X-3785403Y-3607467D1*
X-3786849Y-3610400D1*
X-3788666Y-3613119D1*
X-3790822Y-3615578D1*
X-3793281Y-3617734D1*
X-3796000Y-3619551D1*
X-3798933Y-3620997D1*
X-3802030Y-3622048D1*
X-3805237Y-3622686D1*
X-3808500Y-3622900D1*
X-3811763Y-3622686D1*
X-3814970Y-3622048D1*
X-3818067Y-3620997D1*
X-3821000Y-3619551D1*
X-3823719Y-3617734D1*
X-3826178Y-3615578D1*
X-3828334Y-3613119D1*
X-3830151Y-3610400D1*
X-3831597Y-3607467D1*
X-3832648Y-3604370D1*
X-3833286Y-3601163D1*
X-3833500Y-3597900D1*
D1*
G37*
X-4271100Y-4968800D2*
D30*
Y-4934800D1*
X-5081100D1*
Y-4968800D1*
X-4271100Y-5410800D2*
Y-5444800D1*
X-5081100D1*
Y-5410800D1*
G36*
X-5193100Y-5189800D2*
X-5192886Y-5186537D1*
X-5192248Y-5183330D1*
X-5191197Y-5180233D1*
X-5189751Y-5177300D1*
X-5187934Y-5174581D1*
X-5185778Y-5172122D1*
X-5183319Y-5169966D1*
X-5180600Y-5168149D1*
X-5177667Y-5166703D1*
X-5174570Y-5165652D1*
X-5171363Y-5165014D1*
X-5168100Y-5164800D1*
X-5164837Y-5165014D1*
X-5161630Y-5165652D1*
X-5158533Y-5166703D1*
X-5155600Y-5168149D1*
X-5152881Y-5169966D1*
X-5150422Y-5172122D1*
X-5148266Y-5174581D1*
X-5146449Y-5177300D1*
X-5145003Y-5180233D1*
X-5143952Y-5183330D1*
X-5143314Y-5186537D1*
X-5143100Y-5189800D1*
D1*
X-5143314Y-5193063D1*
X-5143952Y-5196270D1*
X-5145003Y-5199367D1*
X-5146449Y-5202300D1*
X-5148266Y-5205019D1*
X-5150422Y-5207478D1*
X-5152881Y-5209634D1*
X-5155600Y-5211451D1*
X-5158533Y-5212897D1*
X-5161630Y-5213948D1*
X-5164837Y-5214586D1*
X-5168100Y-5214800D1*
X-5171363Y-5214586D1*
X-5174570Y-5213948D1*
X-5177667Y-5212897D1*
X-5180600Y-5211451D1*
X-5183319Y-5209634D1*
X-5185778Y-5207478D1*
X-5187934Y-5205019D1*
X-5189751Y-5202300D1*
X-5191197Y-5199367D1*
X-5192248Y-5196270D1*
X-5192886Y-5193063D1*
X-5193100Y-5189800D1*
D1*
G37*
X-2305700Y-7645900D2*
D30*
Y-7611900D1*
X-3115700D1*
Y-7645900D1*
X-2305700Y-8087900D2*
Y-8121900D1*
X-3115700D1*
Y-8087900D1*
G36*
X-3227700Y-7866900D2*
X-3227486Y-7863637D1*
X-3226848Y-7860430D1*
X-3225797Y-7857333D1*
X-3224351Y-7854400D1*
X-3222534Y-7851681D1*
X-3220378Y-7849222D1*
X-3217919Y-7847066D1*
X-3215200Y-7845249D1*
X-3212267Y-7843803D1*
X-3209170Y-7842752D1*
X-3205963Y-7842114D1*
X-3202700Y-7841900D1*
X-3199437Y-7842114D1*
X-3196230Y-7842752D1*
X-3193133Y-7843803D1*
X-3190200Y-7845249D1*
X-3187481Y-7847066D1*
X-3185022Y-7849222D1*
X-3182866Y-7851681D1*
X-3181049Y-7854400D1*
X-3179603Y-7857333D1*
X-3178552Y-7860430D1*
X-3177914Y-7863637D1*
X-3177700Y-7866900D1*
D1*
X-3177914Y-7870163D1*
X-3178552Y-7873370D1*
X-3179603Y-7876467D1*
X-3181049Y-7879400D1*
X-3182866Y-7882119D1*
X-3185022Y-7884578D1*
X-3187481Y-7886734D1*
X-3190200Y-7888551D1*
X-3193133Y-7889997D1*
X-3196230Y-7891048D1*
X-3199437Y-7891686D1*
X-3202700Y-7891900D1*
X-3205963Y-7891686D1*
X-3209170Y-7891048D1*
X-3212267Y-7889997D1*
X-3215200Y-7888551D1*
X-3217919Y-7886734D1*
X-3220378Y-7884578D1*
X-3222534Y-7882119D1*
X-3224351Y-7879400D1*
X-3225797Y-7876467D1*
X-3226848Y-7873370D1*
X-3227486Y-7870163D1*
X-3227700Y-7866900D1*
D1*
G37*
X-1396300Y-5411800D2*
D30*
Y-5445800D1*
X-586300D1*
Y-5411800D1*
X-1396300Y-4969800D2*
Y-4935800D1*
X-586300D1*
Y-4969800D1*
G36*
X-474300Y-5190800D2*
X-474514Y-5194063D1*
X-475152Y-5197270D1*
X-476203Y-5200367D1*
X-477649Y-5203300D1*
X-479466Y-5206019D1*
X-481622Y-5208478D1*
X-484081Y-5210634D1*
X-486800Y-5212451D1*
X-489733Y-5213897D1*
X-492830Y-5214948D1*
X-496037Y-5215586D1*
X-499300Y-5215800D1*
X-502563Y-5215586D1*
X-505770Y-5214948D1*
X-508867Y-5213897D1*
X-511800Y-5212451D1*
X-514519Y-5210634D1*
X-516978Y-5208478D1*
X-519134Y-5206019D1*
X-520951Y-5203300D1*
X-522397Y-5200367D1*
X-523448Y-5197270D1*
X-524086Y-5194063D1*
X-524300Y-5190800D1*
D1*
X-524086Y-5187537D1*
X-523448Y-5184330D1*
X-522397Y-5181233D1*
X-520951Y-5178300D1*
X-519134Y-5175581D1*
X-516978Y-5173122D1*
X-514519Y-5170966D1*
X-511800Y-5169149D1*
X-508867Y-5167703D1*
X-505770Y-5166652D1*
X-502563Y-5166014D1*
X-499300Y-5165800D1*
X-496037Y-5166014D1*
X-492830Y-5166652D1*
X-489733Y-5167703D1*
X-486800Y-5169149D1*
X-484081Y-5170966D1*
X-481622Y-5173122D1*
X-479466Y-5175581D1*
X-477649Y-5178300D1*
X-476203Y-5181233D1*
X-475152Y-5184330D1*
X-474514Y-5187537D1*
X-474300Y-5190800D1*
D1*
G37*
X-939900Y-710300D2*
D30*
Y-676300D1*
X-1749900D1*
Y-710300D1*
X-939900Y-1152300D2*
Y-1186300D1*
X-1749900D1*
Y-1152300D1*
G36*
X-1861900Y-931300D2*
X-1861686Y-928037D1*
X-1861048Y-924830D1*
X-1859997Y-921733D1*
X-1858551Y-918800D1*
X-1856734Y-916081D1*
X-1854578Y-913622D1*
X-1852119Y-911466D1*
X-1849400Y-909649D1*
X-1846467Y-908203D1*
X-1843370Y-907152D1*
X-1840163Y-906514D1*
X-1836900Y-906300D1*
X-1833637Y-906514D1*
X-1830430Y-907152D1*
X-1827333Y-908203D1*
X-1824400Y-909649D1*
X-1821681Y-911466D1*
X-1819222Y-913622D1*
X-1817066Y-916081D1*
X-1815249Y-918800D1*
X-1813803Y-921733D1*
X-1812752Y-924830D1*
X-1812114Y-928037D1*
X-1811900Y-931300D1*
D1*
X-1812114Y-934563D1*
X-1812752Y-937770D1*
X-1813803Y-940867D1*
X-1815249Y-943800D1*
X-1817066Y-946519D1*
X-1819222Y-948978D1*
X-1821681Y-951134D1*
X-1824400Y-952951D1*
X-1827333Y-954397D1*
X-1830430Y-955448D1*
X-1833637Y-956086D1*
X-1836900Y-956300D1*
X-1840163Y-956086D1*
X-1843370Y-955448D1*
X-1846467Y-954397D1*
X-1849400Y-952951D1*
X-1852119Y-951134D1*
X-1854578Y-948978D1*
X-1856734Y-946519D1*
X-1858551Y-943800D1*
X-1859997Y-940867D1*
X-1861048Y-937770D1*
X-1861686Y-934563D1*
X-1861900Y-931300D1*
D1*
G37*
X-3721500Y-2038900D2*
D30*
Y-2072900D1*
X-2911500D1*
Y-2038900D1*
X-3721500Y-1596900D2*
Y-1562900D1*
X-2911500D1*
Y-1596900D1*
G36*
X-2799500Y-1817900D2*
X-2799714Y-1821163D1*
X-2800352Y-1824370D1*
X-2801403Y-1827467D1*
X-2802849Y-1830400D1*
X-2804666Y-1833119D1*
X-2806822Y-1835578D1*
X-2809281Y-1837734D1*
X-2812000Y-1839551D1*
X-2814933Y-1840997D1*
X-2818030Y-1842048D1*
X-2821237Y-1842686D1*
X-2824500Y-1842900D1*
X-2827763Y-1842686D1*
X-2830970Y-1842048D1*
X-2834067Y-1840997D1*
X-2837000Y-1839551D1*
X-2839719Y-1837734D1*
X-2842178Y-1835578D1*
X-2844334Y-1833119D1*
X-2846151Y-1830400D1*
X-2847597Y-1827467D1*
X-2848648Y-1824370D1*
X-2849286Y-1821163D1*
X-2849500Y-1817900D1*
D1*
X-2849286Y-1814637D1*
X-2848648Y-1811430D1*
X-2847597Y-1808333D1*
X-2846151Y-1805400D1*
X-2844334Y-1802681D1*
X-2842178Y-1800222D1*
X-2839719Y-1798066D1*
X-2837000Y-1796249D1*
X-2834067Y-1794803D1*
X-2830970Y-1793752D1*
X-2827763Y-1793114D1*
X-2824500Y-1792900D1*
X-2821237Y-1793114D1*
X-2818030Y-1793752D1*
X-2814933Y-1794803D1*
X-2812000Y-1796249D1*
X-2809281Y-1798066D1*
X-2806822Y-1800222D1*
X-2804666Y-1802681D1*
X-2802849Y-1805400D1*
X-2801403Y-1808333D1*
X-2800352Y-1811430D1*
X-2799714Y-1814637D1*
X-2799500Y-1817900D1*
D1*
G37*
X-5081100Y-7190800D2*
D30*
Y-7224800D1*
X-4271100D1*
Y-7190800D1*
X-5081100Y-6748800D2*
Y-6714800D1*
X-4271100D1*
Y-6748800D1*
G36*
X-4159100Y-6969800D2*
X-4159314Y-6973063D1*
X-4159952Y-6976270D1*
X-4161003Y-6979367D1*
X-4162449Y-6982300D1*
X-4164266Y-6985019D1*
X-4166422Y-6987478D1*
X-4168881Y-6989634D1*
X-4171600Y-6991451D1*
X-4174533Y-6992897D1*
X-4177630Y-6993948D1*
X-4180837Y-6994586D1*
X-4184100Y-6994800D1*
X-4187363Y-6994586D1*
X-4190570Y-6993948D1*
X-4193667Y-6992897D1*
X-4196600Y-6991451D1*
X-4199319Y-6989634D1*
X-4201778Y-6987478D1*
X-4203934Y-6985019D1*
X-4205751Y-6982300D1*
X-4207197Y-6979367D1*
X-4208248Y-6976270D1*
X-4208886Y-6973063D1*
X-4209100Y-6969800D1*
D1*
X-4208886Y-6966537D1*
X-4208248Y-6963330D1*
X-4207197Y-6960233D1*
X-4205751Y-6957300D1*
X-4203934Y-6954581D1*
X-4201778Y-6952122D1*
X-4199319Y-6949966D1*
X-4196600Y-6948149D1*
X-4193667Y-6946703D1*
X-4190570Y-6945652D1*
X-4187363Y-6945014D1*
X-4184100Y-6944800D1*
X-4180837Y-6945014D1*
X-4177630Y-6945652D1*
X-4174533Y-6946703D1*
X-4171600Y-6948149D1*
X-4168881Y-6949966D1*
X-4166422Y-6952122D1*
X-4164266Y-6954581D1*
X-4162449Y-6957300D1*
X-4161003Y-6960233D1*
X-4159952Y-6963330D1*
X-4159314Y-6966537D1*
X-4159100Y-6969800D1*
D1*
G37*
X-3115700Y-6307900D2*
D30*
Y-6341900D1*
X-2305700D1*
Y-6307900D1*
X-3115700Y-5865900D2*
Y-5831900D1*
X-2305700D1*
Y-5865900D1*
G36*
X-2193700Y-6086900D2*
X-2193914Y-6090163D1*
X-2194552Y-6093370D1*
X-2195603Y-6096467D1*
X-2197049Y-6099400D1*
X-2198866Y-6102119D1*
X-2201022Y-6104578D1*
X-2203481Y-6106734D1*
X-2206200Y-6108551D1*
X-2209133Y-6109997D1*
X-2212230Y-6111048D1*
X-2215437Y-6111686D1*
X-2218700Y-6111900D1*
X-2221963Y-6111686D1*
X-2225170Y-6111048D1*
X-2228267Y-6109997D1*
X-2231200Y-6108551D1*
X-2233919Y-6106734D1*
X-2236378Y-6104578D1*
X-2238534Y-6102119D1*
X-2240351Y-6099400D1*
X-2241797Y-6096467D1*
X-2242848Y-6093370D1*
X-2243486Y-6090163D1*
X-2243700Y-6086900D1*
D1*
X-2243486Y-6083637D1*
X-2242848Y-6080430D1*
X-2241797Y-6077333D1*
X-2240351Y-6074400D1*
X-2238534Y-6071681D1*
X-2236378Y-6069222D1*
X-2233919Y-6067066D1*
X-2231200Y-6065249D1*
X-2228267Y-6063803D1*
X-2225170Y-6062752D1*
X-2221963Y-6062114D1*
X-2218700Y-6061900D1*
X-2215437Y-6062114D1*
X-2212230Y-6062752D1*
X-2209133Y-6063803D1*
X-2206200Y-6065249D1*
X-2203481Y-6067066D1*
X-2201022Y-6069222D1*
X-2198866Y-6071681D1*
X-2197049Y-6074400D1*
X-2195603Y-6077333D1*
X-2194552Y-6080430D1*
X-2193914Y-6083637D1*
X-2193700Y-6086900D1*
D1*
G37*
X-586300Y-6749800D2*
D30*
Y-6715800D1*
X-1396300D1*
Y-6749800D1*
X-586300Y-7191800D2*
Y-7225800D1*
X-1396300D1*
Y-7191800D1*
G36*
X-1508300Y-6970800D2*
X-1508086Y-6967537D1*
X-1507448Y-6964330D1*
X-1506397Y-6961233D1*
X-1504951Y-6958300D1*
X-1503134Y-6955581D1*
X-1500978Y-6953122D1*
X-1498519Y-6950966D1*
X-1495800Y-6949149D1*
X-1492867Y-6947703D1*
X-1489770Y-6946652D1*
X-1486563Y-6946014D1*
X-1483300Y-6945800D1*
X-1480037Y-6946014D1*
X-1476830Y-6946652D1*
X-1473733Y-6947703D1*
X-1470800Y-6949149D1*
X-1468081Y-6950966D1*
X-1465622Y-6953122D1*
X-1463466Y-6955581D1*
X-1461649Y-6958300D1*
X-1460203Y-6961233D1*
X-1459152Y-6964330D1*
X-1458514Y-6967537D1*
X-1458300Y-6970800D1*
D1*
X-1458514Y-6974063D1*
X-1459152Y-6977270D1*
X-1460203Y-6980367D1*
X-1461649Y-6983300D1*
X-1463466Y-6986019D1*
X-1465622Y-6988478D1*
X-1468081Y-6990634D1*
X-1470800Y-6992451D1*
X-1473733Y-6993897D1*
X-1476830Y-6994948D1*
X-1480037Y-6995586D1*
X-1483300Y-6995800D1*
X-1486563Y-6995586D1*
X-1489770Y-6994948D1*
X-1492867Y-6993897D1*
X-1495800Y-6992451D1*
X-1498519Y-6990634D1*
X-1500978Y-6988478D1*
X-1503134Y-6986019D1*
X-1504951Y-6983300D1*
X-1506397Y-6980367D1*
X-1507448Y-6977270D1*
X-1508086Y-6974063D1*
X-1508300Y-6970800D1*
D1*
G37*
X-1749900Y-2932300D2*
D30*
Y-2966300D1*
X-939900D1*
Y-2932300D1*
X-1749900Y-2490300D2*
Y-2456300D1*
X-939900D1*
Y-2490300D1*
G36*
X-827900Y-2711300D2*
X-828114Y-2714563D1*
X-828752Y-2717770D1*
X-829803Y-2720867D1*
X-831249Y-2723800D1*
X-833066Y-2726519D1*
X-835222Y-2728978D1*
X-837681Y-2731134D1*
X-840400Y-2732951D1*
X-843333Y-2734397D1*
X-846430Y-2735448D1*
X-849637Y-2736086D1*
X-852900Y-2736300D1*
X-856163Y-2736086D1*
X-859370Y-2735448D1*
X-862467Y-2734397D1*
X-865400Y-2732951D1*
X-868119Y-2731134D1*
X-870578Y-2728978D1*
X-872734Y-2726519D1*
X-874551Y-2723800D1*
X-875997Y-2720867D1*
X-877048Y-2717770D1*
X-877686Y-2714563D1*
X-877900Y-2711300D1*
D1*
X-877686Y-2708037D1*
X-877048Y-2704830D1*
X-875997Y-2701733D1*
X-874551Y-2698800D1*
X-872734Y-2696081D1*
X-870578Y-2693622D1*
X-868119Y-2691466D1*
X-865400Y-2689649D1*
X-862467Y-2688203D1*
X-859370Y-2687152D1*
X-856163Y-2686514D1*
X-852900Y-2686300D1*
X-849637Y-2686514D1*
X-846430Y-2687152D1*
X-843333Y-2688203D1*
X-840400Y-2689649D1*
X-837681Y-2691466D1*
X-835222Y-2693622D1*
X-833066Y-2696081D1*
X-831249Y-2698800D1*
X-829803Y-2701733D1*
X-828752Y-2704830D1*
X-828114Y-2708037D1*
X-827900Y-2711300D1*
D1*
G37*
X-3721500Y-1148900D2*
D30*
Y-1182900D1*
X-2911500D1*
Y-1148900D1*
X-3721500Y-706900D2*
Y-672900D1*
X-2911500D1*
Y-706900D1*
G36*
X-2799500Y-927900D2*
X-2799714Y-931163D1*
X-2800352Y-934370D1*
X-2801403Y-937467D1*
X-2802849Y-940400D1*
X-2804666Y-943119D1*
X-2806822Y-945578D1*
X-2809281Y-947734D1*
X-2812000Y-949551D1*
X-2814933Y-950997D1*
X-2818030Y-952048D1*
X-2821237Y-952686D1*
X-2824500Y-952900D1*
X-2827763Y-952686D1*
X-2830970Y-952048D1*
X-2834067Y-950997D1*
X-2837000Y-949551D1*
X-2839719Y-947734D1*
X-2842178Y-945578D1*
X-2844334Y-943119D1*
X-2846151Y-940400D1*
X-2847597Y-937467D1*
X-2848648Y-934370D1*
X-2849286Y-931163D1*
X-2849500Y-927900D1*
D1*
X-2849286Y-924637D1*
X-2848648Y-921430D1*
X-2847597Y-918333D1*
X-2846151Y-915400D1*
X-2844334Y-912681D1*
X-2842178Y-910222D1*
X-2839719Y-908066D1*
X-2837000Y-906249D1*
X-2834067Y-904803D1*
X-2830970Y-903752D1*
X-2827763Y-903114D1*
X-2824500Y-902900D1*
X-2821237Y-903114D1*
X-2818030Y-903752D1*
X-2814933Y-904803D1*
X-2812000Y-906249D1*
X-2809281Y-908066D1*
X-2806822Y-910222D1*
X-2804666Y-912681D1*
X-2802849Y-915400D1*
X-2801403Y-918333D1*
X-2800352Y-921430D1*
X-2799714Y-924637D1*
X-2799500Y-927900D1*
D1*
G37*
X-5081100Y-8080800D2*
D30*
Y-8114800D1*
X-4271100D1*
Y-8080800D1*
X-5081100Y-7638800D2*
Y-7604800D1*
X-4271100D1*
Y-7638800D1*
G36*
X-4159100Y-7859800D2*
X-4159314Y-7863063D1*
X-4159952Y-7866270D1*
X-4161003Y-7869367D1*
X-4162449Y-7872300D1*
X-4164266Y-7875019D1*
X-4166422Y-7877478D1*
X-4168881Y-7879634D1*
X-4171600Y-7881451D1*
X-4174533Y-7882897D1*
X-4177630Y-7883948D1*
X-4180837Y-7884586D1*
X-4184100Y-7884800D1*
X-4187363Y-7884586D1*
X-4190570Y-7883948D1*
X-4193667Y-7882897D1*
X-4196600Y-7881451D1*
X-4199319Y-7879634D1*
X-4201778Y-7877478D1*
X-4203934Y-7875019D1*
X-4205751Y-7872300D1*
X-4207197Y-7869367D1*
X-4208248Y-7866270D1*
X-4208886Y-7863063D1*
X-4209100Y-7859800D1*
D1*
X-4208886Y-7856537D1*
X-4208248Y-7853330D1*
X-4207197Y-7850233D1*
X-4205751Y-7847300D1*
X-4203934Y-7844581D1*
X-4201778Y-7842122D1*
X-4199319Y-7839966D1*
X-4196600Y-7838149D1*
X-4193667Y-7836703D1*
X-4190570Y-7835652D1*
X-4187363Y-7835014D1*
X-4184100Y-7834800D1*
X-4180837Y-7835014D1*
X-4177630Y-7835652D1*
X-4174533Y-7836703D1*
X-4171600Y-7838149D1*
X-4168881Y-7839966D1*
X-4166422Y-7842122D1*
X-4164266Y-7844581D1*
X-4162449Y-7847300D1*
X-4161003Y-7850233D1*
X-4159952Y-7853330D1*
X-4159314Y-7856537D1*
X-4159100Y-7859800D1*
D1*
G37*
X-3115700Y-5417900D2*
D30*
Y-5451900D1*
X-2305700D1*
Y-5417900D1*
X-3115700Y-4975900D2*
Y-4941900D1*
X-2305700D1*
Y-4975900D1*
G36*
X-2193700Y-5196900D2*
X-2193914Y-5200163D1*
X-2194552Y-5203370D1*
X-2195603Y-5206467D1*
X-2197049Y-5209400D1*
X-2198866Y-5212119D1*
X-2201022Y-5214578D1*
X-2203481Y-5216734D1*
X-2206200Y-5218551D1*
X-2209133Y-5219997D1*
X-2212230Y-5221048D1*
X-2215437Y-5221686D1*
X-2218700Y-5221900D1*
X-2221963Y-5221686D1*
X-2225170Y-5221048D1*
X-2228267Y-5219997D1*
X-2231200Y-5218551D1*
X-2233919Y-5216734D1*
X-2236378Y-5214578D1*
X-2238534Y-5212119D1*
X-2240351Y-5209400D1*
X-2241797Y-5206467D1*
X-2242848Y-5203370D1*
X-2243486Y-5200163D1*
X-2243700Y-5196900D1*
D1*
X-2243486Y-5193637D1*
X-2242848Y-5190430D1*
X-2241797Y-5187333D1*
X-2240351Y-5184400D1*
X-2238534Y-5181681D1*
X-2236378Y-5179222D1*
X-2233919Y-5177066D1*
X-2231200Y-5175249D1*
X-2228267Y-5173803D1*
X-2225170Y-5172752D1*
X-2221963Y-5172114D1*
X-2218700Y-5171900D1*
X-2215437Y-5172114D1*
X-2212230Y-5172752D1*
X-2209133Y-5173803D1*
X-2206200Y-5175249D1*
X-2203481Y-5177066D1*
X-2201022Y-5179222D1*
X-2198866Y-5181681D1*
X-2197049Y-5184400D1*
X-2195603Y-5187333D1*
X-2194552Y-5190430D1*
X-2193914Y-5193637D1*
X-2193700Y-5196900D1*
D1*
G37*
X-586300Y-7639800D2*
D30*
Y-7605800D1*
X-1396300D1*
Y-7639800D1*
X-586300Y-8081800D2*
Y-8115800D1*
X-1396300D1*
Y-8081800D1*
G36*
X-1508300Y-7860800D2*
X-1508086Y-7857537D1*
X-1507448Y-7854330D1*
X-1506397Y-7851233D1*
X-1504951Y-7848300D1*
X-1503134Y-7845581D1*
X-1500978Y-7843122D1*
X-1498519Y-7840966D1*
X-1495800Y-7839149D1*
X-1492867Y-7837703D1*
X-1489770Y-7836652D1*
X-1486563Y-7836014D1*
X-1483300Y-7835800D1*
X-1480037Y-7836014D1*
X-1476830Y-7836652D1*
X-1473733Y-7837703D1*
X-1470800Y-7839149D1*
X-1468081Y-7840966D1*
X-1465622Y-7843122D1*
X-1463466Y-7845581D1*
X-1461649Y-7848300D1*
X-1460203Y-7851233D1*
X-1459152Y-7854330D1*
X-1458514Y-7857537D1*
X-1458300Y-7860800D1*
D1*
X-1458514Y-7864063D1*
X-1459152Y-7867270D1*
X-1460203Y-7870367D1*
X-1461649Y-7873300D1*
X-1463466Y-7876019D1*
X-1465622Y-7878478D1*
X-1468081Y-7880634D1*
X-1470800Y-7882451D1*
X-1473733Y-7883897D1*
X-1476830Y-7884948D1*
X-1480037Y-7885586D1*
X-1483300Y-7885800D1*
X-1486563Y-7885586D1*
X-1489770Y-7884948D1*
X-1492867Y-7883897D1*
X-1495800Y-7882451D1*
X-1498519Y-7880634D1*
X-1500978Y-7878478D1*
X-1503134Y-7876019D1*
X-1504951Y-7873300D1*
X-1506397Y-7870367D1*
X-1507448Y-7867270D1*
X-1508086Y-7864063D1*
X-1508300Y-7860800D1*
D1*
G37*
X-1749900Y-3822300D2*
D30*
Y-3856300D1*
X-939900D1*
Y-3822300D1*
X-1749900Y-3380300D2*
Y-3346300D1*
X-939900D1*
Y-3380300D1*
G36*
X-827900Y-3601300D2*
X-828114Y-3604563D1*
X-828752Y-3607770D1*
X-829803Y-3610867D1*
X-831249Y-3613800D1*
X-833066Y-3616519D1*
X-835222Y-3618978D1*
X-837681Y-3621134D1*
X-840400Y-3622951D1*
X-843333Y-3624397D1*
X-846430Y-3625448D1*
X-849637Y-3626086D1*
X-852900Y-3626300D1*
X-856163Y-3626086D1*
X-859370Y-3625448D1*
X-862467Y-3624397D1*
X-865400Y-3622951D1*
X-868119Y-3621134D1*
X-870578Y-3618978D1*
X-872734Y-3616519D1*
X-874551Y-3613800D1*
X-875997Y-3610867D1*
X-877048Y-3607770D1*
X-877686Y-3604563D1*
X-877900Y-3601300D1*
D1*
X-877686Y-3598037D1*
X-877048Y-3594830D1*
X-875997Y-3591733D1*
X-874551Y-3588800D1*
X-872734Y-3586081D1*
X-870578Y-3583622D1*
X-868119Y-3581466D1*
X-865400Y-3579649D1*
X-862467Y-3578203D1*
X-859370Y-3577152D1*
X-856163Y-3576514D1*
X-852900Y-3576300D1*
X-849637Y-3576514D1*
X-846430Y-3577152D1*
X-843333Y-3578203D1*
X-840400Y-3579649D1*
X-837681Y-3581466D1*
X-835222Y-3583622D1*
X-833066Y-3586081D1*
X-831249Y-3588800D1*
X-829803Y-3591733D1*
X-828752Y-3594830D1*
X-828114Y-3598037D1*
X-827900Y-3601300D1*
D1*
G37*
X-2911500Y-2486900D2*
D30*
Y-2452900D1*
X-3721500D1*
Y-2486900D1*
X-2911500Y-2928900D2*
Y-2962900D1*
X-3721500D1*
Y-2928900D1*
G36*
X-3833500Y-2707900D2*
X-3833286Y-2704637D1*
X-3832648Y-2701430D1*
X-3831597Y-2698333D1*
X-3830151Y-2695400D1*
X-3828334Y-2692681D1*
X-3826178Y-2690222D1*
X-3823719Y-2688066D1*
X-3821000Y-2686249D1*
X-3818067Y-2684803D1*
X-3814970Y-2683752D1*
X-3811763Y-2683114D1*
X-3808500Y-2682900D1*
X-3805237Y-2683114D1*
X-3802030Y-2683752D1*
X-3798933Y-2684803D1*
X-3796000Y-2686249D1*
X-3793281Y-2688066D1*
X-3790822Y-2690222D1*
X-3788666Y-2692681D1*
X-3786849Y-2695400D1*
X-3785403Y-2698333D1*
X-3784352Y-2701430D1*
X-3783714Y-2704637D1*
X-3783500Y-2707900D1*
D1*
X-3783714Y-2711163D1*
X-3784352Y-2714370D1*
X-3785403Y-2717467D1*
X-3786849Y-2720400D1*
X-3788666Y-2723119D1*
X-3790822Y-2725578D1*
X-3793281Y-2727734D1*
X-3796000Y-2729551D1*
X-3798933Y-2730997D1*
X-3802030Y-2732048D1*
X-3805237Y-2732686D1*
X-3808500Y-2732900D1*
X-3811763Y-2732686D1*
X-3814970Y-2732048D1*
X-3818067Y-2730997D1*
X-3821000Y-2729551D1*
X-3823719Y-2727734D1*
X-3826178Y-2725578D1*
X-3828334Y-2723119D1*
X-3830151Y-2720400D1*
X-3831597Y-2717467D1*
X-3832648Y-2714370D1*
X-3833286Y-2711163D1*
X-3833500Y-2707900D1*
D1*
G37*
X-4271100Y-5858800D2*
D30*
Y-5824800D1*
X-5081100D1*
Y-5858800D1*
X-4271100Y-6300800D2*
Y-6334800D1*
X-5081100D1*
Y-6300800D1*
G36*
X-5193100Y-6079800D2*
X-5192886Y-6076537D1*
X-5192248Y-6073330D1*
X-5191197Y-6070233D1*
X-5189751Y-6067300D1*
X-5187934Y-6064581D1*
X-5185778Y-6062122D1*
X-5183319Y-6059966D1*
X-5180600Y-6058149D1*
X-5177667Y-6056703D1*
X-5174570Y-6055652D1*
X-5171363Y-6055014D1*
X-5168100Y-6054800D1*
X-5164837Y-6055014D1*
X-5161630Y-6055652D1*
X-5158533Y-6056703D1*
X-5155600Y-6058149D1*
X-5152881Y-6059966D1*
X-5150422Y-6062122D1*
X-5148266Y-6064581D1*
X-5146449Y-6067300D1*
X-5145003Y-6070233D1*
X-5143952Y-6073330D1*
X-5143314Y-6076537D1*
X-5143100Y-6079800D1*
D1*
X-5143314Y-6083063D1*
X-5143952Y-6086270D1*
X-5145003Y-6089367D1*
X-5146449Y-6092300D1*
X-5148266Y-6095019D1*
X-5150422Y-6097478D1*
X-5152881Y-6099634D1*
X-5155600Y-6101451D1*
X-5158533Y-6102897D1*
X-5161630Y-6103948D1*
X-5164837Y-6104586D1*
X-5168100Y-6104800D1*
X-5171363Y-6104586D1*
X-5174570Y-6103948D1*
X-5177667Y-6102897D1*
X-5180600Y-6101451D1*
X-5183319Y-6099634D1*
X-5185778Y-6097478D1*
X-5187934Y-6095019D1*
X-5189751Y-6092300D1*
X-5191197Y-6089367D1*
X-5192248Y-6086270D1*
X-5192886Y-6083063D1*
X-5193100Y-6079800D1*
D1*
G37*
X-2305700Y-6755900D2*
D30*
Y-6721900D1*
X-3115700D1*
Y-6755900D1*
X-2305700Y-7197900D2*
Y-7231900D1*
X-3115700D1*
Y-7197900D1*
G36*
X-3227700Y-6976900D2*
X-3227486Y-6973637D1*
X-3226848Y-6970430D1*
X-3225797Y-6967333D1*
X-3224351Y-6964400D1*
X-3222534Y-6961681D1*
X-3220378Y-6959222D1*
X-3217919Y-6957066D1*
X-3215200Y-6955249D1*
X-3212267Y-6953803D1*
X-3209170Y-6952752D1*
X-3205963Y-6952114D1*
X-3202700Y-6951900D1*
X-3199437Y-6952114D1*
X-3196230Y-6952752D1*
X-3193133Y-6953803D1*
X-3190200Y-6955249D1*
X-3187481Y-6957066D1*
X-3185022Y-6959222D1*
X-3182866Y-6961681D1*
X-3181049Y-6964400D1*
X-3179603Y-6967333D1*
X-3178552Y-6970430D1*
X-3177914Y-6973637D1*
X-3177700Y-6976900D1*
D1*
X-3177914Y-6980163D1*
X-3178552Y-6983370D1*
X-3179603Y-6986467D1*
X-3181049Y-6989400D1*
X-3182866Y-6992119D1*
X-3185022Y-6994578D1*
X-3187481Y-6996734D1*
X-3190200Y-6998551D1*
X-3193133Y-6999997D1*
X-3196230Y-7001048D1*
X-3199437Y-7001686D1*
X-3202700Y-7001900D1*
X-3205963Y-7001686D1*
X-3209170Y-7001048D1*
X-3212267Y-6999997D1*
X-3215200Y-6998551D1*
X-3217919Y-6996734D1*
X-3220378Y-6994578D1*
X-3222534Y-6992119D1*
X-3224351Y-6989400D1*
X-3225797Y-6986467D1*
X-3226848Y-6983370D1*
X-3227486Y-6980163D1*
X-3227700Y-6976900D1*
D1*
G37*
X-1396300Y-6301800D2*
D30*
Y-6335800D1*
X-586300D1*
Y-6301800D1*
X-1396300Y-5859800D2*
Y-5825800D1*
X-586300D1*
Y-5859800D1*
G36*
X-474300Y-6080800D2*
X-474514Y-6084063D1*
X-475152Y-6087270D1*
X-476203Y-6090367D1*
X-477649Y-6093300D1*
X-479466Y-6096019D1*
X-481622Y-6098478D1*
X-484081Y-6100634D1*
X-486800Y-6102451D1*
X-489733Y-6103897D1*
X-492830Y-6104948D1*
X-496037Y-6105586D1*
X-499300Y-6105800D1*
X-502563Y-6105586D1*
X-505770Y-6104948D1*
X-508867Y-6103897D1*
X-511800Y-6102451D1*
X-514519Y-6100634D1*
X-516978Y-6098478D1*
X-519134Y-6096019D1*
X-520951Y-6093300D1*
X-522397Y-6090367D1*
X-523448Y-6087270D1*
X-524086Y-6084063D1*
X-524300Y-6080800D1*
D1*
X-524086Y-6077537D1*
X-523448Y-6074330D1*
X-522397Y-6071233D1*
X-520951Y-6068300D1*
X-519134Y-6065581D1*
X-516978Y-6063122D1*
X-514519Y-6060966D1*
X-511800Y-6059149D1*
X-508867Y-6057703D1*
X-505770Y-6056652D1*
X-502563Y-6056014D1*
X-499300Y-6055800D1*
X-496037Y-6056014D1*
X-492830Y-6056652D1*
X-489733Y-6057703D1*
X-486800Y-6059149D1*
X-484081Y-6060966D1*
X-481622Y-6063122D1*
X-479466Y-6065581D1*
X-477649Y-6068300D1*
X-476203Y-6071233D1*
X-475152Y-6074330D1*
X-474514Y-6077537D1*
X-474300Y-6080800D1*
D1*
G37*
X-939900Y-1600300D2*
D30*
Y-1566300D1*
X-1749900D1*
Y-1600300D1*
X-939900Y-2042300D2*
Y-2076300D1*
X-1749900D1*
Y-2042300D1*
G36*
X-1861900Y-1821300D2*
X-1861686Y-1818037D1*
X-1861048Y-1814830D1*
X-1859997Y-1811733D1*
X-1858551Y-1808800D1*
X-1856734Y-1806081D1*
X-1854578Y-1803622D1*
X-1852119Y-1801466D1*
X-1849400Y-1799649D1*
X-1846467Y-1798203D1*
X-1843370Y-1797152D1*
X-1840163Y-1796514D1*
X-1836900Y-1796300D1*
X-1833637Y-1796514D1*
X-1830430Y-1797152D1*
X-1827333Y-1798203D1*
X-1824400Y-1799649D1*
X-1821681Y-1801466D1*
X-1819222Y-1803622D1*
X-1817066Y-1806081D1*
X-1815249Y-1808800D1*
X-1813803Y-1811733D1*
X-1812752Y-1814830D1*
X-1812114Y-1818037D1*
X-1811900Y-1821300D1*
D1*
X-1812114Y-1824563D1*
X-1812752Y-1827770D1*
X-1813803Y-1830867D1*
X-1815249Y-1833800D1*
X-1817066Y-1836519D1*
X-1819222Y-1838978D1*
X-1821681Y-1841134D1*
X-1824400Y-1842951D1*
X-1827333Y-1844397D1*
X-1830430Y-1845448D1*
X-1833637Y-1846086D1*
X-1836900Y-1846300D1*
X-1840163Y-1846086D1*
X-1843370Y-1845448D1*
X-1846467Y-1844397D1*
X-1849400Y-1842951D1*
X-1852119Y-1841134D1*
X-1854578Y-1838978D1*
X-1856734Y-1836519D1*
X-1858551Y-1833800D1*
X-1859997Y-1830867D1*
X-1861048Y-1827770D1*
X-1861686Y-1824563D1*
X-1861900Y-1821300D1*
D1*
G37*
X-5706150Y-6940350D2*
D14*
X-5556150D1*
Y-6630350D1*
X-5706150D1*
Y-6940350D1*
X-3706800Y-2340300D2*
Y-2190300D1*
X-4016800D1*
Y-2340300D1*
X-3706800D1*
X-5313150Y-6339800D2*
Y-6489800D1*
X-5003150D1*
Y-6339800D1*
X-5313150D1*
X-3281800Y-6622050D2*
Y-6472050D1*
X-3591800D1*
Y-6622050D1*
X-3281800D1*
X-334500Y-6597150D2*
Y-6447150D1*
X-644500D1*
Y-6597150D1*
X-334500D1*
X-1976900Y-2188200D2*
Y-2338200D1*
X-1666900D1*
Y-2188200D1*
X-1976900D1*
X-5494200Y-6940350D2*
X-5344200D1*
Y-6630350D1*
X-5494200D1*
Y-6940350D1*
X-5849742Y-6981795D2*
D50*
X-5852157Y-6976965D1*
X-5857042Y-6972080D1*
X-5861872Y-6969665D1*
X-5871586D1*
X-5876472Y-6972080D1*
X-5881301Y-6976965D1*
X-5883772Y-6981795D1*
X-5886186Y-6989095D1*
Y-7001280D1*
X-5883772Y-7008524D1*
X-5881301Y-7013409D1*
X-5876472Y-7018238D1*
X-5871586Y-7020709D1*
X-5861872D1*
X-5857042Y-7018238D1*
X-5852157Y-7013409D1*
X-5849742Y-7008524D1*
X-5831585Y-6981851D2*
Y-6979436D1*
X-5829171Y-6974551D1*
X-5826756Y-6972136D1*
X-5821871Y-6969722D1*
X-5812156D1*
X-5807327Y-6972136D1*
X-5804912Y-6974551D1*
X-5802442Y-6979436D1*
Y-6984265D1*
X-5804912Y-6989151D1*
X-5809742Y-6996395D1*
X-5834056Y-7020709D1*
X-5800027D1*
X-2749472Y-2113385D2*
X-2751887Y-2108555D1*
X-2756772Y-2103670D1*
X-2761601Y-2101255D1*
X-2771316D1*
X-2776201Y-2103670D1*
X-2781031Y-2108555D1*
X-2783501Y-2113385D1*
X-2785916Y-2120685D1*
Y-2132870D1*
X-2783501Y-2140114D1*
X-2781031Y-2144999D1*
X-2776201Y-2149828D1*
X-2771316Y-2152299D1*
X-2761601D1*
X-2756772Y-2149828D1*
X-2751887Y-2144999D1*
X-2749472Y-2140114D1*
X-2733786Y-2111026D2*
X-2728900Y-2108555D1*
X-2721600Y-2101312D1*
Y-2152299D1*
X-2705914Y-2160722D2*
X-2659756D1*
X-2644069Y-2111026D2*
X-2639184Y-2108555D1*
X-2631884Y-2101312D1*
Y-2152299D1*
X-4177094Y-6651781D2*
X-4179509Y-6646952D1*
X-4184394Y-6642067D1*
X-4189223Y-6639652D1*
X-4198938D1*
X-4203823Y-6642067D1*
X-4208652Y-6646952D1*
X-4211123Y-6651781D1*
X-4213538Y-6659081D1*
Y-6671267D1*
X-4211123Y-6678510D1*
X-4208652Y-6683396D1*
X-4203823Y-6688225D1*
X-4198938Y-6690696D1*
X-4189223D1*
X-4184394Y-6688225D1*
X-4179509Y-6683396D1*
X-4177094Y-6678510D1*
X-4161408Y-6649423D2*
X-4156522Y-6646952D1*
X-4149222Y-6639708D1*
Y-6690696D1*
X-4133536Y-6699119D2*
X-4087378D1*
X-4069221Y-6651837D2*
Y-6649423D1*
X-4066806Y-6644537D1*
X-4064391Y-6642123D1*
X-4059506Y-6639708D1*
X-4049791D1*
X-4044962Y-6642123D1*
X-4042548Y-6644537D1*
X-4040077Y-6649423D1*
Y-6654252D1*
X-4042548Y-6659137D1*
X-4047377Y-6666381D1*
X-4071691Y-6690696D1*
X-4037662D1*
X-2141694Y-6355081D2*
X-2144109Y-6350252D1*
X-2148994Y-6345367D1*
X-2153823Y-6342952D1*
X-2163538D1*
X-2168423Y-6345367D1*
X-2173252Y-6350252D1*
X-2175723Y-6355081D1*
X-2178138Y-6362381D1*
Y-6374567D1*
X-2175723Y-6381810D1*
X-2173252Y-6386696D1*
X-2168423Y-6391525D1*
X-2163538Y-6393996D1*
X-2153823D1*
X-2148994Y-6391525D1*
X-2144109Y-6386696D1*
X-2141694Y-6381810D1*
X-2126008Y-6352723D2*
X-2121122Y-6350252D1*
X-2113822Y-6343008D1*
Y-6393996D1*
X-2098136Y-6402419D2*
X-2051978D1*
X-2031406Y-6343008D2*
X-2004733D1*
X-2019277Y-6362437D1*
X-2011977D1*
X-2007148Y-6364852D1*
X-2004733Y-6367267D1*
X-2002262Y-6374567D1*
Y-6379396D1*
X-2004733Y-6386696D1*
X-2009562Y-6391581D1*
X-2016862Y-6393996D1*
X-2024162D1*
X-2031406Y-6391581D1*
X-2033821Y-6389110D1*
X-2036291Y-6384281D1*
X-1640501Y-6355081D2*
X-1642916Y-6350252D1*
X-1647801Y-6345367D1*
X-1652631Y-6342952D1*
X-1662345D1*
X-1667231Y-6345367D1*
X-1672060Y-6350252D1*
X-1674531Y-6355081D1*
X-1676945Y-6362381D1*
Y-6374567D1*
X-1674531Y-6381810D1*
X-1672060Y-6386696D1*
X-1667231Y-6391525D1*
X-1662345Y-6393996D1*
X-1652631D1*
X-1647801Y-6391525D1*
X-1642916Y-6386696D1*
X-1640501Y-6381810D1*
X-1624815Y-6352723D2*
X-1619930Y-6350252D1*
X-1612630Y-6343008D1*
Y-6393996D1*
X-1596943Y-6402419D2*
X-1550785D1*
X-1510784Y-6393996D2*
Y-6343008D1*
X-1535099Y-6376981D1*
X-1498655D1*
X-817794Y-2113385D2*
X-820209Y-2108555D1*
X-825094Y-2103670D1*
X-829923Y-2101255D1*
X-839638D1*
X-844523Y-2103670D1*
X-849352Y-2108555D1*
X-851823Y-2113385D1*
X-854238Y-2120685D1*
Y-2132870D1*
X-851823Y-2140114D1*
X-849352Y-2144999D1*
X-844523Y-2149828D1*
X-839638Y-2152299D1*
X-829923D1*
X-825094Y-2149828D1*
X-820209Y-2144999D1*
X-817794Y-2140114D1*
X-802108Y-2111026D2*
X-797222Y-2108555D1*
X-789922Y-2101312D1*
Y-2152299D1*
X-774236Y-2160722D2*
X-728078D1*
X-683248Y-2101312D2*
X-707506D1*
X-709921Y-2123155D1*
X-707506Y-2120741D1*
X-700206Y-2118270D1*
X-692962D1*
X-685662Y-2120741D1*
X-680777Y-2125570D1*
X-678362Y-2132870D1*
Y-2137699D1*
X-680777Y-2144999D1*
X-685662Y-2149885D1*
X-692962Y-2152299D1*
X-700206D1*
X-707506Y-2149885D1*
X-709921Y-2147414D1*
X-712391Y-2142585D1*
X-6398172Y-5665679D2*
Y-5716723D1*
X-6381158D1*
X-6373858Y-5714252D1*
X-6368972Y-5709423D1*
X-6366558Y-5704537D1*
X-6364143Y-5697293D1*
Y-5685108D1*
X-6366558Y-5677808D1*
X-6368972Y-5672979D1*
X-6373858Y-5668093D1*
X-6381158Y-5665679D1*
X-6398172D1*
X-6319313Y-5665735D2*
X-6343571D1*
X-6345986Y-5687579D1*
X-6343571Y-5685164D1*
X-6336271Y-5682693D1*
X-6329028D1*
X-6321728Y-5685164D1*
X-6316842Y-5689993D1*
X-6314428Y-5697293D1*
Y-5702123D1*
X-6316842Y-5709423D1*
X-6321728Y-5714308D1*
X-6329028Y-5716723D1*
X-6336271D1*
X-6343571Y-5714308D1*
X-6345986Y-5711837D1*
X-6348457Y-5707008D1*
X-5671730Y-6049815D2*
Y-6100859D1*
X-5654716D1*
X-5647416Y-6098388D1*
X-5642530Y-6093559D1*
X-5640116Y-6088674D1*
X-5637701Y-6081430D1*
Y-6069245D1*
X-5640116Y-6061945D1*
X-5642530Y-6057115D1*
X-5647416Y-6052230D1*
X-5654716Y-6049815D1*
X-5671730D1*
X-5592871Y-6057115D2*
X-5595286Y-6052286D1*
X-5602586Y-6049872D1*
X-5607415D1*
X-5614715Y-6052286D1*
X-5619600Y-6059586D1*
X-5622015Y-6071715D1*
Y-6083845D1*
X-5619600Y-6093559D1*
X-5614715Y-6098445D1*
X-5607415Y-6100859D1*
X-5605000D1*
X-5597756Y-6098445D1*
X-5592871Y-6093559D1*
X-5590456Y-6086259D1*
Y-6083845D1*
X-5592871Y-6076545D1*
X-5597756Y-6071715D1*
X-5605000Y-6069301D1*
X-5607415D1*
X-5614715Y-6071715D1*
X-5619600Y-6076545D1*
X-5622015Y-6083845D1*
X-3404809Y-3228505D2*
Y-3279549D1*
X-3387794D1*
X-3380494Y-3277078D1*
X-3375609Y-3272249D1*
X-3373194Y-3267364D1*
X-3370779Y-3260120D1*
Y-3247935D1*
X-3373194Y-3240635D1*
X-3375609Y-3235805D1*
X-3380494Y-3230920D1*
X-3387794Y-3228505D1*
X-3404809D1*
X-3355093Y-3238276D2*
X-3350208Y-3235805D1*
X-3342908Y-3228562D1*
Y-3279549D1*
X-3327221Y-3287972D2*
X-3281063D1*
X-3265377Y-3238276D2*
X-3260491Y-3235805D1*
X-3253191Y-3228562D1*
Y-3279549D1*
X-4775331Y-4820405D2*
Y-4871449D1*
X-4758316D1*
X-4751016Y-4868978D1*
X-4746131Y-4864149D1*
X-4743716Y-4859264D1*
X-4741301Y-4852020D1*
Y-4839835D1*
X-4743716Y-4832535D1*
X-4746131Y-4827705D1*
X-4751016Y-4822820D1*
X-4758316Y-4820405D1*
X-4775331D1*
X-4725615Y-4830176D2*
X-4720730Y-4827705D1*
X-4713430Y-4820462D1*
Y-4871449D1*
X-4697743Y-4879872D2*
X-4651585D1*
X-4633428Y-4832591D2*
Y-4830176D1*
X-4631013Y-4825291D1*
X-4628599Y-4822876D1*
X-4623713Y-4820462D1*
X-4613999D1*
X-4609169Y-4822876D1*
X-4606755Y-4825291D1*
X-4604284Y-4830176D1*
Y-4835005D1*
X-4606755Y-4839891D1*
X-4611584Y-4847135D1*
X-4635899Y-4871449D1*
X-4601869D1*
X-2809931Y-7497505D2*
Y-7548549D1*
X-2792916D1*
X-2785616Y-7546078D1*
X-2780731Y-7541249D1*
X-2778316Y-7536364D1*
X-2775901Y-7529120D1*
Y-7516935D1*
X-2778316Y-7509635D1*
X-2780731Y-7504805D1*
X-2785616Y-7499920D1*
X-2792916Y-7497505D1*
X-2809931D1*
X-2760215Y-7507276D2*
X-2755330Y-7504805D1*
X-2748030Y-7497562D1*
Y-7548549D1*
X-2732343Y-7556972D2*
X-2686185D1*
X-2665613Y-7497562D2*
X-2638940D1*
X-2653484Y-7516991D1*
X-2646184D1*
X-2641355Y-7519405D1*
X-2638940Y-7521820D1*
X-2636469Y-7529120D1*
Y-7533949D1*
X-2638940Y-7541249D1*
X-2643769Y-7546135D1*
X-2651069Y-7548549D1*
X-2658369D1*
X-2665613Y-7546135D1*
X-2668028Y-7543664D1*
X-2670499Y-7538835D1*
X-1091738Y-4820405D2*
Y-4871449D1*
X-1074723D1*
X-1067423Y-4868978D1*
X-1062538Y-4864149D1*
X-1060123Y-4859264D1*
X-1057709Y-4852020D1*
Y-4839835D1*
X-1060123Y-4832535D1*
X-1062538Y-4827705D1*
X-1067423Y-4822820D1*
X-1074723Y-4820405D1*
X-1091738D1*
X-1042022Y-4830176D2*
X-1037137Y-4827705D1*
X-1029837Y-4820462D1*
Y-4871449D1*
X-1014151Y-4879872D2*
X-967992D1*
X-927991Y-4871449D2*
Y-4820462D1*
X-952306Y-4854435D1*
X-915862D1*
X-1444131Y-561905D2*
Y-612949D1*
X-1427116D1*
X-1419816Y-610478D1*
X-1414931Y-605649D1*
X-1412516Y-600764D1*
X-1410101Y-593520D1*
Y-581335D1*
X-1412516Y-574035D1*
X-1414931Y-569205D1*
X-1419816Y-564320D1*
X-1427116Y-561905D1*
X-1444131D1*
X-1394415Y-571676D2*
X-1389530Y-569205D1*
X-1382230Y-561962D1*
Y-612949D1*
X-1366543Y-621372D2*
X-1320385D1*
X-1275555Y-561962D2*
X-1299813D1*
X-1302228Y-583805D1*
X-1299813Y-581391D1*
X-1292513Y-578920D1*
X-1285269D1*
X-1277969Y-581391D1*
X-1273084Y-586220D1*
X-1270669Y-593520D1*
Y-598349D1*
X-1273084Y-605649D1*
X-1277969Y-610535D1*
X-1285269Y-612949D1*
X-1292513D1*
X-1299813Y-610535D1*
X-1302228Y-608064D1*
X-1304699Y-603235D1*
X-3390731Y-1451905D2*
Y-1502949D1*
X-3373716D1*
X-3366416Y-1500478D1*
X-3361531Y-1495649D1*
X-3359116Y-1490764D1*
X-3356701Y-1483520D1*
Y-1471335D1*
X-3359116Y-1464035D1*
X-3361531Y-1459205D1*
X-3366416Y-1454320D1*
X-3373716Y-1451905D1*
X-3390731D1*
X-3338544Y-1464091D2*
Y-1461676D1*
X-3336130Y-1456791D1*
X-3333715Y-1454376D1*
X-3328830Y-1451962D1*
X-3319115D1*
X-3314286Y-1454376D1*
X-3311871Y-1456791D1*
X-3309400Y-1461676D1*
Y-1466505D1*
X-3311871Y-1471391D1*
X-3316700Y-1478635D1*
X-3341015Y-1502949D1*
X-3306986D1*
X-3291300Y-1511372D2*
X-3245141D1*
X-3229455Y-1461676D2*
X-3224569Y-1459205D1*
X-3217269Y-1451962D1*
Y-1502949D1*
X-4761252Y-6581029D2*
Y-6632073D1*
X-4744238D1*
X-4736938Y-6629602D1*
X-4732052Y-6624773D1*
X-4729638Y-6619887D1*
X-4727223Y-6612643D1*
Y-6600458D1*
X-4729638Y-6593158D1*
X-4732052Y-6588329D1*
X-4736938Y-6583443D1*
X-4744238Y-6581029D1*
X-4761252D1*
X-4709066Y-6593214D2*
Y-6590799D1*
X-4706652Y-6585914D1*
X-4704237Y-6583499D1*
X-4699352Y-6581085D1*
X-4689637D1*
X-4684808Y-6583499D1*
X-4682393Y-6585914D1*
X-4679922Y-6590799D1*
Y-6595629D1*
X-4682393Y-6600514D1*
X-4687222Y-6607758D1*
X-4711537Y-6632073D1*
X-4677508D1*
X-4661821Y-6640496D2*
X-4615663D1*
X-4597506Y-6593214D2*
Y-6590799D1*
X-4595091Y-6585914D1*
X-4592677Y-6583499D1*
X-4587791Y-6581085D1*
X-4578077D1*
X-4573248Y-6583499D1*
X-4570833Y-6585914D1*
X-4568362Y-6590799D1*
Y-6595629D1*
X-4570833Y-6600514D1*
X-4575662Y-6607758D1*
X-4599977Y-6632073D1*
X-4565948D1*
X-2906852Y-5710405D2*
Y-5761449D1*
X-2889838D1*
X-2882538Y-5758978D1*
X-2877652Y-5754149D1*
X-2875238Y-5749264D1*
X-2872823Y-5742020D1*
Y-5729835D1*
X-2875238Y-5722535D1*
X-2877652Y-5717705D1*
X-2882538Y-5712820D1*
X-2889838Y-5710405D1*
X-2906852D1*
X-2854666Y-5722591D2*
Y-5720176D1*
X-2852252Y-5715291D1*
X-2849837Y-5712876D1*
X-2844952Y-5710462D1*
X-2835237D1*
X-2830408Y-5712876D1*
X-2827993Y-5715291D1*
X-2825522Y-5720176D1*
Y-5725005D1*
X-2827993Y-5729891D1*
X-2832822Y-5737135D1*
X-2857137Y-5761449D1*
X-2823108D1*
X-2807421Y-5769872D2*
X-2761263D1*
X-2740691Y-5710462D2*
X-2714018D1*
X-2728562Y-5729891D1*
X-2721262D1*
X-2716433Y-5732305D1*
X-2714018Y-5734720D1*
X-2711548Y-5742020D1*
Y-5746849D1*
X-2714018Y-5754149D1*
X-2718848Y-5759035D1*
X-2726148Y-5761449D1*
X-2733448D1*
X-2740691Y-5759035D1*
X-2743106Y-5756564D1*
X-2745577Y-5751735D1*
X-1090160Y-6595505D2*
Y-6646549D1*
X-1073145D1*
X-1065845Y-6644078D1*
X-1060960Y-6639249D1*
X-1058545Y-6634364D1*
X-1056131Y-6627120D1*
Y-6614935D1*
X-1058545Y-6607635D1*
X-1060960Y-6602805D1*
X-1065845Y-6597920D1*
X-1073145Y-6595505D1*
X-1090160D1*
X-1037974Y-6607691D2*
Y-6605276D1*
X-1035559Y-6600391D1*
X-1033144Y-6597976D1*
X-1028259Y-6595562D1*
X-1018544D1*
X-1013715Y-6597976D1*
X-1011300Y-6600391D1*
X-1008830Y-6605276D1*
Y-6610105D1*
X-1011300Y-6614991D1*
X-1016130Y-6622235D1*
X-1040444Y-6646549D1*
X-1006415D1*
X-990729Y-6654972D2*
X-944570D1*
X-904569Y-6646549D2*
Y-6595562D1*
X-928884Y-6629535D1*
X-892440D1*
X-1430052Y-2338505D2*
Y-2389549D1*
X-1413038D1*
X-1405738Y-2387078D1*
X-1400852Y-2382249D1*
X-1398438Y-2377364D1*
X-1396023Y-2370120D1*
Y-2357935D1*
X-1398438Y-2350635D1*
X-1400852Y-2345805D1*
X-1405738Y-2340920D1*
X-1413038Y-2338505D1*
X-1430052D1*
X-1377866Y-2350691D2*
Y-2348276D1*
X-1375452Y-2343391D1*
X-1373037Y-2340976D1*
X-1368152Y-2338562D1*
X-1358437D1*
X-1353608Y-2340976D1*
X-1351193Y-2343391D1*
X-1348722Y-2348276D1*
Y-2353105D1*
X-1351193Y-2357991D1*
X-1356022Y-2365235D1*
X-1380337Y-2389549D1*
X-1346308D1*
X-1330621Y-2397972D2*
X-1284463D1*
X-1239633Y-2338562D2*
X-1263891D1*
X-1266306Y-2360405D1*
X-1263891Y-2357991D1*
X-1256591Y-2355520D1*
X-1249348D1*
X-1242048Y-2357991D1*
X-1237162Y-2362820D1*
X-1234748Y-2370120D1*
Y-2374949D1*
X-1237162Y-2382249D1*
X-1242048Y-2387135D1*
X-1249348Y-2389549D1*
X-1256591D1*
X-1263891Y-2387135D1*
X-1266306Y-2384664D1*
X-1268777Y-2379835D1*
X-3390731Y-561905D2*
Y-612949D1*
X-3373716D1*
X-3366416Y-610478D1*
X-3361531Y-605649D1*
X-3359116Y-600764D1*
X-3356701Y-593520D1*
Y-581335D1*
X-3359116Y-574035D1*
X-3361531Y-569205D1*
X-3366416Y-564320D1*
X-3373716Y-561905D1*
X-3390731D1*
X-3336130Y-561962D2*
X-3309457D1*
X-3324000Y-581391D1*
X-3316700D1*
X-3311871Y-583805D1*
X-3309457Y-586220D1*
X-3306986Y-593520D1*
Y-598349D1*
X-3309457Y-605649D1*
X-3314286Y-610535D1*
X-3321586Y-612949D1*
X-3328886D1*
X-3336130Y-610535D1*
X-3338544Y-608064D1*
X-3341015Y-603235D1*
X-3291300Y-621372D2*
X-3245141D1*
X-3229455Y-571676D2*
X-3224569Y-569205D1*
X-3217269Y-561962D1*
Y-612949D1*
X-4761252Y-7497505D2*
Y-7548549D1*
X-4744238D1*
X-4736938Y-7546078D1*
X-4732052Y-7541249D1*
X-4729638Y-7536364D1*
X-4727223Y-7529120D1*
Y-7516935D1*
X-4729638Y-7509635D1*
X-4732052Y-7504805D1*
X-4736938Y-7499920D1*
X-4744238Y-7497505D1*
X-4761252D1*
X-4706652Y-7497562D2*
X-4679979D1*
X-4694522Y-7516991D1*
X-4687222D1*
X-4682393Y-7519405D1*
X-4679979Y-7521820D1*
X-4677508Y-7529120D1*
Y-7533949D1*
X-4679979Y-7541249D1*
X-4684808Y-7546135D1*
X-4692108Y-7548549D1*
X-4699408D1*
X-4706652Y-7546135D1*
X-4709066Y-7543664D1*
X-4711537Y-7538835D1*
X-4661821Y-7556972D2*
X-4615663D1*
X-4597506Y-7509691D2*
Y-7507276D1*
X-4595091Y-7502391D1*
X-4592677Y-7499976D1*
X-4587791Y-7497562D1*
X-4578077D1*
X-4573248Y-7499976D1*
X-4570833Y-7502391D1*
X-4568362Y-7507276D1*
Y-7512105D1*
X-4570833Y-7516991D1*
X-4575662Y-7524235D1*
X-4599977Y-7548549D1*
X-4565948D1*
X-2820852Y-4820405D2*
Y-4871449D1*
X-2803838D1*
X-2796538Y-4868978D1*
X-2791652Y-4864149D1*
X-2789238Y-4859264D1*
X-2786823Y-4852020D1*
Y-4839835D1*
X-2789238Y-4832535D1*
X-2791652Y-4827705D1*
X-2796538Y-4822820D1*
X-2803838Y-4820405D1*
X-2820852D1*
X-2766252Y-4820462D2*
X-2739579D1*
X-2754122Y-4839891D1*
X-2746822D1*
X-2741993Y-4842305D1*
X-2739579Y-4844720D1*
X-2737108Y-4852020D1*
Y-4856849D1*
X-2739579Y-4864149D1*
X-2744408Y-4869035D1*
X-2751708Y-4871449D1*
X-2759008D1*
X-2766252Y-4869035D1*
X-2768666Y-4866564D1*
X-2771137Y-4861735D1*
X-2721421Y-4879872D2*
X-2675263D1*
X-2654691Y-4820462D2*
X-2628018D1*
X-2642562Y-4839891D1*
X-2635262D1*
X-2630433Y-4842305D1*
X-2628018Y-4844720D1*
X-2625548Y-4852020D1*
Y-4856849D1*
X-2628018Y-4864149D1*
X-2632848Y-4869035D1*
X-2640148Y-4871449D1*
X-2647448D1*
X-2654691Y-4869035D1*
X-2657106Y-4866564D1*
X-2659577Y-4861735D1*
X-1042760Y-7491405D2*
Y-7542449D1*
X-1025745D1*
X-1018445Y-7539978D1*
X-1013560Y-7535149D1*
X-1011145Y-7530264D1*
X-1008731Y-7523020D1*
Y-7510835D1*
X-1011145Y-7503535D1*
X-1013560Y-7498705D1*
X-1018445Y-7493820D1*
X-1025745Y-7491405D1*
X-1042760D1*
X-988159Y-7491462D2*
X-961486D1*
X-976030Y-7510891D1*
X-968730D1*
X-963900Y-7513305D1*
X-961486Y-7515720D1*
X-959015Y-7523020D1*
Y-7527849D1*
X-961486Y-7535149D1*
X-966315Y-7540035D1*
X-973615Y-7542449D1*
X-980915D1*
X-988159Y-7540035D1*
X-990574Y-7537564D1*
X-993044Y-7532735D1*
X-943329Y-7550872D2*
X-897170D1*
X-857169Y-7542449D2*
Y-7491462D1*
X-881484Y-7525435D1*
X-845040D1*
X-1430052Y-3228505D2*
Y-3279549D1*
X-1413038D1*
X-1405738Y-3277078D1*
X-1400852Y-3272249D1*
X-1398438Y-3267364D1*
X-1396023Y-3260120D1*
Y-3247935D1*
X-1398438Y-3240635D1*
X-1400852Y-3235805D1*
X-1405738Y-3230920D1*
X-1413038Y-3228505D1*
X-1430052D1*
X-1375452Y-3228562D2*
X-1348779D1*
X-1363322Y-3247991D1*
X-1356022D1*
X-1351193Y-3250405D1*
X-1348779Y-3252820D1*
X-1346308Y-3260120D1*
Y-3264949D1*
X-1348779Y-3272249D1*
X-1353608Y-3277135D1*
X-1360908Y-3279549D1*
X-1368208D1*
X-1375452Y-3277135D1*
X-1377866Y-3274664D1*
X-1380337Y-3269835D1*
X-1330621Y-3287972D2*
X-1284463D1*
X-1239633Y-3228562D2*
X-1263891D1*
X-1266306Y-3250405D1*
X-1263891Y-3247991D1*
X-1256591Y-3245520D1*
X-1249348D1*
X-1242048Y-3247991D1*
X-1237162Y-3252820D1*
X-1234748Y-3260120D1*
Y-3264949D1*
X-1237162Y-3272249D1*
X-1242048Y-3277135D1*
X-1249348Y-3279549D1*
X-1256591D1*
X-1263891Y-3277135D1*
X-1266306Y-3274664D1*
X-1268777Y-3269835D1*
X-3416938Y-2338505D2*
Y-2389549D1*
X-3399923D1*
X-3392623Y-2387078D1*
X-3387738Y-2382249D1*
X-3385323Y-2377364D1*
X-3382909Y-2370120D1*
Y-2357935D1*
X-3385323Y-2350635D1*
X-3387738Y-2345805D1*
X-3392623Y-2340920D1*
X-3399923Y-2338505D1*
X-3416938D1*
X-3342908Y-2389549D2*
Y-2338562D1*
X-3367222Y-2372535D1*
X-3330779D1*
X-3315092Y-2397972D2*
X-3268934D1*
X-3253248Y-2348276D2*
X-3248362Y-2345805D1*
X-3241062Y-2338562D1*
Y-2389549D1*
X-4787460Y-5710405D2*
Y-5761449D1*
X-4770445D1*
X-4763145Y-5758978D1*
X-4758260Y-5754149D1*
X-4755845Y-5749264D1*
X-4753431Y-5742020D1*
Y-5729835D1*
X-4755845Y-5722535D1*
X-4758260Y-5717705D1*
X-4763145Y-5712820D1*
X-4770445Y-5710405D1*
X-4787460D1*
X-4713430Y-5761449D2*
Y-5710462D1*
X-4737744Y-5744435D1*
X-4701300D1*
X-4685614Y-5769872D2*
X-4639456D1*
X-4621299Y-5722591D2*
Y-5720176D1*
X-4618884Y-5715291D1*
X-4616469Y-5712876D1*
X-4611584Y-5710462D1*
X-4601869D1*
X-4597040Y-5712876D1*
X-4594626Y-5715291D1*
X-4592155Y-5720176D1*
Y-5725005D1*
X-4594626Y-5729891D1*
X-4599455Y-5737135D1*
X-4623769Y-5761449D1*
X-4589740D1*
X-2822060Y-6607505D2*
Y-6658549D1*
X-2805045D1*
X-2797745Y-6656078D1*
X-2792860Y-6651249D1*
X-2790445Y-6646364D1*
X-2788031Y-6639120D1*
Y-6626935D1*
X-2790445Y-6619635D1*
X-2792860Y-6614805D1*
X-2797745Y-6609920D1*
X-2805045Y-6607505D1*
X-2822060D1*
X-2748030Y-6658549D2*
Y-6607562D1*
X-2772344Y-6641535D1*
X-2735900D1*
X-2720214Y-6666972D2*
X-2674056D1*
X-2653484Y-6607562D2*
X-2626811D1*
X-2641355Y-6626991D1*
X-2634055D1*
X-2629226Y-6629405D1*
X-2626811Y-6631820D1*
X-2624340Y-6639120D1*
Y-6643949D1*
X-2626811Y-6651249D1*
X-2631640Y-6656135D1*
X-2638940Y-6658549D1*
X-2646240D1*
X-2653484Y-6656135D1*
X-2655899Y-6653664D1*
X-2658369Y-6648835D1*
X-1091367Y-5710405D2*
Y-5761449D1*
X-1074352D1*
X-1067052Y-5758978D1*
X-1062167Y-5754149D1*
X-1059752Y-5749264D1*
X-1057338Y-5742020D1*
Y-5729835D1*
X-1059752Y-5722535D1*
X-1062167Y-5717705D1*
X-1067052Y-5712820D1*
X-1074352Y-5710405D1*
X-1091367D1*
X-1017337Y-5761449D2*
Y-5710462D1*
X-1041652Y-5744435D1*
X-1005208D1*
X-989521Y-5769872D2*
X-943363D1*
X-903362Y-5761449D2*
Y-5710462D1*
X-927677Y-5744435D1*
X-891233D1*
X-1456260Y-1451905D2*
Y-1502949D1*
X-1439245D1*
X-1431945Y-1500478D1*
X-1427060Y-1495649D1*
X-1424645Y-1490764D1*
X-1422231Y-1483520D1*
Y-1471335D1*
X-1424645Y-1464035D1*
X-1427060Y-1459205D1*
X-1431945Y-1454320D1*
X-1439245Y-1451905D1*
X-1456260D1*
X-1382230Y-1502949D2*
Y-1451962D1*
X-1406544Y-1485935D1*
X-1370100D1*
X-1354414Y-1511372D2*
X-1308256D1*
X-1263426Y-1451962D2*
X-1287684D1*
X-1290099Y-1473805D1*
X-1287684Y-1471391D1*
X-1280384Y-1468920D1*
X-1273140D1*
X-1265840Y-1471391D1*
X-1260955Y-1476220D1*
X-1258540Y-1483520D1*
Y-1488349D1*
X-1260955Y-1495649D1*
X-1265840Y-1500535D1*
X-1273140Y-1502949D1*
X-1280384D1*
X-1287684Y-1500535D1*
X-1290099Y-1498064D1*
X-1292569Y-1493235D1*
X-5662104Y-6990983D2*
X-5640260D1*
X-5632960Y-6988513D1*
X-5630489Y-6986098D1*
X-5628075Y-6981269D1*
Y-6976383D1*
X-5630489Y-6971554D1*
X-5632960Y-6969083D1*
X-5640260Y-6966669D1*
X-5662104D1*
Y-7017713D1*
X-5645089Y-6990983D2*
X-5628075Y-7017713D1*
X-5612388Y-6976439D2*
X-5607503Y-6973969D1*
X-5600203Y-6966725D1*
Y-7017713D1*
X-3906672Y-2138113D2*
X-3884829D1*
X-3877529Y-2135643D1*
X-3875058Y-2133228D1*
X-3872643Y-2128399D1*
Y-2123513D1*
X-3875058Y-2118684D1*
X-3877529Y-2116213D1*
X-3884829Y-2113799D1*
X-3906672D1*
Y-2164843D1*
X-3889658Y-2138113D2*
X-3872643Y-2164843D1*
X-3854486Y-2125984D2*
Y-2123569D1*
X-3852071Y-2118684D1*
X-3849657Y-2116269D1*
X-3844771Y-2113855D1*
X-3835057D1*
X-3830228Y-2116269D1*
X-3827813Y-2118684D1*
X-3825342Y-2123569D1*
Y-2128399D1*
X-3827813Y-2133284D1*
X-3832642Y-2140528D1*
X-3856957Y-2164843D1*
X-3822928D1*
X-5415422Y-6410533D2*
X-5393579D1*
X-5386279Y-6408063D1*
X-5383808Y-6405648D1*
X-5381393Y-6400819D1*
Y-6395933D1*
X-5383808Y-6391104D1*
X-5386279Y-6388633D1*
X-5393579Y-6386219D1*
X-5415422D1*
Y-6437263D1*
X-5398408Y-6410533D2*
X-5381393Y-6437263D1*
X-5360821Y-6386275D2*
X-5334148D1*
X-5348692Y-6405704D1*
X-5341392D1*
X-5336563Y-6408119D1*
X-5334148Y-6410533D1*
X-5331678Y-6417833D1*
Y-6422663D1*
X-5334148Y-6429963D1*
X-5338978Y-6434848D1*
X-5346278Y-6437263D1*
X-5353578D1*
X-5360821Y-6434848D1*
X-5363236Y-6432377D1*
X-5365707Y-6427548D1*
X-3482876Y-6421967D2*
X-3461032D1*
X-3453732Y-6419496D1*
X-3451262Y-6417081D1*
X-3448847Y-6412252D1*
Y-6407367D1*
X-3451262Y-6402537D1*
X-3453732Y-6400067D1*
X-3461032Y-6397652D1*
X-3482876D1*
Y-6448696D1*
X-3465862Y-6421967D2*
X-3448847Y-6448696D1*
X-3408846D2*
Y-6397708D1*
X-3433161Y-6431681D1*
X-3396717D1*
X-534369Y-6397067D2*
X-512525D1*
X-505225Y-6394596D1*
X-502754Y-6392181D1*
X-500340Y-6387352D1*
Y-6382467D1*
X-502754Y-6377637D1*
X-505225Y-6375167D1*
X-512525Y-6372752D1*
X-534369D1*
Y-6423796D1*
X-517354Y-6397067D2*
X-500340Y-6423796D1*
X-455510Y-6372808D2*
X-479768D1*
X-482183Y-6394652D1*
X-479768Y-6392237D1*
X-472468Y-6389767D1*
X-465224D1*
X-457924Y-6392237D1*
X-453039Y-6397067D1*
X-450624Y-6404367D1*
Y-6409196D1*
X-453039Y-6416496D1*
X-457924Y-6421381D1*
X-465224Y-6423796D1*
X-472468D1*
X-479768Y-6421381D1*
X-482183Y-6418910D1*
X-484654Y-6414081D1*
X-1859534Y-2138113D2*
X-1837690D1*
X-1830390Y-2135643D1*
X-1827919Y-2133228D1*
X-1825504Y-2128399D1*
Y-2123513D1*
X-1827919Y-2118684D1*
X-1830390Y-2116213D1*
X-1837690Y-2113799D1*
X-1859534D1*
Y-2164843D1*
X-1842519Y-2138113D2*
X-1825504Y-2164843D1*
X-1780674Y-2121099D2*
X-1783089Y-2116269D1*
X-1790389Y-2113855D1*
X-1795218D1*
X-1802518Y-2116269D1*
X-1807404Y-2123569D1*
X-1809818Y-2135699D1*
Y-2147828D1*
X-1807404Y-2157543D1*
X-1802518Y-2162428D1*
X-1795218Y-2164843D1*
X-1792804D1*
X-1785560Y-2162428D1*
X-1780674Y-2157543D1*
X-1778260Y-2150243D1*
Y-2147828D1*
X-1780674Y-2140528D1*
X-1785560Y-2135699D1*
X-1792804Y-2133284D1*
X-1795218D1*
X-1802518Y-2135699D1*
X-1807404Y-2140528D1*
X-1809818Y-2147828D1*
X-5461048Y-6990983D2*
X-5439204D1*
X-5431904Y-6988513D1*
X-5429433Y-6986098D1*
X-5427018Y-6981269D1*
Y-6976383D1*
X-5429433Y-6971554D1*
X-5431904Y-6969083D1*
X-5439204Y-6966669D1*
X-5461048D1*
Y-7017713D1*
X-5444033Y-6990983D2*
X-5427018Y-7017713D1*
X-5399203Y-6966725D2*
X-5406447Y-6969139D1*
X-5408918Y-6973969D1*
Y-6978854D1*
X-5406447Y-6983683D1*
X-5401618Y-6986154D1*
X-5391903Y-6988569D1*
X-5384603Y-6990983D1*
X-5379774Y-6995869D1*
X-5377359Y-7000698D1*
Y-7007998D1*
X-5379774Y-7012827D1*
X-5382188Y-7015298D1*
X-5389488Y-7017713D1*
X-5399203D1*
X-5406447Y-7015298D1*
X-5408918Y-7012827D1*
X-5411332Y-7007998D1*
Y-7000698D1*
X-5408918Y-6995869D1*
X-5404032Y-6990983D1*
X-5396788Y-6988569D1*
X-5387074Y-6986154D1*
X-5382188Y-6983683D1*
X-5379774Y-6978854D1*
Y-6973969D1*
X-5382188Y-6969139D1*
X-5389488Y-6966725D1*
X-5399203D1*
M02*
